<svg width="48" height="48" viewBox="0 0 48 48" fill="none" xmlns="http://www.w3.org/2000/svg">
<path fill-rule="evenodd" clip-rule="evenodd" d="M23.5869 5.02136H24.4129L25.2234 5.0338L25.6209 5.04474L26.0132 5.05885L26.7826 5.09668C37.6639 5.7312 42.2885 10.3558 42.9231 21.2372L42.9436 21.6193L42.975 22.3988L42.9859 22.7963L42.9984 23.6068V24.4328L42.9859 25.2433L42.975 25.6408L42.9436 26.4203C42.4779 35.8935 39.087 40.7297 31.3337 42.3659L30.9783 42.4381L30.3282 42.5562C29.8333 42.6396 29.3221 42.7113 28.7941 42.7717L28.2605 42.8283L27.5316 42.8922L27.1596 42.9192L26.4005 42.9635C25.8234 42.9918 25.2292 43.0093 24.6175 43.0163L23.9999 43.0198L23.5869 43.0183C23.1309 43.0148 22.6845 43.0056 22.2476 42.9905L21.5994 42.9635L20.8402 42.9192L20.4682 42.8922L19.7393 42.8283C19.2001 42.7754 18.6778 42.7113 18.172 42.6357L17.6717 42.5562L17.0216 42.4381C9.13574 40.8985 5.63407 36.1808 5.07944 26.8478L5.05626 26.4203L5.02484 25.6408L5.01391 25.2433L5.00146 24.4328V23.6068L5.01391 22.7963L5.02484 22.3988L5.05626 21.6193C5.5983 10.5921 10.104 5.84806 20.8402 5.12043L21.2173 5.09668L21.9866 5.05885L22.3789 5.04474L22.7764 5.0338L23.5869 5.02136ZM24.0989 31.5545C20.7305 31.5545 17.9999 34.2851 17.9999 37.6535C17.9999 37.9742 18.0247 38.2891 18.0724 38.5964C18.4626 38.6647 18.8673 38.724 19.2875 38.7749L19.7128 38.823L20.3159 38.8803L20.625 38.905L21.2584 38.9471L21.9124 38.9793L22.5871 39.002L23.2828 39.0154L23.9999 39.0198L24.717 39.0154L25.4128 39.002L26.0875 38.9793L26.7414 38.9471L27.3748 38.905L27.6839 38.8803L27.988 38.8529L28.5811 38.7905C29.1227 38.7276 29.6388 38.651 30.1303 38.5597C30.1751 38.2642 30.1979 37.9615 30.1979 37.6535C30.1979 34.2851 27.4673 31.5545 24.0989 31.5545ZM24.3611 9.02091H23.6387L22.9323 9.02979L22.0791 9.05378L21.2584 9.09256L20.625 9.13459L20.0119 9.1867L19.7128 9.21662L19.1295 9.28434L18.5658 9.36281L18.0215 9.45229L17.7564 9.50124L17.2405 9.60774C12.955 10.5578 10.6713 12.7621 9.65961 16.9504L9.58785 17.2604L9.48135 17.7763L9.43239 18.0414L9.34291 18.5857L9.26444 19.1494L9.19672 19.7327L9.1668 20.0318L9.1147 20.6449L9.0637 21.4399L9.02791 22.267L9.0099 22.9522L9.00102 23.6586V24.381L9.0099 25.0874L9.03388 25.9407L9.07266 26.7613L9.1147 27.3947L9.1668 28.0079L9.19672 28.3069L9.26444 28.8902L9.34291 29.4539L9.43239 29.9983L9.48135 30.2633L9.58785 30.7792C10.2863 33.9298 11.6627 35.9985 14.0069 37.2752C14.2063 31.8724 18.6484 27.5545 24.0989 27.5545C29.5131 27.5545 33.9322 31.815 34.1864 37.1662C36.3279 35.9314 37.6302 33.9976 38.3308 31.1281L38.412 30.7792L38.5185 30.2633L38.5674 29.9983L38.6569 29.4539L38.7354 28.8902L38.8031 28.3069L38.833 28.0079L38.8851 27.3947L38.9361 26.5998L38.9719 25.7726L38.993 24.9128L38.9999 24.0198L38.9899 22.9522L38.966 22.099L38.9272 21.2783L38.8851 20.6449L38.833 20.0318L38.8031 19.7327L38.7354 19.1494L38.6569 18.5857L38.5674 18.0414L38.5185 17.7763L38.412 17.2604C37.4619 12.9749 35.2576 10.6912 31.0693 9.67951L30.7593 9.60774L30.2434 9.50124L29.9784 9.45229L29.434 9.36281L28.8703 9.28434L28.287 9.21662L27.988 9.1867L27.3748 9.13459L26.5799 9.08359L25.7527 9.04781L25.0675 9.02979L24.3611 9.02091ZM23.9227 14.0891C27.0833 14.0891 29.6455 16.6513 29.6455 19.8119C29.6455 22.9725 27.0833 25.5347 23.9227 25.5347C20.7621 25.5347 18.1999 22.9725 18.1999 19.8119C18.1999 16.6513 20.7621 14.0891 23.9227 14.0891ZM23.9227 18.0891C22.9712 18.0891 22.1999 18.8604 22.1999 19.8119C22.1999 20.7634 22.9712 21.5347 23.9227 21.5347C24.8741 21.5347 25.6455 20.7634 25.6455 19.8119C25.6455 18.8604 24.8741 18.0891 23.9227 18.0891Z" fill="#333333"/>
</svg>
