<svg width="48" height="48" viewBox="0 0 48 48" fill="none" xmlns="http://www.w3.org/2000/svg">
<path fill-rule="evenodd" clip-rule="evenodd" d="M24 14.9999L24.6965 15.0057L25.5388 15.0296L25.7035 15.0366L26.3501 15.0722L26.6661 15.0946L27.2835 15.1487C27.5536 15.1755 27.8181 15.206 28.077 15.2403L28.4612 15.2946L29.022 15.3868C34.7979 16.4205 37.5472 19.6057 38.5422 25.8976L38.5956 26.2503L38.6793 26.8717L38.7172 27.1895L38.7855 27.8397L38.8159 28.1721L38.8695 28.8515L38.9135 29.5506L38.9482 30.2697L38.9621 30.6368L38.9834 31.386L38.9959 32.1557L39 32.9459L39.0004 35.3017C39.8265 34.8237 40.9011 34.9941 41.5343 35.7513C42.2429 36.5986 42.1304 37.86 41.283 38.5686C37.5596 41.6823 32.1118 43 24.0205 43C15.8954 43 10.4343 41.6711 6.71021 38.5285C5.86604 37.8162 5.75918 36.5543 6.47154 35.7102C7.10655 34.9577 8.17819 34.791 9.00139 35.2683L9.00143 32.576L9.00549 32.1795L9.02002 31.4021L9.04329 30.6454L9.07555 29.9092L9.09513 29.5488L9.15442 28.6698L9.22888 27.8221L9.26301 27.4917L9.33893 26.8457L9.38078 26.53L9.47241 25.9131L9.57483 25.3155C10.8311 18.4689 14.3339 15.4934 21.906 15.057L22.2817 15.0376L22.9537 15.0134L23.2973 15.0059L24 14.9999ZM24 18.9999L23.4046 19.004L22.8302 19.0166L22.2765 19.038L21.7432 19.0686L21.2298 19.1088L20.9805 19.1327L20.7361 19.1591L20.2616 19.2197L19.806 19.291L19.5852 19.3308L19.369 19.3735L18.9502 19.4675C16.036 20.1778 14.4757 21.7904 13.694 24.9232L13.623 25.2214L13.5248 25.6856L13.4794 25.9255L13.3955 26.4208L13.3209 26.9374L13.255 27.4757L13.2252 27.7531L13.1718 28.3245L13.1263 28.9185L13.0883 29.5354L13.0576 30.1757L13.0336 30.8398L13.0097 31.8812L13.0013 32.6062L12.9999 37.5447C15.6213 38.4935 19.0501 38.9647 23.5057 38.9981L24.0205 39C28.7051 39 32.2846 38.5343 35.0011 37.5591L35 32.9459L34.9935 31.8502L34.9815 31.1507L34.9511 30.147L34.9221 29.5076L34.9048 29.1966L34.8646 28.5921L34.8165 28.0104L34.7601 27.4511L34.6951 26.9138L34.6212 26.3981L34.5379 25.9037C33.8528 22.137 32.2908 20.2671 29.1152 19.4797L28.8468 19.4166L28.4182 19.3289L27.9713 19.2524L27.5057 19.1869L27.021 19.1318L26.517 19.0869L25.9933 19.0517L25.724 19.0377L25.17 19.0164L24.5955 19.004L24 18.9999ZM22.0822 22.3935C22.6625 23.2678 22.4652 24.4317 21.6549 25.0697L21.5219 25.1659C20.5938 25.782 19.9626 26.7484 19.7831 27.8586L19.7532 28.0825C19.6378 29.181 18.6536 29.9779 17.5551 29.8624C16.4566 29.747 15.6597 28.7629 15.7751 27.6643C16.0277 25.2616 17.3363 23.1432 19.3098 21.8332C20.2301 21.2224 21.4714 21.4732 22.0822 22.3935ZM37.3317 9.70184C38.0716 10.4418 38.1106 11.6173 37.4485 12.4031L37.3317 12.5303L35.2104 14.6516C34.4293 15.4326 33.163 15.4326 32.382 14.6516C31.642 13.9116 31.6031 12.7362 32.2651 11.9504L32.382 11.8232L34.5033 9.70184C35.2843 8.92079 36.5507 8.92079 37.3317 9.70184ZM13.0832 9.58501L13.2104 9.70184L15.3317 11.8232L15.4485 11.9504C16.1106 12.7362 16.0716 13.9116 15.3317 14.6516C14.5918 15.3915 13.4163 15.4305 12.6305 14.7684L12.5033 14.6516L10.382 12.5303L10.2651 12.4031C9.60307 11.6173 9.64202 10.4418 10.382 9.70184C11.1219 8.9619 12.2974 8.92295 13.0832 9.58501ZM24.0826 4.88397C25.137 4.88397 26.0008 5.69985 26.0771 6.73471L26.0826 6.88397V10.884L26.0771 11.0332C26.0008 12.0681 25.137 12.884 24.0826 12.884C23.0282 12.884 22.1644 12.0681 22.0881 11.0332L22.0826 10.884V6.88397L22.0881 6.73471C22.1644 5.69985 23.0282 4.88397 24.0826 4.88397Z" fill="#333333"/>
</svg>
