<svg width="48" height="48" viewBox="0 0 48 48" fill="none" xmlns="http://www.w3.org/2000/svg">
<path d="M36.0205 27.2617C37.1251 27.2617 38.0205 28.1571 38.0205 29.2617V32.5947H41.3535C42.458 32.5947 43.3534 33.4902 43.3535 34.5947C43.3535 35.6993 42.4581 36.5947 41.3535 36.5947H38.0205V39.9287C38.0203 41.0331 37.1249 41.9287 36.0205 41.9287C34.9162 41.9286 34.0208 41.033 34.0205 39.9287V36.5947H30.6875C29.5829 36.5947 28.6875 35.6993 28.6875 34.5947C28.6876 33.4902 29.583 32.5947 30.6875 32.5947H34.0205V29.2617C34.0205 28.1572 34.916 27.2618 36.0205 27.2617ZM23.5039 6C26.1183 6 28.3986 6.0998 30.3496 6.30176L30.9248 6.36523L31.9053 6.5332L32.8896 6.79199C36.7046 8.01436 39.5464 11.3269 40.0957 15.3799L40.1367 15.7197C40.2123 16.4554 40.2759 17.2379 40.3281 18.0674L40.3975 19.3477C40.4684 20.8816 40.5039 22.5597 40.5039 24.3828C40.5039 25.4874 39.6085 26.3828 38.5039 26.3828C37.3993 26.3828 36.5039 25.4874 36.5039 24.3828L36.502 23.6396L36.4854 22.208C36.4442 19.8809 36.3344 17.8533 36.1572 16.1289C35.8561 13.1999 33.628 10.8516 30.7461 10.3789L30.4346 10.335L29.9277 10.2793C28.3086 10.1121 26.4107 10.0198 24.2383 10.0029L23.5039 10C21.0223 10 18.8792 10.0935 17.0801 10.2793L16.5518 10.3389C13.6279 10.6852 11.3149 12.9494 10.8867 15.8379L10.8506 16.1289C10.6735 17.8535 10.5636 19.881 10.5225 22.208L10.5059 23.6396C10.5045 23.8843 10.5039 24.1322 10.5039 24.3828C10.5039 28.0849 10.6538 31.6013 10.9531 34.9316C10.9941 35.3871 11.1311 35.8294 11.3545 36.2285C12.1946 37.729 14.0478 38.305 15.5791 37.5791L15.7773 37.4766L22.0391 33.9717C22.8793 33.5016 23.8896 33.4654 24.7559 33.8633L24.9688 33.9717L26.8838 35.0439C27.8476 35.5834 28.1917 36.8018 27.6523 37.7656C27.1446 38.6728 26.0349 39.0309 25.1025 38.6201L24.9307 38.5342L23.5029 37.7344L17.7305 40.9668C14.3286 42.8708 10.0515 41.7391 8.02344 38.4531L7.86328 38.1816C7.36508 37.2914 7.06007 36.3061 6.96875 35.29C6.65842 31.8375 6.50391 28.2017 6.50391 24.3828C6.50391 22.5597 6.53942 20.8817 6.61035 19.3477L6.67969 18.0684C6.73187 17.2388 6.79552 16.4556 6.87109 15.7197C7.29053 11.6402 10.0246 8.25882 13.7539 6.91504L14.1172 6.79199L15.042 6.5498L16.083 6.36523C18.1566 6.12065 20.6282 6 23.5039 6ZM30.5039 16C31.6085 16 32.5039 16.8954 32.5039 18C32.5039 19.1046 31.6085 20 30.5039 20H16.5039C15.3993 20 14.5039 19.1046 14.5039 18C14.5039 16.8954 15.3993 16 16.5039 16H30.5039Z" fill="#333333"/>
</svg>
