<svg width="48" height="48" viewBox="0 0 48 48" fill="none" xmlns="http://www.w3.org/2000/svg">
<path fill-rule="evenodd" clip-rule="evenodd" d="M24 5C34.4934 5 43 13.5066 43 24C43 34.4934 34.4934 43 24 43C13.5066 43 5 34.4934 5 24C5 13.5066 13.5066 5 24 5ZM24 9C20.5791 9 17.4256 10.1452 14.9021 12.0731L16.8026 13.9742C17.5837 14.7553 17.5837 16.0216 16.8026 16.8026C16.0627 17.5426 14.8872 17.5815 14.1014 16.9195L13.9742 16.8026L12.0731 14.9021C10.1452 17.4256 9 20.5791 9 24C9 32.2843 15.7157 39 24 39C27.4209 39 30.5744 37.8548 33.0979 35.9269L32.5858 35.4142C31.8047 34.6332 31.8047 33.3668 32.5858 32.5858C33.3257 31.8458 34.5012 31.8069 35.287 32.469L35.4142 32.5858L35.9269 33.0979C37.8548 30.5744 39 27.4209 39 24C39 15.7157 32.2843 9 24 9ZM25.0519 15.6928C25.6613 15.9555 26.1645 16.4118 26.4854 16.9881L26.5855 17.1845L31.9249 28.6852C32.3901 29.6871 31.955 30.8763 30.9531 31.3414C29.999 31.7844 28.8749 31.4109 28.3682 30.5088L28.2969 30.3696L27.5005 28.655H20.5535L19.8367 30.319C19.4203 31.2851 18.3331 31.7555 17.3543 31.4204L17.2084 31.3641C16.2423 30.9477 15.7719 29.8605 16.107 28.8817L16.1633 28.7358L21.1095 17.2603C21.7653 15.7388 23.5304 15.037 25.0519 15.6928ZM23.898 20.895L22.0615 25.155H25.8755L23.898 20.895Z" fill="#333333"/>
</svg>
