<svg width="48" height="48" viewBox="0 0 48 48" fill="none" xmlns="http://www.w3.org/2000/svg">
<path d="M17.2979 17.3916C18.0915 15.247 21.1245 15.247 21.918 17.3916L23.8721 22.6719C24.1216 23.3462 24.6539 23.8775 25.3282 24.127L30.6085 26.0811C32.7527 26.8748 32.7526 29.9074 30.6085 30.7012L25.3282 32.6553C24.6539 32.9048 24.1216 33.4371 23.8721 34.1114L21.918 39.3916C21.1243 41.5358 18.0916 41.5359 17.2979 39.3916L15.3438 34.1114C15.0943 33.4371 14.563 32.9048 13.8887 32.6553L8.60846 30.7012C6.46385 29.9076 6.46385 26.8747 8.60846 26.0811L13.8887 24.127C14.5629 23.8775 15.0943 23.346 15.3438 22.6719L17.2979 17.3916ZM33.5411 7.80374C33.938 6.73203 35.4536 6.73209 35.8507 7.80374L36.8282 10.4444C36.9529 10.7814 37.2187 11.0471 37.5557 11.1719L40.1964 12.1494C41.2681 12.5464 41.2681 14.0621 40.1964 14.459L37.5557 15.4366C37.2187 15.5613 36.9529 15.827 36.8282 16.1641L35.8507 18.8037C35.4539 19.876 33.9379 19.876 33.5411 18.8037L32.5635 16.1641C32.4388 15.827 32.1731 15.5613 31.836 15.4366L29.1964 14.459C28.124 14.0622 28.124 12.5462 29.1964 12.1494L31.836 11.1719C32.1731 11.0472 32.4388 10.7814 32.5635 10.4444L33.5411 7.80374Z" fill="#333333"/>
</svg>
