<svg width="48" height="48" viewBox="0 0 48 48" fill="none" xmlns="http://www.w3.org/2000/svg">
<path d="M23.9999 9.00031C33.3887 9.00033 40.9999 16.6115 40.9999 26.0003C40.9996 35.3889 33.3885 43.0003 23.9999 43.0003C14.6112 43.0003 7.00011 35.3889 6.99986 26.0003C6.99986 16.6115 14.611 9.00031 23.9999 9.00031ZM23.9999 13.0003C16.8202 13.0003 10.9999 18.8206 10.9999 26.0003C11.0001 33.1798 16.8203 39.0003 23.9999 39.0003C31.1794 39.0003 36.9996 33.1798 36.9999 26.0003C36.9999 18.8206 31.1795 13.0003 23.9999 13.0003ZM23.9999 15.0003C25.1044 15.0003 25.9999 15.8958 25.9999 17.0003V24.4593L32.0711 28.3109C32.9571 28.8729 33.2513 30.0165 32.7713 30.929L32.6883 31.0716C32.0965 32.0039 30.8611 32.2803 29.9286 31.6888L22.9286 27.2474C22.3504 26.8806 21.9999 26.2437 21.9999 25.5589V17.0003C21.9999 15.8957 22.8953 15.0003 23.9999 15.0003ZM11.3778 5.33918C12.1642 4.5636 13.4303 4.5723 14.2059 5.35871C14.9815 6.14514 14.9727 7.41123 14.1864 8.18684L7.62193 14.6605C6.83548 15.436 5.5694 15.4274 4.7938 14.6409C4.01822 13.8545 4.02692 12.5884 4.81333 11.8128L11.3778 5.33918ZM33.7938 5.35871C34.5694 4.57232 35.8355 4.56361 36.6219 5.33918L43.1864 11.8128C43.9728 12.5884 43.9815 13.8545 43.2059 14.6409C42.4303 15.4274 41.1642 15.4361 40.3778 14.6605L33.8133 8.18684C33.0269 7.41124 33.0182 6.14515 33.7938 5.35871Z" fill="#333333"/>
</svg>
