<svg width="48" height="48" viewBox="0 0 48 48" fill="none" xmlns="http://www.w3.org/2000/svg">
<path d="M24 34C25.1046 34 26 34.8954 26 36C26 37.1046 25.1046 38 24 38H9C7.89543 38 7 37.1046 7 36C7 34.8954 7.89543 34 9 34H24ZM37 26C38.1046 26 39 26.8954 39 28C39 29.1046 38.1046 30 37 30H9C7.89543 30 7 29.1046 7 28C7 26.8954 7.89543 26 9 26H37ZM24 18C25.1046 18 26 18.8954 26 20C26 21.1046 25.1046 22 24 22H9C7.89543 22 7 21.1046 7 20C7 18.8954 7.89543 18 9 18H24ZM37 10C38.1046 10 39 10.8954 39 12C39 13.1046 38.1046 14 37 14H9C7.89543 14 7 13.1046 7 12C7 10.8954 7.89543 10 9 10H37Z" fill="#333333"/>
</svg>
