<svg width="48" height="48" viewBox="0 0 48 48" fill="none" xmlns="http://www.w3.org/2000/svg">
<path fill-rule="evenodd" clip-rule="evenodd" d="M13.5638 26.3957C13.0957 26.7536 12.6275 27.2768 12.4899 27.9652C12.2971 28.8739 12.4623 30.0304 13.3159 30.9391C14.3899 32.013 16.0145 32.3159 16.7304 32.371C18.6304 32.5087 20.6681 31.5449 22.2101 30.4986C22.8159 30.0855 23.8348 29.2319 24.8261 27.9101C22.6232 26.7812 19.8696 25.5145 16.9507 25.6246C15.4087 25.6797 14.3348 25.9826 13.5638 26.3957ZM41.4855 31.4348C42.4493 29.1493 43 26.6435 43 24C43 13.5362 34.4638 5 24 5C13.5362 5 5 13.5362 5 24C5 34.4638 13.5362 43 24 43C30.3333 43 35.9232 39.8884 39.3928 35.1246C36.1159 33.5275 30.7464 30.829 27.4145 29.2319C25.8449 31.0493 23.5043 32.8391 20.8609 33.6101C19.2087 34.1058 17.6942 34.2986 16.1522 33.9681C14.5826 33.6377 13.4536 32.9217 12.7928 32.2058C12.4623 31.8203 12.0768 31.3797 11.7739 30.8014C11.8014 30.829 11.8014 30.8841 11.8014 30.9116C11.8014 30.9116 11.6362 30.6362 11.5261 30.1957C11.471 29.9754 11.4159 29.7551 11.3884 29.5348C11.3609 29.3696 11.3609 29.2043 11.3884 29.0667C11.3609 28.7913 11.3884 28.4884 11.4435 28.1855C11.6087 27.4145 11.9116 26.5609 12.7652 25.7623C14.5826 23.9725 17.0333 23.8899 18.3 23.8899C20.1725 23.9174 23.4217 24.7159 26.1754 25.7072C26.9464 24.0826 27.442 22.3754 27.7449 21.1913H16.3174V19.9522H22.1826V17.4739H15.1058V16.2072H22.1826V13.729C22.1826 13.3986 22.2652 13.1232 22.7884 13.1232H25.5696V16.2072H33.2522V17.4464H25.5696V19.9246H31.7101C31.7101 19.9246 31.0768 23.3667 29.1768 26.7536C33.4449 28.2681 39.4754 30.6362 41.4855 31.4348Z" fill="#333333"/>
</svg>
