<svg width="48" height="48" viewBox="0 0 48 48" fill="none" xmlns="http://www.w3.org/2000/svg">
<path fill-rule="evenodd" clip-rule="evenodd" d="M21.4914 37.0586C18.2416 38.6358 14.5138 39.5978 10.4674 38.6358C6.42898 37.6658 3.56147 35.0478 4.05532 30.206C4.54917 25.3642 9.6868 23.7082 13.8766 23.7082C18.0663 23.7082 26.0316 26.4682 26.0316 26.4682C26.0316 26.4682 26.7007 24.9463 27.3539 23.2114C27.7255 22.1891 27.9923 21.1324 28.1504 20.0572H11.2002V18.3539H19.4364V15.0577L9.16905 15.1286V12.9601H19.4364V8H24.8289V12.9601H35.837V15.1129L24.8289 15.1917V18.275L33.9173 18.3539C33.6648 20.0168 33.2239 21.6462 32.603 23.2114C32.0324 24.8629 31.2847 26.449 30.3727 27.9428L48 33.794C47.5902 34.8683 47.1249 35.9211 46.6061 36.9482C45.8414 38.4229 44.782 40 44.782 40L27.9354 31.8857C27.9354 31.8857 24.7413 35.4815 21.4914 37.0586ZM23.9527 29.8985C23.9527 29.8985 17.1184 26.0266 12.0605 26.3499L12.0764 26.3657C7.01842 26.6811 5.79176 28.9443 5.79176 31.0182C5.79176 33.0922 7.01045 35.9862 12.9605 35.9862C18.9106 35.9862 23.9527 29.8985 23.9527 29.8985Z" fill="#333333"/>
</svg>
