<svg width="48" height="48" viewBox="0 0 48 48" fill="none" xmlns="http://www.w3.org/2000/svg">
<path d="M24 5C34.4934 5 43 13.5066 43 24C43 34.4934 34.4934 43 24 43C13.5066 43 5 34.4934 5 24C5 13.5066 13.5066 5 24 5ZM24 9C15.7157 9 9 15.7157 9 24C9 32.2843 15.7157 39 24 39C32.2843 39 39 32.2843 39 24C39 15.7157 32.2843 9 24 9ZM24 27.6016C26.002 27.6016 27.6835 27.9794 29.0273 28.7842C29.9749 29.3517 30.2832 30.5798 29.7158 31.5273C29.1483 32.4749 27.9202 32.7832 26.9727 32.2158C26.3165 31.8229 25.3313 31.6016 24 31.6016C22.6687 31.6016 21.6835 31.8229 21.0273 32.2158C20.0798 32.7832 18.8517 32.4749 18.2842 31.5273C17.7168 30.5798 18.0251 29.3517 18.9727 28.7842C20.3165 27.9794 21.998 27.6016 24 27.6016ZM15.6611 17.2363C16.3849 16.4021 17.6481 16.3124 18.4824 17.0361L21.3105 19.4893C22.2215 20.2795 22.2312 21.6906 21.3311 22.4932L18.5029 25.0146C17.6785 25.7497 16.4138 25.677 15.6787 24.8525C14.9438 24.0281 15.0164 22.7643 15.8408 22.0293L16.9707 21.0195L15.8613 20.0576C15.0648 19.3668 14.947 18.1843 15.5674 17.3525L15.6611 17.2363ZM29.5176 17.0361C30.3519 16.3124 31.6151 16.4021 32.3389 17.2363L32.4326 17.3525C33.053 18.1843 32.9352 19.3668 32.1387 20.0576L31.0293 21.0195L32.1592 22.0293C32.9836 22.7643 33.0562 24.0281 32.3213 24.8525C31.5862 25.677 30.3215 25.7497 29.4971 25.0146L26.6689 22.4932C25.7688 21.6906 25.7785 20.2795 26.6895 19.4893L29.5176 17.0361Z" fill="#333333"/>
</svg>
