<svg width="48" height="48" viewBox="0 0 48 48" fill="none" xmlns="http://www.w3.org/2000/svg">
<path d="M24 5C34.4934 5 43 13.5066 43 24C43 34.4934 34.4934 43 24 43C13.5066 43 5 34.4934 5 24C5 13.5066 13.5066 5 24 5ZM24 9C15.7157 9 9 15.7157 9 24C9 32.2843 15.7157 39 24 39C32.2843 39 39 32.2843 39 24C39 15.7157 32.2843 9 24 9ZM24.6572 17C25.4383 16.2191 26.7044 16.219 27.4854 17L33.1426 22.6572C33.9232 23.4382 33.9233 24.7044 33.1426 25.4854L27.4854 31.1426C26.7044 31.9233 25.4382 31.9232 24.6572 31.1426C23.8762 30.3615 23.8762 29.0945 24.6572 28.3135L26.9707 26H16.0713C14.9667 26 14.0713 25.1046 14.0713 24C14.0713 22.8954 14.9667 22 16.0713 22H26.8281L24.6572 19.8281C23.8762 19.0471 23.8762 17.781 24.6572 17Z" fill="#333333"/>
</svg>
