<svg width="48" height="48" viewBox="0 0 48 48" fill="none" xmlns="http://www.w3.org/2000/svg">
<path d="M24 5C34.4934 5 43 13.5066 43 24C43 34.4934 34.4934 43 24 43C13.5066 43 5 34.4934 5 24C5 13.5066 13.5066 5 24 5ZM17.9199 12.123L17.7568 12.1309C17.2744 12.1794 16.8543 12.4416 16.5635 12.8291C16.0209 13.5525 15.9748 14.6487 16.4316 15.4355L18.167 18.4238C16.1071 20.1845 14.8 22.8005 14.7998 25.7227C14.7999 31.0243 19.0978 35.3229 24.3994 35.3232C29.7013 35.3232 33.9999 31.0245 34 25.7227C33.9998 22.8092 32.6998 20.2009 30.6504 18.4404L32.3545 15.4355C32.5613 15.0794 32.666 14.6577 32.666 14.2324C32.666 13.147 31.9904 12.1233 30.8662 12.123H17.9199ZM24.3994 18.5234C28.3757 18.5234 31.5993 21.7464 31.5996 25.7227C31.5996 29.6991 28.3758 32.9229 24.3994 32.9229C20.4233 32.9225 17.2003 29.6989 17.2002 25.7227C17.2005 21.7466 20.4234 18.5238 24.3994 18.5234ZM24.8096 22.8721C24.5231 22.6361 24.1072 22.6866 23.8809 22.9854L23.0674 24.0596L21.833 24.5312C21.7835 24.5502 21.7362 24.5758 21.6924 24.6064L21.665 24.626C21.3846 24.8443 21.3154 25.2562 21.5127 25.5625L22.2422 26.6963L22.293 28.0605C22.295 28.1146 22.3033 28.1686 22.3174 28.2207L22.3271 28.252C22.4382 28.5986 22.7918 28.7972 23.1328 28.6973L24.3994 28.3252L25.667 28.6973C25.7169 28.7119 25.7685 28.7205 25.8203 28.7227H25.8516C26.2024 28.7197 26.4929 28.4299 26.5068 28.0605L26.5566 26.6963L27.2871 25.5625C27.3165 25.5168 27.3412 25.4677 27.3594 25.416L27.3691 25.3838C27.4739 25.0349 27.2985 24.6585 26.9658 24.5312L25.7324 24.0596L24.9189 22.9854C24.8871 22.9433 24.8499 22.9053 24.8096 22.8721ZM30.1084 14.5234L28.6436 17.1113C27.3637 16.4795 25.9232 16.123 24.3994 16.123C22.8829 16.1231 21.449 16.4763 20.1738 17.1025L18.6768 14.5234H30.1084Z" fill="#333333"/>
</svg>
