<svg width="48" height="48" viewBox="0 0 48 48" fill="none" xmlns="http://www.w3.org/2000/svg">
<path fill-rule="evenodd" clip-rule="evenodd" d="M34.7768 4.99988C36.5537 4.99988 37.7768 6.55648 37.7768 8.2726C37.7768 8.97888 37.5704 9.67532 37.1729 10.2504L36.5516 11.1583L34.193 14.6664C37.74 17.6011 40 22.0366 40 27C40 35.8365 32.8365 43 24 43C15.1635 43 8 35.8365 8 27C8 22.0222 10.2731 17.5753 13.838 14.6408L10.8039 10.2504C9.91936 8.97074 10.0112 7.14534 11.0478 5.98472C11.5518 5.42038 12.24 5.06312 12.993 5.0075L13.1999 4.99988H34.7768ZM24 15C17.3726 15 12 20.3726 12 27C12 33.6274 17.3726 39 24 39C30.6274 39 36 33.6274 36 27C36 20.3726 30.6274 15 24 15ZM33.1819 9.00032H14.8029L17.2224 12.5022C19.2804 11.5384 21.5773 11 24 11C26.4373 11 28.7472 11.5449 30.8147 12.5196L33.1819 9.00032Z" fill="#333333"/>
<path fill-rule="evenodd" clip-rule="evenodd" d="M23.1354 22.4367L21.7785 24.227L19.7227 25.0132C19.6398 25.0449 19.5608 25.0869 19.4875 25.1383L19.4426 25.1714C18.9747 25.5353 18.8583 26.2221 19.1874 26.7329L20.4043 28.6218L20.4888 30.8951C20.4921 30.9855 20.5057 31.0752 20.5292 31.1622L20.5449 31.2154C20.73 31.7935 21.3201 32.1237 21.8886 31.9567L23.9999 31.3364L26.1112 31.9567C26.1947 31.9812 26.2806 31.9953 26.3673 31.9988L26.4192 31.9997C27.0043 31.995 27.4882 31.5111 27.511 30.8951L27.5953 28.6218L28.8125 26.7329C28.8617 26.6564 28.9019 26.5741 28.9323 26.4876L28.9495 26.4349C29.1244 25.8534 28.8317 25.2253 28.2771 25.0132L26.2211 24.227L24.8644 22.4367C24.8113 22.3665 24.7504 22.303 24.6831 22.2476C24.2056 21.8541 23.5127 21.9388 23.1354 22.4367Z" fill="#333333"/>
</svg>
