<svg width="48" height="48" viewBox="0 0 48 48" fill="none" xmlns="http://www.w3.org/2000/svg">
<path fill-rule="evenodd" clip-rule="evenodd" d="M23.1354 22.4367L21.7785 24.227L19.7227 25.0132C19.6398 25.0449 19.5608 25.0869 19.4875 25.1383L19.4426 25.1714C18.9747 25.5353 18.8583 26.2221 19.1874 26.7329L20.4043 28.6218L20.4888 30.8951C20.4921 30.9855 20.5057 31.0752 20.5292 31.1622L20.5449 31.2154C20.73 31.7935 21.3201 32.1237 21.8886 31.9567L23.9999 31.3364L26.1112 31.9567C26.1947 31.9812 26.2806 31.9953 26.3673 31.9988L26.4192 31.9997C27.0043 31.995 27.4882 31.5111 27.511 30.8951L27.5953 28.6218L28.8125 26.7329C28.8617 26.6564 28.9019 26.5741 28.9323 26.4876L28.9495 26.4349C29.1244 25.8534 28.8317 25.2253 28.2771 25.0132L26.2211 24.227L24.8644 22.4367C24.8113 22.3665 24.7504 22.303 24.6831 22.2476C24.2056 21.8541 23.5127 21.9388 23.1354 22.4367Z" fill="white"/>
<path d="M34.7773 5C36.4341 5.00017 37.7773 6.34325 37.7773 8C37.7773 8.7294 37.5111 9.43379 37.0293 9.98145L36.1113 11.04L33.7314 13.8213C33.6439 13.9208 33.5476 14.0081 33.4463 14.0859C37.4195 16.9972 40 21.6969 40 27C40 35.8365 32.8365 43 24 43C15.1635 43 8 35.8365 8 27C8 21.6467 10.6297 16.9084 14.667 14.0039C14.4542 13.8931 14.2568 13.7437 14.0889 13.5527L10.9473 9.98145C9.85313 8.73744 9.97483 6.84136 11.2188 5.74707C11.7116 5.31361 12.3318 5.05519 12.9824 5.00781L13.2002 5H34.7773ZM24.6826 22.2471C24.2052 21.8542 23.5119 21.9389 23.1348 22.4365L21.7783 24.2266L19.7227 25.0127C19.6399 25.0444 19.5605 25.0864 19.4873 25.1377L19.4424 25.1709C18.9745 25.5347 18.8587 26.2217 19.1875 26.7324L20.4043 28.6221L20.4883 30.8945C20.4916 30.9848 20.5058 31.0751 20.5293 31.1621L20.5449 31.2158C20.7302 31.7935 21.3203 32.1239 21.8887 31.957L24 31.3359L26.1113 31.957C26.1946 31.9814 26.2808 31.9955 26.3672 31.999L26.4189 32C27.004 31.9954 27.4879 31.5105 27.5107 30.8945L27.5947 28.6221L28.8125 26.7324C28.8616 26.6561 28.9013 26.5736 28.9316 26.4873L28.9492 26.4346C29.1237 25.8532 28.8316 25.2248 28.2773 25.0127L26.2207 24.2266L24.8643 22.4365C24.8111 22.3665 24.7498 22.3025 24.6826 22.2471Z" fill="#333333"/>
</svg>
