<svg width="48" height="48" viewBox="0 0 48 48" fill="none" xmlns="http://www.w3.org/2000/svg">
<path d="M33 6C35.2091 6 37 7.79086 37 10V11.5469H41.0146C42.6714 11.5469 44.0145 12.8902 44.0146 14.5469V18.1191C44.0146 22.4163 40.4372 25.934 35.6865 26.7812C33.8543 30.532 30.2708 33.2702 26 33.9297V38.583H33.9619C35.0662 38.5832 35.9617 39.4787 35.9619 40.583C35.9619 41.6875 35.0663 42.5828 33.9619 42.583H14.0381C12.9337 42.5828 12.0381 41.6875 12.0381 40.583C12.0383 39.4787 12.9338 38.5832 14.0381 38.583H22V33.9297C17.728 33.27 14.1433 30.5306 12.3115 26.7783C7.57193 25.9264 4.00005 22.4139 4 18.1191V14.5469C4.00014 12.8901 5.34323 11.5469 7 11.5469H11V10C11 7.79086 12.7909 6 15 6H33ZM15 21.083C15 26.0536 19.0294 30.083 24 30.083C28.9706 30.083 33 26.0536 33 21.083V10H15V21.083ZM37 21.083C37 21.4681 36.981 21.849 36.9482 22.2256C38.8266 21.3391 40.0146 19.7774 40.0146 18.1191V15.5469H37V21.083ZM8 18.1191C8.00004 19.7737 9.1818 21.3324 11.0498 22.2197C11.0174 21.8451 11 21.466 11 21.083V15.5469H8V18.1191Z" fill="#333333"/>
</svg>
