<svg width="48" height="48" viewBox="0 0 48 48" fill="none" xmlns="http://www.w3.org/2000/svg">
<path d="M23.7539 7C29.4702 7.00009 34 11.0153 34 16.5C34 19.0521 33.0183 21.285 31.3936 22.9443C34.7357 24.4436 37 27.6027 37 31.5C37 36.9773 32.5292 41 26.877 41H13C11.8954 41 11 40.1046 11 39V9C11 7.89543 11.8954 7 13 7H23.7539ZM15 37H26.877C30.4087 37 33 34.6685 33 31.5C33 28.3315 30.4087 26 26.877 26H15V37ZM15 22H23.7539C27.3612 21.9999 30 19.6609 30 16.5C30 13.339 27.3612 11.0001 23.7539 11H15V22Z" fill="#333333"/>
</svg>
