<svg width="48" height="48" viewBox="0 0 48 48" fill="none" xmlns="http://www.w3.org/2000/svg">
<path d="M29 17C29 18.1046 29.8954 19 31 19C32.0543 19 32.9177 18.1842 32.9941 17.1494L33 17V12.0059C37.0025 12.1358 40.3109 15.2165 40.6992 19.2295L42.1514 34.2295C42.5769 38.6272 39.3567 42.5373 34.959 42.9629C34.7029 42.9877 34.4458 43 34.1885 43H13.8115C9.39325 43 5.81152 39.4183 5.81152 35C5.81152 34.7427 5.82385 34.4856 5.84863 34.2295L7.30078 19.2295C7.68914 15.2165 10.9975 12.1358 15 12.0059V17C15 18.1046 15.8954 19 17 19C18.0543 19 18.9177 18.1842 18.9941 17.1494L19 17V12H29V17ZM31.4346 24.5352C30.689 23.79 29.5014 23.756 28.7158 24.4336L28.6064 24.5352L22.9502 30.1924L19.4141 26.6572C18.6685 25.9117 17.4811 25.8779 16.6953 26.5557L16.5859 26.6572C15.8405 27.4028 15.8066 28.5903 16.4844 29.376L16.5859 29.4854L21.2549 34.1543C22.1522 35.0512 23.5837 35.088 24.5254 34.2656L24.6445 34.1543L31.4346 27.3643C32.2156 26.5832 32.2156 25.3162 31.4346 24.5352ZM28.2168 5.00488C30.8776 5.11845 33 7.31125 33 10V12.0059C32.9126 12.003 32.8244 12 32.7363 12H29V10L28.9932 9.88379C28.9354 9.38646 28.5128 9.00002 28 9H20L19.8838 9.00684C19.3865 9.0646 19 9.48716 19 10V12H15.2627C15.1748 12 15.0873 12.003 15 12.0059V10L15.0049 9.7832C15.1184 7.1224 17.3112 5 20 5H28L28.2168 5.00488Z" fill="#333333"/>
</svg>
