<svg width="48" height="48" viewBox="0 0 48 48" fill="none" xmlns="http://www.w3.org/2000/svg">
<path d="M28 5L28.2168 5.00488C30.8776 5.11845 33 7.31125 33 10V12.0059C37.0023 12.136 40.3109 15.2167 40.6992 19.2295L42.1514 34.2295C42.5769 38.6272 39.3567 42.5373 34.959 42.9629C34.7029 42.9877 34.4458 43 34.1885 43H13.8115C9.39325 43 5.81152 39.4183 5.81152 35C5.81152 34.7427 5.82385 34.4856 5.84863 34.2295L7.30078 19.2295C7.68914 15.2165 10.9975 12.1358 15 12.0059V10L15.0049 9.7832C15.1184 7.1224 17.3112 5 20 5H28ZM19 17L18.9941 17.1494C18.9177 18.1842 18.0543 19 17 19C15.8954 19 15 18.1046 15 17V16.0088C13.1259 16.1309 11.5827 17.5482 11.3066 19.4111L11.2812 19.6143L9.83008 34.6143C9.81769 34.7423 9.81152 34.8713 9.81152 35C9.81152 37.1422 11.4959 38.8911 13.6123 38.9951L13.8115 39H34.1885C34.317 39 34.4454 38.9938 34.5732 38.9814C36.7055 38.7751 38.2849 36.93 38.1846 34.8135L38.1699 34.6143L36.7178 19.6143C36.5277 17.6522 34.9415 16.1355 33 16.0088V17L32.9941 17.1494C32.9177 18.1842 32.0543 19 31 19C29.8954 19 29 18.1046 29 17V16H19V17ZM28.7158 24.4336C29.5014 23.756 30.689 23.79 31.4346 24.5352C32.2156 25.3162 32.2156 26.5832 31.4346 27.3643L24.6445 34.1543L24.5254 34.2656C23.5837 35.088 22.1522 35.0512 21.2549 34.1543L16.5859 29.4854L16.4844 29.376C15.8066 28.5903 15.8405 27.4028 16.5859 26.6572L16.6953 26.5557C17.4811 25.8779 18.6685 25.9117 19.4141 26.6572L22.9502 30.1924L28.6064 24.5352L28.7158 24.4336ZM20 9L19.8838 9.00684C19.3865 9.0646 19 9.48716 19 10V12H29V10L28.9932 9.88379C28.9354 9.38646 28.5128 9.00002 28 9H20Z" fill="#333333"/>
</svg>
