<svg width="48" height="48" viewBox="0 0 48 48" fill="none" xmlns="http://www.w3.org/2000/svg">
<path d="M34.9404 5.05957C38.8064 5.05957 41.9404 8.19363 41.9404 12.0596V26C41.9404 29.8659 38.8064 33 34.9404 33H33V35C33 38.866 29.866 42 26 42H12C8.13401 42 5 38.866 5 35V21C5 17.134 8.13401 14 12 14H14V12.0596C14.0001 8.19364 17.134 5.05957 21 5.05957H34.9404ZM12 18C10.3431 18 9 19.3431 9 21V35C9 36.6569 10.3431 38 12 38H26C27.6569 38 29 36.6569 29 35V21C29 19.3431 27.6569 18 26 18H12ZM22.6318 23.4131C23.4129 22.632 24.6789 22.632 25.46 23.4131C26.2408 24.1942 26.2409 25.4602 25.46 26.2412L19.9482 31.7529C18.7767 32.9243 16.8766 32.9244 15.7051 31.7529L12.5859 28.6328C11.805 27.8518 11.8051 26.5857 12.5859 25.8047C13.367 25.0238 14.6331 25.0237 15.4141 25.8047L17.8271 28.2178L22.6318 23.4131ZM21 9.05957C19.3432 9.05957 18.0001 10.4028 18 12.0596V14H26C29.866 14 33 17.134 33 21V29H34.9404C36.5972 29 37.9404 27.6568 37.9404 26V12.0596C37.9404 10.4028 36.5972 9.05957 34.9404 9.05957H21Z" fill="#333333"/>
</svg>
