<svg width="48" height="48" viewBox="0 0 48 48" fill="none" xmlns="http://www.w3.org/2000/svg">
<path d="M23.9302 11C26.0442 11.0001 27.8214 12.2018 28.7144 14.042L28.8022 14.2324L28.896 14.2754C31.9748 15.7578 33.5411 18.9567 33.8325 23.5586L33.853 23.9248C34.0972 26.1754 34.3077 27.0261 34.689 27.3809C36.656 29.2411 37.436 30.3064 37.436 32.0234C37.4358 34.0467 35.8758 35.4336 33.7554 35.4336H29.0884C29.1136 35.5426 29.1284 35.6558 29.1284 35.7725C29.1284 38.6564 26.8069 41 23.936 41C21.0653 40.9999 18.7437 38.6563 18.7436 35.7725C18.7436 35.6558 18.7585 35.5426 18.7837 35.4336H14.105C11.9849 35.4335 10.4362 34.046 10.436 32.0234C10.436 30.3067 11.2254 29.2208 13.1802 27.3721C13.5583 27.0208 13.782 26.123 13.9995 24.0137C14.2368 19.1237 15.8099 15.7857 18.981 14.2676L19.061 14.2305L19.1538 14.0332C20.0199 12.2664 21.6856 11.0926 23.688 11.0049L23.9302 11ZM21.7036 35.4336C21.7288 35.5426 21.7436 35.6558 21.7436 35.7725C21.7437 37.0058 22.7286 37.9999 23.936 38C25.1436 38 26.1284 37.0059 26.1284 35.7725C26.1284 35.6558 26.1433 35.5426 26.1685 35.4336H21.7036ZM23.9302 14C22.8667 14.0001 22.0131 14.6876 21.6685 15.8076C21.5302 16.2564 21.1897 16.6146 20.7485 16.7754C18.4237 17.6227 17.1984 19.982 16.9897 24.2393C16.6826 27.247 16.3698 28.5035 15.2319 29.5605C13.9012 30.8191 13.436 31.4596 13.436 32.0234C13.4362 32.3115 13.5732 32.4336 14.105 32.4336H33.7554C34.2922 32.4336 34.4359 32.3061 34.436 32.0234C34.436 31.4653 33.9733 30.834 32.6372 29.5703C31.494 28.5082 31.2064 27.3424 30.8638 24.1592C30.6611 19.9817 29.4365 17.6227 27.1118 16.7754C26.6673 16.6134 26.3252 16.2509 26.189 15.7979C25.8562 14.6903 24.9972 14.0001 23.9302 14ZM12.2466 11.9473C13.0149 11.6385 13.8895 12.0102 14.1987 12.7783C14.5078 13.5468 14.135 14.4212 13.3667 14.7305C10.3425 15.9467 8.88329 19.3683 10.103 22.374C10.4145 23.1415 10.0442 24.0164 9.27685 24.3281C8.50932 24.6396 7.63433 24.2704 7.32275 23.5029C5.47754 18.9565 7.68409 13.7825 12.2466 11.9473ZM33.7817 12.7793C34.091 12.011 34.9644 11.6382 35.7329 11.9473C40.2954 13.7824 42.5018 18.9565 40.6567 23.5029C40.3451 24.2703 39.4701 24.6395 38.7026 24.3281C37.9351 24.0165 37.5659 23.1416 37.8774 22.374C39.0968 19.3685 37.6374 15.9469 34.6138 14.7305C33.8453 14.4214 33.4729 13.5478 33.7817 12.7793Z" fill="#333333"/>
</svg>
