<svg width="48" height="48" viewBox="0 0 48 48" fill="none" xmlns="http://www.w3.org/2000/svg">
<path d="M38.0713 23.8281C38.8168 23.0829 40.0044 23.049 40.79 23.7266L40.8994 23.8281C41.645 24.5737 41.6787 25.7621 41.001 26.5479L40.8994 26.6572L37.5566 30H40C41.1046 30 42 30.8954 42 32C42 33.0543 41.1842 33.9177 40.1494 33.9941L40 34H37V36H40C41.1046 36 42 36.8954 42 38C42 39.0543 41.1842 39.9177 40.1494 39.9941L40 40H37V41C37 42.2165 36.1046 43 35 43C33.9456 43 33.0818 42.2861 33 41V40H30C28.8954 40 28 39.1046 28 38C28 36.9457 28.8158 36.0823 29.8506 36.0059L30 36H33V34H30C28.8954 34 28 33.1046 28 32C28 30.9457 28.8158 30.0823 29.8506 30.0059L30 30H32.9287L29.5859 26.6572C28.8049 25.8762 28.8049 24.6092 29.5859 23.8281C30.3314 23.0828 31.519 23.049 32.3047 23.7266L32.4141 23.8281L35.2422 26.6562L38.0713 23.8281ZM24 4C25.0543 4 25.9178 4.88642 25.9941 6.01074L26 6.17285V7.16797C31.6324 8.08776 36.1238 12.7643 36.9795 18.7646C37.1354 19.8582 36.3757 20.8714 35.2822 21.0273C34.1888 21.1832 33.1764 20.4226 33.0205 19.3291C32.3383 14.5459 28.4824 11.0001 23.9668 11C18.7989 11 14.0454 15.4379 13.8857 20.5645L13.8809 20.8301V31.7402C13.8809 32.1653 13.8112 32.5878 13.6738 32.9883L13.583 33.2256L12.0723 36.8291C12.0248 36.9422 12 37.0678 12 37.1953C12.0001 37.6254 12.2655 37.9422 12.5635 37.9922L12.6455 37.999L22.1006 38C23.2049 38.0003 24.0996 38.8956 24.0996 40C24.0995 41.0544 23.2839 41.9179 22.249 41.9941L22.0996 42L12.6455 41.999C10.0531 41.999 8.00019 39.8233 8 37.1953C8 36.6319 8.0954 36.0725 8.28223 35.5439L8.38379 35.2822L9.88184 31.71L9.88086 20.8301C9.88089 14.0061 15.4069 8.14165 22 7.14844V6.17285C22 4.97281 22.8955 4 24 4Z" fill="#333333"/>
</svg>
