<svg width="48" height="48" viewBox="0 0 48 48" fill="none" xmlns="http://www.w3.org/2000/svg">
<path d="M24 4C25.0543 4 25.9178 4.88642 25.9941 6.01074L26 6.17285V7.16797C31.6324 8.08776 36.1238 12.7643 36.9795 18.7646C37.1354 19.8582 36.3757 20.8714 35.2822 21.0273C34.1888 21.1832 33.1764 20.4226 33.0205 19.3291C32.3383 14.5459 28.4824 11.0001 23.9668 11C18.7989 11 14.0454 15.4379 13.8857 20.5645L13.8809 20.8301V31.7402C13.8809 32.1653 13.8112 32.5878 13.6738 32.9883L13.583 33.2256L12.0723 36.8291C12.0248 36.9422 12 37.0678 12 37.1953C12.0001 37.6254 12.2655 37.9422 12.5635 37.9922L12.6455 37.999L22.1006 38C23.2049 38.0003 24.0996 38.8956 24.0996 40C24.0995 41.0544 23.2839 41.9179 22.249 41.9941L22.0996 42L12.6455 41.999C10.0531 41.999 8.00019 39.8233 8 37.1953C8 36.6319 8.0954 36.0725 8.28223 35.5439L8.38379 35.2822L9.88184 31.71L9.88086 20.8301C9.88089 14.0061 15.4069 8.14165 22 7.14844V6.17285C22 4.97281 22.8955 4 24 4ZM39.7061 28.2168C40.4918 27.5391 41.6793 27.5728 42.4248 28.3184C43.2056 29.0994 43.2057 30.3655 42.4248 31.1465L34.6465 38.9248L34.5371 39.0264C33.7515 39.7041 32.5639 39.6701 31.8184 38.9248L27.5752 34.6816L27.4736 34.5723C26.7961 33.7865 26.8298 32.599 27.5752 31.8535L27.6846 31.752C28.4702 31.0743 29.6578 31.1082 30.4033 31.8535L33.2324 34.6816L39.5967 28.3184L39.7061 28.2168Z" fill="#333333"/>
</svg>
