<svg width="48" height="48" viewBox="0 0 48 48" fill="none" xmlns="http://www.w3.org/2000/svg">
<path d="M16.7763 24.726C16.4832 27.3864 16.1476 28.5628 15.0731 29.561C13.7423 30.8195 13.2772 31.46 13.2772 32.0239C13.2774 32.312 13.4143 32.434 13.9462 32.434H24.4843L28.8651 36.8149C28.3855 39.2006 26.2928 41.0004 23.7772 41.0004C20.9064 41.0004 18.5849 38.6568 18.5848 35.7729C18.5848 35.6563 18.5997 35.543 18.6249 35.434H13.9462C11.826 35.434 10.2774 34.0465 10.2772 32.0239C10.2772 30.3071 11.0665 29.2212 13.0214 27.3725C13.3995 27.0212 13.6232 26.1235 13.8407 24.0141C13.8752 23.3029 13.9383 22.6246 14.0302 21.9799L16.7763 24.726ZM9.43934 12.4389C10.0251 11.8535 10.9747 11.8535 11.5604 12.4389L37.5604 38.4389C38.1462 39.0247 38.1462 39.9752 37.5604 40.561C36.9747 41.1465 36.0251 41.1465 35.4393 40.561L9.43934 14.561C8.85355 13.9752 8.85355 13.0247 9.43934 12.4389ZM21.5448 35.434C21.57 35.543 21.5848 35.6562 21.5848 35.7729C21.5849 37.0063 22.5697 38.0004 23.7772 38.0004C24.9848 38.0004 25.9696 37.0063 25.9696 35.7729C25.9696 35.6562 25.9845 35.543 26.0097 35.434H21.5448ZM23.7714 11.0004C25.8854 11.0005 27.6626 12.2022 28.5556 14.0424L28.6434 14.2328L28.7372 14.2758C31.816 15.7582 33.3823 18.9571 33.6737 23.559L33.6942 23.9252C33.9384 26.176 34.1488 27.0266 34.5302 27.3813C36.4972 29.2415 37.2772 30.3068 37.2772 32.0239C37.2771 32.9803 36.9275 33.7934 36.3358 34.3862L34.2118 32.2621C34.2572 32.2002 34.2772 32.1223 34.2772 32.0239C34.2772 31.4657 33.8145 30.8344 32.4784 29.5707C31.3352 28.5086 31.0476 27.3428 30.705 24.1596C30.5023 19.9821 29.2777 17.6231 26.953 16.7758C26.5085 16.6138 26.1664 16.2514 26.0302 15.7983C25.6974 14.6907 24.8384 14.0005 23.7714 14.0004C22.7078 14.0005 21.8543 14.688 21.5097 15.808C21.3714 16.2568 21.0309 16.615 20.5897 16.7758C20.1461 16.9375 19.742 17.1537 19.3778 17.4282L17.2362 15.2866C17.7122 14.887 18.2401 14.5466 18.8222 14.268L18.9022 14.2309L18.995 14.0336C19.8611 12.2668 21.5268 11.093 23.5292 11.0053L23.7714 11.0004Z" fill="#333333"/>
</svg>
