<svg width="48" height="48" viewBox="0 0 48 48" fill="none" xmlns="http://www.w3.org/2000/svg">
<path d="M37 37.9999C38.1046 37.9999 39 38.8953 39 39.9999C39 41.1044 38.1046 41.9999 37 41.9999H11C9.89544 41.9999 9.00002 41.1044 9 39.9999C9 38.8953 9.89543 37.9999 11 37.9999H37ZM20.9717 7.86707C23.2774 5.4874 27.0752 5.42682 29.4551 7.7323L29.498 7.7743L37.0254 15.3016C39.3629 17.6451 39.3638 21.439 37.0264 23.786L27.0215 33.8065C26.2728 34.5563 25.2558 34.9786 24.1963 34.9804L12.0029 34.9999C10.8962 35.0014 9.99847 34.1037 10 32.997L10.0195 20.7841C10.0212 19.7473 10.4251 18.7513 11.1465 18.0067L20.9717 7.86707ZM14.0029 30.996L21.1562 30.9843L14.0137 23.8417L14.0029 30.996ZM26.6719 10.6054C25.8787 9.83711 24.6123 9.85643 23.8438 10.6493L15.2979 19.4696L25.498 29.6698L34.1943 20.9618C34.9748 20.1782 34.9745 18.9091 34.1953 18.1278L26.6719 10.6054Z" fill="#333333"/>
</svg>
