<svg width="48" height="48" viewBox="0 0 48 48" fill="none" xmlns="http://www.w3.org/2000/svg">
<path fill-rule="evenodd" clip-rule="evenodd" d="M21.7528 4.19385C22.8461 4.00313 23.8856 4.73904 24.069 5.83359C24.4694 8.22322 26.5489 10 29 10C30.0483 10 31.0432 9.67886 31.8796 9.08823C32.786 8.44818 34.0402 8.66831 34.6744 9.57877C36.1043 11.6315 36.9162 14.0548 36.9939 16.5976L37 17V32C37 35.2384 34.4344 37.8776 31.2249 37.9959L31 38L26 37.9998V42C26 43.1046 25.1046 44 24 44C22.9456 44 22.0818 43.1841 22.0055 42.1493L22 42V37.9998L17 38C13.7616 38 11.1224 35.4344 11.0041 32.2249L11 32V17C11 10.6579 15.5717 5.27214 21.7528 4.19385ZM20.75 8.60309L20.6823 8.62982C17.4123 9.92503 15.12 13.0702 15.0046 16.7115L15 17V32C15 33.0544 15.8159 33.9182 16.8507 33.9945L17 34H31C32.0544 34 32.9182 33.1841 32.9945 32.1493L33 32V17C33 15.9639 32.8252 14.9557 32.4913 14.0077L32.3586 13.6551L32.248 13.3941L32.0595 13.4661C31.3214 13.7329 30.5463 13.9031 29.751 13.969L29.3518 13.9932L29 14C25.4975 14 22.4185 11.9867 20.936 9.00166L20.8129 8.74345L20.75 8.60309Z" fill="#333333"/>
</svg>
