<svg width="48" height="48" viewBox="0 0 48 48" fill="none" xmlns="http://www.w3.org/2000/svg">
<path fill-rule="evenodd" clip-rule="evenodd" d="M32 5C36.3349 5 39.8645 8.44784 39.9962 12.7508L40 13V36C40 40.3349 36.5522 43.8645 32.2492 43.9962L32 44H16C11.6651 44 8.13546 40.5522 8.00381 36.2492L8 36V13C8 8.66509 11.4478 5.13546 15.7508 5.00381L16 5H32ZM32 9H30.5V21C30.5 22.1046 29.6046 23 28.5 23C27.4456 23 26.5818 22.1841 26.5055 21.1493L26.5 21V9H16C13.8578 9 12.1089 10.684 12.0049 12.8004L12 13V36C12 38.1422 13.684 39.8911 15.8004 39.9951L16 40H32C34.1422 40 35.8911 38.316 35.9951 36.1996L36 36V13C36 10.8578 34.316 9.10892 32.1996 9.0049L32 9Z" fill="#333333"/>
</svg>
