<svg width="48" height="48" viewBox="0 0 48 48" fill="none" xmlns="http://www.w3.org/2000/svg">
<path fill-rule="evenodd" clip-rule="evenodd" d="M31.3825 16.9883L31.8695 22.1495C32.002 23.554 31.6415 24.8293 30.92 25.7689C29.8262 27.1932 28.4357 28.8809 27.0128 30.3037C25.4947 31.8219 23.8585 33.3349 22.297 34.7197C19.4425 37.2513 15.1833 37.7052 11.5449 35.8176C9.66226 34.8409 8.122 33.3024 7.14796 31.4249C5.26697 27.7993 5.73045 23.5335 8.28137 20.6453C9.70841 19.0296 11.2256 17.3798 12.6572 15.9481C14.7919 13.8134 16.4873 12.4134 17.6505 11.5461C18.1611 11.1653 18.9691 10.9176 20.1019 11.0245L25.9727 11.5785C26.6053 11.6382 27.2089 11.7952 27.7683 12.0344C27.0303 12.4441 26.3279 12.969 25.6773 13.623C24.8983 14.4061 24.9016 15.6724 25.6847 16.4514C26.4678 17.2304 27.7341 17.2271 28.5131 16.444C29.171 15.7826 29.978 15.3309 30.8774 15.081C31.1444 15.6715 31.3188 16.3134 31.3825 16.9883ZM35.1346 15.2224C35.2426 15.6744 35.3201 16.1386 35.3648 16.6125L35.8518 21.7737C35.9874 23.2104 35.814 24.6522 35.3209 25.9781C37.5041 26.2995 39.4516 25.4523 40.3969 23.9396C41.7246 21.8148 40.9777 18.4067 37.9057 16.4871C36.9986 15.9203 36.0619 15.4969 35.1346 15.2224ZM33.0389 29.5415C32.0855 30.7185 30.9855 31.9879 29.8412 33.1322C28.2509 34.7225 26.553 36.2916 24.9512 37.7123C20.7535 41.4352 14.6832 41.952 9.70284 39.3682C7.09076 38.0131 4.9525 35.8791 3.59735 33.267C1.00915 28.2782 1.56277 22.2099 5.2833 17.9974C6.74133 16.3466 8.31798 14.6305 9.82879 13.1197C12.0943 10.8542 13.9352 9.32675 15.2595 8.33934C16.7538 7.22512 18.6219 6.86709 20.4777 7.04219L26.3484 7.59615C28.9171 7.83852 31.1983 9.04348 32.8294 10.8482C35.3855 10.9056 37.9504 11.7983 40.0253 13.0949C44.5051 15.8942 46.5587 21.627 43.7891 26.0593C41.5229 29.686 37.0048 30.7952 33.0389 29.5415ZM10.187 25.4225C10.9681 24.6415 12.2344 24.6415 13.0155 25.4225L17.9652 30.3723C18.7463 31.1533 18.7463 32.4196 17.9652 33.2007C17.1842 33.9817 15.9178 33.9817 15.1368 33.2007L10.187 28.2509C9.40598 27.4699 9.40598 26.2036 10.187 25.4225Z" fill="#333333"/>
</svg>
