<svg width="48" height="48" viewBox="0 0 48 48" fill="none" xmlns="http://www.w3.org/2000/svg">
<path fill-rule="evenodd" clip-rule="evenodd" d="M40 24C40 32.8366 32.8366 40 24 40C15.1634 40 8 32.8366 8 24C8 15.1634 15.1634 8 24 8C32.8366 8 40 15.1634 40 24ZM44 24C44 35.0457 35.0457 44 24 44C12.9543 44 4 35.0457 4 24C4 12.9543 12.9543 4 24 4C35.0457 4 44 12.9543 44 24ZM19.5 15C19.5847 15 19.6681 15.0053 19.75 15.0155C19.8319 15.0053 19.9153 15 20 15H26.5C29.5376 15 32 17.4624 32 20.5C32 22.589 30.8353 24.4061 29.1199 25.3371L32.1462 30.0021C32.7473 30.9288 32.4835 32.1673 31.5568 32.7684C30.6301 33.3696 29.3916 33.1057 28.7905 32.1791L24.7819 26H21.5V31.0357C21.5 32.1402 20.6046 33.0357 19.5 33.0357C18.3954 33.0357 17.5 32.1402 17.5 31.0357V17C17.5 15.8954 18.3954 15 19.5 15ZM25.8972 22C25.8768 21.9997 25.8563 21.9997 25.8358 22H22V19H26.5L26.6445 19.0069C27.4051 19.0796 28 19.7203 28 20.5C28 21.3284 27.3284 22 26.5 22H25.8972Z" fill="#333333"/>
</svg>
