<svg width="48" height="48" viewBox="0 0 48 48" fill="none" xmlns="http://www.w3.org/2000/svg">
<path d="M26 6C28.7614 6 31 8.23858 31 11V12H36C39.2384 12 41.8778 14.5659 41.9961 17.7754L42 18V21C42 22.4802 41.1951 23.7712 40 24.4629V35C40 38.866 36.866 42 33 42H15C11.134 42 8 38.866 8 35V24.4629C6.80487 23.7712 6 22.4802 6 21V18C6 14.6863 8.68629 12 12 12H17V11C17 8.31125 19.1224 6.11845 21.7832 6.00488L22 6H26ZM12 35C12 36.5975 13.2487 37.9036 14.8232 37.9951L15 38H17V32C17 30.8954 17.8954 30 19 30C20.1046 30 21 30.8954 21 32V38H33C34.6569 38 36 36.6569 36 35V25H12V35ZM22 10C21.4477 10 21 10.4477 21 11V14C21 15.1046 20.1046 16 19 16H12C10.8954 16 10 16.8954 10 18V21H38V18C38 16.8954 37.1046 16 36 16H29C27.8954 16 27 15.1046 27 14V11C27 10.4477 26.5523 10 26 10H22Z" fill="#333333"/>
</svg>
