<svg width="48" height="48" viewBox="0 0 48 48" fill="none" xmlns="http://www.w3.org/2000/svg">
<path fill-rule="evenodd" clip-rule="evenodd" d="M28.9503 6C30.0046 6 30.8684 6.81588 30.9448 7.85074L30.9503 8L30.9495 8.894L38.0833 8.8943C39.1878 8.8943 40.0833 9.78973 40.0833 10.8943C40.0833 11.9487 39.2674 12.8125 38.2325 12.8888L38.0833 12.8943L30.9495 12.894V14.55L34.1944 14.5509C37.3728 14.5509 39.9631 17.0689 40.0792 20.219L40.0833 20.4398L40.0825 37.826L40.9422 37.8262C42.0468 37.8262 42.9422 38.7216 42.9422 39.8262C42.9422 40.8805 42.1263 41.7443 41.0915 41.8207L40.9422 41.8262L38.5571 41.8277C38.4559 41.8523 38.3516 41.8692 38.2449 41.8778L38.0833 41.8842H19.6111C19.4479 41.8842 19.2893 41.8647 19.1374 41.8278L12.7477 41.8262C12.6683 41.8262 12.59 41.8215 12.5129 41.8125C11.8994 41.8865 11.2481 41.6864 10.778 41.1397L10.6644 40.9958L5.26511 33.5441L5.17424 33.4073C4.66848 32.575 4.83905 31.4947 5.57539 30.8585L5.71119 30.751L5.8479 30.6602C6.68022 30.1544 7.76057 30.325 8.39671 31.0613L8.50422 31.1971L10.2839 33.6543L10.284 9.80612L10.2895 9.65686C10.3658 8.622 11.2296 7.80612 12.284 7.80612C13.3383 7.80612 14.2021 8.622 14.2785 9.65686L14.284 9.80612L14.2835 37.826H17.6105L17.6111 20.4398C17.6111 17.2613 20.1291 14.671 23.2792 14.5549L23.4999 14.5509L26.9495 14.55V12.894L19.6111 12.8943C18.5065 12.8943 17.6111 11.9989 17.6111 10.8943C17.6111 9.83994 18.4269 8.97613 19.4618 8.89978L19.6111 8.8943L26.9495 8.894L26.9503 8C26.9503 6.89543 27.8457 6 28.9503 6ZM34.1944 18.5509H23.4999C22.5064 18.5509 21.6919 19.3179 21.6166 20.2921L21.6109 20.4398L21.6105 37.826H36.0825L36.0833 20.4398C36.0833 19.4985 35.3948 18.7181 34.494 18.5745L34.342 18.5565L34.1944 18.5509ZM32.1104 22.3286C33.6873 22.3287 34.6242 24.0563 33.8198 25.3674L33.7364 25.493L29.6479 31.201L32.1103 31.2016C33.1646 31.2016 34.0284 32.0175 34.1048 33.0524L34.1103 33.2016C34.1103 34.256 33.2944 35.1198 32.2595 35.1961L32.1103 35.2016H25.7572C24.1803 35.2016 23.2432 33.4741 24.0477 32.1628L24.1311 32.0373L28.2189 26.328L25.4445 26.3282C24.3902 26.3281 23.5264 25.5122 23.4502 24.4773L23.4447 24.3281C23.4447 23.2737 24.2607 22.41 25.2955 22.3337L25.4448 22.3282L32.1104 22.3286Z" fill="#333333"/>
</svg>
