<svg width="48" height="48" viewBox="0 0 48 48" fill="none" xmlns="http://www.w3.org/2000/svg">
<path fill-rule="evenodd" clip-rule="evenodd" d="M31.2174 6C32.322 6 33.2174 6.89543 33.2174 8L33.218 8.72593C37.7148 10.2876 40.2818 13.3968 41.3717 18.5066L41.4471 18.875L41.5593 19.4904C41.686 20.2398 41.7845 21.0289 41.8558 21.8589L41.9043 22.4891L41.9464 23.2074L41.9763 23.9449L41.9941 24.7018L42 25.4783L41.9941 26.2547L41.9763 27.0116L41.9464 27.7491L41.9043 28.4674C41.3506 36.5982 38.3517 40.9651 31.8271 42.6489L31.4923 42.7322L30.9042 42.8643C30.4562 42.9584 29.9931 43.0412 29.5143 43.1131L29.0303 43.1813L28.3687 43.2611L28.0309 43.2961L27.6884 43.3281L26.8114 43.3943L26.6324 43.4052L25.9045 43.4411L25.5334 43.4546L24.7764 43.4724L24 43.4783L23.2236 43.4724L22.2805 43.4482L22.0955 43.4411L21.3676 43.4052L21.0108 43.3826L20.3116 43.3281L19.9691 43.2961L19.6313 43.2611L18.9697 43.1813C18.4805 43.1167 18.007 43.0413 17.5489 42.9546L17.0958 42.8643L16.5077 42.7322C12.5842 41.7915 9.89651 39.9216 8.22203 36.9001L8.05795 36.5941L7.82798 36.1282C6.91964 34.1937 6.37191 31.8351 6.13623 29.0039L6.09569 28.4674L6.05359 27.7491L6.02371 27.0116L6.0059 26.2547L6 25.4783L6.0059 24.7018L6.02371 23.9449L6.05359 23.2074L6.09569 22.4891C6.15361 21.6386 6.23829 20.8293 6.35095 20.0599L6.44071 19.4904L6.5529 18.875C6.81689 17.5277 7.1791 16.3151 7.64738 15.2295L7.82798 14.8283L8.05795 14.3624C9.54866 11.4884 11.9047 9.6116 15.3036 8.55441L15.3043 8C15.3043 6.89543 16.1998 6 17.3043 6C18.3192 6 19.1574 6.75582 19.287 7.73525L19.2981 7.73374C19.6657 7.68945 20.0419 7.65107 20.4268 7.61849L21.0108 7.57395L21.7291 7.53185L22.4666 7.50197L22.8427 7.49157L23.6093 7.47973H24.3907L25.1573 7.49157L25.5334 7.50197L26.2709 7.53185L26.9892 7.57395C27.3829 7.60077 27.7678 7.63332 28.1441 7.67172L28.7019 7.73374L29.227 7.8023C29.3263 6.79053 30.1795 6 31.2174 6ZM37.978 24H10.021L10.018 24.1009L10.0044 24.7787L10 25.4783L10.0044 26.1778L10.018 26.8556L10.0409 27.5119L10.056 27.832L10.1045 28.6094L10.1689 29.3544L10.1992 29.6435L10.2679 30.2065L10.3476 30.7496C11.155 35.799 13.4767 38.2073 18.4165 39.0782L18.7286 39.1307L19.2717 39.2104L19.5507 39.2461L19.8347 39.2791L20.418 39.3371L20.7173 39.3622L21.0217 39.3847L21.8057 39.4301L22.6227 39.4603L22.9588 39.4682L23.6475 39.4772H24.3525L25.0412 39.4682L25.3773 39.4603L26.0336 39.4373L26.3538 39.4223L26.6686 39.4048L27.2827 39.3622L27.582 39.3371L28.1653 39.2791L28.4493 39.2461L28.7283 39.2104L29.2714 39.1307C34.3208 38.3233 36.729 36.0016 37.6 31.0618L37.6524 30.7496L37.7321 30.2065L37.7678 29.9275L37.8311 29.3544L37.8588 29.0603L37.9065 28.4565L37.944 27.832L37.9591 27.5119L37.982 26.8556L37.9956 26.1778L38 25.4783L37.9956 24.7787L37.982 24.1009L37.978 24ZM24 11.4783L23.3004 11.4827L22.9588 11.4883L22.1285 11.5125L21.3314 11.5518L21.0217 11.5718L20.418 11.6194L19.8347 11.6774L19.5507 11.7105L19.304 11.743L19.3043 14.4348C19.3043 15.5394 18.4089 16.4348 17.3043 16.4348C16.1998 16.4348 15.3043 15.5394 15.3043 14.4348L15.3033 12.7835C12.8717 13.8668 11.4301 15.7079 10.6775 18.6078L10.5967 18.9344L10.4883 19.429L10.4147 19.8125L10.382 20L37.6181 19.9993L37.5853 19.8125L37.5117 19.429L37.4033 18.9344C36.727 16.0648 35.4218 14.1882 33.2183 13.0354L33.2174 14.4348C33.2174 15.5394 32.322 16.4348 31.2174 16.4348C30.1128 16.4348 29.2174 15.5394 29.2174 14.4348L29.217 11.818L29.0023 11.7846L28.4493 11.7105L28.1653 11.6774L27.582 11.6194L26.9783 11.5718L26.6686 11.5518L26.3538 11.5342L25.7081 11.5065L25.3773 11.4963L24.6996 11.4827L24 11.4783Z" fill="#333333"/>
</svg>
