<svg width="48" height="48" viewBox="0 0 48 48" fill="none" xmlns="http://www.w3.org/2000/svg">
<path fill-rule="evenodd" clip-rule="evenodd" d="M33.7391 5.46088C38.3265 5.46088 41.8692 9.17904 41.9965 13.8436L42 14.1037V31.818C42 36.6037 38.4115 40.4609 33.7391 40.4609C32.6346 40.4609 31.7391 39.5654 31.7391 38.4609C31.7391 37.4065 32.555 36.5427 33.5899 36.4664L33.7391 36.4609C36.0668 36.4609 37.893 34.5694 37.9955 32.0426L38 31.818V14.1037C38 11.5406 36.2403 9.57593 33.9432 9.46575L33.7391 9.46088H14.2609C11.9332 9.46088 10.107 11.3523 10.0045 13.8792L10 14.1037V31.818C10 34.3811 11.7597 36.3458 14.0568 36.456L14.2609 36.4609H22.414L21.5858 35.6325C20.8402 34.8869 20.8064 33.6992 21.4841 32.9134L21.5858 32.804C22.3313 32.0585 23.519 32.0246 24.3048 32.7024L24.4142 32.804L28.6569 37.0467C29.4024 37.7922 29.4363 38.9799 28.7585 39.7657L28.6569 39.8751L24.4142 44.1177C23.6332 44.8988 22.3668 44.8988 21.5858 44.1177C20.8402 43.3722 20.8064 42.1845 21.4841 41.3987L21.5858 41.2893L22.413 40.4609H14.2609C9.67346 40.4609 6.13085 36.7427 6.00354 32.0781L6 31.818V14.1037C6 9.40504 9.4592 5.60144 14.0071 5.46468L14.2609 5.46088H33.7391ZM24 17C27.866 17 31 20.134 31 24C31 27.866 27.866 31 24 31C20.134 31 17 27.866 17 24C17 20.134 20.134 17 24 17ZM24 21C22.3431 21 21 22.3431 21 24C21 25.6569 22.3431 27 24 27C25.6569 27 27 25.6569 27 24C27 22.3431 25.6569 21 24 21ZM33.2872 12.4255C34.6679 12.4255 35.7872 13.5448 35.7872 14.9255C35.7872 16.3062 34.6679 17.4255 33.2872 17.4255C31.9065 17.4255 30.7872 16.3062 30.7872 14.9255C30.7872 13.5448 31.9065 12.4255 33.2872 12.4255Z" fill="#333333"/>
</svg>
