<svg width="48" height="48" viewBox="0 0 48 48" fill="none" xmlns="http://www.w3.org/2000/svg">
<path fill-rule="evenodd" clip-rule="evenodd" d="M29.3515 6C31.1547 6 32.3741 7.03148 33.1773 8.67772L33.26 8.855L34.551 11.365L36 11.3653C39.7049 11.3653 42.7376 14.2436 42.9839 17.886L42.9959 18.1247L43 18.3653V34C43 37.7855 39.9952 40.8691 36.2407 40.9959L36 41H12C8.21455 41 5.1309 37.9952 5.00406 34.2407L5 34V18.3653C5 14.5799 8.00478 11.4962 11.7594 11.3694L12 11.3653L13.337 11.365L14.675 8.833L14.7255 8.72121C15.4327 7.20101 16.5488 6.18495 18.1234 6.0228L18.3514 6.00548L18.5754 6H29.3515ZM24 20C20.6868 20 18 22.6867 18 26.0004C18 29.314 20.6867 32 24 32C27.3138 32 30 29.3142 30 26.0004C30 22.6865 27.3137 20 24 20Z" fill="#333333"/>
</svg>
