<svg width="48" height="48" viewBox="0 0 48 48" fill="none" xmlns="http://www.w3.org/2000/svg">
<path fill-rule="evenodd" clip-rule="evenodd" d="M29.3515 6C31.1547 6 32.3741 7.03148 33.1773 8.67772L33.26 8.855L34.551 11.365L36 11.3653C39.7049 11.3653 42.7376 14.2436 42.9839 17.886L42.9959 18.1247L43 18.3653V34C43 37.7855 39.9952 40.8691 36.2407 40.9959L36 41H12C8.21455 41 5.1309 37.9952 5.00406 34.2407L5 34V18.3653C5 14.5799 8.00478 11.4962 11.7594 11.3694L12 11.3653L13.337 11.365L14.675 8.833L14.7255 8.72121C15.4327 7.20101 16.5488 6.18495 18.1234 6.0228L18.3514 6.00548L18.5754 6H29.3515ZM29.3515 10H18.5754L18.5614 10.0067L18.5368 10.0358L18.4976 10.1006L18.4024 10.2938L18.3086 10.5062L18.238 10.6541L16.668 13.622L16.6472 13.6689C16.1909 14.5884 15.3002 15.2095 14.291 15.3398L14.0876 15.3593L13.8939 15.3653H12C10.4023 15.3653 9.09634 16.6142 9.00509 18.189L9 18.3653V34C9 35.5977 10.2489 36.9037 11.8237 36.9949L12 37H36C37.5977 37 38.9037 35.7511 38.9949 34.1763L39 34V18.3653C39 16.7676 37.7511 15.4616 36.1763 15.3704L36 15.3653H33.9893C32.8201 15.3653 31.7504 14.7077 31.2349 13.669L31.203 13.601L29.6781 10.6333L29.582 10.4282L29.4632 10.1829L29.4113 10.0865L29.3665 10.0155L29.3515 10ZM24 17C28.4183 17 32 20.582 32 25.0005C32 29.4189 28.4184 33 24 33C19.5823 33 16 29.4186 16 25.0005C16 20.5823 19.5824 17 24 17ZM24 21C21.7915 21 20 22.7915 20 25.0005C20 27.2093 21.7912 29 24 29C26.2094 29 28 27.2097 28 25.0005C28 22.7911 26.2091 21 24 21Z" fill="#333333"/>
</svg>
