<svg width="48" height="48" viewBox="0 0 48 48" fill="none" xmlns="http://www.w3.org/2000/svg">
<path d="M8.33691 8C10.7422 8 12.8131 9.67894 13.3369 12.0176L13.3828 12.2461L13.7373 14.248L13.7812 14.2354C13.8773 14.2128 13.9764 14.1979 14.0771 14.1895L14.2305 14.1816L35.7207 13.9785C36.5087 13.9711 37.294 14.0782 38.0518 14.2959C42.3222 15.523 44.8293 19.935 43.75 24.2334L43.6816 24.4863L40.8555 34.4268C40.2761 36.4635 38.7191 38.0131 36.7852 38.624C36.7938 38.718 36.7998 38.8131 36.7998 38.9092C36.7998 40.6073 35.4227 41.9999 33.7246 42C32.0794 42 30.7357 40.693 30.6533 39.0674L30.6494 38.9092H22.4492L22.4453 39.0674C22.3629 40.6929 21.02 41.9998 19.375 42C17.6768 42 16.2999 40.6074 16.2998 38.9092C16.2998 38.6881 16.3228 38.472 16.3672 38.2637C14.7385 37.4498 13.505 35.9284 13.0957 34.0576L13.0479 33.8135L9.34668 12.9707C9.26669 12.5203 8.90252 12.1822 8.45996 12.1289L8.33691 12.1211H6.0498C4.91771 12.121 4 11.1985 4 10.0605C4.00003 8.97443 4.83603 8.08476 5.89648 8.00586L6.0498 8H8.33691Z" fill="#333333"/>
</svg>
