<svg width="48" height="48" viewBox="0 0 48 48" fill="none" xmlns="http://www.w3.org/2000/svg">
<path d="M24 5C34.4934 5 43 13.5066 43 24C43 34.4934 34.4934 43 24 43C13.5066 43 5 34.4934 5 24C5 13.5066 13.5066 5 24 5ZM12 13.7998L11.877 13.8057C11.272 13.8672 10.7999 14.3789 10.7998 15C10.7999 15.6626 11.3374 16.2001 12 16.2002H13.4473L13.5537 16.207C13.8677 16.2522 14.1243 16.4945 14.1816 16.8145L16.5244 29.9365L16.5635 30.1289C16.8471 31.3523 17.7104 32.3252 18.8271 32.7812C18.8171 32.8582 18.8105 32.9369 18.8105 33.0166C18.8108 34.0104 19.6166 34.8162 20.6104 34.8164C21.5883 34.8164 22.3826 34.0362 22.4082 33.0645H27.8945C27.9201 34.0361 28.7137 34.8162 29.6914 34.8164C30.6854 34.8164 31.492 34.0105 31.4922 33.0166C31.4922 32.9664 31.4874 32.9164 31.4834 32.8672C32.6475 32.4787 33.5815 31.5408 33.9326 30.3125L35.7217 24.0547L35.7773 23.8408C36.4105 21.2038 34.8572 18.5123 32.2246 17.7598C31.7543 17.6254 31.2665 17.5589 30.7773 17.5635L17.1777 17.6914L17.0547 17.6992C16.9743 17.7082 16.896 17.725 16.8213 17.749L16.7881 17.7607L16.5439 16.3926L16.5068 16.2148C16.1712 14.8069 14.9104 13.7998 13.4473 13.7998H12ZM30.9941 19.9688C31.1873 19.9809 31.379 20.0141 31.5654 20.0674C32.9948 20.476 33.8226 21.9661 33.4141 23.3955L31.625 29.6533L31.583 29.7783C31.3757 30.3084 30.8623 30.665 30.2842 30.665H20.2598L20.126 30.6582C19.5092 30.5991 18.9977 30.1361 18.8867 29.5156L17.2041 20.0908L30.7998 19.9639L30.9941 19.9688Z" fill="#333333"/>
</svg>
