<svg width="48" height="48" viewBox="0 0 48 48" fill="none" xmlns="http://www.w3.org/2000/svg">
<path fill-rule="evenodd" clip-rule="evenodd" d="M7.41262 6C9.87598 6 11.9957 7.71237 12.529 10.0964L12.5743 10.3219L12.981 12.601L13.053 12.5767C13.1898 12.5341 13.3329 12.5058 13.4806 12.4935L13.6298 12.4866L36.2965 12.2734C37.1121 12.2657 37.9245 12.3757 38.7087 12.5998C43.1317 13.8641 45.7269 18.4127 44.6036 22.8414L44.536 23.0919L41.5546 33.5219C40.9696 35.5686 39.4152 37.136 37.4758 37.7834L37.4814 37.8511L37.4865 38.027C37.4865 39.6247 36.2344 40.9307 34.6624 41.0219L34.4865 41.027C32.8888 41.027 31.5828 39.775 31.4916 38.203L31.488 38.108H22.349L22.3462 38.2033C22.2582 39.7198 21.0411 40.9341 19.5273 41.0219L19.3514 41.027C17.7537 41.027 16.4477 39.775 16.3564 38.203L16.3514 38.027C16.3514 37.8955 16.3598 37.766 16.3763 37.639C14.4903 36.8697 13.0396 35.2099 12.5872 33.1315L12.5404 32.8951L8.63652 11.0248C8.53823 10.4742 8.08655 10.0625 7.54025 10.0065L7.41262 10H5C3.89543 10 3 9.10457 3 8C3 6.94564 3.81588 6.08183 4.85074 6.00549L5 6H7.41262ZM36.3341 16.2732L13.674 16.486L16.4782 32.1922C16.6661 33.2454 17.5457 34.0266 18.5987 34.1021L18.7663 34.1081H35.4738C36.4539 34.1081 37.3218 33.4946 37.6554 32.5859L37.7087 32.4226L40.69 21.9926C41.371 19.6102 39.9918 17.1268 37.6094 16.4458C37.2777 16.351 36.9365 16.2948 36.5925 16.2782L36.3341 16.2732Z" fill="#333333"/>
</svg>
