<svg width="48" height="48" viewBox="0 0 48 48" fill="none" xmlns="http://www.w3.org/2000/svg">
<path d="M36.3149 6.0004C40.5008 6.0004 43.896 9.39272 43.896 13.5785V22.1049C43.896 23.1513 43.046 23.9994 41.9995 23.9994C40.9536 23.9988 40.106 23.151 40.106 22.1049V13.5785C40.1059 11.4856 38.4078 9.78848 36.3149 9.78848H11.6841C9.59121 9.7885 7.89409 11.4857 7.89404 13.5785V34.4223C7.89461 36.5147 9.59153 38.2103 11.6841 38.2104H28.2358C29.2822 38.2105 30.1294 39.0605 30.1294 40.1068C30.1287 41.1526 29.2818 42.0003 28.2358 42.0004H11.6841C7.49861 42.0004 4.10653 38.6076 4.10596 34.4223V13.5785C4.106 9.39273 7.49829 6.00041 11.6841 6.0004H36.3149ZM34.9761 27.3969C35.716 26.6571 36.9168 26.657 37.6567 27.3969C38.3964 28.1368 38.3964 29.3376 37.6567 30.0775L36.1538 31.5805H42.0005C43.0469 31.5805 43.895 32.4276 43.895 33.474C43.895 34.5204 43.0469 35.3676 42.0005 35.3676H36.1538L37.6567 36.8715C38.3962 37.6115 38.3965 38.8123 37.6567 39.5522C36.9169 40.2915 35.7159 40.2915 34.9761 39.5522L30.2397 34.8129C30.1504 34.7237 30.0707 34.6254 30.0005 34.5199C29.9946 34.511 29.9896 34.5016 29.9839 34.4926C29.7951 34.1983 29.6841 33.8496 29.6841 33.474C29.6841 33.1102 29.7882 32.7713 29.9663 32.4828C29.9792 32.4619 29.9906 32.4399 30.0044 32.4193C30.0186 32.3983 30.0343 32.3783 30.0493 32.3578C30.1064 32.2796 30.1691 32.2038 30.2397 32.1332L34.9761 27.3969ZM23.4907 15.2084C24.1606 14.4046 25.3568 14.2955 26.1606 14.9652C26.9641 15.635 27.073 16.8294 26.4038 17.6332L24.2554 20.2113H25.895C26.9414 20.2113 27.7884 21.0586 27.7886 22.1049C27.7886 23.1513 26.9415 23.9994 25.895 23.9994H22.105V25.8959H25.895C26.9414 25.8959 27.7885 26.743 27.7886 27.7895C27.7886 28.8359 26.9415 29.683 25.895 29.683H22.105V31.5805C22.1042 32.6263 21.2565 33.474 20.2104 33.474C19.1645 33.4739 18.3176 32.6262 18.3169 31.5805V29.683H14.5259C13.4796 29.6828 12.6323 28.8358 12.6323 27.7895C12.6324 26.7432 13.4797 25.8961 14.5259 25.8959H18.3169V23.9994H14.5259C13.4796 23.9992 12.6323 23.1512 12.6323 22.1049C12.6325 21.0587 13.4797 20.2116 14.5259 20.2113H16.1675L14.019 17.6332C13.3494 16.8293 13.4574 15.6351 14.2612 14.9652C15.0651 14.2956 16.2593 14.4046 16.9292 15.2084L20.2095 19.1449L23.4907 15.2084Z" fill="#333333"/>
</svg>
