<svg width="48" height="48" viewBox="0 0 48 48" fill="none" xmlns="http://www.w3.org/2000/svg">
<path d="M36.3157 6.0004C40.5013 6.00061 43.8957 9.39288 43.8958 13.5785V22.1049C43.8958 23.1513 43.0457 23.9994 41.9993 23.9994C40.9534 23.9988 40.1057 23.1509 40.1057 22.1049V13.5785C40.1056 11.4858 38.4084 9.7887 36.3157 9.78848H11.6838C9.59103 9.78856 7.89387 11.4857 7.8938 13.5785V34.4223C7.89434 36.5147 9.59132 38.2103 11.6838 38.2104H28.2356C29.282 38.2104 30.1292 39.0604 30.1292 40.1068C30.1285 41.1527 29.2816 42.0003 28.2356 42.0004H11.6838C7.4984 42.0003 4.10626 38.6076 4.10571 34.4223V13.5785C4.10579 9.39279 7.49811 6.00047 11.6838 6.0004H36.3157ZM35.9231 27.3969C36.663 26.657 37.8638 26.6571 38.6038 27.3969L43.3401 32.1332C43.4106 32.2037 43.4725 32.2797 43.5295 32.3578C43.5446 32.3783 43.5603 32.3983 43.5745 32.4193C43.5905 32.4432 43.6046 32.4682 43.6194 32.4926C43.6377 32.5226 43.6565 32.5523 43.6731 32.5834C43.6818 32.5998 43.6893 32.6167 43.6975 32.6332C43.8236 32.8867 43.8958 33.1717 43.8958 33.474C43.8957 33.8498 43.7839 34.1982 43.595 34.4926C43.5892 34.5016 43.5843 34.511 43.5784 34.5199C43.5083 34.6252 43.4293 34.7239 43.3401 34.8129L38.6038 39.5522C37.8639 40.2914 36.6629 40.2915 35.9231 39.5522C35.1833 38.8124 35.1837 37.6115 35.9231 36.8715L37.426 35.3676H31.5793C30.5329 35.3676 29.6849 34.5204 29.6848 33.474C29.6848 32.4276 30.5329 31.5805 31.5793 31.5805H37.427L35.9231 30.0766C35.1839 29.3367 35.1837 28.1367 35.9231 27.3969ZM23.4905 15.2094C24.1604 14.4055 25.3565 14.2963 26.1604 14.9662C26.9637 15.636 27.0727 16.8294 26.4036 17.6332L24.2551 20.2113H25.8948C26.9411 20.2113 27.7882 21.0586 27.7883 22.1049C27.7883 23.1513 26.9412 23.9994 25.8948 23.9994H22.1047V25.8959H25.8948C26.9412 25.8959 27.7883 26.743 27.7883 27.7895C27.7883 28.8359 26.9412 29.683 25.8948 29.683H22.1047V31.5805C22.104 32.6263 21.2562 33.474 20.2102 33.474C19.1643 33.4739 18.3174 32.6262 18.3167 31.5805V29.683H14.5266C13.4802 29.683 12.6321 28.8359 12.6321 27.7895C12.6321 26.743 13.4802 25.8959 14.5266 25.8959H18.3167V23.9994H14.5266C13.4802 23.9994 12.6321 23.1513 12.6321 22.1049C12.6323 21.0586 13.4803 20.2113 14.5266 20.2113H16.1663L14.0188 17.6332C13.3492 16.8294 13.4575 15.6361 14.261 14.9662C15.0649 14.2965 16.2591 14.4056 16.929 15.2094L20.2092 19.1459L23.4905 15.2094Z" fill="#333333"/>
</svg>
