<svg width="48" height="48" viewBox="0 0 48 48" fill="none" xmlns="http://www.w3.org/2000/svg">
<path fill-rule="evenodd" clip-rule="evenodd" d="M15 25C20.6046 25 23 27.3954 23 33C23 38.6046 20.6046 41 15 41C9.39543 41 7 38.6046 7 33C7 27.3954 9.39543 25 15 25ZM33 25C38.6046 25 41 27.3954 41 33C41 38.6046 38.6046 41 33 41C27.3954 41 25 38.6046 25 33C25 27.3954 27.3954 25 33 25ZM15.2223 29.0009H14.7777L14.5636 29.0038L14.1592 29.0159L13.7855 29.0374L13.4414 29.0696L13.1258 29.1136C11.9315 29.3124 11.3792 29.8149 11.1475 30.9426L11.1136 31.1258L11.0696 31.4414L11.0374 31.7855L11.0159 32.1592L11.0087 32.3575L11.0009 32.7777V33.2223L11.0038 33.4364L11.0159 33.8408L11.0374 34.2145L11.0696 34.5586L11.1136 34.8742C11.3124 36.0685 11.8149 36.6208 12.9426 36.8525L13.1258 36.8864L13.4414 36.9304L13.7855 36.9626L14.1592 36.9841L14.5636 36.9962L15 37L15.4364 36.9962L15.8408 36.9841L16.2145 36.9626L16.5586 36.9304L16.8742 36.8864C18.0685 36.6876 18.6208 36.1851 18.8525 35.0574L18.8864 34.8742L18.9304 34.5586L18.9626 34.2145L18.9841 33.8408L18.9962 33.4364L19 33L18.9962 32.5636L18.9841 32.1592L18.9626 31.7855L18.9304 31.4414L18.8864 31.1258C18.6876 29.9315 18.1851 29.3792 17.0574 29.1475L16.8742 29.1136L16.5586 29.0696L16.2145 29.0374L15.8408 29.0159L15.6425 29.0087L15.2223 29.0009ZM33.2223 29.0009H32.7777L32.5636 29.0038L32.1592 29.0159L31.7855 29.0374L31.4414 29.0696L31.1258 29.1136C29.9315 29.3124 29.3792 29.8149 29.1475 30.9426L29.1136 31.1258L29.0696 31.4414L29.0374 31.7855L29.0159 32.1592L29.0087 32.3575L29.0009 32.7777V33.2223L29.0038 33.4364L29.0159 33.8408L29.0374 34.2145L29.0696 34.5586L29.1136 34.8742C29.3124 36.0685 29.8149 36.6208 30.9426 36.8525L31.1258 36.8864L31.4414 36.9304L31.7855 36.9626L32.1592 36.9841L32.5636 36.9962L33 37L33.4364 36.9962L33.8408 36.9841L34.2145 36.9626L34.5586 36.9304L34.8742 36.8864C36.0685 36.6876 36.6208 36.1851 36.8525 35.0574L36.8864 34.8742L36.9304 34.5586L36.9626 34.2145L36.9841 33.8408L36.9962 33.4364L37 33L36.9962 32.5636L36.9841 32.1592L36.9626 31.7855L36.9304 31.4414L36.8864 31.1258C36.6876 29.9315 36.1851 29.3792 35.0574 29.1475L34.8742 29.1136L34.5586 29.0696L34.2145 29.0374L33.8408 29.0159L33.6425 29.0087L33.2223 29.0009ZM15 7C20.6046 7 23 9.39543 23 15C23 20.6046 20.6046 23 15 23C9.39543 23 7 20.6046 7 15C7 9.39543 9.39543 7 15 7ZM33 7C38.6046 7 41 9.39543 41 15C41 20.6046 38.6046 23 33 23C27.3954 23 25 20.6046 25 15C25 9.39543 27.3954 7 33 7ZM15.2223 11.0009H14.7777L14.5636 11.0038L14.1592 11.0159L13.7855 11.0374L13.4414 11.0696L13.1258 11.1136C11.9315 11.3124 11.3792 11.8149 11.1475 12.9426L11.1136 13.1258L11.0696 13.4414L11.0374 13.7855L11.0159 14.1592L11.0087 14.3575L11.0009 14.7777V15.2223L11.0038 15.4364L11.0159 15.8408L11.0374 16.2145L11.0696 16.5586L11.1136 16.8742C11.3124 18.0685 11.8149 18.6208 12.9426 18.8525L13.1258 18.8864L13.4414 18.9304L13.7855 18.9626L14.1592 18.9841L14.5636 18.9962L15 19L15.4364 18.9962L15.8408 18.9841L16.2145 18.9626L16.5586 18.9304L16.8742 18.8864C18.0685 18.6876 18.6208 18.1851 18.8525 17.0574L18.8864 16.8742L18.9304 16.5586L18.9626 16.2145L18.9841 15.8408L18.9962 15.4364L19 15L18.9962 14.5636L18.9841 14.1592L18.9626 13.7855L18.9304 13.4414L18.8864 13.1258C18.6876 11.9315 18.1851 11.3792 17.0574 11.1475L16.8742 11.1136L16.5586 11.0696L16.2145 11.0374L15.8408 11.0159L15.6425 11.0087L15.2223 11.0009ZM33.2223 11.0009H32.7777L32.5636 11.0038L32.1592 11.0159L31.7855 11.0374L31.4414 11.0696L31.1258 11.1136C29.9315 11.3124 29.3792 11.8149 29.1475 12.9426L29.1136 13.1258L29.0696 13.4414L29.0374 13.7855L29.0159 14.1592L29.0087 14.3575L29.0009 14.7777V15.2223L29.0038 15.4364L29.0159 15.8408L29.0374 16.2145L29.0696 16.5586L29.1136 16.8742C29.3124 18.0685 29.8149 18.6208 30.9426 18.8525L31.1258 18.8864L31.4414 18.9304L31.7855 18.9626L32.1592 18.9841L32.5636 18.9962L33 19L33.4364 18.9962L33.8408 18.9841L34.2145 18.9626L34.5586 18.9304L34.8742 18.8864C36.0685 18.6876 36.6208 18.1851 36.8525 17.0574L36.8864 16.8742L36.9304 16.5586L36.9626 16.2145L36.9841 15.8408L36.9962 15.4364L37 15L36.9962 14.5636L36.9841 14.1592L36.9626 13.7855L36.9304 13.4414L36.8864 13.1258C36.6876 11.9315 36.1851 11.3792 35.0574 11.1475L34.8742 11.1136L34.5586 11.0696L34.2145 11.0374L33.8408 11.0159L33.6425 11.0087L33.2223 11.0009Z" fill="#333333"/>
</svg>
