<svg width="48" height="48" viewBox="0 0 48 48" fill="none" xmlns="http://www.w3.org/2000/svg">
<path fill-rule="evenodd" clip-rule="evenodd" d="M9 7C10.0544 7 10.9182 7.81588 10.9945 8.85074L11 9V34C11 35.5977 12.2489 36.9037 13.8237 36.9949L14 37H39C40.1046 37 41 37.8954 41 39C41 40.0544 40.1841 40.9182 39.1493 40.9945L39 41H14C10.2145 41 7.1309 37.9952 7.00406 34.2407L7 34V9C7 7.89543 7.89543 7 9 7ZM39.2992 17.273C40.039 18.0131 40.0777 19.1885 39.4155 19.9742L39.2986 20.1014L34.9158 24.4823C33.0219 26.3739 29.989 26.4309 28.026 24.653L27.8452 24.4809L25.7252 22.361C25.3648 22.0005 24.7975 21.9728 24.4052 22.2778L24.311 22.361L18.5295 28.1425C17.7485 28.9236 16.4821 28.9236 15.7011 28.1425C14.9612 27.4026 14.9222 26.2271 15.5843 25.4413L15.7011 25.3141L21.4826 19.5326C23.3761 17.6391 26.4103 17.5818 28.3729 19.3605L28.5537 19.5326L30.673 21.652C31.034 22.0127 31.6019 22.0405 31.9943 21.7358L32.0886 21.6527L36.4708 17.2723C37.252 16.4915 38.5183 16.4917 39.2992 17.273Z" fill="#333333"/>
</svg>
