<svg width="48" height="48" viewBox="0 0 48 48" fill="none" xmlns="http://www.w3.org/2000/svg">
<path fill-rule="evenodd" clip-rule="evenodd" d="M35 6C38.7854 6 41.8691 9.00478 41.9959 12.7594L42 13V35C42 38.7854 38.9952 41.8691 35.2407 41.9959L35 42H13C9.21455 42 6.1309 38.9952 6.00406 35.2407L6 35V13C6 9.21455 9.00478 6.1309 12.7594 6.00406L13 6H35ZM30.4734 17.3628L30.364 17.4645L21.8787 25.9497L17.636 21.7071C16.8905 20.9616 15.7028 20.9277 14.917 21.6054L14.8076 21.7071C14.0621 22.4527 14.0282 23.6404 14.7059 24.4261L14.8076 24.5355L20.4645 30.1924C21.21 30.9379 22.3977 30.9718 23.1835 30.2941L23.2929 30.1924L33.1924 20.2929C33.9734 19.5118 33.9734 18.2455 33.1924 17.4645C32.4468 16.7189 31.2591 16.685 30.4734 17.3628Z" fill="#333333"/>
</svg>
