<svg width="48" height="48" viewBox="0 0 48 48" fill="none" xmlns="http://www.w3.org/2000/svg">
<path fill-rule="evenodd" clip-rule="evenodd" d="M43 24C43 13.5066 34.4934 5 24 5C13.5066 5 5 13.5066 5 24C5 34.4934 13.5066 43 24 43C34.4934 43 43 34.4934 43 24ZM14.2041 21.4571C13.2277 22.4334 13.2277 24.0163 14.2041 24.9926L20.1538 30.9424C21.3254 32.114 23.2249 32.114 24.3964 30.9424L34.2959 21.0429C35.2723 20.0666 35.2723 18.4837 34.2959 17.5074C33.3196 16.531 31.7367 16.531 30.7604 17.5074L22.2751 25.9926L17.7396 21.4571C16.7633 20.4808 15.1804 20.4808 14.2041 21.4571Z" fill="#333333"/>
</svg>
