<svg width="48" height="48" viewBox="0 0 48 48" fill="none" xmlns="http://www.w3.org/2000/svg">
<path fill-rule="evenodd" clip-rule="evenodd" d="M24 5C34.4934 5 43 13.5066 43 24C43 34.4934 34.4934 43 24 43C13.5066 43 5 34.4934 5 24C5 13.5066 13.5066 5 24 5ZM30.4734 17.3628L30.364 17.4645L21.8787 25.9497L17.636 21.7071C16.8905 20.9616 15.7028 20.9277 14.917 21.6054L14.8076 21.7071C14.0621 22.4527 14.0282 23.6404 14.7059 24.4261L14.8076 24.5355L20.4645 30.1924C21.21 30.9379 22.3977 30.9718 23.1835 30.2941L23.2929 30.1924L33.1924 20.2929C33.9734 19.5118 33.9734 18.2455 33.1924 17.4645C32.4468 16.7189 31.2591 16.685 30.4734 17.3628Z" fill="#333333"/>
</svg>
