<svg width="48" height="48" viewBox="0 0 48 48" fill="none" xmlns="http://www.w3.org/2000/svg">
<path fill-rule="evenodd" clip-rule="evenodd" d="M35 6C38.7854 6 41.8691 9.00478 41.9959 12.7594L42 13V35C42 38.7854 38.9952 41.8691 35.2407 41.9959L35 42H13C9.21455 42 6.1309 38.9952 6.00406 35.2407L6 35V13C6 9.21455 9.00478 6.1309 12.7594 6.00406L13 6H35ZM35 10H13C11.4023 10 10.0963 11.2489 10.0051 12.8237L10 13V35C10 36.5977 11.2489 37.9037 12.8237 37.9949L13 38H35C36.5977 38 37.9037 36.7511 37.9949 35.1763L38 35V13C38 11.4023 36.7511 10.0963 35.1763 10.0051L35 10ZM30.4734 17.3628C31.2591 16.685 32.4468 16.7189 33.1924 17.4645C33.9323 18.2044 33.9713 19.3799 33.3092 20.1657L33.1924 20.2929L23.2929 30.1924L23.1835 30.2941C22.4414 30.9342 21.3407 30.9395 20.5927 30.3101L20.4645 30.1924L14.8076 24.5355L14.7059 24.4261C14.0658 23.684 14.0605 22.5834 14.6899 21.8353L14.8076 21.7071L14.917 21.6054C15.6591 20.9653 16.7598 20.96 17.5078 21.5894L17.636 21.7071L21.8794 25.949L30.364 17.4645L30.4734 17.3628Z" fill="#333333"/>
</svg>
