<svg width="48" height="48" viewBox="0 0 48 48" fill="none" xmlns="http://www.w3.org/2000/svg">
<path fill-rule="evenodd" clip-rule="evenodd" d="M24 5C34.4934 5 43 13.5066 43 24C43 34.4934 34.4934 43 24 43C13.5066 43 5 34.4934 5 24C5 13.5066 13.5066 5 24 5ZM24 9C15.7157 9 9 15.7157 9 24C9 32.2843 15.7157 39 24 39C32.2843 39 39 32.2843 39 24C39 15.7157 32.2843 9 24 9ZM30.4734 17.3628C31.2591 16.685 32.4468 16.7189 33.1924 17.4645C33.9323 18.2044 33.9713 19.3799 33.3092 20.1657L33.1924 20.2929L23.2929 30.1924L23.1835 30.2941C22.4414 30.9342 21.3407 30.9395 20.5927 30.3101L20.4645 30.1924L14.8076 24.5355L14.7059 24.4261C14.0658 23.684 14.0605 22.5834 14.6899 21.8353L14.8076 21.7071L14.917 21.6054C15.6591 20.9653 16.7598 20.96 17.5078 21.5894L17.636 21.7071L21.8787 25.9497L30.364 17.4645L30.4734 17.3628Z" fill="#333333"/>
</svg>
