<svg width="48" height="48" viewBox="0 0 48 48" fill="none" xmlns="http://www.w3.org/2000/svg">
<path d="M35 6C38.866 6 42 9.13401 42 13V35C42 38.866 38.866 42 35 42H13C9.13401 42 6 38.866 6 35V13C6 9.13401 9.13401 6 13 6H35ZM34.2959 17.5078C33.3196 16.5315 31.7371 16.5315 30.7607 17.5078L22.2754 25.9922L17.7393 21.457C16.763 20.4809 15.1803 20.4808 14.2041 21.457C13.2279 22.4333 13.228 24.0159 14.2041 24.9922L20.1533 30.9424C21.3249 32.114 23.2249 32.114 24.3965 30.9424L34.2959 21.043C35.2721 20.0667 35.272 18.4841 34.2959 17.5078Z" fill="#333333"/>
</svg>
