<svg width="48" height="48" viewBox="0 0 48 48" fill="none" xmlns="http://www.w3.org/2000/svg">
<path d="M24 4C35.0457 4 44 12.9543 44 24C44 35.0457 35.0457 44 24 44C12.9543 44 4 35.0457 4 24C4 12.9543 12.9543 4 24 4ZM24 8C15.1634 8 8 15.1634 8 24C8 32.8366 15.1634 40 24 40C32.8366 40 40 32.8366 40 24C40 15.1634 32.8366 8 24 8ZM24 13.333C25.0651 13.333 25.9362 14.1659 25.9971 15.2158L26 15.333V23.1719L32.4141 28.5859C33.1951 29.367 33.1951 30.633 32.4141 31.4141C31.6643 32.1639 30.4672 32.1937 29.6816 31.5039L29.5859 31.4141L23.1719 26C22.4659 25.294 22.0503 24.3513 22.0039 23.3584L22 23.1719V15.333C22.0002 14.2286 22.8955 13.333 24 13.333Z" fill="#333333"/>
</svg>
