<svg width="48" height="48" viewBox="0 0 48 48" fill="none" xmlns="http://www.w3.org/2000/svg">
<path fill-rule="evenodd" clip-rule="evenodd" d="M23.5869 5.00153H24.4129L25.2234 5.01397L25.6209 5.0249L26.4005 5.05632C37.5559 5.60466 42.2812 10.2094 42.9231 21.2173L42.9436 21.5994L42.975 22.379L42.9859 22.7765L42.9984 23.587V24.413L42.9859 25.2235L42.975 25.621L42.9436 26.4005C42.3952 37.5559 37.7905 42.2812 26.7826 42.9231L26.4005 42.9436L25.6209 42.9751L25.2234 42.986L24.4129 42.9984H23.5869L22.7764 42.986L22.3789 42.9751L21.5994 42.9436C10.444 42.3953 5.71868 37.7905 5.07678 26.7826L5.05626 26.4005L5.02484 25.621L5.01391 25.2235L5.00146 24.413V23.587L5.01391 22.7765L5.02484 22.379L5.05626 21.5994C5.6046 10.444 10.2094 5.71874 21.2173 5.07684L21.5994 5.05632L22.3789 5.0249L22.7764 5.01397L23.5869 5.00153ZM24.8929 9.00689L23.9999 8.99998L23.6387 9.00108L22.9323 9.00996L22.0791 9.03394L21.2584 9.07272L20.625 9.11476L20.0119 9.16687L19.7128 9.19678L19.1295 9.26451L18.5658 9.34297L18.0215 9.43245L17.7564 9.48141L17.2405 9.58791C12.955 10.538 10.6713 12.7423 9.65961 16.9306L9.58785 17.2406L9.48135 17.7565L9.43239 18.0215L9.34291 18.5659L9.26444 19.1296L9.19672 19.7129L9.1668 20.0119L9.1147 20.6251L9.0637 21.42L9.02791 22.2472L9.0099 22.9324L9.00102 23.6388V24.3612L9.0099 25.0676L9.03388 25.9208L9.07266 26.7415L9.1147 27.3749L9.1668 27.988L9.19672 28.2871L9.26444 28.8704L9.34291 29.4341L9.43239 29.9784L9.48135 30.2435L9.58785 30.7594C10.5379 35.0449 12.7422 37.3286 16.9305 38.3403L17.2405 38.412L17.7564 38.5186L18.0215 38.5675L18.5658 38.657L19.1295 38.7355L19.7128 38.8032L20.0119 38.8331L20.625 38.8852L21.42 38.9362L22.2471 38.972L23.1069 38.9931L23.9999 39L25.0675 38.99L25.9208 38.966L26.7414 38.9272L27.3748 38.8852L27.988 38.8331L28.287 38.8032L28.8703 38.7355L29.434 38.657L29.9784 38.5675L30.2434 38.5186L30.7593 38.412C35.0448 37.462 37.3285 35.2577 38.3402 31.0694L38.412 30.7594L38.5185 30.2435L38.5674 29.9784L38.6569 29.4341L38.7354 28.8704L38.8031 28.2871L38.833 27.988L38.8851 27.3749L38.9361 26.5799L38.9719 25.7528L38.993 24.893L38.9999 24L38.9899 22.9324L38.966 22.0791L38.9272 21.2585L38.8851 20.6251L38.833 20.0119L38.8031 19.7129L38.7354 19.1296L38.6569 18.5659L38.5674 18.0215L38.5185 17.7565L38.412 17.2406C37.4619 12.9551 35.2576 10.6714 31.0693 9.65967L30.7593 9.58791L30.2434 9.48141L29.9784 9.43245L29.434 9.34297L28.8703 9.26451L28.287 9.19678L27.988 9.16687L27.3748 9.11476L26.5799 9.06376L25.7527 9.02798L24.8929 9.00689ZM23.9997 15C25.0541 15 25.918 15.8157 25.9944 16.8505L25.9999 16.9998V23.984L29.7311 27.8025C30.4625 28.5509 30.4879 29.7268 29.8168 30.5049L29.6985 30.6308C28.9501 31.3621 27.7743 31.3875 26.9962 30.7164L26.8703 30.5982L22.5702 26.1978C22.2457 25.8657 22.0481 25.4324 22.0082 24.9734L22.0007 24.8002L21.9999 17.0002C21.9998 15.8956 22.8952 15 23.9997 15Z" fill="#333333"/>
</svg>
