<svg width="48" height="48" viewBox="0 0 48 48" fill="none" xmlns="http://www.w3.org/2000/svg">
<path fill-rule="evenodd" clip-rule="evenodd" d="M23.5977 6.00135L24 6C24.27 6 24.5364 6.0018 24.7992 6.00544L25.5771 6.02189L26.3338 6.04957C27.0799 6.08294 27.7947 6.13349 28.479 6.20218L29.1531 6.27695C29.8172 6.35784 30.4512 6.4572 31.056 6.576L31.6511 6.70132C37.1155 7.93208 40.0679 10.8845 41.2987 16.3489L41.424 16.944C41.5428 17.5488 41.6422 18.1828 41.7231 18.8469L41.7978 19.521C41.8665 20.2053 41.9171 20.9201 41.9504 21.6662L41.9781 22.4229L41.9946 23.2008L42 24L41.9946 24.7992L41.9781 25.5771L41.9504 26.3338C41.9171 27.0799 41.8665 27.7947 41.7978 28.479L41.7231 29.1531C41.6422 29.8172 41.5428 30.4512 41.424 31.056L41.2987 31.6511C39.8921 37.8961 36.2368 40.8602 29.1531 41.7231L28.479 41.7978C27.7947 41.8665 27.0799 41.9171 26.3338 41.9504L25.5771 41.9781L24.7992 41.9946C24.6678 41.9964 24.5355 41.9977 24.4023 41.9986L24 42C23.73 42 23.4636 41.9982 23.2008 41.9946L22.4229 41.9781L21.6662 41.9504C20.9201 41.9171 20.2053 41.8665 19.521 41.7978L18.8469 41.7231C11.7632 40.8602 8.10791 37.8961 6.70132 31.6511L6.576 31.056C6.4572 30.4512 6.35784 29.8172 6.27695 29.1531L6.20218 28.479C6.13349 27.7947 6.08294 27.0799 6.04957 26.3338L6.02189 25.5771L6.00544 24.7992C6.00362 24.6678 6.00226 24.5355 6.00135 24.4023L6 24C6 23.73 6.0018 23.4636 6.00544 23.2008L6.02189 22.4229L6.04957 21.6662C6.08294 20.9201 6.13349 20.2053 6.20218 19.521L6.27695 18.8469C7.1398 11.7632 10.1039 8.10791 16.3489 6.70132L16.944 6.576C17.5488 6.4572 18.1828 6.35784 18.8469 6.27695L19.521 6.20218C20.2053 6.13349 20.9201 6.08294 21.6662 6.04957L22.4229 6.02189L23.2008 6.00544C23.3322 6.00362 23.4645 6.00226 23.5977 6.00135ZM23.9998 15C22.9454 15 22.0817 15.8161 22.0055 16.8509L22 17.0002L22.0007 24.8002L22.0083 24.9734C22.0432 25.3751 22.1989 25.757 22.4546 26.0687L22.5703 26.1978L26.8704 30.5982L26.9962 30.7165C27.7311 31.3503 28.8208 31.3628 29.5701 30.7461L29.6986 30.6308L29.8169 30.5049C30.4507 29.77 30.4633 28.6804 29.8466 27.9311L29.7312 27.8025L26 23.984V16.9998L25.9945 16.8505C25.9181 15.8157 25.0542 15 23.9998 15Z" fill="#333333"/>
</svg>
