<svg width="48" height="48" viewBox="0 0 48 48" fill="none" xmlns="http://www.w3.org/2000/svg">
<path fill-rule="evenodd" clip-rule="evenodd" d="M33.9188 9.97709C38.7883 13.1986 42 18.7242 42 25C42 34.9411 33.9411 43 24 43C14.0589 43 6 34.9411 6 25C6 18.7242 9.21171 13.1986 14.0812 9.97709L16.1879 13.3805C12.4552 15.8951 10 20.1608 10 25C10 32.732 16.268 39 24 39C31.732 39 38 32.732 38 25C38 20.1612 35.5452 15.8958 31.8131 13.3812L33.9188 9.97709ZM24 4C25.1046 4 26 4.89543 26 6V22C26 23.1046 25.1046 24 24 24C22.8954 24 22 23.1046 22 22V6C22 4.89543 22.8954 4 24 4Z" fill="#333333"/>
<circle cx="32.6858" cy="11.5721" r="2" fill="#333333"/>
<circle cx="15.3079" cy="11.5743" r="2" fill="#333333"/>
</svg>
