<svg width="48" height="48" viewBox="0 0 48 48" fill="none" xmlns="http://www.w3.org/2000/svg">
<path d="M14.6667 25.3336C20.2713 25.3336 22.6667 27.729 22.6667 33.3336C22.6667 38.938 20.2712 41.3336 14.6667 41.3336C9.06229 41.3336 6.66684 38.938 6.66675 33.3336C6.66675 27.729 9.06218 25.3336 14.6667 25.3336ZM29.3337 26.6666C30.3987 26.6668 31.269 27.4997 31.3298 28.5494L31.3337 28.6666V37.9996C31.3337 39.1041 30.4382 39.9995 29.3337 39.9996C28.2687 39.9996 27.3977 39.1675 27.3367 38.1178L27.3337 37.9996V28.6666C27.3337 27.5621 28.2292 26.6666 29.3337 26.6666ZM37.3337 35.9996C38.4381 35.9998 39.3336 36.8953 39.3337 37.9996C39.3337 39.1041 38.4382 39.9995 37.3337 39.9996C36.2292 39.9996 35.3337 39.1042 35.3337 37.9996C35.3339 36.8952 36.2293 35.9996 37.3337 35.9996ZM14.3191 29.3356L13.9919 29.3434L13.6843 29.3561L13.3962 29.3756C13.3497 29.3793 13.3036 29.383 13.2585 29.3873L12.9968 29.4166C11.5236 29.6099 10.943 30.1904 10.7498 31.6637L10.7205 31.9254C10.7162 31.9704 10.7125 32.0167 10.7087 32.0631L10.6892 32.3512L10.6765 32.6588C10.6748 32.7115 10.6728 32.7657 10.6716 32.8199L10.6677 33.1578V33.5094C10.6681 33.5672 10.6679 33.6252 10.6687 33.6813L10.6765 34.0084L10.6892 34.316L10.7087 34.6041C10.7125 34.6506 10.7162 34.6969 10.7205 34.7418L10.7498 35.0035C10.9431 36.4766 11.5237 37.0573 12.9968 37.2506L13.2585 37.2799C13.3036 37.2842 13.3497 37.2879 13.3962 37.2916L13.6843 37.3112L13.9919 37.3239L14.3191 37.3317L14.6667 37.3336L15.0144 37.3317L15.3416 37.3239L15.6492 37.3112L15.9373 37.2916C15.9838 37.2879 16.0299 37.2842 16.075 37.2799L16.3367 37.2506C17.8098 37.0573 18.3904 36.4766 18.5837 35.0035L18.613 34.7418C18.6173 34.6969 18.621 34.6506 18.6248 34.6041L18.6443 34.316L18.657 34.0084L18.6648 33.6813L18.6667 33.3336L18.6648 32.986L18.657 32.6588L18.6443 32.3512L18.6248 32.0631C18.621 32.0167 18.6173 31.9704 18.613 31.9254L18.5837 31.6637C18.3904 30.1904 17.8099 29.6099 16.3367 29.4166L16.075 29.3873C16.0299 29.383 15.9838 29.3793 15.9373 29.3756L15.6492 29.3561L15.3416 29.3434C15.2888 29.3417 15.2348 29.3397 15.1804 29.3385L14.8425 29.3346H14.491C14.4331 29.335 14.3753 29.3348 14.3191 29.3356ZM37.3337 26.6666C38.3987 26.6668 39.269 27.4997 39.3298 28.5494L39.3337 28.6666V31.9996C39.3337 33.1041 38.4382 33.9995 37.3337 33.9996C36.2687 33.9996 35.3977 33.1675 35.3367 32.1178L35.3337 31.9996V28.6666C35.3337 27.5621 36.2292 26.6666 37.3337 26.6666ZM14.6667 6.66663C20.2713 6.66663 22.6667 9.06206 22.6667 14.6666C22.6667 20.2712 20.2713 22.6666 14.6667 22.6666C9.06218 22.6666 6.66675 20.2712 6.66675 14.6666C6.66675 9.06206 9.06218 6.66663 14.6667 6.66663ZM33.3337 6.66663C38.9381 6.66672 41.3337 9.06217 41.3337 14.6666C41.3337 20.2711 38.9381 22.6665 33.3337 22.6666C27.7292 22.6666 25.3337 20.2712 25.3337 14.6666C25.3337 9.06206 27.7292 6.66663 33.3337 6.66663ZM14.3191 10.6686L13.9919 10.6764L13.6843 10.6891L13.3962 10.7086C13.3497 10.7123 13.3036 10.716 13.2585 10.7203L12.9968 10.7496C11.5236 10.9429 10.9431 11.5234 10.7498 12.9967L10.7205 13.2584C10.7162 13.3035 10.7125 13.3496 10.7087 13.3961L10.6892 13.6842L10.6765 13.9918C10.6748 14.0446 10.6729 14.0986 10.6716 14.153L10.6677 14.4908V14.8424C10.6681 14.9003 10.6679 14.9581 10.6687 15.0143L10.6765 15.3414L10.6892 15.649L10.7087 15.9371C10.7125 15.9837 10.7162 16.0298 10.7205 16.0748L10.7498 16.3365C10.9431 17.8098 11.5236 18.3903 12.9968 18.5836L13.2585 18.6129C13.3036 18.6172 13.3497 18.6209 13.3962 18.6246L13.6843 18.6442L13.9919 18.6569L14.3191 18.6647L14.6667 18.6666L15.0144 18.6647L15.3416 18.6569L15.6492 18.6442L15.9373 18.6246C15.9838 18.6209 16.0299 18.6172 16.075 18.6129L16.3367 18.5836C17.8099 18.3903 18.3904 17.8098 18.5837 16.3365L18.613 16.0748C18.6173 16.0298 18.621 15.9837 18.6248 15.9371L18.6443 15.649L18.657 15.3414L18.6648 15.0143L18.6667 14.6666L18.6648 14.319L18.657 13.9918L18.6443 13.6842L18.6248 13.3961C18.621 13.3496 18.6173 13.3035 18.613 13.2584L18.5837 12.9967C18.3904 11.5234 17.8099 10.9429 16.3367 10.7496L16.075 10.7203C16.0299 10.716 15.9838 10.7123 15.9373 10.7086L15.6492 10.6891L15.3416 10.6764C15.2888 10.6747 15.2348 10.6727 15.1804 10.6715L14.8425 10.6676H14.491C14.4331 10.668 14.3753 10.6678 14.3191 10.6686ZM32.9861 10.6686L32.6589 10.6764L32.3513 10.6891L32.0632 10.7086C32.0168 10.7123 31.9705 10.716 31.9255 10.7203L31.6638 10.7496C30.1906 10.9429 29.61 11.5235 29.4167 12.9967L29.3875 13.2584C29.3831 13.3035 29.3795 13.3496 29.3757 13.3961L29.3562 13.6842L29.3435 13.9918C29.3418 14.0446 29.3398 14.0986 29.3386 14.153L29.3347 14.4908V14.8424C29.3351 14.9003 29.3349 14.9581 29.3357 15.0143L29.3435 15.3414L29.3562 15.649L29.3757 15.9371C29.3795 15.9837 29.3831 16.0298 29.3875 16.0748L29.4167 16.3365C29.61 17.8098 30.1906 18.3903 31.6638 18.5836L31.9255 18.6129C31.9705 18.6172 32.0168 18.6209 32.0632 18.6246L32.3513 18.6442L32.6589 18.6569L32.9861 18.6647L33.3337 18.6666L33.6814 18.6647L34.0085 18.6569L34.3162 18.6442L34.6042 18.6246C34.6507 18.6209 34.697 18.6172 34.7419 18.6129L35.0037 18.5836C36.4767 18.3903 37.0575 17.8097 37.2507 16.3365L37.28 16.0748C37.2843 16.0298 37.288 15.9837 37.2917 15.9371L37.3113 15.649L37.324 15.3414L37.3318 15.0143L37.3337 14.6666L37.3318 14.319L37.324 13.9918L37.3113 13.6842L37.2917 13.3961C37.288 13.3496 37.2843 13.3035 37.28 13.2584L37.2507 12.9967C37.0575 11.5235 36.4767 10.943 35.0037 10.7496L34.7419 10.7203C34.697 10.716 34.6507 10.7123 34.6042 10.7086L34.3162 10.6891L34.0085 10.6764C33.9559 10.6747 33.9017 10.6727 33.8474 10.6715L33.5095 10.6676H33.158C33.1002 10.668 33.0422 10.6678 32.9861 10.6686Z" fill="#333333"/>
</svg>
