<svg width="48" height="48" viewBox="0 0 48 48" fill="none" xmlns="http://www.w3.org/2000/svg">
<path d="M24 5C34.4934 5 43 13.5066 43 24C43 34.4934 34.4934 43 24 43C13.5066 43 5 34.4934 5 24C5 13.5066 13.5066 5 24 5ZM17.6807 12.7998C15.5345 12.7999 13.7999 14.5531 13.7998 16.709V30.2539C13.7999 32.4102 15.5344 34.163 17.6807 34.1631H31.5361L31.7373 34.1582C33.8679 34.0524 35.5576 32.275 35.5576 30.1055V23.9678L35.5527 23.7656C35.4482 21.6219 33.693 19.9112 31.5361 19.9111H31.2119V16.709C31.2118 14.5531 29.4773 12.7998 27.3311 12.7998H17.6807ZM27.3311 15.2002C28.1461 15.2002 28.8124 15.8729 28.8125 16.709V30.2539C28.8124 31.0903 28.1463 31.7627 27.3311 31.7627H17.6807C16.8655 31.7626 16.2003 31.0903 16.2002 30.2539V16.709C16.2003 15.873 16.8657 15.2003 17.6807 15.2002H27.3311ZM31.5361 22.3105L31.6758 22.3174C32.5032 22.3897 33.158 23.0979 33.1582 23.9678V30.1055L33.1514 30.249C33.0801 31.0997 32.3815 31.7626 31.5361 31.7627H30.9121C31.1052 31.2983 31.2119 30.7885 31.2119 30.2539V22.3105H31.5361ZM19.2002 24.9971L19.0771 25.0039C18.4722 25.0654 18.0001 25.5761 18 26.1973C18 26.8599 18.5375 27.3974 19.2002 27.3975H22.3604L22.4834 27.3916C23.0883 27.33 23.5605 26.8185 23.5605 26.1973C23.5604 25.5347 23.023 24.9971 22.3604 24.9971H19.2002ZM19.2002 19.5977L19.0771 19.6035C18.4723 19.665 18.0003 20.1759 18 20.7969C18 21.4596 18.5375 21.997 19.2002 21.9971H25.5205L25.6436 21.9912C26.2486 21.9297 26.7207 21.4182 26.7207 20.7969C26.7203 20.1344 26.183 19.5977 25.5205 19.5977H19.2002Z" fill="#333333"/>
</svg>
