<svg width="48" height="48" viewBox="0 0 48 48" fill="none" xmlns="http://www.w3.org/2000/svg">
<path fill-rule="evenodd" clip-rule="evenodd" d="M12.468 41.6049C8.96834 41.6049 6.126 38.8096 6.00408 35.3234L6 35.0899V12.515C6 8.99977 8.7665 6.12735 12.2357 6.00412L12.468 6H28.5526C32.052 6 34.8946 8.79601 35.0165 12.2816L35.0206 12.515L35.02 17.851L35.5603 17.8519C39.1888 17.8519 42.1356 20.7567 42.2593 24.3764L42.2634 24.6135V34.8433C42.2634 38.4931 39.3938 41.4756 35.7959 41.6008L35.5603 41.6049H12.468ZM35.0206 35.0899C35.0206 35.9809 34.8429 36.8306 34.5212 37.6046L35.5603 37.6049C36.9925 37.6049 38.1729 36.4637 38.2584 35.0121L38.2634 34.8433V24.6135C38.2634 23.1393 37.136 21.9434 35.7243 21.8569L35.5603 21.8519L35.02 21.851L35.0206 35.0899ZM20.2675 26.3292H15L14.8507 26.3347C13.8159 26.4111 13 27.2749 13 28.3292C13 29.3836 13.8159 30.2474 14.8507 30.3237L15 30.3292H20.2675L20.4168 30.3237C21.4516 30.2474 22.2675 29.3836 22.2675 28.3292C22.2675 27.2246 21.3721 26.3292 20.2675 26.3292ZM25.535 17.3292H15L14.8507 17.3347C13.8159 17.4111 13 18.2749 13 19.3292C13 20.3836 13.8159 21.2474 14.8507 21.3237L15 21.3292H25.535L25.6842 21.3237C26.7191 21.2474 27.535 20.3836 27.535 19.3292C27.535 18.2246 26.6395 17.3292 25.535 17.3292Z" fill="#333333"/>
</svg>
