<svg width="48" height="48" viewBox="0 0 48 48" fill="none" xmlns="http://www.w3.org/2000/svg">
<path fill-rule="evenodd" clip-rule="evenodd" d="M28.5526 6C32.052 6 34.8946 8.79601 35.0165 12.2816L35.0206 12.515L35.02 17.851L35.5603 17.8519C39.1888 17.8519 42.1356 20.7567 42.2593 24.3764L42.2634 24.6135V34.8433C42.2634 38.4931 39.3938 41.4756 35.7959 41.6008L35.5603 41.6049H12.468C8.96834 41.6049 6.126 38.8096 6.00408 35.3234L6 35.0899V12.515C6 8.99977 8.7665 6.12735 12.2357 6.00412L12.468 6H28.5526ZM35.5603 21.8519L35.02 21.851L35.0206 35.0899C35.0206 35.9809 34.8429 36.8306 34.5212 37.6046L35.5603 37.6049C36.9925 37.6049 38.1729 36.4637 38.2584 35.0121L38.2634 34.8433V24.6135C38.2634 23.1393 37.136 21.9434 35.7243 21.8569L35.5603 21.8519ZM28.5526 10H12.468C11.1639 10 10.0892 11.0334 10.0053 12.3491L10 12.515V35.0899C10 36.4284 11.0222 37.5148 12.3062 37.5996L12.468 37.6049H28.5526C29.8571 37.6049 30.9314 36.572 31.0153 35.2559L31.0206 35.0899V12.515C31.0206 11.1771 29.998 10.0901 28.7144 10.0053L28.5526 10ZM20.2675 26.3292C21.3721 26.3292 22.2675 27.2246 22.2675 28.3292C22.2675 29.3836 21.4516 30.2474 20.4168 30.3237L20.2675 30.3292H15C13.8954 30.3292 13 29.4338 13 28.3292C13 27.2749 13.8159 26.4111 14.8507 26.3347L15 26.3292H20.2675ZM25.535 17.3292C26.6395 17.3292 27.535 18.2246 27.535 19.3292C27.535 20.3836 26.7191 21.2474 25.6842 21.3237L25.535 21.3292H15C13.8954 21.3292 13 20.4338 13 19.3292C13 18.2749 13.8159 17.4111 14.8507 17.3347L15 17.3292H25.535Z" fill="#333333"/>
</svg>
