<svg width="48" height="48" viewBox="0 0 48 48" fill="none" xmlns="http://www.w3.org/2000/svg">
<path fill-rule="evenodd" clip-rule="evenodd" d="M35.7905 6.70941C39.576 6.70941 42.6596 9.7142 42.7865 13.4688L42.7905 13.7094V30.3019C42.7905 34.0874 39.7857 37.171 36.0193 37.2978L35.7778 37.3019L34.167 37.2853L32.3466 37.2794L31.7802 37.2824L30.8565 37.297L30.3335 37.3164L29.921 37.668L29.3071 38.2182L28.5182 38.9478L27.313 40.0883L25.9028 41.4456C24.7604 42.5523 22.9643 42.5687 21.801 41.5137L21.659 41.3763L20.4791 40.1652L19.7807 39.4641L19.3134 39.0041L18.8861 38.5917L18.3209 38.0631L17.9953 37.7712L17.7269 37.5411L17.5085 37.3634L15.1949 37.3503L11.8223 37.3591C8.03691 37.3763 4.93965 34.3856 4.79568 30.6316L4.79053 30.391V13.7094C4.79053 9.92396 7.79531 6.84031 11.5499 6.71347L11.7905 6.70941H35.7905ZM35.7905 10.7094H11.7905C10.1928 10.7094 8.88687 11.9583 8.79562 13.5331L8.79053 13.7094V30.3592L8.79645 30.5491C8.89121 32.0651 10.111 33.2739 11.6279 33.3549L11.8042 33.3592L13.6919 33.3523L15.8987 33.3512L17.3823 33.3593L17.8365 33.3693L18.2209 33.3914L18.335 33.4041L18.4806 33.4283L18.6751 33.4773C19.056 33.5915 19.4607 33.8185 19.9559 34.1964L20.146 34.3453L20.528 34.6641L20.9477 35.0373L21.3141 35.3769L21.9209 35.9584L22.3674 36.3962L23.3231 37.3524L23.8385 37.8784L25.5629 36.2307L26.4975 35.3614L26.8221 35.067L27.3952 34.5637L27.764 34.2564L28.086 34.005L28.277 33.8667L28.4508 33.7503L28.6088 33.655L28.7526 33.5794L28.8817 33.5231L29.028 33.4728L29.1886 33.43L29.2758 33.4112L29.4668 33.3784L29.684 33.3515L29.9323 33.33L30.2163 33.3133L30.5408 33.3006L31.3307 33.2854L32.8601 33.279L33.9898 33.2839L35.7398 33.3015L35.9668 33.2968C37.4833 33.2089 38.6976 31.9947 38.7854 30.4782L38.7905 30.3019V13.7094C38.7905 12.1117 37.5416 10.8058 35.9668 10.7145L35.7905 10.7094ZM29.4999 20C30.8807 20 31.9999 21.1193 31.9999 22.5C31.9999 23.8807 30.8807 25 29.4999 25C28.1192 25 26.9999 23.8807 26.9999 22.5C26.9999 21.1193 28.1192 20 29.4999 20ZM18.4999 20C19.8807 20 20.9999 21.1193 20.9999 22.5C20.9999 23.8807 19.8807 25 18.4999 25C17.1192 25 15.9999 23.8807 15.9999 22.5C15.9999 21.1193 17.1192 20 18.4999 20Z" fill="#333333"/>
</svg>
