<svg width="48" height="48" viewBox="0 0 48 48" fill="none" xmlns="http://www.w3.org/2000/svg">
<path fill-rule="evenodd" clip-rule="evenodd" d="M23.8589 6.14111C25.1765 6.14111 26.4175 6.18803 27.5843 6.28383L28.1615 6.33581L28.8784 6.41384L29.2294 6.45787L29.9166 6.55604L30.4192 6.63855L30.9109 6.72875L31.5495 6.86103C38.0337 8.29595 41.4545 11.938 42.5033 18.3402L42.5591 18.6987L42.6449 19.3384C42.7683 20.3573 42.8374 21.441 42.8546 22.5915L42.8589 23.1722L42.8531 23.9688L42.8355 24.7434L42.8222 25.1226L42.8059 25.4963L42.764 26.2276C42.1941 34.7464 38.9815 38.7941 31.0582 39.8573L30.6102 39.9128L30.2722 39.9369L30.1681 39.9497L30.1079 39.9641L29.8462 40.1371L29.2836 40.5351L28.5519 41.0729L27.4073 41.9351L25.7158 43.2329C24.6581 44.0501 23.1955 44.0649 22.125 43.291L21.9675 43.169L21.1028 42.4579L20.3267 41.831L19.6396 41.2884L19.0421 40.8307L18.691 40.5707L18.2478 40.258L18.0153 40.1059L17.9069 40.0401L17.6319 39.991L17.2451 39.9312L16.7973 39.8753C9.22849 38.8945 5.90728 35.2305 5.07602 27.6211L5.03773 27.2498L4.9777 26.5558C4.95383 26.2428 4.93367 25.9235 4.91712 25.5981L4.895 25.1051L4.87178 24.3481L4.8646 23.9615L4.85889 23.1722C4.85889 21.9995 4.91033 20.8938 5.01566 19.8533L5.07283 19.3384L5.15868 18.6987C6.11983 12.1941 9.44022 8.45987 15.8112 6.94303L16.1683 6.86103L16.8069 6.72875L17.2985 6.63855L17.8011 6.55604L18.4884 6.45787L18.8394 6.41384L19.5563 6.33581C20.8888 6.20498 22.3217 6.14111 23.8589 6.14111ZM24.6172 10.1461L23.8589 10.1411L22.9147 10.1489L22.007 10.1726L21.6541 10.1866L20.9653 10.2225L20.6295 10.2445L19.9746 10.2967C19.4917 10.34 19.0276 10.3926 18.5816 10.455L18.1417 10.5207L17.5738 10.6186C12.1071 11.6372 9.67276 14.3847 9.03578 19.7994L9.00038 20.121L8.94867 20.6931L8.92733 20.9863L8.8935 21.5867L8.86745 22.3643L8.85889 23.1722L8.86361 23.9278L8.86959 24.2947L8.87806 24.6544L8.90267 25.3528L8.93786 26.0233L8.95956 26.3483L9.01142 26.9782L9.04169 27.2832L9.11118 27.8736C9.80311 33.1619 12.0402 35.2243 17.2937 35.9062L17.6002 35.9441L17.9782 35.9956L18.4159 36.067L18.8254 36.1455L18.9922 36.1835C19.1606 36.2252 19.3478 36.2958 19.5597 36.3986L19.7233 36.4817L20.1078 36.702L20.3918 36.8819L20.5427 36.9821L20.8635 37.2036L21.2107 37.4539L21.5861 37.734L22.2054 38.2118L22.8971 38.7615L23.9039 39.5801L24.7086 38.9615L26.1495 37.872L26.5896 37.5468L27.3327 37.014L27.7805 36.7107L28.0319 36.5512L28.2977 36.3967L28.3448 36.3715L28.5146 36.2891L28.5888 36.2584C29.095 36.0635 29.455 35.9908 29.9388 35.9507L30.2147 35.9317L30.5067 35.8955C36.1649 35.144 38.2905 32.7671 38.7554 26.3924L38.7783 26.0532L38.8142 25.3762L38.8281 25.0271L38.8513 24.1226L38.8541 23.9363L38.8589 23.1722L38.8558 22.6838L38.8465 22.2064L38.8243 21.5867L38.7802 20.8391L38.7691 20.6931L38.7174 20.121C38.1504 14.6013 35.8103 11.7673 30.4621 10.6805L30.144 10.6186L29.5761 10.5207C29.1421 10.4517 28.6903 10.3927 28.2198 10.3431L27.7432 10.2967L27.0883 10.2445L26.7524 10.2225L26.0637 10.1866L25.7108 10.1726L25.3521 10.1612L24.6172 10.1461ZM29.5 21C30.8807 21 32 22.1193 32 23.5C32 24.8807 30.8807 26 29.5 26C28.1193 26 27 24.8807 27 23.5C27 22.1193 28.1193 21 29.5 21ZM18.5 21C19.8807 21 21 22.1193 21 23.5C21 24.8807 19.8807 26 18.5 26C17.1193 26 16 24.8807 16 23.5C16 22.1193 17.1193 21 18.5 21Z" fill="#333333"/>
</svg>
