<svg width="48" height="48" viewBox="0 0 48 48" fill="none" xmlns="http://www.w3.org/2000/svg">
<path d="M10 33.5C11.3807 33.5 12.5 34.6193 12.5 36C12.5 37.3807 11.3807 38.5 10 38.5C8.61929 38.5 7.5 37.3807 7.5 36C7.5 34.6193 8.61929 33.5 10 33.5ZM38 34C39.1046 34 40 34.8954 40 36C40 37.1046 39.1046 38 38 38H17C15.8954 38 15 37.1046 15 36C15 34.8954 15.8954 34 17 34H38ZM10 21.5C11.3807 21.5 12.5 22.6193 12.5 24C12.5 25.3807 11.3807 26.5 10 26.5C8.61929 26.5 7.5 25.3807 7.5 24C7.5 22.6193 8.61929 21.5 10 21.5ZM38 22C39.1046 22 40 22.8954 40 24C40 25.1046 39.1046 26 38 26H17C15.8954 26 15 25.1046 15 24C15 22.8954 15.8954 22 17 22H38ZM10 10.5C11.3807 10.5 12.5 11.6193 12.5 13C12.5 14.3807 11.3807 15.5 10 15.5C8.61929 15.5 7.5 14.3807 7.5 13C7.5 11.6193 8.61929 10.5 10 10.5ZM38 11C39.1046 11 40 11.8954 40 13C40 14.1046 39.1046 15 38 15H17C15.8954 15 15 14.1046 15 13C15 11.8954 15.8954 11 17 11H38Z" fill="#333333"/>
</svg>
