<svg width="48" height="48" viewBox="0 0 48 48" fill="none" xmlns="http://www.w3.org/2000/svg">
<path fill-rule="evenodd" clip-rule="evenodd" d="M26.9702 16C29.7317 16 31.9702 18.2386 31.9702 21V37C31.9702 39.7614 29.7317 42 26.9702 42H11.0275C8.27142 42 6.03506 39.7697 6.02754 37.0136L5.98391 21.0136C5.97637 18.2522 8.20884 16.0075 10.9703 16L26.9702 16ZM37.9999 6C40.7614 6 42.9999 8.23858 42.9999 11V27C42.9999 29.7614 40.7614 32 37.9999 32H34.9992L34.9999 18C34.9999 15.2386 32.7614 13 29.9999 13H16.9992L16.9999 11C16.9999 8.23858 19.2385 6 21.9999 6H37.9999Z" fill="#333333"/>
</svg>
