<svg width="48" height="48" viewBox="0 0 48 48" fill="none" xmlns="http://www.w3.org/2000/svg">
<path fill-rule="evenodd" clip-rule="evenodd" d="M34.9406 5.05969C38.726 5.05969 41.8097 8.06448 41.9365 11.819L41.9406 12.0597V26C41.9406 29.7854 38.9358 32.8691 35.1812 32.9959L34.9406 33L33 32.9997V35C33 38.7854 29.9952 41.8691 26.2407 41.9959L26 42H12C8.21455 42 5.1309 38.9952 5.00406 35.2406L5 35V21C5 17.2145 8.00478 14.1309 11.7594 14.0041L12 14L13.999 13.9997L14 12.0597C14 8.27424 17.0048 5.19059 20.7593 5.06375L21 5.05969H34.9406ZM26 18H12C10.4023 18 9.09634 19.2489 9.00509 20.8237L9 21V35C9 36.5977 10.2489 37.9037 11.8237 37.9949L12 38H26C27.5977 38 28.9037 36.7511 28.9949 35.1763L29 35V21C29 19.4023 27.7511 18.0963 26.1763 18.0051L26 18ZM23 29.5C24.1046 29.5 25 30.3954 25 31.5C25 32.5544 24.1841 33.4182 23.1493 33.4945L23 33.5H15C13.8954 33.5 13 32.6046 13 31.5C13 30.4456 13.8159 29.5818 14.8507 29.5055L15 29.5H23ZM34.9406 9.05969H21C19.4023 9.05969 18.0963 10.3086 18.0051 11.8834L18 12.0597L17.999 13.9997L26 14C29.7855 14 32.8691 17.0048 32.9959 20.7593L33 21V28.9997L34.9406 29C36.5383 29 37.8443 27.7511 37.9355 26.1763L37.9406 26V12.0597C37.9406 10.462 36.6917 9.15603 35.1169 9.06479L34.9406 9.05969ZM23 22.5C24.1046 22.5 25 23.3954 25 24.5C25 25.5544 24.1841 26.4182 23.1493 26.4945L23 26.5H15C13.8954 26.5 13 25.6046 13 24.5C13 23.4456 13.8159 22.5818 14.8507 22.5055L15 22.5H23Z" fill="#333333"/>
</svg>
