<svg width="48" height="48" viewBox="0 0 48 48" fill="none" xmlns="http://www.w3.org/2000/svg">
<path d="M36 8C39.866 8 43 11.134 43 15V17.9912C43 19.0958 42.1046 19.9912 41 19.9912L40.8008 19.9961C38.6844 20.1001 37.0001 21.8491 37 23.9912C37 26.2003 38.7909 27.9912 41 27.9912L41.1494 27.9971C42.1842 28.0735 42.9999 28.937 43 29.9912V33C43 36.866 39.866 40 36 40H12C8.13401 40 5 36.866 5 33V29.9912C5.00006 28.8867 5.89547 27.9912 7 27.9912L7.19922 27.9863C9.31561 27.8823 11 26.1334 11 23.9912C10.9999 21.7821 9.2091 19.9912 7 19.9912L6.85059 19.9854C5.81581 19.9089 5 19.0455 5 17.9912V15C5 11.134 8.13401 8 12 8H36ZM18.8506 26.5059C17.8158 26.5823 17 27.4457 17 28.5C17 29.6046 17.8954 30.5 19 30.5H29L29.1494 30.4941C30.1842 30.4177 31 29.5543 31 28.5C31 27.3954 30.1046 26.5 29 26.5H19L18.8506 26.5059ZM19 17.5L18.8506 17.5059C17.8158 17.5823 17 18.4457 17 19.5C17 20.6046 17.8954 21.5 19 21.5H29L29.1494 21.4941C30.1842 21.4177 31 20.5543 31 19.5C31 18.3954 30.1046 17.5 29 17.5H19Z" fill="#333333"/>
</svg>
