<svg width="48" height="48" viewBox="0 0 48 48" fill="none" xmlns="http://www.w3.org/2000/svg">
<path fill-rule="evenodd" clip-rule="evenodd" d="M36 8C39.7854 8 42.8691 11.0048 42.9959 14.7594L43 15V19C43 20.0544 42.1841 20.9182 41.1493 20.9945L40.8237 21.0051C39.2482 21.0961 38 22.399 38 23.9913C38 25.5836 39.2482 26.8865 40.8237 26.9776L41.1493 26.9881C42.1324 27.0607 42.9179 27.8439 42.994 28.826L43 28.9826V33C43 36.7855 39.9952 39.8691 36.2407 39.9959L36 40H12C8.21455 40 5.1309 36.9952 5.00406 33.2407L5 33V28.9826C5 27.9283 5.81588 27.0645 6.85074 26.9881L7.17635 26.9776C8.7518 26.8865 10 25.5836 10 23.9913C10 22.399 8.7518 21.0961 7.17635 21.0051L6.85074 20.9945C5.86762 20.922 5.08214 20.1388 5.00604 19.1567L5 19V15C5 11.2145 8.00478 8.1309 11.7594 8.00406L12 8H36ZM36 12H12C10.4023 12 9.09634 13.2489 9.00509 14.8237L9 15V17.29L9.0813 17.3142C11.7734 18.1504 13.7693 20.566 13.9813 23.4766L13.9959 23.7509L14 23.9913C14 27.0395 12.0471 29.6313 9.32358 30.5882L9.0813 30.6684L9 30.691V33C9 34.5385 10.1581 35.8065 11.6501 35.9798L11.8237 35.9949L12 36H36C37.5977 36 38.9037 34.7511 38.9949 33.1763L39 33V30.692L38.9187 30.6684C36.2266 29.8322 34.2307 27.4166 34.0187 24.506L34.0041 24.2317L34 23.9913C34 20.9431 35.9529 18.3513 38.6764 17.3944L38.9187 17.3142L39 17.29V15C39 13.4615 37.8419 12.1935 36.3499 12.0202L36.1763 12.0051L36 12ZM29 26.5C30.1046 26.5 31 27.3954 31 28.5C31 29.5544 30.1841 30.4182 29.1493 30.4945L29 30.5H19C17.8954 30.5 17 29.6046 17 28.5C17 27.4456 17.8159 26.5818 18.8507 26.5055L19 26.5H29ZM29 17.5C30.1046 17.5 31 18.3954 31 19.5C31 20.5544 30.1841 21.4182 29.1493 21.4945L29 21.5H19C17.8954 21.5 17 20.6046 17 19.5C17 18.4456 17.8159 17.5818 18.8507 17.5055L19 17.5H29Z" fill="#333333"/>
</svg>
