<svg width="48" height="48" viewBox="0 0 48 48" fill="none" xmlns="http://www.w3.org/2000/svg">
<path fill-rule="evenodd" clip-rule="evenodd" d="M32 4C36.3349 4 39.8645 7.44784 39.9962 11.7508L40 12V28C40 28.336 39.9896 28.6695 39.9692 29.0003L40 29C40 33.7019 37.6821 37.8624 34.1267 40.4012L34.0072 40.485C31.3684 42.6028 28.0438 43.9013 24.4195 43.9946L24 44H16C11.6651 44 8.13546 40.5522 8.00381 36.2492L8 36V12C8 7.66509 11.4478 4.13546 15.7508 4.00381L16 4H32ZM32 8H16C13.8578 8 12.1089 9.68397 12.0049 11.8004L12 12V36C12 38.1422 13.684 39.8911 15.8004 39.9951L16 40H24C24.6817 40 25.3501 39.9432 26.0008 39.8339L26 37C26 32.5817 29.5817 29 34 29L35.9589 29.0005C35.977 28.7805 35.9893 28.5589 35.9954 28.3358L36 28V12C36 9.8578 34.316 8.10892 32.1996 8.0049L32 8Z" fill="#333333"/>
</svg>
