<svg width="48" height="48" viewBox="0 0 48 48" fill="none" xmlns="http://www.w3.org/2000/svg">
<path d="M36.8116 10.4108C38.1328 11.732 38.1772 13.8469 36.9442 15.2211L36.8116 15.3605L28.4651 23.707L36.8116 32.0535C38.1784 33.4203 38.1784 35.6364 36.8116 37.0033C35.4904 38.3245 33.3755 38.3689 32.0014 37.1358L31.8619 37.0033L23.5154 28.6568L15.1689 37.0033C13.8021 38.3701 11.586 38.3701 10.2191 37.0033C8.89797 35.682 8.85353 33.5672 10.0866 32.193L10.2191 32.0535L18.5656 23.707L10.2191 15.3605C8.85231 13.9937 8.85231 11.7776 10.2191 10.4108C11.5403 9.08964 13.6552 9.04526 15.0294 10.2782L15.1689 10.4108L23.5154 18.7573L31.8619 10.4108C33.2287 9.04397 35.4448 9.044 36.8116 10.4108Z" fill="#333333"/>
</svg>
