<svg width="48" height="48" viewBox="0 0 48 48" fill="none" xmlns="http://www.w3.org/2000/svg">
<path fill-rule="evenodd" clip-rule="evenodd" d="M36.057 11.5857C36.8026 12.3313 36.8364 13.519 36.1587 14.3047L36.057 14.4142L26.6498 23.8202L36.057 33.2285C36.8381 34.0096 36.8381 35.2759 36.057 36.057C35.3115 36.8025 34.1238 36.8364 33.338 36.1586L33.2286 36.057L23.8214 26.6487L14.4142 36.057C13.6332 36.838 12.3668 36.838 11.5858 36.057C10.8402 35.3114 10.8064 34.1237 11.4841 33.3379L11.5858 33.2285L20.993 23.8202L11.5858 14.4142C10.8047 13.6331 10.8047 12.3668 11.5858 11.5857C12.3313 10.8402 13.519 10.8063 14.3048 11.4841L14.4142 11.5857L23.8214 20.9918L33.2286 11.5857C34.0096 10.8047 35.276 10.8047 36.057 11.5857Z" fill="#333333"/>
</svg>
