<svg width="48" height="48" viewBox="0 0 48 48" fill="none" xmlns="http://www.w3.org/2000/svg">
<path fill-rule="evenodd" clip-rule="evenodd" d="M24 43C34.4934 43 43 34.4934 43 24C43 13.5066 34.4934 5 24 5C13.5066 5 5 13.5066 5 24C5 34.4934 13.5066 43 24 43ZM30.7175 17.2825C31.4586 18.0235 31.4922 19.2041 30.8186 19.985L30.7175 20.0938L26.8113 23.9989L30.7175 27.9062C31.4938 28.6825 31.4938 29.9412 30.7175 30.7175C29.9765 31.4586 28.7959 31.4922 28.015 30.8186L27.9062 30.7175L24 26.8102L20.0938 30.7175C19.3175 31.4938 18.0588 31.4938 17.2825 30.7175C16.5414 29.9765 16.5078 28.7959 17.1814 28.015L17.2825 27.9062L21.1887 23.9989L17.2825 20.0938C16.5062 19.3175 16.5062 18.0588 17.2825 17.2825C18.0235 16.5414 19.2041 16.5078 19.985 17.1814L20.0938 17.2825L24 21.1875L27.9062 17.2825C28.6825 16.5062 29.9412 16.5062 30.7175 17.2825Z" fill="#333333"/>
</svg>
