<svg width="48" height="48" viewBox="0 0 48 48" fill="none" xmlns="http://www.w3.org/2000/svg">
<path fill-rule="evenodd" clip-rule="evenodd" d="M36.1044 11.1179C37.0417 12.0552 37.0792 13.5515 36.2169 14.5335L36.1044 14.6534L27.0508 23.706L36.1044 32.7607C37.0807 33.737 37.0807 35.3199 36.1044 36.2962C35.1672 37.2335 33.6709 37.271 32.6889 36.4087L32.5689 36.2962L23.5152 27.2415L14.4616 36.2962C13.4853 37.2726 11.9024 37.2726 10.9261 36.2962C9.98882 35.359 9.95133 33.8627 10.8136 32.8807L10.9261 32.7607L19.9797 23.706L10.9261 14.6534C9.94977 13.6771 9.94977 12.0942 10.9261 11.1179C11.8633 10.1807 13.3596 10.1432 14.3416 11.0054L14.4616 11.1179L23.5152 20.1705L32.5689 11.1179C33.5452 10.1416 35.1281 10.1416 36.1044 11.1179Z" fill="#333333"/>
</svg>
