<svg width="48" height="48" viewBox="0 0 48 48" fill="none" xmlns="http://www.w3.org/2000/svg">
<path fill-rule="evenodd" clip-rule="evenodd" d="M11.1433 5.875C12.2659 5.875 13.1852 6.74546 13.263 7.84824L13.2683 8L13.2678 9.062L33.4558 9.0625C36.9001 9.0625 39.7064 11.7939 39.8268 15.2088L39.8308 15.4375V34.562L40.8933 34.5625C42.0669 34.5625 43.0183 35.5139 43.0183 36.6875C43.0183 37.8101 42.1479 38.7293 41.0451 38.8072L40.8933 38.8125L39.8308 38.812V39.875C39.8308 41.0486 38.8794 42 37.7058 42C36.5832 42 35.664 41.1295 35.5861 40.0268L35.5808 39.875V38.812L15.3933 38.8125C11.949 38.8125 9.14272 36.0811 9.02233 32.6662L9.01831 32.4375L9.01781 13.312L7.95581 13.3125C6.78221 13.3125 5.83081 12.3611 5.83081 11.1875C5.83081 10.0649 6.70127 9.14565 7.80405 9.06784L7.95581 9.0625L9.01781 9.062L9.01831 8C9.01831 6.82639 9.96971 5.875 11.1433 5.875ZM13.2678 13.312L13.2683 32.4375C13.2683 33.5601 14.1388 34.4794 15.2416 34.5572L15.3933 34.5625L35.5808 34.562V15.4375C35.5808 14.3149 34.7103 13.3956 33.6076 13.3178L33.4558 13.3125L13.2678 13.312ZM31.7709 17.1224C32.5593 17.9108 32.5987 19.1645 31.8892 19.9994L31.7709 20.1276L21.2527 30.6458C20.4228 31.4757 19.0774 31.4757 18.2475 30.6458C17.4591 29.8574 17.4197 28.6037 18.1292 27.7688L18.2475 27.6406L28.7657 17.1224C29.5956 16.2925 30.941 16.2925 31.7709 17.1224Z" fill="#333333"/>
</svg>
