<svg width="48" height="48" viewBox="0 0 48 48" fill="none" xmlns="http://www.w3.org/2000/svg">
<path fill-rule="evenodd" clip-rule="evenodd" d="M9.25196 8.11619C10.2046 7.66445 11.3347 8.03154 11.8471 8.93389L11.916 9.06641L16.9517 19.6861L17.0723 19.9746C17.4125 20.6952 18.3529 21.0835 19.3188 20.8068L19.4799 20.7545L23.2355 19.3876L23.4461 19.315C26.3982 18.3552 29.5988 19.6906 30.7373 22.4684L34.5332 32.4235L36.4644 28.2825L36.5325 28.1495C37.039 27.2439 38.1667 26.8695 39.1223 27.3151C40.0707 27.7574 40.5093 28.8486 40.1559 29.8135L40.0896 29.973L36.6984 37.2455L36.6193 37.4031C35.9022 38.734 34.3006 39.3221 32.8939 38.7745L32.7116 38.6966L25.4435 35.3074L25.3105 35.2394C24.4552 34.761 24.0738 33.7285 24.4094 32.8103L24.4761 32.6496L24.5442 32.5166C25.0226 31.6613 26.055 31.2798 26.9733 31.6155L27.134 31.6822L30.5823 33.29L27.0687 24.0707L27.0186 23.9501C26.6703 23.2065 25.7301 22.8172 24.7647 23.094L24.6036 23.1463L20.8473 24.5135L20.6368 24.5859C17.7569 25.5213 14.6414 24.274 13.4326 21.635L13.3434 21.4293L13.3057 21.3338L8.30174 10.7802L8.24275 10.643C7.86834 9.67524 8.29927 8.56794 9.25196 8.11619Z" fill="#333333"/>
</svg>
