<svg width="48" height="48" viewBox="0 0 48 48" fill="none" xmlns="http://www.w3.org/2000/svg">
<path d="M39 22C40.1046 22 41 22.8954 41 24C41 25.1046 40.1046 26 39 26H32.0635C32.2908 26.3123 32.5028 26.6284 32.7002 26.9473C37.0394 33.9586 32.6644 42 24 42C20.1625 42 17.1525 40.399 14.9688 37.7812C14.219 36.8824 13.6207 35.9262 13.1553 34.9678C12.8699 34.3801 12.6872 33.9044 12.5908 33.5947C12.2626 32.5402 12.8509 31.4193 13.9053 31.0908C14.912 30.7775 15.9799 31.2992 16.3604 32.2646L16.4092 32.4053C16.4489 32.533 16.5616 32.8236 16.7539 33.2197C17.085 33.9017 17.5126 34.5864 18.04 35.2188C19.5058 36.9759 21.4312 38 24 38C29.5078 38 32.0012 33.4181 29.2998 29.0527C28.6638 28.0251 27.7879 27.0066 26.668 26.001L9 26C7.89543 26 7 25.1046 7 24C7 22.8954 7.89543 22 9 22H39ZM24 6C27.8375 6 30.8475 7.60099 33.0312 10.2188C33.781 11.1176 34.3793 12.0738 34.8447 13.0322C35.1301 13.6199 35.3128 14.0956 35.4092 14.4053C35.7374 15.4598 35.1491 16.5807 34.0947 16.9092C33.088 17.2225 32.0201 16.7008 31.6396 15.7354L31.5908 15.5947C31.5511 15.467 31.4384 15.1764 31.2461 14.7803C30.915 14.0983 30.4874 13.4136 29.96 12.7812C28.4942 11.0241 26.5688 10 24 10C19.1712 10 16.6223 13.4892 17.9697 17.418C18.3281 18.4628 17.7714 19.6006 16.7266 19.959C15.6819 20.317 14.5449 19.7605 14.1865 18.7158C11.9413 12.1698 16.4479 6 24 6Z" fill="#333333"/>
</svg>
