<svg width="48" height="48" viewBox="0 0 48 48" fill="none" xmlns="http://www.w3.org/2000/svg">
<path fill-rule="evenodd" clip-rule="evenodd" d="M35.0693 8C36.4698 8 37.7628 8.75038 38.4576 9.96629L43.7888 19.2959C44.6 20.7155 44.4403 22.4902 43.3887 23.7421L29.1335 39.737C27.0541 42.2125 23.3617 42.5335 20.8863 40.4542C20.7133 40.3089 20.549 40.1538 20.3941 39.9897L5.91425 23.7411C4.86276 22.4892 4.70307 20.7146 5.51416 19.2951L10.8446 9.96637C11.5394 8.75042 12.8324 8 14.2329 8H35.0693ZM35.0693 11.9024H14.2329L8.903 21.229L23.1572 37.2269C23.2298 37.3134 23.3098 37.3934 23.3963 37.466C24.178 38.1227 25.3238 38.0612 26.0316 37.3513L26.1453 37.227L40.399 21.23L35.0693 11.9024ZM19.8915 22.4768L20.0008 22.5731L24.2339 26.5854C24.6154 26.947 25.1995 26.9669 25.6032 26.6491L25.693 26.5698L29.7038 22.6021C30.4699 21.8442 31.7053 21.8509 32.4632 22.617C33.1866 23.3483 33.2134 24.5072 32.548 25.2702L32.4483 25.3764L28.4375 29.3441C26.5903 31.1714 23.6574 31.253 21.7134 29.5666L21.5493 29.4177L17.3162 25.4054C16.5341 24.6641 16.5011 23.4291 17.2424 22.6469C17.95 21.9004 19.1075 21.8363 19.8915 22.4768Z" fill="#333333"/>
</svg>
