<svg width="48" height="48" viewBox="0 0 48 48" fill="none" xmlns="http://www.w3.org/2000/svg">
<path d="M24.5 5C35.2696 5 44 13.7304 44 24.5C44 35.2696 35.2696 44 24.5 44C13.7304 44 5 35.2696 5 24.5C5 13.7304 13.7304 5 24.5 5ZM24.5 9C15.9396 9 9 15.9396 9 24.5C9 33.0604 15.9396 40 24.5 40C33.0604 40 40 33.0604 40 24.5C40 15.9396 33.0604 9 24.5 9ZM26.7119 15.5859C27.4929 14.8051 28.759 14.8051 29.54 15.5859C30.321 16.3669 30.3209 17.633 29.54 18.4141L27.8291 20.127L29.54 21.8389C30.3211 22.6199 30.3211 23.8859 29.54 24.667C28.759 25.4477 27.4929 25.4479 26.7119 24.667L23.585 21.541C22.8042 20.7601 22.8043 19.4929 23.585 18.7119L26.7119 15.5859ZM14.5859 15.5859C15.367 14.8049 16.633 14.8049 17.4141 15.5859L20.4141 18.5859C21.1951 19.367 21.1951 20.633 20.4141 21.4141L17.4141 24.4141C16.633 25.1951 15.367 25.1951 14.5859 24.4141C13.8049 23.633 13.8049 22.367 14.5859 21.5859L16.1719 20L14.5859 18.4141C13.8049 17.633 13.8049 16.367 14.5859 15.5859Z" fill="#333333"/>
</svg>
