<svg width="48" height="48" viewBox="0 0 48 48" fill="none" xmlns="http://www.w3.org/2000/svg">
<path fill-rule="evenodd" clip-rule="evenodd" d="M31.5 4.5C32.5544 4.5 33.4182 5.31588 33.4945 6.35074L33.5 6.5L33.5012 8.61567C38.7714 10.5582 41.3057 14.7194 41.8742 21.8696L41.9043 22.2775L41.9464 22.9958L41.9763 23.7333L41.9941 24.4902L42 25.2667L41.9941 26.0431L41.9763 26.8L41.9464 27.5375L41.9043 28.2558C41.3183 36.8604 37.994 41.2496 30.6506 42.7044L30.2979 42.7715L29.6733 42.8771L29.3541 42.925L28.7019 43.0112C28.4078 43.0466 28.1083 43.0783 27.8031 43.1062L27.3412 43.1453L26.6324 43.1936L26.2709 43.2131L25.9045 43.2295L25.1573 43.2534L24.3907 43.2652H23.6093L22.8427 43.2534L22.0955 43.2295L21.7291 43.2131L21.3676 43.1936L20.6588 43.1453C20.3481 43.1211 20.0429 43.0932 19.7433 43.0615L19.2981 43.0112L18.6459 42.925L18.3267 42.8771L17.7021 42.7715C13.1228 41.9367 10.061 40.0072 8.22179 36.6881L8.05795 36.3825L7.82798 35.9166C6.91964 33.9821 6.37191 31.6235 6.13623 28.7923L6.09569 28.2558L6.05359 27.5375L6.02371 26.8L6.0059 26.0431L6 25.2667L6.0059 24.4902L6.02371 23.7333L6.05359 22.9958L6.09569 22.2775C6.29255 19.3869 6.79843 16.9721 7.66188 14.9844L7.82798 14.6167L8.05795 14.1508C9.42814 11.5092 11.5294 9.70998 14.4996 8.61538L14.5 6.5C14.5 5.39543 15.3954 4.5 16.5 4.5C17.5544 4.5 18.4182 5.31588 18.4945 6.35074L18.5 6.5V7.629L18.9697 7.56361L19.6313 7.48388L19.9691 7.44878L20.3116 7.41684L21.1886 7.35068L21.3676 7.33977L22.0955 7.3038L22.8427 7.27997L23.2236 7.27257L24 7.26667L24.9675 7.2759L25.1573 7.27997L25.9045 7.3038L26.6324 7.33977L26.9892 7.36236L27.6884 7.41684L28.0309 7.44878L28.3687 7.48388L29.0303 7.56361L29.5004 7.62977L29.5 6.5C29.5 5.39543 30.3954 4.5 31.5 4.5ZM24.3525 11.2678H23.6475L22.9588 11.2767L22.2919 11.2949L21.6462 11.3226L21.3314 11.3402L20.567 11.395L20.418 11.4078L19.8347 11.4659L19.5507 11.4989L19.2717 11.5346L18.5959 11.6359L18.5 11.652V14C18.5 15.1046 17.6046 16 16.5 16C15.4456 16 14.5818 15.1841 14.5055 14.1493L14.5 14L14.4998 12.9781C12.2471 14.2667 10.9897 16.3811 10.4074 19.6416L10.3476 19.9953L10.2679 20.5384L10.2322 20.8174L10.1689 21.3905L10.1412 21.6846L10.0935 22.2884L10.056 22.9129L10.0409 23.2331L10.018 23.8893L10.0044 24.5671L10 25.2667L10.0044 25.9662L10.018 26.644L10.0409 27.3003L10.056 27.6204L10.1045 28.3978L10.1689 29.1429L10.1992 29.4319L10.2679 29.9949L10.3476 30.538C11.1692 35.6766 13.5592 38.0799 18.6807 38.9114L18.9977 38.9603L19.5507 39.0345L19.8347 39.0675L20.418 39.1255L21.0217 39.1731L21.3314 39.1932L21.6462 39.2107L22.2919 39.2384L22.6227 39.2487L23.3004 39.2622L24 39.2667L24.6996 39.2622L25.0412 39.2566L25.8715 39.2324L26.6686 39.1932L26.9783 39.1731L27.582 39.1255L28.1653 39.0675L28.4493 39.0345L29.0023 38.9603C34.2358 38.1926 36.714 35.8767 37.6001 30.8492L37.6524 30.538L37.7321 29.9949L37.7678 29.7159L37.8311 29.1429L37.8588 28.8487L37.9065 28.245L37.944 27.6204L37.9591 27.3003L37.982 26.644L37.9956 25.9662L38 25.2667L37.9956 24.5671L37.982 23.8893L37.9591 23.2331L37.944 22.9129L37.8955 22.1355L37.8311 21.3905L37.8008 21.1014L37.7321 20.5384L37.6524 19.9953C37.0989 16.5337 35.8337 14.3134 33.5012 12.9786L33.5 14C33.5 15.1046 32.6046 16 31.5 16C30.4456 16 29.5818 15.1841 29.5055 14.1493L29.5 14L29.5005 11.6522L29.2714 11.6142L28.7283 11.5346L28.4493 11.4989L28.1653 11.4659L27.582 11.4078L27.2827 11.3827L26.9783 11.3602L26.3538 11.3226L25.7081 11.2949L25.0412 11.2767L24.3525 11.2678ZM21.3759 21.2467L21.5031 21.3636L24 23.86L26.4969 21.3636L26.6241 21.2467C27.4099 20.5847 28.5854 20.6236 29.3253 21.3636C30.0653 22.1035 30.1042 23.279 29.4422 24.0648L29.3253 24.192L26.828 26.688L29.3253 29.1858C30.1064 29.9668 30.1064 31.2332 29.3253 32.0142C28.5854 32.7542 27.4099 32.7931 26.6241 32.131L26.4969 32.0142L24 29.517L21.5031 32.0142L21.3759 32.131C20.5901 32.7931 19.4146 32.7542 18.6747 32.0142C17.9347 31.2743 17.8958 30.0988 18.5578 29.313L18.6747 29.1858L21.171 26.688L18.6747 24.192C17.8936 23.4109 17.8936 22.1446 18.6747 21.3636C19.4146 20.6236 20.5901 20.5847 21.3759 21.2467Z" fill="#333333"/>
</svg>
