<svg width="48" height="48" viewBox="0 0 48 48" fill="none" xmlns="http://www.w3.org/2000/svg">
<path fill-rule="evenodd" clip-rule="evenodd" d="M41.9952 25.8592L42 26.0085L41.9618 34.9701C41.9457 38.7441 38.9453 41.8101 35.2018 41.9362L34.9619 41.9403H13.0385C9.26461 41.9403 6.18589 38.9531 6.04368 35.2103L6.03861 34.9704L6.00002 26.0086C5.99528 24.904 6.88685 24.0048 7.99141 24C9.04576 23.9955 9.91307 24.8076 9.99387 25.8421L10 25.9914L10.0386 34.9532C10.0454 36.546 11.2926 37.8445 12.8628 37.9352L13.0385 37.9403H34.9619C36.5547 37.9403 37.8586 36.6986 37.956 35.1288L37.9618 34.9531L38 25.9915C38.0047 24.8869 38.904 23.9953 40.0085 24C41.0629 24.0045 41.9232 24.824 41.9952 25.8592ZM26.3771 7.64731L26.3841 7.82159L26.384 27.0737L31.043 22.4156L31.1703 22.2988C31.956 21.6367 33.1315 21.6757 33.8715 22.4156C34.6114 23.1556 34.6504 24.331 33.9883 25.1168L33.8715 25.244L26.0492 33.0663L25.922 33.1831C25.4612 33.5714 24.8664 33.7185 24.304 33.6246C23.7421 33.7189 23.1464 33.5718 22.685 33.1831L22.5578 33.0663L14.7355 25.244C13.9545 24.463 13.9545 23.1967 14.7355 22.4156C15.4755 21.6757 16.651 21.6367 17.4368 22.2988L17.564 22.4156L22.1343 26.9846L22.1341 7.82159C22.1341 6.64799 23.0855 5.69659 24.2591 5.69659C25.3741 5.69659 26.2884 6.55523 26.3771 7.64731Z" fill="#333333"/>
</svg>
