<svg width="48" height="48" viewBox="0 0 48 48" fill="none" xmlns="http://www.w3.org/2000/svg">
<path d="M31.1279 6C32.9606 6 34.6406 7.00153 35.5146 8.59863L35.543 8.65332L41.6494 17.5488C41.9199 17.9429 42.0272 18.3998 41.9912 18.8418C41.9953 18.8941 42 18.9467 42 19V35C42 38.866 38.866 42 35 42H13C9.13401 42 6 38.866 6 35V19C6 18.9474 6.00382 18.8954 6.00781 18.8438C5.97669 18.4539 6.05765 18.0528 6.26367 17.6934L6.35156 17.5537L12.46 8.65527L12.4854 8.60645C13.3216 7.07194 14.9007 6.08458 16.6465 6.00488L16.875 6H31.1279ZM10 35C10 36.5975 11.2487 37.9036 12.8232 37.9951L13 38H35C36.6569 38 38 36.6569 38 35V21H31.4404L31.1621 21.8379C30.163 24.835 27.408 26.8836 24.2695 26.9951L24 27C20.7504 27 17.8656 24.9206 16.8379 21.8379L16.5576 21H10V35ZM16.875 10C16.4929 10.0002 16.1441 10.2181 15.9766 10.5615L15.9062 10.6924L15.8271 10.8184L11.583 17H18C18.8608 17 19.6251 17.5507 19.8975 18.3672L20.6328 20.5732C21.1161 22.0225 22.4723 23 24 23C25.5277 23 26.8839 22.0225 27.3672 20.5732L28.1025 18.3672C28.3749 17.5507 29.1392 17 30 17H36.4199L32.1738 10.8125C32.1187 10.7322 32.0692 10.6481 32.0264 10.5605C31.8772 10.2557 31.5851 10.0497 31.2539 10.0078L31.1279 10H16.875Z" fill="#333333"/>
</svg>
