<svg width="48" height="48" viewBox="0 0 48 48" fill="none" xmlns="http://www.w3.org/2000/svg">
<path d="M26 34C27.1046 34 28 34.8954 28 36C28 37.1046 27.1046 38 26 38H10C8.89543 38 8 37.1046 8 36C8 34.8954 8.89543 34 10 34H26ZM32 22C33.1046 22 34 22.8954 34 24C34 25.1046 33.1046 26 32 26H10C8.89543 26 8 25.1046 8 24C8 22.8954 8.89543 22 10 22H32ZM38.1172 10C39.1568 10 40 10.8954 40 12C40 13.1046 39.1568 14 38.1172 14H9.88281C8.84322 14 8 13.1046 8 12C8 10.8954 8.84322 10 9.88281 10H38.1172Z" fill="#333333"/>
</svg>
