<svg width="48" height="48" viewBox="0 0 48 48" fill="none" xmlns="http://www.w3.org/2000/svg">
<path d="M34.9997 38.0001C36.1043 38.0001 36.9997 38.8955 36.9997 40.0001C36.9996 41.1046 36.1042 42.0001 34.9997 42.0001H9.4997C8.39531 41.9999 7.49976 41.1045 7.4997 40.0001C7.4997 38.8956 8.39527 38.0003 9.4997 38.0001H34.9997ZM24.86 7.33212C26.0154 6.14477 27.9147 6.11831 29.1022 7.27352L40.2224 18.3936C41.3764 19.5483 41.3948 21.4141 40.2643 22.5919L28.9431 34.3849C28.566 34.7776 28.0451 35 27.5007 35.0001H15.0007C14.4425 35.0001 13.9095 34.7666 13.5309 34.3565L8.17352 28.5538C7.0923 27.3825 7.11594 25.5696 8.22723 24.4268L24.86 7.33212ZM11.7565 26.5352L15.8757 30.9991H26.6481L36.6999 20.5284L27.0192 10.8477L11.7565 26.5352Z" fill="#333333"/>
</svg>
