<svg width="48" height="48" viewBox="0 0 48 48" fill="none" xmlns="http://www.w3.org/2000/svg">
<path fill-rule="evenodd" clip-rule="evenodd" d="M23.9986 6.85883C24.3615 6.85883 24.7173 6.86246 25.066 6.86974C26.1704 6.89281 27.0469 7.80675 27.0238 8.91107C27.0008 10.0154 26.0868 10.8919 24.9825 10.8689C24.6619 10.8622 24.334 10.8588 23.9986 10.8588C22.5632 10.8588 21.2641 10.9201 20.0905 11.043C12.5531 11.8323 9.98608 14.9766 9.98608 23.1176L9.99101 23.8727L10.0061 24.5971C10.023 25.1881 10.0511 25.7477 10.0914 26.2775L10.1459 26.899L10.214 27.5034C10.8487 32.5194 12.9234 34.454 17.832 35.0956L18.3485 35.1615C18.3906 35.1675 18.4342 35.1739 18.4789 35.1807L18.8956 35.2491L19.1954 35.3057L19.4457 35.3613C19.5673 35.3916 19.6982 35.4369 19.8406 35.4986L20.0634 35.6034L20.3055 35.7338L20.5687 35.8907L20.9303 36.1257L21.3312 36.4058L21.6828 36.6637L22.0637 36.9526L22.4757 37.2738L23.1562 37.8179L24.0431 38.5428L25.354 37.5338L26.324 36.8023L26.9568 36.3397L27.4752 35.9775L27.7961 35.7673L27.9804 35.6545L28.1427 35.5625L28.2846 35.4904L28.4075 35.4371C28.8973 35.2472 29.2464 35.1762 29.7124 35.1373L29.9705 35.1202L30.2598 35.0832C35.2175 34.4156 37.2167 32.3958 37.8083 27.2894L37.8705 26.6865L37.9206 26.0555C37.9354 25.8404 37.9482 25.6206 37.9593 25.3959L37.9871 24.7072C38.0225 23.6032 38.9461 22.7369 40.0501 22.7722C41.1541 22.8076 42.0204 23.7312 41.9851 24.8352C41.7023 33.6658 38.6711 37.9759 30.8083 39.0453L30.3703 39.1001L30.0163 39.1263L29.9371 39.1393L29.789 39.2372L29.4226 39.4935L28.9387 39.8457L28.1644 40.4248L26.6789 41.5615L25.7911 42.2501C24.719 43.0845 23.212 43.0585 22.1692 42.1879L21.2848 41.4555L20.4992 40.8176L19.813 40.2746L19.4112 39.9655L18.914 39.5973L18.5324 39.3326L18.3471 39.2148L18.1102 39.1728L17.6496 39.1037C9.2739 38.1148 6.22457 33.7668 5.99968 24.2949L5.98758 23.5157L5.98608 23.1176C5.98608 13.0075 10.0117 8.07652 19.674 7.06477C20.9932 6.92664 22.4301 6.85883 23.9986 6.85883ZM41.3801 7.55239C42.1375 8.27444 42.2046 9.44866 41.5615 10.25L41.4477 10.38L25.4307 27.1813C24.6685 27.9808 23.4025 28.011 22.6031 27.2489C21.8457 26.5268 21.7786 25.3526 22.4217 24.5512L22.5355 24.4212L38.5525 7.61996C39.3147 6.82048 40.5807 6.79023 41.3801 7.55239Z" fill="#333333"/>
</svg>
