<svg width="48" height="48" viewBox="0 0 48 48" fill="none" xmlns="http://www.w3.org/2000/svg">
<path d="M41 20.0456V20.0456L41 30.0925C41 32.8539 38.7614 35.0925 36 35.0925C35.9788 35.0925 35.9577 35.0924 35.9365 35.0921C32.1298 35.0438 30.0877 35.073 29.8103 35.1799C29.4554 35.3167 27.7589 36.8566 24.7208 39.7997L24.7207 39.7997C24.3241 40.1839 23.691 40.1738 23.3067 39.7772C23.3061 39.7765 23.3055 39.7759 23.3049 39.7753C20.4739 36.8376 18.8046 35.3058 18.2968 35.1799C18.1417 35.1415 16.0503 35.1314 12.0227 35.1497C9.26132 35.1623 7.0126 32.9339 7 30.1725C7 30.1649 7 30.1573 7 30.1498L7 13.5C7 10.7386 9.23858 8.5 12 8.5L27.3473 8.5V8.5" stroke="#333333" stroke-width="4" stroke-linecap="round" stroke-linejoin="round"/>
<path d="M23.9829 25.8013L39.9999 9" stroke="#333333" stroke-width="4" stroke-linecap="round" stroke-linejoin="round"/>
<path fill-rule="evenodd" clip-rule="evenodd" d="M27.3473 6.5C28.4519 6.5 29.3473 7.39543 29.3473 8.5C29.3473 9.55436 28.5314 10.4182 27.4966 10.4945L27.3473 10.5H12C10.4023 10.5 9.09634 11.7489 9.00509 13.3237L9 13.5L8.99998 30.1634C9.00754 31.8202 10.3568 33.1573 12.0136 33.1497L14.9053 33.1395L16.4164 33.1406L17.5995 33.1537L18.2362 33.1762L18.497 33.1955L18.6297 33.2111L18.7346 33.2289L18.778 33.2387C18.9959 33.2927 19.232 33.3927 19.4972 33.546L19.7319 33.6906L19.9823 33.8624L20.2501 34.0623L20.3909 34.1732L20.6874 34.4173L21.005 34.6921L21.3452 34.9987L21.7096 35.3381L22.3047 35.911L22.9627 36.5634L23.4388 37.0443L24.0487 37.6677L25.3296 36.4399L26.3434 35.4867L26.8641 35.0091L27.1776 34.7277L27.601 34.3584L27.9723 34.0491L28.1932 33.8744L28.3945 33.7237L28.6627 33.5401L28.821 33.4445L28.8945 33.4042L29.0312 33.3383L29.162 33.2885L29.3249 33.2427L29.5191 33.2028L29.6292 33.1851L29.8776 33.1537L30.167 33.1276L30.5011 33.1065L31.0945 33.0835L31.5571 33.0737L32.3611 33.0663L33.7307 33.0693L36 33.0925C37.5977 33.0925 38.9037 31.8436 38.9949 30.2688L39 30.0925V20.0456C39 18.9411 39.8954 18.0456 41 18.0456C42.0544 18.0456 42.9182 18.8615 42.9945 19.8964L43 20.0456V30.0925C43 33.8779 39.9952 36.9616 36.2407 37.0884L35.9111 37.0919L34.0584 37.0736L32.8202 37.0695L32.0344 37.0726L31.1914 37.0846L30.8592 37.0937L30.5437 37.1057L30.219 37.3814L29.7825 37.7679L29.4456 38.0737L28.6734 38.7892L27.5052 39.8954L26.1122 41.2363C24.9698 42.3428 23.1738 42.3593 22.0121 41.306L21.8648 41.1631L21.0117 40.2846L19.9998 39.2643L19.548 38.8191L19.1324 38.4175L18.7533 38.0594L18.2737 37.6226L18.008 37.3918L17.7177 37.1547L16.3882 37.1426L13.3584 37.1445L12.0318 37.1497C8.2464 37.1669 5.14915 34.1762 5.00516 30.4137L5 30.1725V13.5C5 9.71455 8.00478 6.6309 11.7594 6.50406L12 6.5H27.3473ZM41.38 7.55241C42.1374 8.27446 42.2044 9.44868 41.5614 10.2501L41.4476 10.38L25.4306 27.1813C24.6684 27.9808 23.4024 28.011 22.6029 27.2489C21.8455 26.5268 21.7785 25.3526 22.4216 24.5512L22.5354 24.4213L38.5524 7.61998C39.3146 6.82049 40.5805 6.79024 41.38 7.55241Z" fill="#333333"/>
</svg>
