<svg width="48" height="48" viewBox="0 0 48 48" fill="none" xmlns="http://www.w3.org/2000/svg">
<path fill-rule="evenodd" clip-rule="evenodd" d="M8.787 4.96895L8.91421 5.08579L42.9142 39.0858C43.6953 39.8668 43.6953 41.1332 42.9142 41.9142C42.1743 42.6542 40.9988 42.6931 40.213 42.031L40.0858 41.9142L36.0745 37.9032C32.6258 40.3976 28.3758 42 24 42C13.648 42 4 33.032 4 24.5C4 20.1119 6.55207 15.6084 10.4394 12.269L6.08579 7.91421C5.30474 7.13317 5.30474 5.86684 6.08579 5.08579C6.82573 4.34585 8.00121 4.3069 8.787 4.96895ZM8 24.5C8 30.7549 15.7945 38 24 38C27.2928 38 30.5193 36.8333 33.2026 35.0321L13.2755 15.1047C10.1035 17.734 8 21.2506 8 24.5ZM24 7C34.352 7 44 15.968 44 24.5C44 27.3534 42.9209 30.2555 41.0973 32.8547L38.2214 29.9784C39.3475 28.2024 40 26.3097 40 24.5C40 18.2451 32.2055 11 24 11C22.5898 11 21.1917 11.214 19.8432 11.6002L16.6994 8.45653C19.0055 7.53063 21.4819 7 24 7Z" fill="#333333"/>
</svg>
