<svg width="48" height="48" viewBox="0 0 48 48" fill="none" xmlns="http://www.w3.org/2000/svg">
<path fill-rule="evenodd" clip-rule="evenodd" d="M24 7C34.352 7 44 15.968 44 24.5C44 33.032 34.352 42 24 42C13.648 42 4 33.032 4 24.5C4 15.968 13.648 7 24 7ZM24 11C15.7945 11 8 18.2451 8 24.5C8 30.7549 15.7945 38 24 38C32.2055 38 40 30.7549 40 24.5C40 18.2451 32.2055 11 24 11ZM24 17C27.866 17 31 20.134 31 24C31 27.866 27.866 31 24 31C20.134 31 17 27.866 17 24C17 20.134 20.134 17 24 17ZM24 21C22.3431 21 21 22.3431 21 24C21 25.6569 22.3431 27 24 27C25.6569 27 27 25.6569 27 24C27 22.3431 25.6569 21 24 21Z" fill="#333333"/>
</svg>
