<svg width="48" height="48" viewBox="0 0 48 48" fill="none" xmlns="http://www.w3.org/2000/svg">
<path fill-rule="evenodd" clip-rule="evenodd" d="M28.2305 30C29.2848 30 30.1486 30.8159 30.225 31.8507L30.2305 32L30.23 33.499L39 33.5C40.1046 33.5 41 34.3954 41 35.5C41 36.5544 40.1841 37.4182 39.1493 37.4945L39 37.5L30.23 37.499L30.2305 39C30.2305 40.1046 29.335 41 28.2305 41C27.1761 41 26.3123 40.1841 26.236 39.1493L26.2305 39V32C26.2305 30.8954 27.1259 30 28.2305 30ZM22.23 33.5V37.5H9C7.89543 37.5 7 36.6046 7 35.5C7 34.4456 7.81588 33.5818 8.85074 33.5055L9 33.5H22.23ZM14.2305 19C15.2848 19 16.1486 19.8159 16.225 20.8507L16.2305 21V28C16.2305 29.1046 15.335 30 14.2305 30C13.1761 30 12.3123 29.1841 12.236 28.1493L12.2305 28L12.23 26.5H9C7.89543 26.5 7 25.6046 7 24.5C7 23.4456 7.81588 22.5818 8.85074 22.5055L9 22.5H12.23L12.2305 21C12.2305 19.8954 13.1259 19 14.2305 19ZM20.23 22.5H39C40.1046 22.5 41 23.3954 41 24.5C41 25.5544 40.1841 26.4182 39.1493 26.4945L39 26.5H20.23V22.5ZM33.2305 8C34.2848 8 35.1486 8.81588 35.225 9.85074L35.2305 10L35.23 11.5H39C40.1046 11.5 41 12.3954 41 13.5C41 14.5544 40.1841 15.4182 39.1493 15.4945L39 15.5H35.23L35.2305 17C35.2305 18.1046 34.335 19 33.2305 19C32.1761 19 31.3123 18.1841 31.236 17.1493L31.2305 17V10C31.2305 8.89543 32.1259 8 33.2305 8ZM27.23 11.5V15.5H9C7.89543 15.5 7 14.6046 7 13.5C7 12.4456 7.81588 11.5818 8.85074 11.5055L9 11.5H27.23Z" fill="#333333"/>
</svg>
