<svg width="48" height="48" viewBox="0 0 48 48" fill="none" xmlns="http://www.w3.org/2000/svg">
<path d="M23 25C24.1046 25 25 25.8954 25 27C25 28.1046 24.1046 29 23 29H19C15.1713 29 12 32.4356 12 36.75V40C12 41.1046 11.1046 42 10 42C8.89543 42 8 41.1046 8 40V36.75C8 30.2948 12.8875 25 19 25H23ZM37.5879 28.0088C38.9319 28.0175 40.0172 29.1092 40.0176 30.4531V35.0068C40.0174 36.1111 39.1219 37.0067 38.0176 37.0068C37.0009 37.0068 36.1624 36.2476 36.0352 35.2656L33.1992 38.0537C31.7497 39.5032 29.4043 39.369 27.9492 37.9141L26.9463 36.9102L23.1182 40.0625C22.3041 40.7323 21.1189 40.6507 20.4023 39.9004L20.3027 39.7891C19.6012 38.9364 19.7239 37.6766 20.5762 36.9746L24.5088 33.7363L24.5557 33.6924C25.9641 32.4335 28.1052 32.5516 29.5186 33.832L29.6621 33.9688L30.6455 34.9541L33.668 31.9834L33.0498 31.9795C31.9958 31.9725 31.1373 31.1512 31.0674 30.1162L31.0635 29.9668C31.0706 28.8623 31.9717 27.9734 33.0762 27.9805L37.5879 28.0088ZM23 6C27.4183 6 31 9.58172 31 14C31 18.4183 27.4183 22 23 22C18.5817 22 15 18.4183 15 14C15 9.58172 18.5817 6 23 6ZM23 10C20.7909 10 19 11.7909 19 14C19 16.2091 20.7909 18 23 18C25.2091 18 27 16.2091 27 14C27 11.7909 25.2091 10 23 10Z" fill="#333333"/>
</svg>
