<svg width="48" height="48" viewBox="0 0 48 48" fill="none" xmlns="http://www.w3.org/2000/svg">
<path d="M23 5C25.8392 5 28.3034 5.10658 30.3799 5.32715C33.7172 5.68165 36.5973 7.53773 38.252 10.2188C39.0225 11.4673 39.5255 12.894 39.6816 14.4209C39.7939 15.5197 38.9943 16.5009 37.8955 16.6133C36.7968 16.7255 35.8155 15.9259 35.7031 14.8271C35.6104 13.9202 35.3111 13.0713 34.8477 12.3203C33.8473 10.6993 32.0721 9.52935 29.957 9.30469C28.0639 9.10361 25.749 9 23 9C20.251 9 17.9361 9.10361 16.043 9.30469C12.933 9.63503 10.5872 11.9885 10.2969 14.8271C10.1008 16.7451 10 19.0714 10 21.8164V26.1836C10 28.9286 10.1008 31.2549 10.2969 33.1729C10.5872 36.0115 12.933 38.365 16.043 38.6953C17.9361 38.8964 20.251 39 23 39C25.749 39 28.0639 38.8964 29.957 38.6953C33.067 38.365 35.4128 36.0115 35.7031 33.1729C35.8155 32.0741 36.7968 31.2745 37.8955 31.3867C38.9943 31.4991 39.7939 32.4803 39.6816 33.5791C39.1876 38.4111 35.2566 42.1548 30.3799 42.6729C28.3034 42.8934 25.8392 43 23 43C20.1608 43 17.6966 42.8934 15.6201 42.6729C10.7434 42.1548 6.81237 38.4111 6.31836 33.5791C6.10437 31.4859 6 29.017 6 26.1836V21.8164C6 18.983 6.10437 16.5141 6.31836 14.4209C6.81237 9.58888 10.7434 5.84516 15.6201 5.32715C17.6966 5.10658 20.1608 5 23 5ZM41.5547 16.6172C42.3182 15.8191 43.5847 15.7912 44.3828 16.5547C45.1809 17.3182 45.2088 18.5847 44.4453 19.3828L30.8438 33.6016C30.0802 34.3997 28.8138 34.4275 28.0156 33.6641C27.2175 32.9005 27.1896 31.6341 27.9531 30.8359L41.5547 16.6172ZM22 24.3828C23.1046 24.3828 24 25.2782 24 26.3828C23.9999 27.4873 23.1045 28.3828 22 28.3828H17.2646C16.1602 28.3827 15.2648 27.4872 15.2646 26.3828C15.2646 25.2783 16.1602 24.3829 17.2646 24.3828H22ZM28 16.3828C29.1046 16.3828 30 17.2782 30 18.3828C29.9999 19.4873 29.1045 20.3828 28 20.3828H17.2646C16.1602 20.3827 15.2648 19.4872 15.2646 18.3828C15.2646 17.2783 16.1602 16.3829 17.2646 16.3828H28Z" fill="#333333"/>
</svg>
