<svg width="48" height="48" viewBox="0 0 48 48" fill="none" xmlns="http://www.w3.org/2000/svg">
<path d="M20.4707 6C29.015 6 35.9414 12.9265 35.9414 21.4707C35.9414 25.0941 34.6948 28.4259 32.6084 31.0625L34.2451 32.6104L37.0244 29.8105C37.8024 29.0267 39.0685 29.022 39.8525 29.7998C40.6364 30.5777 40.6419 31.8438 39.8643 32.6279L37.1514 35.3604L38.9512 37.0625C39.7536 37.8216 39.7884 39.0882 39.0293 39.8906C38.2702 40.6927 37.0044 40.7277 36.2021 39.9688L34.333 38.2012L31.1572 41.4023C30.3792 42.1864 29.1122 42.1911 28.3281 41.4131C27.5444 40.635 27.5395 39.3689 28.3174 38.585L31.4258 35.4512L29.7412 33.8574C27.1576 35.7941 23.9481 36.9414 20.4707 36.9414C11.9265 36.9414 5 30.015 5 21.4707C5.00005 12.9265 11.9265 6.00005 20.4707 6ZM20.4707 10C14.1356 10 9.00005 15.1356 9 21.4707C9 27.8058 14.1356 32.9414 20.4707 32.9414C26.8058 32.9414 31.9414 27.8058 31.9414 21.4707C31.9414 15.1356 26.8058 10 20.4707 10Z" fill="#333333"/>
</svg>
