<svg width="48" height="48" viewBox="0 0 48 48" fill="none" xmlns="http://www.w3.org/2000/svg">
<path d="M24 6C30.0751 6 34.9999 10.9375 35 17.0283C35 18.2373 34.8034 19.4034 34.4424 20.4961C38.8573 21.9516 42 26.1183 42 30.9717C41.9999 37.0625 37.0751 42 31 42C28.4008 42 26.0143 41.0933 24.1318 39.582C22.1815 41.1261 19.739 41.9999 17.1553 42C10.9945 42 6 37.0751 6 31C6 26.1567 9.17501 22.0466 13.584 20.5781C13.2009 19.4478 13 18.252 13 17.0283C13.0001 10.9375 17.9249 6 24 6ZM17.1553 23.7559C13.0982 23.7559 9.80859 26.9993 9.80859 31C9.80859 35.0007 13.0982 38.2441 17.1553 38.2441C18.8056 38.2441 20.3632 37.7031 21.627 36.7441C20.5959 35.0649 20 33.0883 20 30.9717C20 28.9838 20.5275 27.0685 21.5117 25.3896C21.5421 25.3379 21.5741 25.2879 21.6084 25.2402C20.3481 24.2905 18.7972 23.7559 17.1553 23.7559ZM32.6084 23.8896C30.8415 26.1172 28.2315 27.6519 25.2354 27.9883C24.9554 28.0197 24.6833 27.9853 24.4326 27.9014C23.9898 28.8513 23.7559 29.8929 23.7559 30.9717C23.756 34.9827 26.9994 38.2344 31 38.2344C35.0006 38.2344 38.244 34.9827 38.2441 30.9717C38.2441 27.5387 35.8548 24.6259 32.6084 23.8896ZM24 9.76562C19.9994 9.76562 16.756 13.0173 16.7559 17.0283C16.7559 18.0709 16.9743 19.079 17.3887 20.0029C20.543 20.0673 23.4708 21.4316 25.5234 23.7266C25.6198 23.8344 25.7006 23.9512 25.7676 24.0723C28.9325 23.2782 31.2441 20.405 31.2441 17.0283C31.244 13.0173 28.0006 9.76562 24 9.76562Z" fill="#333333"/>
</svg>
