<svg width="48" height="48" viewBox="0 0 48 48" fill="none" xmlns="http://www.w3.org/2000/svg">
<path fill-rule="evenodd" clip-rule="evenodd" d="M11.0001 28.2738C11.0001 34.989 16.3064 39.0529 23.3425 39.0529C30.6974 39.0529 36.6801 34.7694 36.6801 28.2738C36.6842 25.9178 35.5355 22.2197 34.3334 20C31.3334 24 30.5066 23.9188 30.3334 24C29.3045 24.4822 28.0799 24.2426 27.3185 23.4145C26.5581 22.5864 26.4485 21.3663 27.048 20.4198C27.4405 19.7752 28.9348 15.3467 22.8404 10C21.3334 12 18.8929 16.3352 14.4772 20.3455C12.2319 22.5201 11.0001 25.3182 11.0001 28.2738ZM6.66675 27.7974C6.66675 23.4298 8.54746 19.3349 11.9608 16.2683C11.9816 16.2499 12.0043 16.2296 12.0261 16.2112C18.0044 10.6285 19.6923 5.72487 19.7101 5.67457C19.9484 4.96064 20.515 4.38893 21.2398 4.13934C21.9646 3.88879 22.7685 3.97876 23.4122 4.38796C28.2692 7.48177 30.6627 13.355 31.3313 15.2458C31.4059 15.457 31.7103 15.4731 31.7884 15.2632C32.0979 14.4216 32.8573 13.816 33.7621 13.6883C34.6669 13.5645 35.5706 13.9321 36.1105 14.6547C36.3241 14.941 41.3433 21.731 41.3334 27.8013C41.3314 36.7341 33.3409 43 23.52 43C13.9127 43 6.66675 37.0349 6.66675 27.7974Z" fill="#333333"/>
</svg>
