<svg width="48" height="48" viewBox="0 0 48 48" fill="none" xmlns="http://www.w3.org/2000/svg">
<path d="M24 5C34.4934 5 43 13.5066 43 24C43 34.4934 34.4934 43 24 43C13.5066 43 5 34.4934 5 24C5 13.5066 13.5066 5 24 5ZM23.1436 12.2285C22.7537 11.9874 22.267 11.9344 21.8281 12.082C21.3892 12.2292 21.0458 12.5664 20.9014 12.9873C20.8906 13.017 19.8676 15.9088 16.2461 19.2012C16.2329 19.212 16.2196 19.2245 16.207 19.2354C14.1394 21.0438 13.0001 23.4585 13 26.0342C13 31.4819 17.3893 34.9999 23.209 35C29.158 35 33.9985 31.3049 34 26.0371C34.006 22.4572 30.9653 18.4521 30.8359 18.2832C30.5089 17.8572 29.961 17.6409 29.4131 17.7139C28.8652 17.7893 28.4052 18.1464 28.2178 18.6426C28.1695 18.7684 27.9866 18.7585 27.9404 18.6318C27.5352 17.5161 26.0853 14.0527 23.1436 12.2285ZM22.7979 15.5381C26.4892 18.6909 25.5845 21.303 25.3467 21.6836C24.9836 22.2416 25.0495 22.9608 25.5098 23.4492C25.971 23.9376 26.7137 24.0793 27.3369 23.7949C27.4426 23.7473 27.9444 23.792 29.7598 21.4355C30.4879 22.7446 31.1831 24.926 31.1807 26.3154C31.1806 30.1461 27.5568 32.6719 23.1016 32.6719C18.8394 32.6718 15.6251 30.2756 15.625 26.3154C15.625 24.5724 16.3713 22.9221 17.7314 21.6396C20.4063 19.2746 21.885 16.7176 22.7979 15.5381Z" fill="#333333"/>
</svg>
