<svg width="48" height="48" viewBox="0 0 48 48" fill="none" xmlns="http://www.w3.org/2000/svg">
<path fill-rule="evenodd" clip-rule="evenodd" d="M7 28.1873C7 23.9316 8.84454 19.9417 12.1923 16.9537C12.2126 16.9358 12.2349 16.916 12.2563 16.8981C18.1196 11.4585 19.775 6.68064 19.7925 6.63163C20.0262 5.93601 20.5819 5.37895 21.2928 5.13577C22.0036 4.89165 22.7921 4.9793 23.4234 5.37801C28.1868 8.39237 30.5342 14.1146 31.19 15.9572C31.2636 16.1639 31.5615 16.1798 31.6385 15.9744C31.942 15.1543 32.6868 14.5643 33.5742 14.4399C34.4615 14.3192 35.3479 14.6774 35.8774 15.3815C36.0869 15.6605 41.0096 22.2764 40.9999 28.191C40.9979 36.8947 33.161 43 23.5291 43C14.1066 43 7 37.1879 7 28.1873Z" fill="#333333"/>
</svg>
