<svg width="48" height="48" viewBox="0 0 48 48" fill="none" xmlns="http://www.w3.org/2000/svg">
<path fill-rule="evenodd" clip-rule="evenodd" d="M13.1831 7.91583C15.8519 6.30849 17.7731 5.77103 20.1325 6.08355C25.1979 6.75448 29.6313 19.2924 26.3708 22.1226C25.8546 22.5707 25.1747 22.994 24.2445 23.4384L23.925 23.5873L23.4379 23.804L23.6581 24.2082L23.8647 24.5685L24.0779 24.9235L24.3678 25.3909L25.0889 26.603L25.5572 26.398L25.9168 26.2456C27.5239 25.5778 28.7715 25.3004 29.9518 25.3731C34.041 25.6251 38.6077 32.7178 37.9321 36.8325C37.5125 39.3884 35.3662 41.6262 32.7062 42.4168C24.9519 44.7215 15.9729 40.0868 11.0471 31.2922C6.32362 22.8572 7.30308 12.3939 12.6422 8.29734L12.8641 8.13259L13.0743 7.98631L13.1831 7.91583ZM19.6072 10.0489C18.3855 9.88709 17.4047 10.1135 15.7818 11.0297L15.2888 11.3167L15.1716 11.3998L15.0266 11.5099C11.4795 14.2954 10.7205 22.5223 14.5371 29.3377C18.6128 36.6145 25.7657 40.3067 31.5666 38.5825C32.8159 38.2112 33.8249 37.1592 33.985 36.1845C34.1148 35.3939 33.5309 33.6296 32.4885 32.0106C31.465 30.4209 30.2717 29.4004 29.7058 29.3655C29.3268 29.3422 28.8322 29.4284 28.1166 29.6819L27.8952 29.763L27.4528 29.9389L27.045 30.1126L26.7008 30.2652L26.282 30.442L25.6464 30.7147L25.2869 30.8824C24.6103 31.2029 23.8165 31.1172 23.2264 30.6719L23.094 30.5628L23.0563 30.5285C22.9291 30.4098 22.8066 30.2862 22.6934 30.1624C22.6199 30.0826 22.548 29.9978 22.4748 29.9045L22.3638 29.7577L22.1893 29.5082L21.999 29.2156L21.7858 28.8714L21.0314 27.6037L20.6758 27.0272C20.0646 26.0327 19.5069 24.9631 19.0903 23.9867L18.9206 23.5744L18.8857 23.4838C18.5139 22.5182 18.941 21.4381 19.8503 20.9799L19.9903 20.916L20.8809 20.549L21.8896 20.1162L22.278 19.9422C22.5068 19.8379 22.7082 19.7401 22.8848 19.6484L23.0533 19.5586L23.343 19.3911L23.4653 19.3131L23.4929 19.293L23.5056 19.148C23.5125 19.0149 23.5125 18.8597 23.5047 18.686L23.4943 18.5062L23.4785 18.3148C23.381 17.2754 23.0726 15.9558 22.6167 14.6664C21.6751 12.0037 20.3233 10.1438 19.6072 10.0489ZM32.0289 8.28503C35.6638 10.466 37.6347 14.6015 37.0595 18.7818L37.0141 19.0804L36.9727 19.3288C36.7911 20.4184 35.7606 21.1544 34.6711 20.9728C33.6311 20.7995 32.9132 19.8527 33.008 18.8193L33.0271 18.6712L33.0685 18.4228C33.5118 15.7629 32.2833 13.1024 29.9709 11.715C29.0238 11.1467 28.7166 9.91818 29.2849 8.97102C29.8532 8.02386 31.0817 7.71673 32.0289 8.28503Z" fill="#333333"/>
</svg>
