<svg width="48" height="48" viewBox="0 0 48 48" fill="none" xmlns="http://www.w3.org/2000/svg">
<path d="M24 7.00039C25.1046 7.00039 26 7.89583 26 9.00039C25.9998 10.1048 25.1044 11.0004 24 11.0004C19.3016 11.0004 16.1705 11.5969 14.2002 12.2045C12.6379 12.6864 11.5682 14.1303 11.3701 16.1586C11.1733 18.1746 11 21.1533 11 25.3832C11 30.0596 11.3204 33.9149 11.6602 36.6869C11.7931 37.7684 12.9546 38.4747 14.1426 37.8588L21.6982 33.9408C23.1414 33.1925 24.8586 33.1925 26.3018 33.9408L33.5967 37.724C34.8168 38.3565 36.1167 37.6032 36.252 36.3988C36.5605 33.6402 36.871 29.9989 36.9688 25.9525C36.9954 24.8483 37.9124 23.9747 39.0166 24.0014C40.1206 24.0282 40.9942 24.9443 40.9678 26.0482C40.8666 30.2365 40.5449 33.9973 40.2266 36.8432C39.7616 40.9973 35.3228 43.1239 31.7559 41.2748L24.46 37.4916C24.1716 37.3422 23.8284 37.3422 23.54 37.4916L15.9834 41.4096C12.5422 43.1938 8.19147 41.2673 7.68945 37.1732C7.33238 34.2596 7.00002 30.241 7 25.3832C7 21.046 7.17813 17.9351 7.38965 15.7689C7.70354 12.5561 9.55172 9.4524 13.0215 8.38223C15.4291 7.63975 18.9645 7.00039 24 7.00039ZM23.9521 24.0004C27.1539 24.0004 29.8859 24.7808 32.0918 26.3676C32.9667 26.9971 33.1655 28.2162 32.5361 29.0912C31.9068 29.9662 30.6875 30.1657 29.8125 29.5365C28.3113 28.4567 26.3763 27.9037 23.9521 27.9037C21.5279 27.9037 19.593 28.4567 18.0918 29.5365C17.2167 30.1659 15.9966 29.9663 15.3672 29.0912C14.738 28.2162 14.9375 26.997 15.8125 26.3676C18.0184 24.7808 20.7503 24.0004 23.9521 24.0004ZM33.8447 7.12149C34.2415 6.04927 35.7585 6.04927 36.1553 7.12149L37.5039 10.768C37.6287 11.1051 37.8953 11.3708 38.2324 11.4955L41.8779 12.8451C42.9502 13.2419 42.9502 14.7579 41.8779 15.1547L38.2324 16.5043C37.8953 16.6291 37.6287 16.8947 37.5039 17.2318L36.1553 20.8783C35.7585 21.9506 34.2415 21.9506 33.8447 20.8783L32.4961 17.2318C32.3713 16.8947 32.1047 16.6291 31.7676 16.5043L28.1221 15.1547C27.0498 14.7579 27.0498 13.2419 28.1221 12.8451L31.7676 11.4955C32.1047 11.3708 32.3713 11.1051 32.4961 10.768L33.8447 7.12149Z" fill="#333333"/>
</svg>
