<svg width="48" height="48" viewBox="0 0 48 48" fill="none" xmlns="http://www.w3.org/2000/svg">
<path fill-rule="evenodd" clip-rule="evenodd" d="M8.787 4.96895L8.91421 5.08579L42.9142 39.0858C43.6953 39.8668 43.6953 41.1332 42.9142 41.9142C42.1743 42.6542 40.9988 42.6931 40.213 42.031L40.0858 41.9142L38.1831 40.0124C36.7351 41.3242 34.7644 42.0503 32.665 41.8616C31.7618 41.7804 30.8828 41.5306 30.0734 41.1261L29.7732 40.9672L24 37.735L18.2268 40.9672C14.8816 42.8396 10.6896 41.776 8.62248 38.6156L8.48786 38.4018L8.35973 38.1818C7.86147 37.2916 7.55669 36.3062 7.46529 35.29C7.15496 31.8375 7 28.2019 7 24.383C7 23.9318 7.00216 23.4894 7.0065 23.0559L7.01462 22.4123L7.04066 21.1648C7.08342 19.5621 7.15998 18.0956 7.27079 16.7629L7.32038 16.1998L7.36734 15.7203C7.54839 13.9572 8.1617 12.3246 9.1008 10.9304L6.08579 7.91421C5.30474 7.13317 5.30474 5.86684 6.08579 5.08579C6.82573 4.34585 8.00121 4.3069 8.787 4.96895ZM11.3854 15.8182L11.3474 16.1194L11.3023 16.5801C11.2592 17.0425 11.2207 17.5252 11.1868 18.0284L11.1544 18.5383L11.0989 19.5989C11.066 20.3241 11.0413 21.0854 11.0248 21.8828L11.0139 22.4876L11.0015 23.7377L11 24.383C11 28.0851 11.1499 31.6015 11.4492 34.9318C11.4902 35.3874 11.6268 35.8291 11.8502 36.2282C12.6955 37.7384 14.567 38.3121 16.1039 37.5652L16.2732 37.4768L22.5348 33.9721C23.3845 33.4966 24.4078 33.4649 25.2806 33.877L25.4652 33.9721L31.7268 37.4768C32.1259 37.7001 32.5676 37.8367 33.0231 37.8777C33.8938 37.9559 34.7151 37.6832 35.3471 37.1762L12.0168 13.8456C11.7513 14.3672 11.5542 14.9294 11.4372 15.5204L11.3854 15.8182ZM24 6C26.4299 6 28.5711 6.0864 30.4362 6.26165L30.9381 6.31166L31.4163 6.36503C36.3001 6.9405 40.1303 10.8284 40.6327 15.7203C40.7113 16.4856 40.7772 17.3014 40.8305 18.1681L40.8681 18.8276L40.9202 19.9692L40.9414 20.5599L40.9593 21.1638L40.9854 22.4115C40.9951 23.0487 41 23.7058 41 24.383C41 27.1896 40.9163 29.8972 40.7487 32.5059L36.9297 28.6868C36.9766 27.2813 37 25.8466 37 24.383L36.9985 23.738L36.9861 22.4885C36.9737 21.6734 36.9531 20.8944 36.9243 20.1516L36.9012 19.6012L36.8457 18.5411C36.7944 17.6804 36.7303 16.8762 36.6536 16.1289C36.3513 13.1847 34.1017 10.828 31.21 10.3733L30.9606 10.339L30.5067 10.2883C28.6899 10.0967 26.5195 10 24 10C21.9042 10 20.0501 10.0669 18.4406 10.1996L14.9357 6.69385C15.4686 6.54236 16.0191 6.43156 16.5837 6.36504C18.6563 6.12081 21.1264 6 24 6Z" fill="#333333"/>
</svg>
