<svg width="48" height="48" viewBox="0 0 48 48" fill="none" xmlns="http://www.w3.org/2000/svg">
<path fill-rule="evenodd" clip-rule="evenodd" d="M24 6C26.4299 6 28.5711 6.0864 30.4362 6.26165L30.9381 6.31166L31.4163 6.36503C36.3001 6.9405 40.1303 10.8284 40.6327 15.7203C40.7113 16.4856 40.7772 17.3014 40.8305 18.1681L40.8681 18.8276L40.9202 19.9692L40.9414 20.5599L40.9593 21.1638L40.9854 22.4115C40.9951 23.0487 41 23.7058 41 24.383C41 28.2019 40.845 31.8375 40.5347 35.29C40.1762 39.2779 36.6528 42.2201 32.665 41.8616C31.7618 41.7804 30.8828 41.5306 30.0734 41.1261L29.7732 40.9672L24 37.735L18.2268 40.9672C14.8816 42.8396 10.6896 41.776 8.62248 38.6156L8.48786 38.4018L8.35973 38.1818C7.86147 37.2916 7.55669 36.3062 7.46529 35.29C7.15496 31.8375 7 28.2019 7 24.383C7 23.9318 7.00216 23.4894 7.0065 23.0559L7.01462 22.4123L7.04066 21.1648C7.08342 19.5621 7.15998 18.0956 7.27079 16.7629L7.32038 16.1998L7.36734 15.7203C7.86969 10.8284 11.6999 6.9405 16.5837 6.36504C18.6563 6.12081 21.1264 6 24 6ZM24 10C21.2724 10 18.9543 10.1134 17.0518 10.3376C14.1124 10.6839 11.7896 12.9685 11.3779 15.8693L11.3474 16.1194L11.3023 16.5801C11.2592 17.0425 11.2207 17.5252 11.1868 18.0284L11.1544 18.5383L11.0989 19.5989C11.066 20.3241 11.0413 21.0854 11.0248 21.8828L11.0139 22.4876L11.0015 23.7377L11 24.383C11 28.0851 11.1499 31.6015 11.4492 34.9318C11.4902 35.3874 11.6268 35.8291 11.8502 36.2282C12.6955 37.7384 14.567 38.3121 16.1039 37.5652L16.2732 37.4768L22.5348 33.9721C23.3845 33.4966 24.4078 33.4649 25.2806 33.877L25.4652 33.9721L31.7268 37.4768C32.1259 37.7001 32.5676 37.8367 33.0231 37.8777C34.8107 38.0384 36.3901 36.7195 36.5508 34.9319C36.8501 31.6015 37 28.0851 37 24.383L36.9985 23.738L36.9861 22.4885C36.9737 21.6734 36.9531 20.8944 36.9243 20.1516L36.9012 19.6012L36.8457 18.5411C36.7944 17.6804 36.7303 16.8762 36.6536 16.1289C36.3513 13.1847 34.1017 10.828 31.21 10.3733L30.9606 10.339L30.5067 10.2883C28.6899 10.0967 26.5195 10 24 10ZM24 15.0482C27.2019 15.0482 29.9338 15.8288 32.1397 17.4156C33.0148 18.045 33.2139 19.2647 32.5844 20.1397C31.955 21.0148 30.7353 21.2139 29.8603 20.5844C28.3591 19.5046 26.4243 18.9518 24 18.9518C21.5757 18.9518 19.641 19.5046 18.1397 20.5844C17.2647 21.2139 16.045 21.0148 15.4156 20.1397C14.7861 19.2647 14.9852 18.045 15.8603 17.4156C18.0662 15.8288 20.7981 15.0482 24 15.0482Z" fill="#333333"/>
</svg>
