<svg width="48" height="48" viewBox="0 0 48 48" fill="none" xmlns="http://www.w3.org/2000/svg">
<path fill-rule="evenodd" clip-rule="evenodd" d="M24 4C35.0457 4 44 12.9543 44 24C44 29.1831 42.0284 33.9056 38.7943 37.4586C38.7027 37.7646 38.5358 38.0526 38.2942 38.2942C38.0526 38.5358 37.7646 38.7027 37.4588 38.7948C33.9056 42.0284 29.1831 44 24 44C12.9543 44 4 35.0457 4 24C4 12.9543 12.9543 4 24 4ZM24 8C20.303 8 16.8989 9.25387 14.1897 11.3596L17.2942 14.4658C18.0753 15.2468 18.0753 16.5132 17.2942 17.2942C16.5543 18.0342 15.3788 18.0731 14.593 17.411L14.4658 17.2942L11.3596 14.1897C9.25387 16.8989 8 20.303 8 24C8 32.8365 15.1635 40 24 40C27.697 40 31.1011 38.7461 33.8103 36.6404L31.1458 33.9742C30.3647 33.1932 30.3647 31.9268 31.1458 31.1458C31.8857 30.4058 33.0612 30.3669 33.847 31.029L33.9742 31.1458L36.6404 33.8103C38.7461 31.1011 40 27.697 40 24C40 15.1635 32.8365 8 24 8ZM28.8737 14.3025C29.5767 15.0816 29.5532 16.2619 28.846 17.0124L28.7286 17.1272L23.5881 21.7651L29.3067 23.2984C30.7889 23.6955 31.2748 25.5292 30.2377 26.6097L30.1289 26.7152L22.2562 33.8184C21.4361 34.5584 20.1715 34.4934 19.4315 33.6733C18.7286 32.8942 18.7521 31.7139 19.4593 30.9634L19.5767 30.8486L24.7184 26.2091L18.9986 24.6775C17.5164 24.2803 17.0305 22.4467 18.0676 21.3662L18.1764 21.2607L26.049 14.1574C26.8691 13.4175 28.1338 13.4824 28.8737 14.3025Z" fill="#333333"/>
</svg>
