<svg width="48" height="48" viewBox="0 0 48 48" fill="none" xmlns="http://www.w3.org/2000/svg">
<path fill-rule="evenodd" clip-rule="evenodd" d="M24 4C35.0457 4 44 12.9543 44 24C44 35.0457 35.0457 44 24 44C12.9543 44 4 35.0457 4 24C4 12.9543 12.9543 4 24 4ZM24 8C15.1635 8 8 15.1635 8 24C8 32.8365 15.1635 40 24 40C32.8365 40 40 32.8365 40 24C40 15.1635 32.8365 8 24 8ZM28.8737 14.3025C29.5767 15.0816 29.5532 16.2619 28.846 17.0124L28.7286 17.1272L23.5881 21.7651L29.3067 23.2984C30.7889 23.6955 31.2748 25.5292 30.2377 26.6097L30.1289 26.7152L22.2562 33.8184C21.4361 34.5584 20.1715 34.4934 19.4315 33.6733C18.7286 32.8942 18.7521 31.7139 19.4593 30.9634L19.5767 30.8486L24.7184 26.2091L18.9986 24.6775C17.5164 24.2803 17.0305 22.4467 18.0676 21.3662L18.1764 21.2607L26.049 14.1574C26.8691 13.4175 28.1338 13.4824 28.8737 14.3025Z" fill="#333333"/>
</svg>
