<svg width="48" height="48" viewBox="0 0 48 48" fill="none" xmlns="http://www.w3.org/2000/svg">
<path fill-rule="evenodd" clip-rule="evenodd" d="M16.0322 7.61005C16.7249 7.63285 17.3692 8.0176 17.7132 8.64131L17.7871 8.78943L17.8044 8.8329L17.8085 8.83247L28.1028 37.1157C28.4647 38.1099 27.995 39.1942 27.0528 39.6216L26.908 39.6806L26.765 39.7269C25.8109 39.9969 24.8104 39.5269 24.4033 38.6291L24.344 38.4838L21.2557 29.999H10.6367L7.54956 38.4838C7.18866 39.4754 6.13291 40.0111 5.12863 39.7269L4.98559 39.6806C3.94763 39.3029 3.41085 38.1596 3.79079 37.1157L14.0851 8.83247L14.0892 8.8329L14.1065 8.78943C14.4255 8.07893 15.1154 7.63461 15.8614 7.61005H16.0322ZM35.9999 23.5C37.6427 23.5 39.1698 23.9951 40.4402 24.8444C40.7107 24.5695 41.0876 24.4 41.5008 24.4H42.4991C43.2792 24.4 43.9203 24.9898 43.9931 25.7546L43.9999 25.9V37.9C43.9999 38.7284 43.3214 39.4 42.4991 39.4H41.5008C40.8401 39.4 40.2792 38.977 40.0787 38.383C38.8852 39.0925 37.4902 39.5 35.9999 39.5C31.5817 39.5 27.9999 35.9183 27.9999 31.5C27.9999 27.0817 31.5817 23.5 35.9999 23.5ZM35.9999 27.5C33.7908 27.5 31.9999 29.2908 31.9999 31.5C31.9999 33.7091 33.7908 35.5 35.9999 35.5C38.2091 35.5 39.9999 33.7091 39.9999 31.5C39.9999 29.2908 38.2091 27.5 35.9999 27.5ZM15.9467 15.412L12.0927 25.999H19.7997L15.9467 15.412Z" fill="#333333"/>
</svg>
