<svg width="48" height="48" viewBox="0 0 48 48" fill="none" xmlns="http://www.w3.org/2000/svg">
<path d="M35.9995 37.9998C37.1041 37.9998 37.9995 38.8952 37.9995 39.9998C37.9995 41.1043 37.1041 41.9998 35.9995 41.9998H11.9995C10.8952 41.9995 9.99952 41.1042 9.99952 39.9998C9.99952 38.8954 10.8952 38 11.9995 37.9998H35.9995ZM22.1968 7.13454C22.9229 5.62182 25.0771 5.62182 25.8032 7.13454L37.8032 32.1345C38.281 33.1302 37.8612 34.3245 36.8657 34.8025C35.8699 35.2805 34.6748 34.8608 34.1968 33.865L30.4214 25.9998H17.5776L13.8032 33.865C13.348 34.8134 12.2423 35.2395 11.2778 34.865L11.1343 34.8025C10.1388 34.3245 9.71904 33.1302 10.1968 32.1345L22.1968 7.13454ZM19.4976 21.9998H28.5015L23.9995 12.6218L19.4976 21.9998Z" fill="#333333"/>
</svg>
