<svg width="48" height="48" viewBox="0 0 48 48" fill="none" xmlns="http://www.w3.org/2000/svg">
<path fill-rule="evenodd" clip-rule="evenodd" d="M24 5C34.4934 5 43 13.5066 43 24C43 34.4934 34.4934 43 24 43C13.5066 43 5 34.4934 5 24C5 13.5066 13.5066 5 24 5ZM11.9974 15.002C10.1152 17.5087 9 20.6241 9 24C9 32.2843 15.7157 39 24 39C27.3908 39 30.5187 37.8749 33.031 35.9777C32.9552 35.928 32.8824 35.8724 32.8127 35.8114L32.7106 35.7158L11.9974 15.002ZM24 9C20.6241 9 17.5087 10.1152 15.002 11.9974L35.7158 32.7106L35.8341 32.8388C35.8864 32.9004 35.9347 32.9643 35.9788 33.03C37.8749 30.5187 39 27.3908 39 24C39 15.7157 32.2843 9 24 9Z" fill="#333333"/>
</svg>
