<svg width="48" height="48" viewBox="0 0 48 48" fill="none" xmlns="http://www.w3.org/2000/svg">
<path fill-rule="evenodd" clip-rule="evenodd" d="M30.5 5C33.5376 5 36 7.46243 36 10.5C36 11.0203 35.9277 11.5238 35.7927 12.0009L37.9091 12C40.6486 12 42.8828 14.1639 42.9955 16.8757L43 17.0909V22.4545C43 24.2469 41.67 25.7286 39.9431 25.9666L39.9545 26.5672L39.9612 27.417L39.9557 30.0175C39.9557 37.9497 36.8046 41.7035 29.0084 42.7062L28.3572 42.7824L27.6848 42.8465L26.9911 42.8985L26.276 42.9386C26.034 42.95 25.7884 42.9595 25.5392 42.967L24.7805 42.984C24.6523 42.9859 24.5231 42.9873 24.393 42.9882H23.6068L22.8371 42.9769C22.4578 42.9685 22.0867 42.9557 21.7238 42.9386L21.0086 42.8985L20.3149 42.8465L19.6426 42.7824L18.9913 42.7062C11.3019 41.7172 8.13124 38.052 8.04582 30.3411L8.03737 28.7936L8.0165 27.4676L7.98721 25.9563C6.3548 25.6981 5.09296 24.3259 5.00491 22.6428L5 22.4545V17.0909C5 14.3514 7.16389 12.1172 9.87571 12.0045L10.0909 12L12.2071 12.0002C12.0722 11.5233 12 11.0201 12 10.5C12 7.46243 14.4624 5 17.5 5C20.2647 5 22.7274 6.71127 23.7169 9.31309L23.8053 9.5596L23.8846 9.81589L24 10.219L24.1154 9.81589C24.9059 7.04915 27.3836 5.11637 30.2394 5.00507L30.5 5ZM35.942 26H11.985L12.0284 28.1018L12.0402 29.0706L12.044 30.0175C12.044 30.2018 12.0458 30.3827 12.0493 30.5601L12.0655 31.0821L12.0778 31.3355L12.1112 31.8272C12.1243 31.9878 12.1395 32.1451 12.1567 32.2992L12.2148 32.7518C12.7634 36.5169 14.7288 38.2138 19.4554 38.7701L20.0243 38.8304L20.6191 38.8804L21.3999 38.9292L22.223 38.9632L22.9126 38.9802L23.6303 38.9886H24.3694L25.0871 38.9802L25.7767 38.9632L26.4386 38.9371L27.0733 38.9017C27.1768 38.895 27.2793 38.8879 27.3806 38.8804L27.9754 38.8303L28.5443 38.7701L29.0877 38.6993C33.8652 38.0137 35.6063 36.0074 35.9067 31.5755L35.9343 31.073L35.9504 30.5502L35.9544 30.2811L35.9622 27.9531L35.9553 26.667L35.942 26ZM37.9091 16H10.0909C9.52858 16 9.06563 16.4255 9.0064 16.972L9 17.0909V22H39V17.0909C39 16.5687 38.6331 16.1323 38.1431 16.0252L38.028 16.0064L37.9091 16ZM30.5 9C29.3802 9 28.3893 9.70521 28.0154 10.7475L27.9615 10.9148L27.651 12H30.5C31.231 12 31.8398 11.4771 31.973 10.785L31.9931 10.6445L32 10.5C32 9.67157 31.3284 9 30.5 9ZM17.5 9L17.3555 9.00687C16.5949 9.07955 16 9.7203 16 10.5C16 11.2797 16.5949 11.9204 17.3555 11.9931L17.5 12H20.348L20.052 10.96L20.0009 10.794C19.6596 9.78322 18.7432 9.08149 17.6876 9.00664L17.5 9Z" fill="#333333"/>
</svg>
