<svg width="48" height="48" viewBox="0 0 48 48" fill="none" xmlns="http://www.w3.org/2000/svg">
<path d="M23.9997 7C28.418 7 31.9997 10.5817 31.9997 15C31.9997 17.4228 30.9208 19.5915 29.2194 21.0586C33.5666 23.0747 36.7368 27.412 36.737 31.9492C36.737 38.1669 31.842 41.8796 24.0007 41.8799C16.1588 41.8799 11.2634 38.1672 11.2634 31.9492C11.2636 27.4125 14.4324 23.075 18.779 21.0586C17.0781 19.5916 15.9997 17.4224 15.9997 15C15.9997 10.5818 19.5815 7.00007 23.9997 7ZM24.0007 23.8799C19.4116 23.8799 15.2637 27.9546 15.2634 31.9492C15.2634 35.6794 18.1649 37.8799 24.0007 37.8799C29.8359 37.8797 32.737 35.6792 32.737 31.9492C32.7367 27.9548 28.5894 23.8804 24.0007 23.8799ZM12.9997 7.87988C14.1042 7.87988 14.9996 8.77537 14.9997 9.87988C14.9997 10.9342 14.184 11.7987 13.1491 11.875L12.9997 11.8799C11.3429 11.88 9.99976 13.2231 9.9997 14.8799C9.9997 16.4776 11.2491 17.7838 12.8239 17.875L12.9997 17.8799C14.1042 17.8799 14.9996 18.7754 14.9997 19.8799C14.9997 20.9845 14.1043 21.8799 12.9997 21.8799C12.9504 21.8799 12.9013 21.877 12.8522 21.876C9.02679 23.0928 6.52681 27.1639 7.26825 30.2324L7.31904 30.4229C7.62636 31.4836 7.01549 32.5928 5.95478 32.9004C4.89402 33.2078 3.78484 32.5969 3.47724 31.5361C2.28782 27.4339 4.3383 22.6666 8.10419 19.8809C6.80639 18.6102 5.9997 16.8396 5.9997 14.8799C5.99976 11.014 9.13381 7.87996 12.9997 7.87988ZM35.0017 7.87988C38.8676 7.87988 42.0016 11.0139 42.0017 14.8799C42.0017 16.8539 41.1833 18.6357 39.8688 19.9082C43.6121 22.6976 45.6464 27.4469 44.4606 31.5361C44.153 32.597 43.0439 33.208 41.9831 32.9004C40.9224 32.5928 40.3116 31.4836 40.6188 30.4229L40.6696 30.2324C41.4108 27.1648 38.913 23.0952 35.0895 21.877C35.0604 21.8773 35.0309 21.8799 35.0017 21.8799C33.8972 21.8797 33.0017 20.9844 33.0017 19.8799C33.0017 18.7755 33.8973 17.88 35.0017 17.8799L35.1784 17.875C36.7531 17.7837 38.0017 16.4775 38.0017 14.8799C38.0016 13.2231 36.6585 11.8799 35.0017 11.8799L34.8522 11.875C33.8176 11.7985 33.0017 10.9341 33.0017 9.87988C33.0017 8.77546 33.8973 7.88004 35.0017 7.87988ZM23.9997 11C21.7906 11.0001 19.9997 12.7909 19.9997 15C19.9997 17.2091 21.7906 18.9999 23.9997 19C26.2088 19 27.9997 17.2091 27.9997 15C27.9997 12.7909 26.2088 11 23.9997 11Z" fill="#333333"/>
</svg>
