<svg width="48" height="48" viewBox="0 0 48 48" fill="none" xmlns="http://www.w3.org/2000/svg">
<path d="M26 8C27.1046 8 28 8.89543 28 10V38C28 39.1046 27.1046 40 26 40C24.8954 40 24 39.1046 24 38V26H9V38C9 39.1046 8.10457 40 7 40C5.89543 40 5 39.1046 5 38V10C5 8.89543 5.89543 8 7 8C8.10457 8 9 8.89543 9 10V22H24V10C24 8.89543 24.8954 8 26 8ZM36.5859 18.5859C37.8459 17.326 40 18.2182 40 20V38C40 39.1046 39.1046 40 38 40C36.8954 40 36 39.1046 36 38V24.8281L35.4141 25.4141C34.6741 26.154 33.4987 26.1933 32.7129 25.5312L32.5859 25.4141C31.8049 24.633 31.8049 23.367 32.5859 22.5859L36.5859 18.5859Z" fill="#333333"/>
</svg>
