<svg width="48" height="48" viewBox="0 0 48 48" fill="none" xmlns="http://www.w3.org/2000/svg">
<path d="M26 8C27.1046 8 28 8.89543 28 10V38C28 39.1046 27.1046 40 26 40C24.8954 40 24 39.1046 24 38V26H9V38C9 39.1046 8.10457 40 7 40C5.89543 40 5 39.1046 5 38V10C5 8.89543 5.89543 8 7 8C8.10457 8 9 8.89543 9 10V22H24V10C24 8.89543 24.8954 8 26 8ZM36.5 18C39.931 18 43 20.7355 43 24.5C43 27.4219 41.5898 29.3441 37.8867 32.9053C37.1933 33.5721 36.8526 33.9007 36.5928 34.1582L36.457 34.293C36.3482 34.4023 36.2456 34.5074 36.124 34.6328C35.7007 35.0694 35.3456 35.4667 35.0547 35.8301L34.9199 36H41C42.0543 36 42.9177 36.8158 42.9941 37.8506L43 38C43 39.1046 42.1046 40 41 40H32C30.8954 40 30 39.1046 30 38C30 35.8611 31.0985 34.0692 33.2529 31.8477C33.3337 31.7644 33.4068 31.6892 33.4775 31.6172L33.6182 31.4756C33.924 31.1681 34.2634 30.8397 35.1133 30.0225C37.9824 27.2634 39 25.8768 39 24.5C39 23.0537 37.8178 22 36.5 22C35.1822 22 34 23.0537 34 24.5C34 25.6046 33.1046 26.5 32 26.5C30.8954 26.5 30 25.6046 30 24.5C30 20.7355 33.0691 18 36.5 18Z" fill="#333333"/>
</svg>
