<svg width="48" height="48" viewBox="0 0 48 48" fill="none" xmlns="http://www.w3.org/2000/svg">
<path d="M26 8C27.1046 8 28 8.89543 28 10V38C28 39.1046 27.1046 40 26 40C24.8954 40 24 39.1046 24 38V26H9V38C9 39.1046 8.10457 40 7 40C5.89543 40 5 39.1046 5 38V10C5 8.89543 5.89543 8 7 8C8.10457 8 9 8.89543 9 10V22H24V10C24 8.89543 24.8954 8 26 8ZM41 18C42.6641 18 43.6004 19.9138 42.5791 21.2275L38.3193 26.7031L38.4326 26.7441C41.1499 27.7867 42.9054 30.0533 42.9961 33.2393L43 33.5C43 37.7875 40.05 40 36.5 40C34.0095 40 31.9618 39.0405 30.5205 37.4551C29.7775 36.6378 29.8371 35.3729 30.6543 34.6299C31.4715 33.8869 32.7365 33.9475 33.4795 34.7646C34.1826 35.5381 35.1692 36 36.5 36C38.05 36 39 35.2875 39 33.5C39 31.295 37.5063 30.0997 34.7002 30.0996C33.0359 30.0996 32.0994 28.1858 33.1211 26.8721L36.9111 22H32C30.9457 22 30.0823 21.1842 30.0059 20.1494L30 20C30 18.8954 30.8954 18 32 18H41Z" fill="#333333"/>
</svg>
