<svg width="48" height="48" viewBox="0 0 48 48" fill="none" xmlns="http://www.w3.org/2000/svg">
<path d="M26 8C27.1046 8 28 8.89543 28 10V38C28 39.1046 27.1046 40 26 40C24.8954 40 24 39.1046 24 38V26H9V38C9 39.1046 8.10457 40 7 40C5.89543 40 5 39.1046 5 38V10C5 8.89543 5.89543 8 7 8C8.10457 8 9 8.89543 9 10V22H24V10C24 8.89543 24.8954 8 26 8ZM37.3564 18.9834C38.3911 17.2299 41.0789 17.964 41.0791 20V32H42C43.0543 32 43.9177 32.8159 43.9941 33.8506L44 34C43.9997 35.1043 43.1044 36 42 36H41.0791V38C41.0789 39.0541 40.2631 39.9177 39.2285 39.9941L39.0791 40C37.9747 40 37.0794 39.1043 37.0791 38V36H32C30.9456 36 30.0822 35.1833 30.0059 34.1484L30 34V32C30 31.6427 30.0958 31.2912 30.2773 30.9834L37.3564 18.9834ZM34.3213 32H37.0791V27.3242L34.3213 32Z" fill="#333333"/>
</svg>
