<svg width="48" height="48" viewBox="0 0 48 48" fill="none" xmlns="http://www.w3.org/2000/svg">
<path d="M15.271 13.3757C16.68 12.6628 18.4009 13.1806 19.1831 14.5524L21.9692 19.2917C22.1438 19.598 22.3999 19.8503 22.7094 20.0192C23.019 20.1882 23.37 20.2676 23.7221 20.2487L32.395 19.7848C34.1728 19.6902 35.7835 20.8267 36.2905 22.5329L39.7182 32.1804C40.5551 34.5357 39.5243 37.1472 37.3042 38.2956L29.6421 42.2585C27.9935 43.1112 26.0104 42.9823 24.4887 41.9196C21.5876 39.8935 16.8301 36.5659 14.1196 34.6423C12.9751 33.7483 12.6895 32.1352 13.4565 30.902C14.1848 29.7319 15.6485 29.2532 16.9272 29.7673L18.7602 30.5046C19.3585 30.7445 19.9411 30.1266 19.6665 29.5436L13.9292 17.2839C13.2447 15.8326 13.8393 14.1 15.271 13.3757ZM13.3667 6.64032C18.6662 4.52186 24.6794 7.10061 26.7983 12.4001C27.2081 13.4256 26.7095 14.5896 25.684 14.9997C24.6587 15.4095 23.4947 14.9106 23.0844 13.8854C21.7857 10.637 18.0995 9.05564 14.851 10.3542C11.6026 11.653 10.022 15.3401 11.3208 18.5886C11.7304 19.614 11.2318 20.7781 10.2065 21.1882C9.18098 21.5982 8.01707 21.0983 7.6069 20.0729C5.48814 14.7732 8.06697 8.75919 13.3667 6.64032Z" fill="#333333"/>
</svg>
