<svg width="48" height="48" viewBox="0 0 48 48" fill="none" xmlns="http://www.w3.org/2000/svg">
<path d="M23.859 6.07276C24.9607 5.99516 25.9169 6.82564 25.9948 7.92726C26.0724 9.02907 25.2421 9.98534 24.1403 10.063C19.2888 10.4048 16.4008 12.0837 14.6647 14.2525C12.883 16.4782 12.0876 19.5026 12.0065 22.9126C11.9878 23.6968 11.7483 24.4898 11.2672 25.1714L7.85999 29.9995H9.49964C11.7086 29.9995 13.4994 31.7906 13.4996 33.9995V38.4995H19.9996C21.104 38.4995 21.9994 39.3952 21.9996 40.4995C21.9996 41.6041 21.1042 42.4995 19.9996 42.4995H13.4996C11.2907 42.4993 9.49964 40.7086 9.49964 38.4995V33.9995H6.89417C4.05672 33.999 2.39838 30.7992 4.0348 28.481L7.99964 22.8648C8.00179 22.8596 8.00681 22.8442 8.00746 22.8169C8.10035 18.9125 9.01501 14.9099 11.5426 11.7525C14.116 8.53791 18.1383 6.47583 23.859 6.07276Z" fill="#333333"/>
<path d="M40.3034 20.4995C41.4077 20.5054 42.2983 21.4059 42.2926 22.5103C42.2726 26.239 41.4761 30.6737 37.5543 34.7749C37.5268 34.8037 37.5116 34.8305 37.5045 34.8472C37.498 34.8626 37.4996 34.8655 37.4996 34.8579V40.4995C37.4996 41.6041 36.6042 42.4995 35.4996 42.4995C34.3952 42.4993 33.4996 41.604 33.4996 40.4995V34.8579C33.4998 33.7439 33.9651 32.7398 34.6627 32.0103C37.6452 28.8914 38.276 25.5906 38.2926 22.4888C38.2988 21.3846 39.1992 20.4938 40.3034 20.4995Z" fill="#333333"/>
<path d="M34.3444 5.12159C34.7411 4.04934 36.258 4.04945 36.6549 5.12159L37.8698 8.40284C37.9945 8.73997 38.2602 9.00563 38.5973 9.13038L41.8785 10.3452C42.9504 10.7421 42.9504 12.2579 41.8785 12.6548L38.5973 13.8696C38.2602 13.9944 37.9945 14.2601 37.8698 14.5972L36.6549 17.8784C36.2581 18.9507 34.7411 18.9507 34.3444 17.8784L33.1305 14.5972C33.0058 14.2601 32.7401 13.9944 32.403 13.8696L29.1217 12.6548C28.0495 12.258 28.0494 10.742 29.1217 10.3452L32.403 9.13038C32.74 9.00561 33.0058 8.73993 33.1305 8.40284L34.3444 5.12159Z" fill="#333333"/>
</svg>
