<svg width="48" height="48" viewBox="0 0 48 48" fill="none" xmlns="http://www.w3.org/2000/svg">
<path d="M8.6395 10.6825C12.7678 6.25581 19.2821 5.8204 23.8739 9.37002L23.9764 9.45107L24.0711 9.37685C28.5826 5.88495 34.9442 6.24085 39.0789 10.4442L39.3065 10.6815C41.3957 12.92 42.6688 15.9558 42.9442 19.1542C43.0389 20.2547 42.2234 21.2235 41.1229 21.3183C40.0226 21.4128 39.0538 20.5981 38.9588 19.4979C38.7579 17.1634 37.8394 14.9721 36.3817 13.4101C33.449 10.2638 28.7612 10.1986 25.7586 13.2118L25.5692 13.4081L25.4422 13.5448C24.6945 14.3493 23.4483 14.3941 22.6454 13.6757L22.5223 13.5556L22.3856 13.4101C19.3885 10.1963 14.5623 10.1966 11.5663 13.4091C8.78736 16.3937 8.2071 20.9815 10.1063 25.164C11.3365 27.8651 13.1566 30.3612 15.536 32.6171C17.5763 34.5444 19.8679 36.1775 22.3221 37.4579L22.869 37.7265L22.9832 37.7772L23.0926 37.8329L23.1717 37.8681C23.6792 38.0548 24.5249 38.0404 25.0038 37.8417L25.1356 37.7763L25.2655 37.706L25.3983 37.6454L25.6151 37.5312L25.9276 37.3583C26.5204 37.0199 27.1404 36.6325 27.7704 36.206C28.0342 36.0256 28.2951 35.8404 28.5536 35.6522C29.4465 35.0023 30.6974 35.1998 31.3475 36.0927C31.9975 36.9856 31.8009 38.2365 30.9081 38.8866C30.6178 39.098 30.3242 39.3048 30.0204 39.5126C29.3003 40.0002 28.5942 40.4413 27.9012 40.8368L27.493 41.0624C27.4293 41.0965 27.3672 41.1289 27.3065 41.1601L27.0516 41.2851L26.9452 41.3446C25.3428 42.1754 23.0523 42.2184 21.4012 41.4608L21.3075 41.4149L21.1707 41.3554L21.036 41.2841L20.4969 41.0175C17.6912 39.5539 15.0978 37.7052 12.787 35.5224C10.041 32.9189 7.91611 30.0038 6.46567 26.8192C3.92027 21.2134 4.71866 14.8939 8.6395 10.6825ZM41.2313 24.7626C42.017 24.0849 43.2045 24.1186 43.95 24.8642C44.7309 25.6452 44.7309 26.9113 43.95 27.6923L37.5858 34.0565L37.4579 34.1776C36.2799 35.2265 34.4733 35.186 33.3436 34.0565L29.6991 30.412L29.5975 30.3026C28.9198 29.5169 28.9536 28.3294 29.6991 27.5839L29.8084 27.4823C30.5942 26.8046 31.7816 26.8383 32.5272 27.5839L35.4657 30.5204L41.1219 24.8642L41.2313 24.7626Z" fill="#333333"/>
</svg>
