<svg width="48" height="48" viewBox="0 0 48 48" fill="none" xmlns="http://www.w3.org/2000/svg">
<path fill-rule="evenodd" clip-rule="evenodd" d="M24.0709 9.37647C28.4988 5.94924 34.7093 6.22899 38.8477 10.2155L39.0798 10.4451L39.3072 10.6826L39.5312 10.9293C43.2967 15.1889 44.1021 21.9818 41.4289 26.9259C40.0439 29.4756 38.3536 31.8424 36.4008 33.9675C34.4941 36.0566 32.3556 37.9156 30.0203 39.5126C29.6358 39.7729 29.2554 40.0201 28.8739 40.257L28.3003 40.605L27.7447 40.9246L27.3588 41.1341L27.1555 41.2386L27.0271 41.298L26.9449 41.3447C25.4226 42.1339 23.2791 42.2124 21.653 41.5687L21.4007 41.461L21.1501 41.336L21.0103 41.2719L20.4966 41.017C17.6908 39.5534 15.0973 37.7054 12.7865 35.5225C10.0406 32.9191 7.91598 30.0043 6.46553 26.8197C3.91987 21.2137 4.7185 14.8937 8.63965 10.6822C12.6785 6.35147 19.0184 5.83191 23.6243 9.18944L23.8784 9.37996L23.9721 9.454L24.0709 9.37647ZM36.3812 13.41C33.4485 10.2637 28.7614 10.1981 25.7588 13.2114L25.5695 13.4079L25.442 13.5451C24.697 14.3466 23.4566 14.3944 22.6529 13.6824L22.5297 13.5637L22.2201 13.2386C19.2087 10.192 14.5024 10.2606 11.5661 13.4091C8.78717 16.3938 8.20746 20.9813 10.1067 25.1638C11.3369 27.865 13.1566 30.3613 15.5359 32.6172C17.4193 34.3963 19.5169 35.9247 21.7485 37.1512L22.3091 37.4515L22.7361 37.6638L22.9553 37.7649L23.0891 37.832L23.1713 37.8685C23.6224 38.0346 24.3406 38.0411 24.831 37.9009L25.0032 37.8414L25.1352 37.7763L25.2652 37.7059L25.3691 37.659L25.4863 37.5998L25.7892 37.4354L26.2817 37.1518C26.766 36.8647 27.2661 36.5468 27.7699 36.2056C29.8428 34.7882 31.7475 33.1324 33.4509 31.266C35.1863 29.3775 36.6854 27.2785 37.9122 25.02C39.819 21.4932 39.1668 16.3946 36.3812 13.41ZM30.4045 14.0412L30.5496 14.077L30.6159 14.0959C34.4732 15.198 36.7068 19.2184 35.6047 23.0757C35.3983 23.7982 35.081 24.4842 34.6642 25.1094C34.0515 26.0285 32.8098 26.2768 31.8907 25.6641C31.0176 25.082 30.7498 23.9323 31.2505 23.0308L31.336 22.8906C31.5233 22.6097 31.6658 22.3014 31.7586 21.9768C32.2367 20.3034 31.3176 18.5617 29.6937 17.9979L29.4507 17.923C28.3886 17.6196 27.7736 16.5126 28.0771 15.4506C28.3667 14.4368 29.3885 13.8303 30.4045 14.0412Z" fill="#333333"/>
</svg>
