<svg width="48" height="48" viewBox="0 0 48 48" fill="none" xmlns="http://www.w3.org/2000/svg">
<path d="M8.63925 10.6825C12.7676 6.25581 19.2819 5.8204 23.8736 9.37002L23.9762 9.45107L24.0709 9.37685C28.5823 5.88495 34.944 6.24085 39.0787 10.4442L39.3062 10.6815C41.3955 12.92 42.6685 15.9558 42.9439 19.1542C43.0387 20.2547 42.2231 21.2235 41.1227 21.3183C40.0224 21.4128 39.0535 20.5981 38.9586 19.4979C38.7576 17.1634 37.8392 14.9721 36.3814 13.4101C33.4488 10.2638 28.761 10.1986 25.7584 13.2118L25.5689 13.4081L25.442 13.5448C24.6942 14.3493 23.4481 14.3941 22.6451 13.6757L22.5221 13.5556L22.3853 13.4101C19.3882 10.1963 14.562 10.1966 11.566 13.4091C8.78712 16.3937 8.20685 20.9815 10.1061 25.164C11.3363 27.8651 13.1564 30.3612 15.5357 32.6171C17.576 34.5444 19.8677 36.1775 22.3219 37.4579L22.8687 37.7265L22.983 37.7772L23.0924 37.8329L23.1715 37.8681C23.679 38.0548 24.5247 38.0404 25.0035 37.8417L25.1353 37.7763L25.2652 37.706L25.398 37.6454L25.6148 37.5312L25.9273 37.3583C26.5202 37.0199 27.1402 36.6325 27.7701 36.206C28.0339 36.0256 28.2949 35.8404 28.5533 35.6522C29.4463 35.0023 30.6972 35.1998 31.3473 36.0927C31.9972 36.9856 31.8007 38.2365 30.9078 38.8866C30.6175 39.098 30.324 39.3048 30.0201 39.5126C29.3 40.0002 28.594 40.4413 27.901 40.8368L27.4928 41.0624C27.4291 41.0965 27.367 41.1289 27.3062 41.1601L27.0514 41.2851L26.9449 41.3446C25.3425 42.1754 23.0521 42.2184 21.401 41.4608L21.3072 41.4149L21.1705 41.3554L21.0357 41.2841L20.4967 41.0175C17.6909 39.5539 15.0975 37.7052 12.7867 35.5224C10.0408 32.9189 7.91587 30.0038 6.46542 26.8192C3.92003 21.2134 4.71842 14.8939 8.63925 10.6825ZM36.9996 22.4999C38.0539 22.4999 38.9183 23.3157 38.9947 24.3505L38.9996 24.4999V28.4999H42.9996C44.1041 28.4999 44.9996 29.3954 44.9996 30.4999C44.9996 31.5543 44.1839 32.4177 43.149 32.494L42.9996 32.4999H38.9996V36.4999C38.9996 37.6045 38.1042 38.4999 36.9996 38.4999C35.9454 38.4997 35.0818 37.684 35.0055 36.6493L34.9996 36.4999V32.4999H30.9996C29.8952 32.4997 28.9996 31.6044 28.9996 30.4999C28.9997 29.4456 29.8163 28.5821 30.8512 28.5058L30.9996 28.4999H34.9996V24.4999C34.9997 23.3955 35.8952 22.5001 36.9996 22.4999Z" fill="#333333"/>
</svg>
