<svg width="48" height="48" viewBox="0 0 48 48" fill="none" xmlns="http://www.w3.org/2000/svg">
<path fill-rule="evenodd" clip-rule="evenodd" d="M39 35C40.0544 35 40.9182 35.8159 40.9945 36.8507L41 37V39C41 40.0544 40.1841 40.9182 39.1493 40.9945L39 41H10C8.94564 41 8.08183 40.1841 8.00549 39.1493L8 39V37C8 35.9456 8.81588 35.0818 9.85074 35.0055L10 35H39ZM14 13C15.0544 13 15.9182 13.8159 15.9945 14.8507L16 15V30C16 31.0544 15.1841 31.9182 14.1493 31.9945L14 32H11C9.94564 32 9.08183 31.1841 9.00549 30.1493L9 30V15C9 13.9456 9.81588 13.0818 10.8507 13.0055L11 13H14ZM26 6C27.0544 6 27.9182 6.81588 27.9945 7.85074L28 8V30C28 31.0544 27.1841 31.9182 26.1493 31.9945L26 32H23C21.9456 32 21.0818 31.1841 21.0055 30.1493L21 30V8C21 6.94564 21.8159 6.08183 22.8507 6.00549L23 6H26ZM38 19C39.0544 19 39.9182 19.8159 39.9945 20.8507L40 21V30C40 31.0544 39.1841 31.9182 38.1493 31.9945L38 32H35C33.9456 32 33.0818 31.1841 33.0055 30.1493L33 30V21C33 19.9456 33.8159 19.0818 34.8507 19.0055L35 19H38Z" fill="#333333"/>
</svg>
