<svg width="48" height="48" viewBox="0 0 48 48" fill="none" xmlns="http://www.w3.org/2000/svg">
<path d="M37.7139 36C38.9762 36 40 36.8954 40 38C40 39.1046 38.9762 40 37.7139 40H10.2861C9.02377 40 8 39.1046 8 38C8 36.8954 9.02377 36 10.2861 36H37.7139ZM13 15C14.1046 15 15 15.8954 15 17V31C15 32.1046 14.1046 33 13 33C11.8954 33 11 32.1046 11 31V17C11 15.8954 11.8954 15 13 15ZM24 9C25.1046 9 26 9.89543 26 11V31C26 32.1046 25.1046 33 24 33C22.8954 33 22 32.1046 22 31V11C22 9.89543 22.8954 9 24 9ZM35 19C36.1046 19 37 19.8954 37 21V31C37 32.1046 36.1046 33 35 33C33.8954 33 33 32.1046 33 31V21C33 19.8954 33.8954 19 35 19Z" fill="#333333"/>
</svg>
