<svg width="48" height="48" viewBox="0 0 48 48" fill="none" xmlns="http://www.w3.org/2000/svg">
<path fill-rule="evenodd" clip-rule="evenodd" d="M18.6992 6.4119C21.4397 3.58337 25.9542 3.51196 28.7828 6.25241L28.9423 6.4119L38.2948 16.065C39.8201 17.6394 40.7036 19.7213 40.7807 21.9046L40.7863 22.2172V33.931C40.7863 38.4934 37.155 42.2076 32.625 42.3411L32.3725 42.3448H15.269C10.7067 42.3448 6.9925 38.7136 6.85894 34.1836L6.85522 33.931V22.2172C6.85522 20.0251 7.66937 17.9151 9.13319 16.2933L9.34671 16.065L18.6992 6.4119ZM25.9994 9.12522C24.8053 7.96824 22.9267 7.95273 21.7142 9.05732L21.572 9.19525L12.2195 18.8484C11.4028 19.6913 10.9222 20.7999 10.8617 21.9664L10.8552 22.2172V33.931C10.8552 36.297 12.7168 38.2282 15.0552 38.3397L15.269 38.3448L22.4992 38.3439L22.5001 31C22.5001 29.8954 23.3955 29 24.5001 29C25.5544 29 26.4182 29.8159 26.4946 30.8507L26.5001 31L26.4992 38.3439L32.3725 38.3448C34.7384 38.3448 36.6696 36.4832 36.7812 34.1449L36.7863 33.931V22.2172C36.7863 21.0435 36.36 19.9128 35.5918 19.033L35.422 18.8484L26.0695 9.19525L25.9994 9.12522Z" fill="#333333"/>
</svg>
