<svg width="48" height="48" viewBox="0 0 48 48" fill="none" xmlns="http://www.w3.org/2000/svg">
<path fill-rule="evenodd" clip-rule="evenodd" d="M24 5C34.4934 5 43 13.5066 43 24C43 34.4934 34.4934 43 24 43C13.5066 43 5 34.4934 5 24C5 13.5066 13.5066 5 24 5ZM24 20.878C22.9456 20.878 22.0818 21.6939 22.0055 22.7288L22 22.878V32.878L22.0055 33.0273C22.0818 34.0622 22.9456 34.878 24 34.878C25.0544 34.878 25.9182 34.0622 25.9945 33.0273L26 32.878V22.878L25.9945 22.7288C25.9182 21.6939 25.0544 20.878 24 20.878ZM24 14C22.8954 14 22 14.8954 22 16C22 17.1046 22.8954 18 24 18C25.1046 18 26 17.1046 26 16C26 14.8954 25.1046 14 24 14Z" fill="#333333"/>
</svg>
