<svg width="48" height="48" viewBox="0 0 48 48" fill="none" xmlns="http://www.w3.org/2000/svg">
<path d="M35 7.99957C36.1044 7.99957 36.9998 8.89519 37 9.99957C37 11.1041 36.1046 11.9996 35 11.9996H28.6172L23.4746 35.9996H29C30.1044 35.9996 30.9998 36.8952 31 37.9996C31 39.1041 30.1046 39.9996 29 39.9996H21.0078C20.9945 39.9996 20.9811 39.9998 20.9678 39.9996H13C11.8954 39.9996 11 39.1041 11 37.9996C11.0002 36.8952 11.8956 35.9996 13 35.9996H19.3828L24.5254 11.9996H19C17.8954 11.9996 17 11.1041 17 9.99957C17.0002 8.89519 17.8956 7.99957 19 7.99957H35Z" fill="#333333"/>
</svg>
