<svg width="48" height="48" viewBox="0 0 48 48" fill="none" xmlns="http://www.w3.org/2000/svg">
<path fill-rule="evenodd" clip-rule="evenodd" d="M30 38C30 34.6863 32.6863 32 36 32L42 32V34C42 39.5228 37.5228 44 32 44H30V38Z" fill="#333333"/>
<path d="M36 4C39.3137 4 42 6.68629 42 10V34C42 39.5228 37.5228 44 32 44H16C12.6863 44 10 41.3137 10 38V32C10 30.8954 10.8954 30 12 30C13.1046 30 14 30.8954 14 32V38C14 39.1046 14.8954 40 16 40H32C35.3137 40 38 37.3137 38 34V10C38 8.89543 37.1046 8 36 8H16C14.8954 8 14 8.89543 14 10V16C14 17.1046 13.1046 18 12 18C10.8954 18 10 17.1046 10 16V10C10 6.68629 12.6863 4 16 4H36ZM17.5859 17.5859C18.367 16.8049 19.633 16.8049 20.4141 17.5859L25.4141 22.5859C25.5387 22.7106 25.6417 22.8487 25.7266 22.9941C25.7388 23.0151 25.7522 23.0353 25.7637 23.0566C25.7813 23.0895 25.7959 23.1236 25.8115 23.1572C25.8231 23.182 25.8361 23.2061 25.8467 23.2314C25.861 23.2658 25.8725 23.301 25.8848 23.3359C25.8941 23.3625 25.9039 23.3889 25.9121 23.416C26.0278 23.796 26.0276 24.203 25.9121 24.583C25.9039 24.6101 25.8941 24.6365 25.8848 24.6631C25.8725 24.698 25.8609 24.7332 25.8467 24.7676C25.8361 24.7929 25.8231 24.817 25.8115 24.8418C25.7959 24.8754 25.7813 24.9095 25.7637 24.9424C25.7522 24.9638 25.7388 24.984 25.7266 25.0049C25.6416 25.1506 25.539 25.2892 25.4141 25.4141L20.4141 30.4141C19.633 31.1951 18.367 31.1951 17.5859 30.4141C16.8049 29.633 16.8049 28.367 17.5859 27.5859L19.1709 26H8C6.89543 26 6 25.1046 6 24C6 22.8954 6.89543 22 8 22H19.1719L17.5859 20.4141C16.846 19.6741 16.8067 18.4987 17.4688 17.7129L17.5859 17.5859Z" fill="#333333"/>
</svg>
