<svg width="64" height="49" viewBox="0 0 64 49" fill="none" xmlns="http://www.w3.org/2000/svg">
<path d="M51.8877 36.8711H53.3916V38.5039H51.8877V43.3193L53.2637 42.8554L53.3115 43.8476C54.3354 42.8984 55.0557 41.6717 55.4717 40.1679H53.7119V38.5674L59.5195 35.2558H54.1602V33.7832H62.1602V35.4638L56.4961 38.7275H63.04L62.7998 44.8554C62.8105 46.7539 62.0375 47.693 60.4805 47.6718C60.1498 47.6932 59.5841 47.714 58.7842 47.7353H58.5596C58.4743 47.2235 58.3622 46.6743 58.2236 46.0879C58.4689 46.1092 58.7038 46.1191 58.9277 46.1191C59.1197 46.1298 59.4456 46.1357 59.9043 46.1357C60.8001 46.2209 61.248 45.7246 61.248 44.6474C61.312 43.4422 61.3764 41.9491 61.4404 40.1679H60.0645C59.5737 43.5811 58.1542 46.2262 55.8076 48.1035C55.4876 47.7195 55.0982 47.3143 54.6396 46.8877C56.7729 45.3091 58.0795 43.069 58.5596 40.1679H56.9756C56.4315 42.5677 55.1942 44.5354 53.2637 46.0713C53.221 46.0286 53.1624 45.959 53.0879 45.8633C52.7253 45.4473 52.427 45.1164 52.1924 44.8711C51.0297 45.2764 49.8826 45.6984 48.752 46.1357L48.3838 44.4394C48.9918 44.2581 49.6159 44.0659 50.2559 43.8633V38.5039H48.6084V36.8711H50.2559V33.0156H51.8877V36.8711ZM20.1279 34.9677H21.5518V36.3271H20.1279V38.2959H21.9043V39.6396H20.624V41.7197H21.792V43L22.4482 42.9199V34.7754H21.8076V33.5439H27.1357V34.7754H26.5439V42.3437L27.3438 42.2158C27.3438 42.7063 27.3655 43.1493 27.4082 43.5439C27.9628 42.6694 28.3839 41.8638 28.6719 41.1279C28.3625 40.3706 27.8722 39.2234 27.2002 37.6875C27.0935 37.4422 27.0133 37.2609 26.96 37.1435L28.0479 36.6953L29.248 39.3672C29.4933 38.4072 29.6965 37.2124 29.8564 35.7832H27.3115V34.3759H31.1523V35.8154C30.939 37.9487 30.5705 39.7407 30.0479 41.1914C30.6452 42.578 31.1147 43.6825 31.4561 44.5039L30.3516 45.2871C30.2556 45.0524 30.1168 44.7054 29.9355 44.247C29.6797 43.6075 29.4883 43.1275 29.3604 42.8076C28.9337 43.7036 28.3839 44.6367 27.7119 45.6074C27.4559 45.1594 27.1785 44.7324 26.8799 44.3271C27.0611 44.0713 27.2317 43.8154 27.3916 43.5595L26.5439 43.7031V45.7031H25.2637V43.8955L21.7764 44.4551L21.5518 43.0791H20.624V45.7031C21.3707 46.0764 22.4534 46.2577 23.8721 46.247C25.9734 46.247 27.5792 46.2421 28.6885 46.2314C29.9256 46.2314 30.8907 46.2205 31.584 46.1992C31.392 46.7324 31.2374 47.218 31.1201 47.6552H30C27.0775 47.6659 24.9763 47.655 23.6963 47.623C20.8697 47.6657 19.0291 46.8236 18.1758 45.0957C18.0264 46.0556 17.7223 47.0265 17.2637 48.0078C17.2317 47.9758 17.1841 47.9163 17.1201 47.831C16.7149 47.3511 16.4265 47.0261 16.2559 46.8554C16.6505 46.0021 16.912 45.1542 17.04 44.3115C17.168 43.4902 17.2324 42.2636 17.2324 40.6318L18.4639 40.7119C18.4425 41.7464 18.4217 42.5143 18.4004 43.0156C18.667 43.6662 18.9762 44.2102 19.3281 44.6474V39.6396H16.5918V38.2959H18.7363V36.3271H16.96V34.9677H18.7363V32.9677H20.1279V34.9677ZM41.3916 32.8711C41.5943 33.3297 41.8826 34.0341 42.2559 34.9834L41.6797 35.0957H47.4238V36.7431H36.0479V39.6875C36.0585 41.7248 35.9198 43.3038 35.6318 44.4238C35.3545 45.565 34.8056 46.7599 33.9844 48.0078C33.4512 47.5599 32.9229 47.1545 32.4004 46.792C33.1577 45.7466 33.653 44.7541 33.8877 43.8154C34.1437 42.8981 34.2665 41.5062 34.2559 39.6396V35.0957H40.1279C39.7653 34.2103 39.4879 33.5645 39.2959 33.1592L41.3916 32.8711ZM6.78418 43.5273C5.31218 45.0633 3.70643 46.5512 1.96777 47.9912C1.64781 47.6073 1.2425 47.1593 0.751953 46.6474C2.40524 45.4208 3.96253 44.0022 5.42383 42.3916L6.78418 43.5273ZM10.4004 42.3759C12.7575 44.3811 14.3625 45.7731 15.2158 46.5517L13.9355 47.8799C12.6449 46.6319 11.0559 45.1806 9.16797 43.5273L10.4004 42.3759ZM23.7275 42.7431L25.2637 42.5195V40.7597H23.7275V42.7431ZM15.5039 41.6552H0.480469V40.039H15.5039V41.6552ZM23.7275 39.5752H25.2637V37.7676H23.7275V39.5752ZM14.832 34.6152C13.8614 36.3112 12.9124 37.8585 11.9844 39.2558L10.5117 38.4072C11.5144 36.9352 12.4218 35.4315 13.2324 33.8955L14.832 34.6152ZM2.84766 34.1035C3.69032 35.5115 4.52242 36.936 5.34375 38.3759L3.77637 39.2236C3.04043 37.8157 2.23493 36.3543 1.36035 34.8398L2.84766 34.1035ZM9.4082 38.1992L7.71191 38.6152C7.22128 36.7273 6.75168 35.0689 6.30371 33.6396L7.96777 33.2558L9.4082 38.1992ZM23.7275 36.584H25.2637V34.7754H23.7275V36.584ZM28.0469 1.93552C30.0485 -0.645261 33.9475 -0.645086 35.9492 1.93552L41.2217 8.7363C41.3521 8.90452 41.5336 9.02748 41.7383 9.08591L50.0293 11.4424C53.4878 12.4256 54.8089 16.6288 52.5352 19.414L47.5811 25.4814C47.4329 25.6633 47.3524 25.8923 47.3555 26.1269L47.3818 28.1035H43.3828L43.3564 26.1806C43.3408 25.0056 43.7394 23.8615 44.4824 22.9511L49.4365 16.8847C49.8911 16.3277 49.6272 15.4866 48.9355 15.29L40.6445 12.9326C39.6196 12.6409 38.7135 12.0297 38.0605 11.1875L32.7881 4.38669C32.3877 3.87129 31.6083 3.87112 31.208 4.38669L25.9355 11.1875C25.2825 12.0296 24.3766 12.641 23.3516 12.9326L15.0605 15.29C14.3696 15.487 14.1055 16.3279 14.5596 16.8847L19.5137 22.9511C20.257 23.8616 20.6553 25.0054 20.6396 26.1806L20.6133 28.1035H16.6143L16.6406 26.1269C16.6437 25.8922 16.5635 25.6634 16.415 25.4814L11.4609 19.414C9.18764 16.629 10.5089 12.4259 13.9668 11.4424L22.2578 9.08591C22.4626 9.02761 22.6439 8.90447 22.7744 8.7363L28.0469 1.93552ZM25.999 17.1035C27.1033 17.1037 27.9989 17.9992 27.999 19.1035V23.1035C27.9989 24.2078 27.1034 25.1033 25.999 25.1035C24.8949 25.1031 23.9991 24.2077 23.999 23.1035V19.1035C23.9992 17.9993 24.8949 17.1039 25.999 17.1035ZM37.999 17.1035C39.1033 17.1037 39.9989 17.9992 39.999 19.1035V23.1035C39.9989 24.2078 39.1033 25.1033 37.999 25.1035C36.8949 25.1031 35.9991 24.2077 35.999 23.1035V19.1035C35.9992 17.9993 36.8949 17.1039 37.999 17.1035Z" fill="#333333"/>
</svg>
