<svg width="48" height="48" viewBox="0 0 48 48" fill="none" xmlns="http://www.w3.org/2000/svg">
<path fill-rule="evenodd" clip-rule="evenodd" d="M24 5C34.4934 5 43 13.5066 43 24C43 34.4934 34.4934 43 24 43C13.5066 43 5 34.4934 5 24C5 13.5066 13.5066 5 24 5ZM24 9C15.7157 9 9 15.7157 9 24C9 32.2843 15.7157 39 24 39C32.2843 39 39 32.2843 39 24C39 15.7157 32.2843 9 24 9ZM28 30C29.1046 30 30 30.8954 30 32C30 33.1046 29.1046 34 28 34H20C18.8954 34 18 33.1046 18 32C18 30.8954 18.8954 30 20 30H28ZM17.7143 22.2857C18.8189 22.2857 19.7143 23.1811 19.7143 24.2857C19.7143 25.3903 18.8189 26.2857 17.7143 26.2857H16.5714C15.4669 26.2857 14.5714 25.3903 14.5714 24.2857C14.5714 23.1811 15.4669 22.2857 16.5714 22.2857H17.7143ZM24.5714 22.2857C25.676 22.2857 26.5714 23.1811 26.5714 24.2857C26.5714 25.3903 25.676 26.2857 24.5714 26.2857H23.4286C22.324 26.2857 21.4286 25.3903 21.4286 24.2857C21.4286 23.1811 22.324 22.2857 23.4286 22.2857H24.5714ZM31.4286 22.2857C32.5331 22.2857 33.4286 23.1811 33.4286 24.2857C33.4286 25.3903 32.5331 26.2857 31.4286 26.2857H30.2857C29.1811 26.2857 28.2857 25.3903 28.2857 24.2857C28.2857 23.1811 29.1811 22.2857 30.2857 22.2857H31.4286ZM17.7143 16.2857C18.8189 16.2857 19.7143 17.1811 19.7143 18.2857C19.7143 19.3903 18.8189 20.2857 17.7143 20.2857H16.5714C15.4669 20.2857 14.5714 19.3903 14.5714 18.2857C14.5714 17.1811 15.4669 16.2857 16.5714 16.2857H17.7143ZM24.5714 16.2857C25.676 16.2857 26.5714 17.1811 26.5714 18.2857C26.5714 19.3903 25.676 20.2857 24.5714 20.2857H23.4286C22.324 20.2857 21.4286 19.3903 21.4286 18.2857C21.4286 17.1811 22.324 16.2857 23.4286 16.2857H24.5714ZM31.4286 16.2857C32.5331 16.2857 33.4286 17.1811 33.4286 18.2857C33.4286 19.3903 32.5331 20.2857 31.4286 20.2857H30.2857C29.1811 20.2857 28.2857 19.3903 28.2857 18.2857C28.2857 17.1811 29.1811 16.2857 30.2857 16.2857H31.4286Z" fill="#333333"/>
</svg>
