<svg width="48" height="48" viewBox="0 0 48 48" fill="none" xmlns="http://www.w3.org/2000/svg">
<path fill-rule="evenodd" clip-rule="evenodd" d="M32.9999 5.5C34.1045 5.5 34.9999 6.39543 34.9999 7.5C34.9999 8.55436 34.184 9.41817 33.1492 9.49451L32.9999 9.5H32.4746L32.4755 18.5072C32.4755 19.1411 32.6788 19.7751 33.0793 20.3584L33.2835 20.6371L40.0926 30.4344C42.614 34.0625 41.717 39.0478 38.0888 41.5693C36.8379 42.4387 35.3667 42.9315 33.8491 42.9934L33.5233 43H14.4766C10.0583 43 6.47656 39.4183 6.47656 35C6.47656 33.4766 6.91145 31.9873 7.72676 30.7058L7.90727 30.4344L9.34156 28.369L9.30462 28.304L9.43856 28.23L14.7163 20.6371L14.7797 20.5509C15.224 19.9794 15.4717 19.3518 15.5168 18.7185L15.5243 18.5072L15.5236 9.5H14.9999C13.8953 9.5 12.9999 8.60457 12.9999 7.5C12.9999 6.44564 13.8158 5.58183 14.8507 5.50549L14.9999 5.5H32.9999ZM17.9851 29.8571C16.0695 29.8571 14.1367 30.3351 12.1714 31.3082L11.1919 32.7172C10.7728 33.3203 10.5286 34.0259 10.484 34.7559L10.4766 35C10.4766 37.1422 12.1605 38.8911 14.2769 38.9951L14.4766 39H33.5233C34.3393 39 35.1359 38.7504 35.806 38.2846C37.5616 37.0646 38.0383 34.6908 36.9246 32.8948L36.8079 32.7172L35.5314 30.8807C33.581 32.141 31.3057 32.7714 28.7543 32.7714C27.3918 32.7714 26.3177 32.5689 24.8343 32.0432L24.2574 31.8307L23.634 31.5865L22.9559 31.3091L21.7381 30.8039L21.2335 30.6043L20.7742 30.4319L20.3541 30.2853L19.9669 30.1629C19.6562 30.0707 19.3732 30.0022 19.1018 29.9537L18.7806 29.9049C18.5158 29.8718 18.2561 29.8571 17.9851 29.8571ZM28.4746 9.5H19.5236L19.5243 18.5072C19.5243 20.0174 19.0346 21.4861 18.1251 22.755L17.9889 22.937L15.858 26.0028C16.5654 25.9058 17.2746 25.8571 17.9851 25.8571C19.603 25.8571 20.8143 26.1428 22.7873 26.9159L23.4371 27.1765L24.73 27.7141L25.2597 27.9279L25.7408 28.1138L26.1797 28.2731C26.3197 28.322 26.4536 28.3667 26.5826 28.4074L26.9557 28.5182C27.6163 28.7005 28.1581 28.7714 28.7543 28.7714C30.4975 28.7714 31.98 28.3788 33.2463 27.5931L30.0099 22.937L29.8747 22.755C29.0259 21.5707 28.5427 20.2124 28.482 18.8087L28.4755 18.5072L28.4746 9.5Z" fill="#333333"/>
</svg>
