<svg width="48" height="48" viewBox="0 0 48 48" fill="none" xmlns="http://www.w3.org/2000/svg">
<path fill-rule="evenodd" clip-rule="evenodd" d="M30.2646 6C33.3113 6 35.7811 8.46983 35.7811 11.5165L35.7732 11.8127L35.7493 12.1081L34.8341 20.588L37.5369 20.5889C40.0269 20.5889 42.0586 22.5514 42.1695 25.014L42.1743 25.2263C42.1743 26.377 41.7466 27.4836 40.9794 28.3335L40.8099 28.5116L26.8279 42.441C24.6695 44.5913 21.1766 44.5847 19.0263 42.4264C18.0607 41.457 17.492 40.166 17.4247 38.8058L17.4179 38.5329L17.4171 30.489L12.7951 30.4899C9.82093 30.4899 7.3965 28.1362 7.28274 25.19L7.27856 24.9734C7.27856 24.5234 7.3336 24.0756 7.44216 23.6399L7.53358 23.3155L11.7738 9.85863C12.4733 7.63848 14.4868 6.10494 16.7955 6.00518L17.0353 6H30.2646ZM30.2646 10H17.0353C16.4206 10 15.8719 10.3702 15.6373 10.9286L15.5889 11.0608L11.3487 24.5176C11.3022 24.6651 11.2786 24.8187 11.2786 24.9734C11.2786 25.7644 11.8842 26.4139 12.657 26.4837L12.7951 26.4899H19.4179C20.4723 26.4899 21.3361 27.3057 21.4124 28.3406L21.4179 28.4899V38.5329C21.4179 38.9342 21.5769 39.319 21.8601 39.6033C22.4143 40.1595 23.2928 40.1959 23.8894 39.7112L24.0048 39.6073L37.9868 25.6779C38.1068 25.5582 38.1743 25.3958 38.1743 25.2263C38.1743 24.9063 37.9385 24.6414 37.6311 24.5958L37.5369 24.5889H27.4066C26.302 24.5889 25.4066 23.6935 25.4066 22.5889C25.4066 21.5346 26.2225 20.6707 27.2573 20.5944L27.4066 20.5889L30.8111 20.588L31.7762 11.6386L31.7811 11.5165C31.7811 10.7255 31.1755 10.0759 30.4026 10.0062L30.2646 10Z" fill="#333333"/>
</svg>
