<svg width="48" height="48" viewBox="0 0 48 48" fill="none" xmlns="http://www.w3.org/2000/svg">
<path fill-rule="evenodd" clip-rule="evenodd" d="M28.2996 19.401C31.6703 22.7717 31.7305 28.1994 28.4801 31.6436L28.2996 31.8294L21.8996 38.2294C18.4676 41.6615 12.9032 41.6615 9.47114 38.2294C6.10041 34.8587 6.04022 29.4311 9.29056 25.9869L9.47114 25.801L12.6834 22.5887C13.4645 21.8077 14.7308 21.8077 15.5119 22.5887C16.2574 23.3343 16.2913 24.522 15.6135 25.3077L15.5119 25.4171L12.2996 28.6294C10.4296 30.4994 10.4296 33.5311 12.2996 35.401C14.1189 37.2204 17.0382 37.2696 18.917 35.5485L19.0711 35.401L25.4711 29.001C27.2905 27.1816 27.3397 24.2624 25.6187 22.3836L25.4711 22.2294C24.6901 21.4484 24.6901 20.1821 25.4711 19.401C26.2522 18.62 27.5185 18.62 28.2996 19.401ZM38.6996 9.00102C42.0703 12.3717 42.1305 17.7994 38.8801 21.2436L38.6996 21.4294L35.4873 24.6417C34.7062 25.4228 33.4399 25.4228 32.6588 24.6417C31.9133 23.8962 31.8794 22.7085 32.5572 21.9227L32.6588 21.8133L35.8711 18.601C37.7411 16.7311 37.7411 13.6994 35.8711 11.8294C34.0518 10.0101 31.1325 9.96089 29.2537 11.6819L29.0996 11.8294L22.6996 18.2294C20.8802 20.0488 20.831 22.9681 22.552 24.8469L22.6996 25.001C23.4806 25.7821 23.4806 27.0484 22.6996 27.8294C21.9185 28.6105 20.6522 28.6105 19.8711 27.8294C16.5004 24.4587 16.4402 19.0311 19.6906 15.5869L19.8711 15.401L26.2711 9.00102C29.7032 5.569 35.2675 5.569 38.6996 9.00102Z" fill="#333333"/>
</svg>
