<svg width="48" height="48" viewBox="0 0 48 48" fill="none" xmlns="http://www.w3.org/2000/svg">
<path fill-rule="evenodd" clip-rule="evenodd" d="M10.3054 29.4387C11.41 29.4387 12.3054 30.3341 12.3054 31.4387C12.3054 32.2086 11.8704 32.8768 11.2329 33.2111L11.2358 33.2164C10.5625 33.5337 10.0169 33.8667 9.61732 34.2001C9.15694 34.5843 9 34.855 9 35C9 35.145 9.15694 35.4157 9.61732 35.7999C10.2668 36.3418 11.3025 36.8829 12.6448 37.3567C15.5833 38.3938 19.6442 39 24 39C28.3558 39 32.4167 38.3938 35.3552 37.3567C36.6975 36.8829 37.7332 36.3418 38.3827 35.7999C38.8431 35.4157 39 35.145 39 35C39 34.855 38.8431 34.5843 38.3827 34.2001C38.001 33.8817 37.4861 33.5635 36.854 33.2592C36.1906 32.9313 35.7342 32.2493 35.7342 31.4607C35.7342 30.3561 36.6296 29.4607 37.7342 29.4607C38.0659 29.4607 38.3788 29.5415 38.6543 29.6845L38.6561 29.6793C41.3674 31.0182 43 32.8209 43 35C43 38.168 39.5493 40.5405 34.3498 41.849L34.0083 41.9329L33.3531 42.0822L32.6815 42.2208L31.994 42.3484L31.6447 42.4081L30.9349 42.519L30.5747 42.5703L29.8442 42.6645C29.5166 42.7038 29.1852 42.7397 28.8501 42.7722L28.345 42.8184L27.5776 42.8781L26.7994 42.926L26.011 42.9621L25.2131 42.9863L24.4064 42.9985H23.5936L22.7869 42.9863L21.989 42.9621L21.2006 42.926L20.4224 42.8781L19.655 42.8184C19.3165 42.7893 18.9814 42.7568 18.65 42.7209L18.1558 42.6645L17.2447 42.545L17.0651 42.519L16.3553 42.4081L16.006 42.3484L15.3185 42.2208L14.6469 42.0822L13.9917 41.9329C8.60232 40.6432 5 38.2368 5 35C5 32.7807 6.69338 30.9519 9.49509 29.6056C9.74415 29.4995 10.0177 29.4387 10.3054 29.4387ZM24 6C31.1797 6 37 11.8916 37 19.1592C37 20.9906 36.6304 22.7346 35.9626 24.3189L35.8033 24.6817C35.0385 26.5316 33.6347 28.5018 31.5928 30.5924C30.2003 32.0181 28.6381 33.4459 26.9061 34.8759C25.2384 36.2529 22.8643 36.3348 21.1106 35.1029L20.9184 34.9606L20.4105 34.5591C18.7443 33.2222 17.3451 31.8999 16.2128 30.5924C14.9771 29.1655 13.9562 27.7813 13.1498 26.4397L12.889 25.994C11.6905 24.0023 11 21.6623 11 19.1592C11 11.8916 16.8203 6 24 6ZM24 10C19.0404 10 15 14.0899 15 19.1592C15 20.8732 15.4596 22.5079 16.3649 24.0146C17.071 25.2545 18.027 26.5771 19.2366 27.9739C20.1052 28.9769 21.1846 30.0152 22.4592 31.0693L22.8912 31.4213L23.4098 31.8297C23.6648 32.0089 24.0014 32.0171 24.2644 31.8587L24.3594 31.7914C25.9844 30.4497 27.4416 29.1178 28.7313 27.7975C30.3427 26.1477 31.4255 24.6637 32.0041 23.3899L32.1657 23.0179C32.7127 21.8219 33 20.5152 33 19.1592C33 14.0899 28.9596 10 24 10ZM24 15.2667C26.0619 15.2667 27.7333 16.9381 27.7333 19C27.7333 21.0619 26.0619 22.7333 24 22.7333C21.9381 22.7333 20.2667 21.0619 20.2667 19C20.2667 16.9381 21.9381 15.2667 24 15.2667Z" fill="#333333"/>
</svg>
