<svg width="48" height="48" viewBox="0 0 48 48" fill="none" xmlns="http://www.w3.org/2000/svg">
<path fill-rule="evenodd" clip-rule="evenodd" d="M23.8152 5C28.711 5 32.6992 8.88564 32.8643 13.7412C38.6491 14.9938 41.6339 17.8932 42.6211 23.2027L42.679 23.5308L42.7654 24.0963C42.8249 24.527 42.8728 24.9723 42.9094 25.4325L42.9422 25.8978L42.9744 26.5338C42.9916 26.9638 43 27.4059 43 27.8602L42.9983 28.2057L42.9933 28.5466L42.9731 29.2149L42.9391 29.8654L42.8913 30.4981C42.2073 38.2836 38.2422 41.9711 29.4836 42.946L29.0821 42.9884L28.3582 43.0543L27.424 43.1206L26.4569 43.1694L26.0608 43.1842L25.6594 43.1962L24.8405 43.2121L24.423 43.2161H23.577L23.1595 43.2121L22.3406 43.1962L21.9392 43.1842L21.5431 43.1694L20.576 43.1206L19.6418 43.0543L18.9179 42.9884C10.0136 42.0954 5.9258 38.5108 5.14206 30.8492L5.10871 30.4981L5.06089 29.8654L5.02695 29.2149L5.00671 28.5466C5.00223 28.3208 5 28.0921 5 27.8602C5 27.5573 5.00375 27.2599 5.01132 26.9678L5.02555 26.5338L5.05779 25.8978C5.0869 25.4275 5.12717 24.9723 5.17898 24.5319L5.23465 24.0963L5.32097 23.5308C6.22573 18.1296 9.10674 15.1478 14.763 13.8252L14.7762 13.5223C15.0516 8.76939 18.9932 5 23.8152 5ZM24 16.9783L22.8349 16.986L21.7277 17.0097L21.0212 17.0348L20.3394 17.0677L19.6821 17.1087L19.0489 17.158L18.4393 17.2158L17.8529 17.2826L17.2895 17.3585L17.0162 17.3999L16.7485 17.4438L16.2297 17.5387C11.6773 18.4339 9.74365 20.5267 9.18361 24.6903L9.14754 24.9774L9.08665 25.5849L9.04246 26.22L9.01861 26.7484L9.00459 27.295L9 27.8602L9.00124 28.1543L9.01132 28.7284L9.03182 29.2839L9.04609 29.5548L9.08288 30.0831L9.13098 30.5935L9.19074 31.0863L9.26252 31.5617L9.34667 32.02C10.0967 35.75 12.1595 37.739 16.4453 38.6274L16.7709 38.692L17.3121 38.7874L17.591 38.8312L18.1656 38.9112L18.7628 38.9814L19.07 39.0128L19.7019 39.0686L20.3573 39.1151L20.694 39.1349L21.3854 39.168L22.1012 39.1925L22.8418 39.2085L23.6076 39.2164H24.3924L25.1582 39.2085L25.8988 39.1925L26.6146 39.168L26.9634 39.1526L27.6427 39.1151L28.4583 39.0555L29.2372 38.9814L29.8344 38.9112L30.409 38.8312L30.6879 38.7874L31.2291 38.692C35.6266 37.8582 37.7783 35.9398 38.5946 32.2965L38.6533 32.02L38.7375 31.5617L38.8093 31.0863L38.869 30.5935L38.9171 30.0831L38.9369 29.8212L38.9682 29.2839L38.9922 28.5866L39 27.8602L38.9954 27.295L38.9814 26.7484L38.9575 26.22L38.9133 25.5849L38.8525 24.9774C38.3542 20.7193 36.5107 18.5517 32.0767 17.6016L31.7703 17.5387L31.2515 17.4438L30.9838 17.3999L30.7105 17.3585L30.1471 17.2826L29.5607 17.2158L28.9511 17.158L28.3179 17.1087L27.6606 17.0677L26.8045 17.0278L25.9096 16.9999L24.7833 16.9817L24 16.9783ZM24 22.1522C25.1046 22.1522 26 23.05 26 24.154V33.4547C26 34.51 25.1911 35.3746 24.1502 35.451L24 35.4565C22.8954 35.4565 22 34.5587 22 33.4547V24.154C22 23.0484 22.8877 22.1522 24 22.1522ZM23.8152 9C21.3176 9 19.2431 10.8116 18.8341 13.1924L19.2718 13.1536L19.6364 13.1251L20.3813 13.076L21.1475 13.037L21.9353 13.008L22.7447 12.9889L23.1576 12.983L24 12.9783L24.8424 12.983L25.2553 12.9889L26.0647 13.008L26.8525 13.037L27.6187 13.076L27.9938 13.0993L28.7894 13.1587C28.3674 10.7943 26.3009 9 23.8152 9Z" fill="#333333"/>
</svg>
