<svg width="48" height="48" viewBox="0 0 48 48" fill="none" xmlns="http://www.w3.org/2000/svg">
<path fill-rule="evenodd" clip-rule="evenodd" d="M30 9V40C27.2606 42.3039 21.7355 39.9486 17.3463 35.8416L16.8545 35.3693C15.8003 34.3305 14.8233 33.1929 13.9815 31.9995L9 32C7.34315 32 6 30.6569 6 29V19C6 17.3431 7.34315 16 9 16L14.5692 15.9997C19.1703 10.4589 26.9424 6.29009 30 9ZM39.1306 13.9555C40.9958 16.9452 42 20.401 42 24C42 27.6499 40.9671 31.1522 39.0519 34.1695C38.46 35.102 37.2241 35.3782 36.2916 34.7863C35.359 34.1943 35.0828 32.9585 35.6748 32.0259C37.186 29.6449 38 26.8851 38 24C38 21.1551 37.2087 18.4319 35.7369 16.0728C35.1522 15.1356 35.4379 13.9019 36.3751 13.3173C37.3122 12.7326 38.5459 13.0183 39.1306 13.9555Z" fill="#333333"/>
</svg>
