<svg width="48" height="48" viewBox="0 0 48 48" fill="none" xmlns="http://www.w3.org/2000/svg">
<path fill-rule="evenodd" clip-rule="evenodd" d="M14.3183 13.6806C19.4885 8.10875 26.8048 4.98644 30.389 8.46876C30.7335 8.80338 30.9447 9.2492 30.9873 9.72356L30.9954 9.90263V38.0456C30.9954 38.6054 30.7606 39.1396 30.3483 39.5183C26.308 43.2293 18.5462 39.5207 13.6051 33.2183L13.3921 32.9426L13.212 32.703L10 32.7039C7.38593 32.7039 5.2404 30.6979 5.01886 28.1412L5.00462 27.9208L5 27.7039V19.0211C5 16.3323 7.12231 14.1393 9.78306 14.0257L9.99994 14.0211L14.008 14.02L14.3183 13.6806ZM26.8377 10.9954C24.6857 10.6669 19.8295 13.2567 16.4587 17.3013C16.1168 17.7117 15.6266 17.9663 15.0994 18.0131L14.9224 18.0209L10 18.0211C9.48716 18.0211 9.06449 18.4071 9.00673 18.9044L9 19.0211V27.7039C9 28.2167 9.38604 28.6394 9.8834 28.6972L10 28.7039L14.2449 28.7039C14.9084 28.7039 15.5288 29.033 15.9009 29.5824C19.1011 34.3078 24.3146 37.4308 26.7856 36.974L26.9364 36.9407L26.995 36.923V11.026L26.8377 10.9954ZM39.1306 13.9555C40.9958 16.9452 42 20.4011 42 24C42 27.6499 40.9671 31.1522 39.0519 34.1695C38.46 35.1021 37.2241 35.3782 36.2916 34.7863C35.359 34.1944 35.0828 32.9585 35.6748 32.0259C37.186 29.6449 38 26.8851 38 24C38 21.1551 37.2087 18.4319 35.7369 16.0728C35.1522 15.1356 35.4379 13.9019 36.3751 13.3173C37.3122 12.7326 38.5459 13.0184 39.1306 13.9555Z" fill="#333333"/>
</svg>
