<svg width="48" height="48" viewBox="0 0 48 48" fill="none" xmlns="http://www.w3.org/2000/svg">
<path fill-rule="evenodd" clip-rule="evenodd" d="M22 6C31.3888 6 39 13.6112 39 23C39 26.7692 37.7734 30.2518 35.6975 33.0706L40.0346 37.4075C40.8156 38.1886 40.8156 39.4549 40.0346 40.236C39.289 40.9815 38.1013 41.0154 37.3156 40.3376L37.2061 40.236L32.9635 35.9928C30.0037 38.493 26.1778 40 22 40C12.6112 40 5 32.3888 5 23C5 13.6112 12.6112 6 22 6ZM22 10C14.8203 10 9 15.8203 9 23C9 30.1797 14.8203 36 22 36C29.1797 36 35 30.1797 35 23C35 15.8203 29.1797 10 22 10Z" fill="#333333"/>
</svg>
