<svg width="48" height="48" viewBox="0 0 48 48" fill="none" xmlns="http://www.w3.org/2000/svg">
<path d="M20.4707 43.0865C29.015 43.0865 35.9414 36.16 35.9414 27.6158C35.9414 24.0125 34.709 20.6975 32.6436 18.0679C32.6617 18.051 32.6815 18.0358 32.6992 18.0181L38 12.7173V17.9995C38 19.0539 38.8158 19.9182 39.8506 19.9947L40 19.9995C41.1046 19.9995 42 19.1041 42 17.9995V7.99954C41.9998 6.89518 41.1044 5.99954 40 5.99954H30C28.8956 5.99954 28.0002 6.89518 28 7.99954C28 9.10411 28.8954 9.99954 30 9.99954H35.0615L29.8711 15.19C29.8448 15.2162 29.8214 15.2447 29.7969 15.272C27.2037 13.3097 23.9734 12.1451 20.4707 12.1451C11.9265 12.1451 5 19.0715 5 27.6158C5.00005 36.16 11.9265 43.0864 20.4707 43.0865ZM20.4707 39.0865C14.1356 39.0864 9.00005 33.9508 9 27.6158C9 21.2806 14.1356 16.1451 20.4707 16.1451C26.8058 16.1451 31.9414 21.2806 31.9414 27.6158C31.9414 33.9509 26.8058 39.0865 20.4707 39.0865Z" fill="#333333"/>
</svg>
