<svg width="48" height="48" viewBox="0 0 48 48" fill="none" xmlns="http://www.w3.org/2000/svg">
<path d="M39 9.99966C40.1045 9.99966 40.9999 10.8952 41 11.9997V31.1696L41.5859 30.5856C42.3258 29.8458 43.5014 29.8066 44.2871 30.4684L44.4141 30.5856C45.1951 31.3666 45.195 32.6327 44.4141 33.4137L40.4141 37.4137C39.1541 38.6737 37 37.7815 37 35.9997V11.9997C37.0001 10.8952 37.8955 9.99966 39 9.99966ZM30.2412 11.0475C31.2295 9.22294 33.9998 9.92474 34 11.9997V35.9997C34 37.1042 33.1046 37.9997 32 37.9997C30.8954 37.9997 30 37.1042 30 35.9997V19.8903L20.7588 36.9528C20.0284 38.3009 18.1349 38.3474 17.3242 37.0924L17.2412 36.9528L8 19.8903V35.9997C8 37.054 7.18421 37.9184 6.14941 37.9948L6 37.9997C4.89543 37.9997 4 37.1042 4 35.9997V11.9997C4.00025 9.92474 6.77048 9.22294 7.75879 11.0475L19 31.8014L30.2412 11.0475Z" fill="#333333"/>
</svg>
