<svg width="48" height="48" viewBox="0 0 48 48" fill="none" xmlns="http://www.w3.org/2000/svg">
<path d="M34 4C38.4183 4 42 7.58172 42 12V36C42 40.4183 38.4183 44 34 44H14C9.58172 44 6 40.4183 6 36V12C6 7.58172 9.58172 4 14 4H34ZM14 8C11.7909 8 10 9.79086 10 12V36C10 38.2091 11.7909 40 14 40H34C36.2091 40 38 38.2091 38 36V12C38 9.79086 36.2091 8 34 8H14ZM33 31C34.1046 31 35 31.8954 35 33C35 34.1046 34.1046 35 33 35H22C20.8954 35 20 34.1046 20 33C20 31.8954 20.8954 31 22 31H33ZM33 22C34.1046 22 35 22.8954 35 24C35 25.1046 34.1046 26 33 26H22C20.8954 26 20 25.1046 20 24C20 22.8954 20.8954 22 22 22H33ZM33 13C34.1046 13 35 13.8954 35 15C35 16.1046 34.1046 17 33 17H22C20.8954 17 20 16.1046 20 15C20 13.8954 20.8954 13 22 13H33Z" fill="#333333"/>
<circle cx="15" cy="15" r="2" fill="#333333"/>
<circle cx="15" cy="24" r="2" fill="#333333"/>
<circle cx="15" cy="33" r="2" fill="#333333"/>
</svg>
