<svg width="48" height="48" viewBox="0 0 48 48" fill="none" xmlns="http://www.w3.org/2000/svg">
<path fill-rule="evenodd" clip-rule="evenodd" d="M9.35145 9.53588C14.7679 4.11947 23.5496 4.11947 28.966 9.53588C31.9159 12.4858 33.2592 16.4339 32.9959 20.2929L32.9676 20.6427L38.6028 28.4105C39.9558 30.2754 40.3348 32.5826 39.791 34.6861L39.7302 34.9075C39.8968 34.8685 40.0664 34.8144 40.237 34.7458L40.4734 34.647C41.415 34.2909 42.4792 34.7212 42.8902 35.6442C43.3011 36.5673 42.9089 37.646 42.0141 38.1076L41.9127 38.1563C40.5443 38.8335 38.9509 38.9154 37.4197 38.4895L37.44 38.4723C34.83 40.7324 30.9767 40.9244 28.144 38.8693L20.2826 33.1674L20.1791 33.1754C16.2977 33.4599 12.3193 32.1183 9.35145 29.1504C3.93505 23.734 3.93505 14.9523 9.35145 9.53588ZM25.4041 31.7312L25.0537 31.9017L30.3908 35.7724C31.7962 36.7919 33.7151 36.6806 34.992 35.5298L35.1312 35.3977C36.3589 34.17 36.5505 32.2573 35.6145 30.8155L35.5059 30.6573L31.6609 25.3568L31.6188 25.4436C31.0069 26.6931 30.1958 27.8697 29.1855 28.9259L28.966 29.1504C27.8933 30.2231 26.6885 31.0834 25.4041 31.7312ZM29.0855 17.812L17.6276 29.2699C20.6809 29.7383 23.9088 28.7967 26.2605 26.445C28.6123 24.0932 29.5539 20.8654 29.0855 17.812ZM12.0569 12.2413C8.13468 16.1636 8.13468 22.5227 12.0569 26.445C12.5689 26.9569 13.1224 27.4021 13.7066 27.7804L27.596 13.891C27.2177 13.3068 26.7725 12.7533 26.2605 12.2413C22.3383 8.31911 15.9791 8.31911 12.0569 12.2413Z" fill="#333333"/>
</svg>
