<svg width="48" height="48" viewBox="0 0 48 48" fill="none" xmlns="http://www.w3.org/2000/svg">
<path fill-rule="evenodd" clip-rule="evenodd" d="M32 3C33.0544 3 33.9182 3.81588 33.9945 4.85074L34 5L34.0014 7.54339C38.0088 9.1842 40.3389 12.2129 41.3666 17.0043L41.4471 17.3967L41.5593 18.0121C41.686 18.7616 41.7845 19.5507 41.8558 20.3807L41.9043 21.0108L41.9464 21.7291L41.9763 22.4666L41.9941 23.2236L42 24L41.9941 24.7764L41.9763 25.5334L41.9464 26.2709L41.9043 26.9892C41.8464 27.8397 41.7617 28.649 41.6491 29.4183L41.5593 29.9879L41.4471 30.6033C40.2427 36.75 36.9939 40.0921 30.9548 41.3753L30.6033 41.4471L29.9879 41.5593C29.2384 41.686 28.4493 41.7845 27.6193 41.8558L26.9892 41.9043L26.2709 41.9464L25.5334 41.9763L24.7764 41.9941L24 42L23.2236 41.9941L22.4666 41.9763L21.7291 41.9464L21.0108 41.9043C20.1603 41.8464 19.351 41.7617 18.5817 41.6491L18.0121 41.5593L17.3967 41.4471C11.25 40.2427 7.90794 36.9939 6.62466 30.9548L6.5529 30.6033L6.44071 29.9879C6.31398 29.2384 6.21554 28.4493 6.14417 27.6193L6.09569 26.9892L6.05359 26.2709L6.02371 25.5334L6.0059 24.7764L6 24L6.0059 23.2236L6.02371 22.4666L6.05359 21.7291L6.09569 21.0108C6.15361 20.1603 6.23829 19.351 6.35095 18.5817L6.44071 18.0121L6.5529 17.3967C7.53641 12.3772 9.88326 9.22803 13.9996 7.54298L14 5C14 3.89543 14.8954 3 16 3C17.0544 3 17.9182 3.81588 17.9945 4.85074L18 5V6.442L18.0121 6.44071C18.7616 6.31398 19.5507 6.21554 20.3807 6.14417L21.0108 6.09569L21.7291 6.05359L22.4666 6.02371L23.2236 6.0059L23.6093 6.00147H24.3907L24.7764 6.0059L25.5334 6.02371L26.2709 6.05359L26.9892 6.09569C27.8397 6.15361 28.649 6.23829 29.4183 6.35095L30 6.442V5C30 3.89543 30.8954 3 32 3ZM14.0005 12.0216C12.3422 13.1391 11.2879 14.7856 10.6804 17.1182L10.5967 17.4562L10.4883 17.9507L10.4147 18.3342L10.3476 18.7286L10.2679 19.2717L10.2322 19.5507L10.1689 20.1238L10.1412 20.418L10.0935 21.0217L10.056 21.6462L10.0409 21.9664L10.018 22.6227L10.0044 23.3004L10 24L10.0044 24.6996L10.018 25.3773L10.0409 26.0336L10.056 26.3538L10.1045 27.1312L10.1689 27.8762L10.1992 28.1653L10.2679 28.7283L10.3476 29.2714L10.4147 29.6658L10.4883 30.0493L10.5967 30.5438C11.4864 34.3193 13.465 36.3759 17.1455 37.3266L17.4562 37.4033L17.9507 37.5117L18.3342 37.5853L18.7286 37.6524L19.2717 37.7321L19.5507 37.7678L20.1238 37.8311L20.418 37.8588L21.0217 37.9065L21.6462 37.944L21.9664 37.9591L22.6227 37.982L23.3004 37.9956L24 38L24.6996 37.9956L25.3773 37.982L26.0336 37.9591L26.3538 37.944L27.1312 37.8955L27.8762 37.8311L28.1653 37.8008L28.7283 37.7321L29.2714 37.6524L29.6658 37.5853L30.0493 37.5117L30.5438 37.4033C34.3193 36.5136 36.3759 34.535 37.3266 30.8545L37.4033 30.5438L37.5117 30.0493L37.5853 29.6658L37.6524 29.2714L37.7321 28.7283L37.7678 28.4493L37.8311 27.8762L37.8588 27.582L37.9065 26.9783L37.944 26.3538L37.9591 26.0336L37.982 25.3773L37.9956 24.6996L38 24L37.9956 23.3004L37.982 22.6227L37.9591 21.9664L37.944 21.6462L37.8955 20.8688L37.8311 20.1238L37.8008 19.8347L37.7321 19.2717L37.6524 18.7286L37.5853 18.3342L37.5117 17.9507L37.4033 17.4562C36.8113 14.9441 35.7372 13.193 34.0006 12.0223L34 12C34 14.6888 31.8777 16.8818 29.2169 16.9954L29 17H19C16.3112 17 14.1182 14.8777 14.0046 12.2169L14.0005 12.0216ZM29.2056 21.4235C29.9914 20.7457 31.1791 20.7796 31.9246 21.5251C32.6646 22.2651 32.7035 23.4406 32.0415 24.2263L31.9246 24.3536L25.1346 31.1435L25.0147 31.2557C24.1177 32.039 22.7765 32.0424 21.8757 31.2659L21.744 31.1435L17.0754 26.4749L16.9737 26.3655C16.3336 25.6234 16.3283 24.5227 16.9577 23.7747L17.0754 23.6464L17.1848 23.5448C17.9269 22.9047 19.0275 22.8993 19.7756 23.5288L19.9038 23.6464L23.4393 27.182L29.0962 21.5251L29.2056 21.4235ZM24 10L23.3004 10.0044L22.6227 10.018L21.9664 10.0409L21.6462 10.056L20.8688 10.1045L20.1238 10.1689L19.8347 10.1992L19.2717 10.2679L18.7286 10.3476L18.3342 10.4147L18 10.478V12C18 12.5128 18.386 12.9355 18.8834 12.9933L19 13H29C29.5128 13 29.9355 12.614 29.9933 12.1166L30 12L30.001 10.4785L29.641 10.4102L29.2714 10.3476L28.7283 10.2679L28.4493 10.2322L27.8762 10.1689L27.582 10.1412L26.9783 10.0935L26.3538 10.056L26.0336 10.0409L25.3773 10.018L24.6996 10.0044L24 10Z" fill="#333333"/>
</svg>
