<svg width="48" height="48" viewBox="0 0 48 48" fill="none" xmlns="http://www.w3.org/2000/svg">
<path d="M17.373 5.1246C19.035 4.54114 20.1813 5.58469 20.5625 7.00448C20.7112 7.5583 20.7714 8.13257 20.8447 9.31698C21.1037 13.4992 21.3474 15.26 22.2988 17.7262C23.014 19.58 24.0301 21.2015 25.4141 22.5855C26.7923 23.9638 28.4059 24.9844 30.249 25.7135C32.7187 26.6903 34.3236 26.9326 38.6973 27.2779C39.8576 27.3695 40.4518 27.4438 41.0107 27.6129C42.4064 28.0352 43.3874 29.2221 42.7998 30.8375C39.9484 38.6758 32.4781 43.9996 24 43.9996C12.9543 43.9996 4 35.0453 4 23.9996C4.00015 15.4406 9.42617 7.91457 17.373 5.1246ZM16.8584 9.67636L16.793 9.70956C11.4902 12.3849 8.00013 17.8604 8 23.9996C8 32.8362 15.1634 39.9996 24 39.9996C30.0814 39.9996 35.515 36.5753 38.2178 31.3482L38.2637 31.2555L37.9287 31.2291C33.6294 30.881 31.7781 30.5911 29.0615 29.5445L28.7773 29.4332C26.4453 28.5107 24.3682 27.1968 22.5859 25.4146C20.7895 23.6182 19.4759 21.5206 18.5674 19.1656C17.4187 16.188 17.1358 14.1547 16.8516 9.56405L16.8584 9.67636Z" fill="#333333"/>
</svg>
