<svg width="48" height="48" viewBox="0 0 48 48" fill="none" xmlns="http://www.w3.org/2000/svg">
<path fill-rule="evenodd" clip-rule="evenodd" d="M12 20.5C13.933 20.5 15.5 22.067 15.5 24C15.5 25.933 13.933 27.5 12 27.5C10.067 27.5 8.5 25.933 8.5 24C8.5 22.067 10.067 20.5 12 20.5ZM24 20.5C25.933 20.5 27.5 22.067 27.5 24C27.5 25.933 25.933 27.5 24 27.5C22.067 27.5 20.5 25.933 20.5 24C20.5 22.067 22.067 20.5 24 20.5ZM36 20.5C37.933 20.5 39.5 22.067 39.5 24C39.5 25.933 37.933 27.5 36 27.5C34.067 27.5 32.5 25.933 32.5 24C32.5 22.067 34.067 20.5 36 20.5Z" fill="#333333"/>
</svg>
