<svg width="48" height="48" viewBox="0 0 48 48" fill="none" xmlns="http://www.w3.org/2000/svg">
<path fill-rule="evenodd" clip-rule="evenodd" d="M43 24C43 34.4934 34.4934 43 24 43C13.5066 43 5 34.4934 5 24C5 13.5066 13.5066 5 24 5C34.4934 5 43 13.5066 43 24ZM18.25 24C18.25 22.7574 17.2426 21.75 16 21.75C14.7574 21.75 13.75 22.7574 13.75 24C13.75 25.2426 14.7574 26.25 16 26.25C17.2426 26.25 18.25 25.2426 18.25 24ZM26.25 24C26.25 22.7574 25.2426 21.75 24 21.75C22.7574 21.75 21.75 22.7574 21.75 24C21.75 25.2426 22.7574 26.25 24 26.25C25.2426 26.25 26.25 25.2426 26.25 24ZM34.25 24C34.25 22.7574 33.2426 21.75 32 21.75C30.7574 21.75 29.75 22.7574 29.75 24C29.75 25.2426 30.7574 26.25 32 26.25C33.2426 26.25 34.25 25.2426 34.25 24Z" fill="#333333"/>
</svg>
