<svg width="48" height="48" viewBox="0 0 48 48" fill="none" xmlns="http://www.w3.org/2000/svg">
<path fill-rule="evenodd" clip-rule="evenodd" d="M27.5 12C27.5 13.933 25.933 15.5 24 15.5C22.067 15.5 20.5 13.933 20.5 12C20.5 10.067 22.067 8.5 24 8.5C25.933 8.5 27.5 10.067 27.5 12ZM27.5 24C27.5 25.933 25.933 27.5 24 27.5C22.067 27.5 20.5 25.933 20.5 24C20.5 22.067 22.067 20.5 24 20.5C25.933 20.5 27.5 22.067 27.5 24ZM27.5 36C27.5 37.933 25.933 39.5 24 39.5C22.067 39.5 20.5 37.933 20.5 36C20.5 34.067 22.067 32.5 24 32.5C25.933 32.5 27.5 34.067 27.5 36Z" fill="#333333"/>
</svg>
