<svg width="48" height="48" viewBox="0 0 48 48" fill="none" xmlns="http://www.w3.org/2000/svg">
<path fill-rule="evenodd" clip-rule="evenodd" d="M24 5C34.4934 5 43 13.5066 43 24C43 34.4934 34.4934 43 24 43C13.5066 43 5 34.4934 5 24C5 13.5066 13.5066 5 24 5ZM24 29.75C22.7574 29.75 21.75 30.7574 21.75 32C21.75 33.2426 22.7574 34.25 24 34.25C25.2426 34.25 26.25 33.2426 26.25 32C26.25 30.7574 25.2426 29.75 24 29.75ZM24 21.75C22.7574 21.75 21.75 22.7574 21.75 24C21.75 25.2426 22.7574 26.25 24 26.25C25.2426 26.25 26.25 25.2426 26.25 24C26.25 22.7574 25.2426 21.75 24 21.75ZM24 13.75C22.7574 13.75 21.75 14.7574 21.75 16C21.75 17.2426 22.7574 18.25 24 18.25C25.2426 18.25 26.25 17.2426 26.25 16C26.25 14.7574 25.2426 13.75 24 13.75Z" fill="#333333"/>
</svg>
