<svg width="48" height="48" viewBox="0 0 48 48" fill="none" xmlns="http://www.w3.org/2000/svg">
<path d="M32 5C38.0751 5 43 9.92487 43 16V32C43 38.0751 38.0751 43 32 43H16C9.92487 43 5 38.0751 5 32V16C5 9.92487 9.92487 5 16 5H32ZM16 9C12.134 9 9 12.134 9 16V32C9 35.866 12.134 39 16 39H32C35.866 39 39 35.866 39 32V16C39 12.134 35.866 9 32 9H16ZM32.5 24.5C34.1569 24.5 35.5 25.8431 35.5 27.5V32.5C35.5 34.1569 34.1569 35.5 32.5 35.5H27.5C25.8431 35.5 24.5 34.1569 24.5 32.5V27.5C24.5 25.8431 25.8431 24.5 27.5 24.5H32.5ZM20.5 12.5C22.1569 12.5 23.5 13.8431 23.5 15.5V20.5C23.5 22.1569 22.1569 23.5 20.5 23.5H15.5C13.8431 23.5 12.5 22.1569 12.5 20.5V15.5C12.5 13.8431 13.8431 12.5 15.5 12.5H20.5Z" fill="#333333"/>
</svg>
