<svg width="48" height="48" viewBox="0 0 48 48" fill="none" xmlns="http://www.w3.org/2000/svg">
<path fill-rule="evenodd" clip-rule="evenodd" d="M28.9941 9.4245L29.1562 9.5866C29.4721 9.91742 29.664 10.3451 29.7027 10.7974L29.71 10.968V37.0411C29.71 37.5802 29.4923 38.0966 29.1064 38.4731C25.2302 42.2528 17.7688 38.755 13.0615 32.7012L12.8615 32.4402L12.712 32.239L10.27 32.2395C7.51822 32.2395 5.25904 30.1304 5.02077 27.4405L5.0044 27.1867L5 26.9695V19.9063C5 17.0789 7.22656 14.7716 10.022 14.642L10.2701 14.6363L13.411 14.636L13.6741 14.3431C18.454 9.10298 25.2641 6.15753 28.8244 9.2692L28.9941 9.4245ZM25.709 35.955L25.71 12.04L25.6796 12.0318C23.7563 11.5534 19.0862 13.976 15.8857 17.9005C15.5438 18.3198 15.0486 18.5806 14.5148 18.6285L14.3356 18.6366L10.27 18.6363C9.61536 18.6363 9.0764 19.1316 9.00745 19.7679L9 19.9063V26.9695C9 27.6241 9.49531 28.1631 10.1317 28.232L10.27 28.2395L13.7497 28.2395C14.4176 28.2396 15.0414 28.573 15.4125 29.1283C18.3797 33.5681 23.2177 36.4512 25.5033 36.008L25.64 35.9767L25.709 35.955ZM43.9167 18.631C44.6622 19.3765 44.6961 20.5643 44.0183 21.35L43.9167 21.4594L41.4771 23.8989L43.9167 26.3385C44.6977 27.1195 44.6977 28.3858 43.9167 29.1669C43.1711 29.9124 41.9834 29.9463 41.1977 29.2685L41.0882 29.1669L38.6487 26.7274L36.2092 29.1669C35.4282 29.9479 34.1618 29.9479 33.3808 29.1669C32.6352 28.4213 32.6014 27.2336 33.2791 26.4479L33.3808 26.3385L35.8203 23.8989L33.3808 21.4594C32.5997 20.6784 32.5997 19.412 33.3808 18.631C34.1263 17.8854 35.314 17.8516 36.0998 18.5293L36.2092 18.631L38.6494 21.0698L41.0882 18.631C41.8693 17.8499 43.1356 17.8499 43.9167 18.631Z" fill="#333333"/>
</svg>
