<svg width="64" height="48" viewBox="0 0 64 48" fill="none" xmlns="http://www.w3.org/2000/svg">
<path fill-rule="evenodd" clip-rule="evenodd" d="M52.1279 34.8643H53.5518V36.2236H52.1279V38.1924H53.9043V39.5361H52.624V41.6162H53.792V42.8965L54.4482 42.8164V34.6719H53.8076V33.4404H59.1357V34.6719H58.5439V42.2402L59.3438 42.1123C59.3438 42.6028 59.3655 43.0458 59.4082 43.4404C59.9628 42.5659 60.3839 41.7603 60.6719 41.0244C60.3625 40.2671 59.8722 39.12 59.2002 37.584C59.0935 37.3387 59.0133 37.1574 58.96 37.04L60.0479 36.5918L61.248 39.2637C61.4933 38.3037 61.6965 37.1089 61.8564 35.6797H59.3115V34.2725H63.1523V35.7119C62.939 37.8452 62.5705 39.6372 62.0479 41.0879C62.6452 42.4746 63.1147 43.5791 63.4561 44.4004L62.3516 45.1836C62.2556 44.9489 62.1168 44.6019 61.9355 44.1436C61.6797 43.504 61.4883 43.024 61.3604 42.7041C60.9337 43.6001 60.3839 44.5332 59.7119 45.5039C59.4559 45.0559 59.1785 44.6289 58.8799 44.2236C59.0611 43.9678 59.2317 43.7119 59.3916 43.4561L58.5439 43.5996V45.5996H57.2637V43.792L53.7764 44.3516L53.5518 42.9756H52.624V45.5996C53.3707 45.9729 54.4534 46.1542 55.8721 46.1436C57.9734 46.1436 59.5792 46.1386 60.6885 46.1279C61.9256 46.1279 62.8907 46.117 63.584 46.0957C63.392 46.6289 63.2374 47.1145 63.1201 47.5518H62C59.0775 47.5624 56.9763 47.5515 55.6963 47.5195C52.8697 47.5622 51.0291 46.7201 50.1758 44.9922C50.0264 45.9521 49.7223 46.923 49.2637 47.9043C49.2317 47.8723 49.1841 47.8129 49.1201 47.7275C48.7149 47.2477 48.4265 46.9226 48.2559 46.752C48.6505 45.8986 48.912 45.0507 49.04 44.208C49.168 43.3867 49.2324 42.1602 49.2324 40.5283L50.4639 40.6084C50.4425 41.6429 50.4217 42.4108 50.4004 42.9121C50.667 43.5627 50.9762 44.1067 51.3281 44.5439V39.5361H48.5918V38.1924H50.7363V36.2236H48.96V34.8643H50.7363V32.8643H52.1279V34.8643ZM55.7275 42.6396L57.2637 42.416V40.6562H55.7275V42.6396ZM55.7275 39.4717H57.2637V37.6641H55.7275V39.4717ZM55.7275 36.4805H57.2637V34.6719H55.7275V36.4805Z" fill="#333333"/>
<path d="M38.7842 43.4238C37.3122 44.9598 35.7064 46.4477 33.9678 47.8877C33.6478 47.5038 33.2425 47.0558 32.752 46.5439C34.4052 45.3173 35.9625 43.8987 37.4238 42.2881L38.7842 43.4238Z" fill="#333333"/>
<path d="M10.1436 32.8164C10.1329 34.0642 10.1765 35.5626 10.2725 37.3115H15.5195V38.8643H10.3682L10.416 39.4082C10.512 40.6134 10.6289 41.5844 10.7676 42.3203C11.7062 41.4563 12.571 40.4588 13.3604 39.3281L14.7363 40.3682C13.6164 41.8081 12.4642 43.0346 11.2803 44.0479C11.4189 44.3785 11.5844 44.7044 11.7764 45.0244C12.1602 45.7387 12.5706 46.0906 13.0078 46.0801C13.3491 46.0907 13.5839 45.8342 13.7119 45.3115C13.8612 44.693 13.9891 43.9784 14.0957 43.168C14.661 43.4773 15.1524 43.717 15.5684 43.8877C15.4084 44.9437 15.2053 45.8243 14.96 46.5283C14.6506 47.4241 14.0156 47.8671 13.0557 47.8564C11.8932 47.8776 10.9598 47.2108 10.2559 45.8564C10.1279 45.6324 10.011 45.3917 9.9043 45.1357C8.96563 45.8184 7.91462 46.4692 6.75195 47.0879C6.42131 46.5866 6.07456 46.1011 5.71191 45.6318C7.06645 44.9812 8.27716 44.2669 9.34375 43.4883C9.05575 42.4323 8.85862 41.1039 8.75195 39.5039L8.68848 38.8643H5.18359V41.1201C6.02626 41.0028 6.92274 40.8641 7.87207 40.7041C7.85074 41.4081 7.85074 41.9361 7.87207 42.2881C7.49874 42.3521 6.92222 42.4422 6.14355 42.5596C5.71707 42.6235 5.39686 42.6721 5.18359 42.7041V45.6963C5.22617 46.9546 4.68805 47.6057 3.56836 47.6484C3.03503 47.6911 2.29308 47.7119 1.34375 47.7119C1.2691 47.1787 1.15709 46.6296 1.00781 46.0645C1.38111 46.0965 1.90923 46.1123 2.5918 46.1123C3.1998 46.155 3.48805 45.8558 3.45605 45.2158V42.9756L0.671875 43.4404L0.400391 41.7598C1.4989 41.6424 2.51751 41.5146 3.45605 41.376V38.8643H0.448242V37.3115H3.45605V35.376C3.34942 35.3866 3.19475 35.4025 2.99219 35.4238C2.08555 35.5092 1.43471 35.5626 1.04004 35.584C0.997377 35.136 0.917117 34.6188 0.799805 34.0322C2.81565 33.9256 4.91703 33.7175 7.10352 33.4082L7.44043 34.9277C7.14176 34.9704 6.65044 35.0289 5.96777 35.1035C5.61586 35.1462 5.35423 35.1789 5.18359 35.2002V37.3115H8.5918C8.48516 35.6052 8.42669 34.1069 8.41602 32.8164H10.1436Z" fill="#333333"/>
<path d="M42.4004 42.2725C44.7575 44.2776 46.3625 45.6696 47.2158 46.4482L45.9355 47.7764C44.6449 46.5284 43.0559 45.0771 41.168 43.4238L42.4004 42.2725Z" fill="#333333"/>
<path fill-rule="evenodd" clip-rule="evenodd" d="M21.0879 33.1523C20.9066 33.8562 20.6935 34.5816 20.4482 35.3281H23.1523V47.6162H21.5361V46.5117H18.624V47.7119H16.9922V35.3281H18.7041C18.9281 34.5815 19.1252 33.7652 19.2959 32.8799L21.0879 33.1523ZM18.624 44.9443H21.5361V41.6797H18.624V44.9443ZM18.624 40.1123H21.5361V36.8965H18.624V40.1123Z" fill="#333333"/>
<path d="M27.3115 33.2324C27.0876 33.9361 26.8427 34.6292 26.5762 35.3115H31.0879C31.0132 39.4609 30.928 42.5871 30.832 44.6885C30.8532 46.6188 29.9518 47.584 28.1279 47.584C27.8186 47.6053 27.461 47.6162 27.0557 47.6162C26.8531 47.6269 26.629 47.6318 26.3838 47.6318H25.4561C25.3174 46.8639 25.1995 46.2982 25.1035 45.9355C25.8715 45.9675 26.6719 45.9844 27.5039 45.9844C28.6239 46.0484 29.1786 45.5094 29.168 44.3682C29.2106 43.4295 29.2641 41.376 29.3281 38.208C29.3388 37.6004 29.3497 37.1632 29.3604 36.8965H25.9355C25.5837 37.7175 25.2159 38.4798 24.832 39.1836C24.3628 38.8956 23.8772 38.6241 23.376 38.3682C24.3146 36.6402 25.0665 34.7997 25.6318 32.8477L27.3115 33.2324Z" fill="#333333"/>
<path d="M25.7598 39.168C26.5598 40.1706 27.371 41.2375 28.1924 42.3682L26.7676 43.3115C25.8931 42.0104 25.1251 40.9115 24.4639 40.0156L25.7598 39.168Z" fill="#333333"/>
<path d="M47.5039 41.5518H32.4805V39.9355H47.5039V41.5518Z" fill="#333333"/>
<path d="M46.832 34.5117C45.8614 36.2077 44.9124 37.755 43.9844 39.1523L42.5117 38.3037C43.5144 36.8317 44.4218 35.328 45.2324 33.792L46.832 34.5117Z" fill="#333333"/>
<path d="M34.8477 34C35.6903 35.408 36.5224 36.8325 37.3438 38.2725L35.7764 39.1201C35.0404 37.7122 34.2349 36.2509 33.3604 34.7363L34.8477 34Z" fill="#333333"/>
<path d="M41.4082 38.0957L39.7119 38.5117C39.2213 36.6239 38.7517 34.9654 38.3037 33.5361L39.9678 33.1523L41.4082 38.0957Z" fill="#333333"/>
<path d="M12 33.3604C12.3947 33.6804 13.1576 34.3363 14.2881 35.3281C14.48 35.4987 14.6138 35.6157 14.6885 35.6797L13.4883 36.832C12.5711 35.9042 11.707 35.0936 10.8965 34.4004L12 33.3604Z" fill="#333333"/>
<path fill-rule="evenodd" clip-rule="evenodd" d="M31 0C35.9706 0 40 4.02944 40 9C40 13.9706 35.9706 18 31 18C30.7709 18 30.5441 17.9875 30.3193 17.9707C30.2152 17.9875 30.1089 18 30 18C24.0541 18 19.1192 22.3247 18.167 28H14.126C14.8692 22.0409 18.8873 17.0995 24.3242 15.0361C22.8798 13.4396 22 11.3225 22 9C22 4.02944 26.0294 0 31 0ZM31 4C28.2386 4 26 6.23858 26 9C26 11.7614 28.2386 14 31 14C33.7614 14 36 11.7614 36 9C36 6.23858 33.7614 4 31 4Z" fill="#333333"/>
<path d="M41.9561 14.4551C43.0264 13.0865 45.1441 13.132 46.1445 14.5918L48.7744 18.4287L53.2363 19.7441C54.9885 20.2607 55.6755 22.3754 54.5615 23.8232L51.7246 27.5088L51.7383 28H47.7373L47.7129 27.1221C47.6965 26.5246 47.8866 25.9396 48.251 25.4658L50.1455 23.0029L47.166 22.125C46.5925 21.9559 46.0949 21.5938 45.7568 21.1006L44 18.5371L42.2432 21.1006C41.9051 21.5938 41.4075 21.9559 40.834 22.125L37.8535 23.0029L39.749 25.4658C40.1134 25.9396 40.3035 26.5246 40.2871 27.1221L40.2627 28H36.2607L36.2744 27.5088L33.4385 23.8232C32.3245 22.3754 33.0114 20.2607 34.7637 19.7441L39.2246 18.4287L41.8555 14.5918L41.9561 14.4551Z" fill="#333333"/>
</svg>
