<svg width="48" height="48" viewBox="0 0 48 48" fill="none" xmlns="http://www.w3.org/2000/svg">
<path fill-rule="evenodd" clip-rule="evenodd" d="M33.3496 24.2324C34.2143 23.1278 35.9245 23.165 36.7324 24.3438L39.2959 28.085L43.6494 29.3682C45.064 29.7856 45.6188 31.4939 44.7197 32.6631L41.9531 36.2588L42.0781 40.7939C42.1186 42.2686 40.6654 43.3239 39.2754 42.8301L35 41.3096L30.7256 42.8301C29.3355 43.3242 27.8823 42.2688 27.9229 40.7939L28.0469 36.2588L25.2812 32.6631C24.3817 31.4938 24.9365 29.7855 26.3516 29.3682L30.7041 28.085L33.2686 24.3438L33.3496 24.2324ZM33.3711 30.5605C33.0982 30.9587 32.6963 31.251 32.2334 31.3877L29.4688 32.2021L31.2266 34.4863C31.5209 34.8689 31.6743 35.3417 31.6611 35.8242L31.5811 38.7041L34.2969 37.7393C34.6948 37.5979 35.1253 37.5805 35.5312 37.6865L35.7041 37.7393L38.4189 38.7041L38.3398 35.8242C38.3267 35.3417 38.4801 34.869 38.7744 34.4863L40.5312 32.2021L37.7676 31.3877C37.3045 31.2511 36.9029 30.9588 36.6299 30.5605L35 28.1836L33.3711 30.5605Z" fill="#333333"/>
<path fill-rule="evenodd" clip-rule="evenodd" d="M23 6C28.5228 6 33 10.4772 33 16C33 21.5228 28.5228 26 23 26C16.3726 26 11 31.3726 11 38V40C11 41.1046 10.1046 42 9 42C7.89543 42 7 41.1046 7 40V38C7 31.5428 10.8252 25.9793 16.333 23.4512C14.288 21.6201 13 18.961 13 16C13 10.4772 17.4772 6 23 6ZM23 10C19.6863 10 17 12.6863 17 16C17 19.3137 19.6863 22 23 22C26.3137 22 29 19.3137 29 16C29 12.6863 26.3137 10 23 10Z" fill="#333333"/>
</svg>
