<svg width="48" height="48" viewBox="0 0 48 48" fill="none" xmlns="http://www.w3.org/2000/svg">
<path d="M23 6C28.5228 6 33 10.4772 33 16C33 21.5228 28.5228 26 23 26C16.3726 26 11 31.3726 11 38V40C11 41.1046 10.1046 42 9 42C7.89543 42 7 41.1046 7 40V38C7 31.5428 10.8252 25.9793 16.333 23.4512C14.288 21.6201 13 18.961 13 16C13 10.4772 17.4772 6 23 6ZM34.3516 26.6973C36.5895 25.5361 39.4099 25.8259 41.3574 27.5674L41.5488 27.7451C43.6448 29.7836 44.1165 33.1338 42.6494 35.5967C42.0052 36.673 41.221 37.6709 40.3193 38.5615C39.4426 39.4334 38.4606 40.2075 37.3867 40.874C37.0566 41.0769 36.7309 41.262 36.4053 41.4307C36.2277 41.5215 36.0819 41.5919 35.8799 41.6748L36.002 41.6221L35.9023 41.6719C34.967 42.0875 33.7488 42.1082 32.7939 41.7344L32.7236 41.7041L32.7002 41.6963C32.6526 41.6784 32.6062 41.6598 32.5615 41.6396L32.4717 41.5947L32.4062 41.5654L32.2949 41.5146C31.0081 40.9054 29.8158 40.1345 28.75 39.2207C27.463 38.1131 26.4553 36.8587 25.7598 35.4727C24.4325 32.8194 24.8579 29.7643 26.9277 27.7461C28.879 25.847 31.8134 25.4974 34.1221 26.6924L34.2402 26.7578L34.3516 26.6973ZM38.7598 30.6133C37.9208 29.7963 36.527 29.7963 35.6914 30.6104L35.6377 30.6631C34.8649 31.4175 33.6319 31.4226 32.8535 30.6738L32.79 30.6123C31.951 29.7958 30.5565 29.7959 29.7188 30.6113C28.9313 31.3794 28.7687 32.5466 29.3359 33.6807C29.7843 34.5741 30.4595 35.4146 31.3564 36.1865C32.1477 36.865 33.0391 37.4418 33.9824 37.8887C34.0999 37.9424 34.1644 37.9711 34.1807 37.9775L34.2637 38.0127L34.2764 38.0156L34.3477 37.9814L34.415 37.9531L34.4111 37.9561L34.4463 37.9414L34.415 37.9531L34.4795 37.9219C34.5068 37.9083 34.5409 37.8915 34.5752 37.874C34.803 37.756 35.043 37.6189 35.2842 37.4707C36.0943 36.9679 36.8373 36.3816 37.5029 35.7197C38.171 35.0598 38.7466 34.3283 39.2148 33.5459C39.7246 32.6901 39.5388 31.3712 38.7598 30.6133ZM23 10C19.6863 10 17 12.6863 17 16C17 19.3137 19.6863 22 23 22C26.3137 22 29 19.3137 29 16C29 12.6863 26.3137 10 23 10Z" fill="#333333"/>
</svg>
