<svg width="48" height="48" viewBox="0 0 48 48" fill="none" xmlns="http://www.w3.org/2000/svg">
<path d="M21.415 9.11816C22.5194 9.11839 23.415 10.0137 23.415 11.1182C23.4149 12.2224 22.5193 13.1179 21.415 13.1182H14.6475C12.6332 13.1182 11 14.7514 11 16.7656V35.2754L14.4717 32.8438L14.7217 32.6826C15.3188 32.3293 16.0018 32.1416 16.6992 32.1416H30.3525C32.3664 32.1416 33.9996 30.5089 34 28.4951V25.7412C34 24.6366 34.8954 23.7412 36 23.7412C37.1045 23.7413 38 24.6367 38 25.7412V28.4951C37.9996 32.7181 34.5756 36.1416 30.3525 36.1416H16.7363L11.6289 39.7188C9.67972 41.0838 7.00025 39.6892 7 37.3096V16.7656C7 12.5423 10.4241 9.11816 14.6475 9.11816H21.415ZM34.1758 7C35.28 7.00026 36.1756 7.89575 36.1758 9V11.7061H38.8818C39.9861 11.7064 40.8817 12.6018 40.8818 13.7061C40.8818 14.8104 39.9861 15.7057 38.8818 15.7061H36.1758V18.4121C36.1758 19.5165 35.2801 20.4118 34.1758 20.4121C33.0712 20.4121 32.1758 19.5167 32.1758 18.4121V15.7061H29.4697C28.3652 15.7061 27.4697 14.8106 27.4697 13.7061C27.4699 12.6016 28.3652 11.7061 29.4697 11.7061H32.1758V9C32.176 7.89559 33.0713 7 34.1758 7Z" fill="#333333"/>
</svg>
