<svg width="48" height="48" viewBox="0 0 48 48" fill="none" xmlns="http://www.w3.org/2000/svg">
<path d="M34.3018 6.48153C33.4632 5.76272 32.2003 5.85978 31.4815 6.69833C30.7627 7.53695 30.8597 8.79979 31.6983 9.51864L34.5938 12.0001H19C11.2681 12.0001 5.00005 18.2681 5.00003 26.0001C5.00003 33.7321 11.268 40.0001 19 40.0001H36.002C37.1064 39.9999 38.002 39.1045 38.002 38.0001C38.002 36.8957 37.1064 36.0003 36.002 36.0001H19C13.4772 36.0001 9.00003 31.5229 9.00003 26.0001C9.00005 20.4773 13.4772 16.0001 19 16.0001H35.1709L31.586 19.586C30.846 20.326 30.8068 21.5014 31.4688 22.2872L31.586 22.4142C32.367 23.1952 33.633 23.1952 34.4141 22.4142L41.4141 15.4142C42.2378 14.5904 42.1863 13.2397 41.3018 12.4815L34.3018 6.48153Z" fill="#333333"/>
</svg>
