<svg width="48" height="48" viewBox="0 0 48 48" fill="none" xmlns="http://www.w3.org/2000/svg">
<path d="M12 32C12.8322 32 13.2999 32.9574 12.7891 33.6142L11.6279 35.1064L11.7344 35.166C12.4689 35.607 12.942 36.3454 12.9951 37.3154L13 37.5C13 39.1374 11.85 40 10.5 40C9.57321 40 8.8017 39.6391 8.25976 39.0429C7.88826 38.6343 7.91851 38.0013 8.32714 37.6298C8.70423 37.287 9.27207 37.2863 9.64941 37.6093L9.74023 37.6972C9.91309 37.8873 10.1531 38 10.5 38C10.85 38 11 37.8874 11 37.5C11 37.0031 10.7089 36.7365 10.0478 36.7031L9.90039 36.7002C9.06827 36.7002 8.59956 35.7428 9.11035 35.0859L9.95507 34H9C8.48717 34 8.0646 33.6135 8.00683 33.1162L8 33C8 32.4477 8.44772 32 9 32H12ZM38 34C39.1046 34 40 34.8954 40 36C40 37.1045 39.1046 38 38 38H17C15.8954 38 15 37.1045 15 36C15 34.8954 15.8954 34 17 34H38ZM10.5 20C11.8198 20 13 21.0519 13 22.5C13 23.5414 12.5515 24.2105 11.4033 25.3378L10.7207 26H12C12.5128 26 12.9354 26.3864 12.9932 26.8837L13 27C13 27.5522 12.5523 28 12 28H9C8.44772 28 8 27.5522 8 27C8 26.2383 8.34418 25.618 9.00585 24.8994L9.35742 24.5361L9.80664 24.1005C10.6935 23.2477 11 22.8301 11 22.5C11 22.211 10.7632 22 10.5 22C10.2661 22 10.0533 22.1672 10.0088 22.4072L10 22.5C9.99999 23.0522 9.55228 23.5 9 23.5C8.44772 23.5 8 23.0522 8 22.5C8 21.0519 9.18026 20 10.5 20ZM38 22C39.1046 22 40 22.8954 40 24C40 25.1045 39.1046 26 38 26H17C15.8954 26 15 25.1045 15 24C15 22.8954 15.8954 22 17 22H38ZM9.70019 9.40035C10.2768 8.63154 11.5 9.03894 11.5 9.99996V16C11.5 16.5522 11.0523 17 10.5 17C9.94772 17 9.5 16.5522 9.5 16V12.331L9.46484 12.333C9.30698 12.3275 9.14871 12.2843 9.00488 12.2021L8.90039 12.1337C8.45856 11.8024 8.36882 11.1752 8.70019 10.7334L9.70019 9.40035ZM38 11C39.1046 11 40 11.8954 40 13C40 14.1045 39.1046 15 38 15H17C15.8954 15 15 14.1045 15 13C15 11.8954 15.8954 11 17 11H38Z" fill="#333333"/>
</svg>
