<svg width="48" height="48" viewBox="0 0 48 48" fill="none" xmlns="http://www.w3.org/2000/svg">
<path d="M10.767 6.90068C11.2115 5.69994 12.9103 5.70001 13.3549 6.90068L14.4486 9.85771C14.5883 10.2353 14.8865 10.5334 15.2641 10.6731L18.2211 11.7669C19.4221 12.2113 19.4221 13.9104 18.2211 14.3548L15.2641 15.4485C14.8865 15.5883 14.5883 15.8864 14.4486 16.264L13.3549 19.221C12.9105 20.422 11.2114 20.422 10.767 19.221L9.67324 16.264C9.53352 15.8864 9.23539 15.5883 8.85781 15.4485L5.90078 14.3548C4.7001 13.9103 4.70004 12.2114 5.90078 11.7669L8.85781 10.6731C9.23539 10.5334 9.53352 10.2353 9.67324 9.85771L10.767 6.90068Z" fill="#563AFF"/>
<path fill-rule="evenodd" clip-rule="evenodd" d="M38.5996 7.23657C41.2003 7.23662 43.3086 9.34483 43.3086 11.9456V16.2395C43.3086 17.2718 42.4718 18.1086 41.4395 18.1086H37.4912V33.9456C37.4911 37.2381 34.8932 39.923 31.6357 40.0657V40.0725H11.6357C8.65378 40.0722 6.23654 37.6551 6.23633 34.6731V32.5725C6.23643 31.4129 7.17635 30.4731 8.33594 30.4729H10.6279C10.5986 30.344 10.5821 30.2102 10.582 30.0725V25.7092C10.582 24.7151 11.3877 23.9094 12.3818 23.9094C13.3757 23.9095 14.1814 24.7144 14.1816 25.7083V30.0715C14.1816 30.2095 14.1641 30.3438 14.1348 30.4729H27.2408C28.1245 30.4729 28.8408 31.1892 28.8408 32.0729V34.0247C28.8827 35.3836 29.9943 36.4727 31.3633 36.4729C32.7589 36.4728 33.8906 35.3412 33.8906 33.9456V11.9456C33.8906 11.5727 33.9357 11.2104 34.0176 10.8625H22.0908C21.0968 10.8624 20.291 10.0568 20.291 9.06274C20.291 8.0687 21.0968 7.26305 22.0908 7.26294H38.1025C38.2659 7.24579 38.4317 7.23659 38.5996 7.23657ZM9.83594 34.6731C9.83615 35.6669 10.642 36.4726 11.6357 36.4729H25.7822C25.4491 35.7384 25.2567 34.9274 25.2393 34.0725H9.83594V34.6731ZM38.5996 10.8362C37.9874 10.8364 37.4903 11.333 37.4902 11.9456V14.509H39.709V11.9456C39.709 11.3331 39.2121 10.8362 38.5996 10.8362Z" fill="#333333"/>
</svg>
