<svg width="48" height="48" viewBox="0 0 48 48" fill="none" xmlns="http://www.w3.org/2000/svg">
<path d="M24 5C34.4934 5 43 13.5066 43 24C43 24.8836 42.9391 25.7606 42.8193 26.626C42.7585 27.0654 42.5537 27.4722 42.2363 27.7822L27.3564 42.3193C27.0391 42.6294 26.6273 42.8244 26.1865 42.875C25.8024 42.9191 25.4162 42.9509 25.0283 42.9717C25.0102 42.9897 25.0006 42.9993 25 43C24.9225 43 24.8449 42.9971 24.7676 42.9961C24.766 42.9915 24.7643 42.987 24.7627 42.9824C24.5091 42.9925 24.2549 43 24 43C13.5066 43 5 34.4934 5 24C5 13.5066 13.5066 5 24 5ZM24 9C15.7157 9 9 15.7157 9 24C9 32.2843 15.7157 39 24 39C24.0036 39 24.0072 38.999 24.0107 38.999C24.0047 38.8334 24 38.6671 24 38.5C24 31.0442 30.0442 25 37.5 25C37.9934 25 38.4803 25.0294 38.96 25.0811L38.9639 25.0449C38.9758 24.8717 38.9852 24.6976 38.9912 24.5234L39 24C39 15.7157 32.2843 9 24 9ZM17.5 17C18.8807 17 20 18.1193 20 19.5C20 20.8807 18.8807 22 17.5 22C16.1193 22 15 20.8807 15 19.5C15 18.1193 16.1193 17 17.5 17ZM30.5 17C31.8807 17 33 18.1193 33 19.5C33 20.8807 31.8807 22 30.5 22C29.1193 22 28 20.8807 28 19.5C28 18.1193 29.1193 17 30.5 17Z" fill="#333333"/>
</svg>
