<svg width="48" height="48" viewBox="0 0 48 48" fill="none" xmlns="http://www.w3.org/2000/svg">
<path d="M24 4C35.0457 4 44 12.9543 44 24C44 35.0457 35.0457 44 24 44C12.9543 44 4 35.0457 4 24C4 12.9543 12.9543 4 24 4ZM24 8C15.1634 8 8 15.1634 8 24C8 32.8366 15.1634 40 24 40C32.8366 40 40 32.8366 40 24C40 15.1634 32.8366 8 24 8ZM18.5 15C19.6046 15 20.5 15.8954 20.5 17V31C20.5 32.1046 19.6046 33 18.5 33C17.3954 33 16.5 32.1046 16.5 31V17C16.5 15.8954 17.3954 15 18.5 15ZM29.5 15C30.6046 15 31.5 15.8954 31.5 17V31C31.5 32.1046 30.6046 33 29.5 33C28.3954 33 27.5 32.1046 27.5 31V17C27.5 15.8954 28.3954 15 29.5 15Z" fill="#333333"/>
</svg>
