<svg width="48" height="48" viewBox="0 0 48 48" fill="none" xmlns="http://www.w3.org/2000/svg">
<path fill-rule="evenodd" clip-rule="evenodd" d="M37.7026 9.29719C38.8299 10.4245 39.7971 11.712 40.6041 13.1596L40.8025 13.5249C41.73 15.2773 41.5227 17.4687 40.2712 19.1409C38.2435 21.8504 35.7744 24.6604 32.8639 27.5709C29.4585 30.9763 25.4002 34.7099 20.7863 38.3905C19.6053 39.3326 18.1634 39.8662 16.6942 39.9048L10.2735 39.8842C8.54595 39.9296 7.17349 38.6228 7.11628 36.924L7.06055 30.2448C7.09915 28.7756 7.63272 27.3337 8.57483 26.1527C12.2554 21.5388 16.0235 17.5413 19.4289 14.1359C22.1682 11.3966 24.8184 9.04829 27.3797 7.09097L27.8589 6.72855C29.4804 5.51503 31.5902 5.28332 33.3144 6.1161L33.4749 6.19729C35.0721 7.04263 36.4813 8.07593 37.7026 9.29719ZM28.9883 18.0114C28.0104 17.0335 26.9181 16.1675 25.7281 15.4235L25.2773 15.1502L25.151 15.0785C24.9352 14.9608 24.7127 14.8689 24.4883 14.8032C23.7531 15.4921 23.0094 16.2123 22.2573 16.9643C18.2708 20.9508 14.8707 24.6747 11.7018 28.6471C11.3433 29.0966 11.1267 29.6242 11.072 30.152L11.0609 30.3131L11.109 35.8865L16.6054 35.9042L16.787 35.8933C17.2488 35.8455 17.7105 35.6737 18.1198 35.3913L18.2919 35.2635C22.4319 31.961 26.3579 28.4201 30.0355 24.7425C30.7878 23.9902 31.5081 23.2462 32.1965 22.5106C32.1419 22.3216 32.0685 22.135 31.9776 21.9544L31.8751 21.7663L31.6735 21.4301C30.8983 20.1654 30.0037 19.0268 28.9883 18.0114ZM34.8742 12.1256C34.0423 11.2937 33.0918 10.5722 32.0599 9.98175L31.6692 9.76653L31.5748 9.718C31.2499 9.56106 30.798 9.59216 30.4016 9.83138L30.2717 9.91886L29.8085 10.2692C29.1182 10.7967 28.4193 11.3559 27.712 11.9467L27.2754 11.6852C28.9594 12.6742 30.4744 13.8407 31.8168 15.183C32.9183 16.2846 33.9016 17.5026 34.7724 18.8462L35.0525 19.2885C35.7715 18.4277 36.4436 17.5796 37.0688 16.7443C37.3774 16.3319 37.4471 15.8541 37.3287 15.5275L37.2876 15.4342L37.1103 15.1073C36.4816 13.9795 35.7374 12.9889 34.8742 12.1256ZM29.941 36H41.0586C42.1307 36 42.9998 36.8691 42.9998 37.9412V38.0588C42.9998 39.1309 42.1307 40 41.0586 40H29.941C28.8689 40 27.9998 39.1309 27.9998 38.0588V37.9412C27.9998 36.8691 28.8689 36 29.941 36Z" fill="#333333"/>
</svg>
