<svg width="48" height="48" viewBox="0 0 48 48" fill="none" xmlns="http://www.w3.org/2000/svg">
<path fill-rule="evenodd" clip-rule="evenodd" d="M32 4C36.3349 4 39.8645 7.44784 39.9962 11.7508L40 12V36C40 40.3349 36.5522 43.8645 32.2492 43.9962L32 44H16C11.6651 44 8.13546 40.5522 8.00381 36.2492L8 36V12C8 7.66509 11.4478 4.13546 15.7508 4.00381L16 4H32ZM32 8H16C13.8578 8 12.1089 9.68397 12.0049 11.8004L12 12V36C12 38.1422 13.684 39.8911 15.8004 39.9951L16 40H32C34.1422 40 35.8911 38.316 35.9951 36.1996L36 36V12C36 9.8578 34.316 8.10892 32.1996 8.0049L32 8ZM23.9598 31.0093C25.3405 31.0093 26.4598 32.1286 26.4598 33.5093C26.4598 34.89 25.3405 36.0093 23.9598 36.0093C22.579 36.0093 21.4598 34.89 21.4598 33.5093C21.4598 32.1286 22.579 31.0093 23.9598 31.0093ZM27 12C28.1046 12 29 12.8954 29 14C29 15.1046 28.1046 16 27 16H21C19.8954 16 19 15.1046 19 14C19 12.8954 19.8954 12 21 12H27Z" fill="#333333"/>
</svg>
