<svg width="48" height="48" viewBox="0 0 48 48" fill="none" xmlns="http://www.w3.org/2000/svg">
<path d="M24.4131 5.00195L25.2236 5.01367C25.3569 5.01679 25.4895 5.02122 25.6211 5.02539L26.4004 5.05664C37.684 5.61129 42.3887 10.316 42.9434 21.5996L42.9746 22.3789C42.9788 22.5105 42.9832 22.6431 42.9863 22.7764L42.998 23.5869L43 24C43 24.1385 42.9991 24.2763 42.998 24.4131L42.9863 25.2236C42.9832 25.3569 42.9788 25.4895 42.9746 25.6211L42.9434 26.4004C42.3887 37.684 37.684 42.3887 26.4004 42.9434L25.6211 42.9746C25.4895 42.9788 25.3569 42.9832 25.2236 42.9863L24.4131 42.998L24 43C23.8615 43 23.7237 42.9991 23.5869 42.998L22.7764 42.9863C22.6431 42.9832 22.5105 42.9788 22.3789 42.9746L21.5996 42.9434C10.316 42.3887 5.61129 37.684 5.05664 26.4004L5.02539 25.6211C5.02122 25.4895 5.01679 25.3569 5.01367 25.2236L5.00195 24.4131L5 24C5 23.8615 5.00092 23.7237 5.00195 23.5869L5.01367 22.7764C5.01679 22.6431 5.02122 22.5105 5.02539 22.3789L5.05664 21.5996C5.61129 10.316 10.316 5.61129 21.5996 5.05664L22.3789 5.02539C22.5105 5.02122 22.6431 5.01679 22.7764 5.01367L23.5869 5.00195L24 5C24.1385 5 24.2763 5.00092 24.4131 5.00195ZM34.2705 25.7178C33.523 25.0112 32.37 24.9921 31.6006 25.6475L31.4766 25.7627L25.3896 31.8984C23.5252 33.7779 20.4931 33.8004 18.6016 31.9482C18.2919 31.6452 17.8129 31.6182 17.4736 31.8691L17.3848 31.9443L12.7588 36.4258C13.9203 37.3591 15.3939 38.0028 17.2402 38.4121L17.7568 38.5186C17.8443 38.5353 17.9325 38.5516 18.0215 38.5674L18.5664 38.6572L19.1299 38.7354L19.7129 38.8027C19.8117 38.8131 19.9113 38.8235 20.0117 38.833L20.625 38.8848L21.2588 38.9277C21.366 38.9339 21.4741 38.939 21.583 38.9443L22.2471 38.9717L22.9326 38.9902C23.0485 38.9925 23.1656 38.9936 23.2832 38.9951L24 39L25.0674 38.9902L25.7529 38.9717C25.8653 38.9679 25.9772 38.9645 26.0879 38.96L26.7412 38.9277L27.375 38.8848L27.9883 38.833C28.0887 38.8235 28.1883 38.8131 28.2871 38.8027L28.8701 38.7354L29.4336 38.6572L29.9785 38.5674C30.0675 38.5516 30.1557 38.5353 30.2432 38.5186L30.7598 38.4121C35.1495 37.4389 37.4389 35.1495 38.4121 30.7598L38.5186 30.2432C38.5353 30.1557 38.5516 30.0675 38.5674 29.9785L38.6016 29.7646C38.5465 29.7291 38.4926 29.6909 38.4404 29.6494L38.3096 29.5361L34.2705 25.7178ZM23.6387 9.00098L22.9326 9.00977L22.2471 9.02832C22.1347 9.0321 22.0228 9.03547 21.9121 9.04004L21.2588 9.07227L20.625 9.11523L20.0117 9.16699C19.9113 9.17652 19.8117 9.18687 19.7129 9.19727L19.1299 9.26465L18.5664 9.34277L18.0215 9.43262C17.9325 9.44844 17.8443 9.46468 17.7568 9.48145L17.2402 9.58789C12.8505 10.5611 10.5611 12.8505 9.58789 17.2402L9.48145 17.7568C9.46468 17.8443 9.44844 17.9325 9.43262 18.0215L9.34277 18.5664L9.26465 19.1299L9.19727 19.7129C9.18687 19.8117 9.17652 19.9113 9.16699 20.0117L9.11523 20.625L9.07227 21.2588C9.06609 21.366 9.06103 21.4741 9.05566 21.583L9.02832 22.2471L9.00977 22.9326L9.00098 23.6387V24.3613L9.00977 25.0674L9.02832 25.7529C9.0321 25.8653 9.03547 25.9772 9.04004 26.0879L9.07227 26.7412L9.11523 27.375L9.16699 27.9883C9.17652 28.0887 9.18687 28.1883 9.19727 28.2871L9.26465 28.8701L9.34277 29.4336L9.43262 29.9785C9.44844 30.0675 9.46468 30.1557 9.48145 30.2432L9.58789 30.7598C9.78601 31.6533 10.0397 32.4594 10.3535 33.1855L14.6016 29.0713C16.4983 27.2341 19.5136 27.2425 21.4004 29.0898C21.6916 29.375 22.1422 29.3975 22.459 29.1602L22.5498 29.082L28.6367 22.9463C30.8703 20.6947 34.4558 20.5788 36.8281 22.6396L37.0176 22.8115L38.9951 24.6807L39 24L38.9902 22.9326L38.9717 22.2471C38.9679 22.1347 38.9645 22.0228 38.96 21.9121L38.9277 21.2588L38.8848 20.625L38.833 20.0117C38.8235 19.9113 38.8131 19.8117 38.8027 19.7129L38.7354 19.1299L38.6572 18.5664L38.5674 18.0215C38.5516 17.9325 38.5353 17.8443 38.5186 17.7568L38.4121 17.2402C37.4389 12.8505 35.1495 10.5611 30.7598 9.58789L30.2432 9.48145C30.1557 9.46468 30.0675 9.44844 29.9785 9.43262L29.4336 9.34277L28.8701 9.26465L28.2871 9.19727C28.1883 9.18687 28.0887 9.17652 27.9883 9.16699L27.375 9.11523L26.7412 9.07227C26.634 9.06609 26.5259 9.06103 26.417 9.05566L25.7529 9.02832L25.0674 9.00977C24.9515 9.00753 24.8344 9.00636 24.7168 9.00488L24 9C23.8787 9 23.7582 9.00024 23.6387 9.00098ZM18.5 15C20.433 15 22 16.567 22 18.5C22 20.433 20.433 22 18.5 22C16.567 22 15 20.433 15 18.5C15 16.567 16.567 15 18.5 15Z" fill="#333333"/>
</svg>
