<svg width="48" height="48" viewBox="0 0 48 48" fill="none" xmlns="http://www.w3.org/2000/svg">
<path d="M24 4C35.0457 4 44 12.9543 44 24C44 35.0457 35.0457 44 24 44C12.9543 44 4 35.0457 4 24C4 12.9543 12.9543 4 24 4ZM24 8C15.1634 8 8 15.1634 8 24C8 32.8366 15.1634 40 24 40C32.8366 40 40 32.8366 40 24C40 15.1634 32.8366 8 24 8ZM18.7695 17.1543C19.5655 15.9637 21.1791 15.6418 22.373 16.4355L30.5098 21.8447C30.795 22.0344 31.0403 22.2781 31.2305 22.5625C32.0264 23.7531 31.7037 25.3625 30.5098 26.1562L22.373 31.5645C21.9462 31.8482 21.4446 32 20.9316 32C19.4967 32 18.3331 30.84 18.333 29.4092L18.334 18.5908C18.3341 18.0796 18.4852 17.5797 18.7695 17.1543Z" fill="#333333"/>
</svg>
