<svg width="48" height="48" viewBox="0 0 48 48" fill="none" xmlns="http://www.w3.org/2000/svg">
<path fill-rule="evenodd" clip-rule="evenodd" d="M21.8963 7.51829L37.8819 18.1756C38.6508 18.6883 39.3106 19.3481 39.8233 20.117C41.9677 23.3337 41.0985 27.6798 37.8818 29.8243L21.8958 40.4816C20.7459 41.2482 19.3948 41.6573 18.0128 41.6573C14.1468 41.6573 11.0129 38.5232 11.0129 34.6572L11.0133 13.3425C11.0133 11.9605 11.4224 10.6095 12.189 9.45963C14.3335 6.24296 18.6796 5.37379 21.8963 7.51829ZM15.5172 11.6785C15.1886 12.1713 15.0133 12.7503 15.0133 13.3425L15.0129 34.6572C15.0129 36.3141 16.356 37.6573 18.0129 37.6573C18.6052 37.6573 19.1842 37.482 19.677 37.1534L35.663 26.4961C37.0416 25.577 37.4141 23.7144 36.4951 22.3358C36.2754 22.0063 35.9926 21.7235 35.6631 21.5038L19.6774 10.8465C18.3499 9.96144 16.5736 10.2741 15.6231 11.5295L15.5172 11.6785Z" fill="#333333"/>
</svg>
