<svg width="48" height="48" viewBox="0 0 48 48" fill="none" xmlns="http://www.w3.org/2000/svg">
<path fill-rule="evenodd" clip-rule="evenodd" d="M24 8C25.3255 8 26.41 9.03154 26.4947 10.3356L26.5 10.5V22H38C39.3807 22 40.5 23.1193 40.5 24.5C40.5 25.8255 39.4685 26.91 38.1644 26.9947L38 27H26.5V38.5C26.5 39.8807 25.3807 41 24 41C22.6745 41 21.59 39.9685 21.5053 38.6644L21.5 38.5V27H10C8.61929 27 7.5 25.8807 7.5 24.5C7.5 23.1745 8.53154 22.09 9.83562 22.0053L10 22H21.5V10.5C21.5 9.11929 22.6193 8 24 8Z" fill="#333333"/>
</svg>
