<svg width="48" height="48" viewBox="0 0 48 48" fill="none" xmlns="http://www.w3.org/2000/svg">
<path fill-rule="evenodd" clip-rule="evenodd" d="M24 5C34.4934 5 43 13.5066 43 24C43 34.4934 34.4934 43 24 43C13.5066 43 5 34.4934 5 24C5 13.5066 13.5066 5 24 5ZM24 9C15.7157 9 9 15.7157 9 24C9 32.2843 15.7157 39 24 39C32.2843 39 39 32.2843 39 24C39 15.7157 32.2843 9 24 9ZM24 14.5C25.048 14.5 25.9066 15.3109 25.9825 16.3395L25.9879 16.4879L25.9871 22.0113L31.5121 22.0121C32.61 22.0121 33.5 22.9021 33.5 24C33.5 25.048 32.6891 25.9066 31.6605 25.9825L31.5121 25.9879L25.9871 25.9871L25.9879 31.5121C25.9879 32.61 25.0979 33.5 24 33.5C22.952 33.5 22.0934 32.6891 22.0175 31.6605L22.0121 31.5121L22.0113 25.9871L16.4879 25.9879C15.39 25.9879 14.5 25.0979 14.5 24C14.5 22.952 15.3109 22.0934 16.3395 22.0175L16.4879 22.0121L22.0113 22.0113L22.0121 16.4879C22.0121 15.39 22.9021 14.5 24 14.5Z" fill="#333333"/>
</svg>
