<svg width="48" height="48" viewBox="0 0 48 48" fill="none" xmlns="http://www.w3.org/2000/svg">
<path fill-rule="evenodd" clip-rule="evenodd" d="M24 8.5C25.0544 8.5 25.9182 9.31588 25.9945 10.3507L26 10.5V22.5H38C39.1046 22.5 40 23.3954 40 24.5C40 25.5544 39.1841 26.4182 38.1493 26.4945L38 26.5H26V38.5C26 39.6046 25.1046 40.5 24 40.5C22.9456 40.5 22.0818 39.6841 22.0055 38.6493L22 38.5V26.5H10C8.89543 26.5 8 25.6046 8 24.5C8 23.4456 8.81588 22.5818 9.85074 22.5055L10 22.5H22V10.5C22 9.39543 22.8954 8.5 24 8.5Z" fill="#333333"/>
</svg>
