<svg width="48" height="48" viewBox="0 0 48 48" fill="none" xmlns="http://www.w3.org/2000/svg">
<path d="M24 5C34.4934 5 43 13.5066 43 24C43 34.4934 34.4934 43 24 43C13.5066 43 5 34.4934 5 24C5 13.5066 13.5066 5 24 5ZM24 14.5C22.9021 14.5 22.0117 15.3904 22.0117 16.4883V22.0117H16.4883L16.3398 22.0176C15.3112 22.0935 14.5 22.952 14.5 24C14.5 25.0979 15.3904 25.9883 16.4883 25.9883L22.0117 25.9873V31.5117L22.0176 31.6602C22.0935 32.6888 22.952 33.5 24 33.5C25.0979 33.5 25.9883 32.6096 25.9883 31.5117L25.9873 25.9873L31.5117 25.9883L31.6602 25.9824C32.6888 25.9065 33.5 25.048 33.5 24C33.5 22.9021 32.6096 22.0117 31.5117 22.0117H25.9873L25.9883 16.4883L25.9824 16.3398C25.9065 15.3112 25.048 14.5 24 14.5Z" fill="#333333"/>
</svg>
