<svg width="48" height="48" viewBox="0 0 48 48" fill="none" xmlns="http://www.w3.org/2000/svg">
<path d="M13.6982 6.48153C14.5368 5.76272 15.7997 5.85978 16.5185 6.69833C17.2373 7.53695 17.1403 8.79979 16.3017 9.51864L13.4062 12.0001H29C36.7319 12.0001 42.9999 18.2681 43 26.0001C43 33.7321 36.732 40.0001 29 40.0001H11.998C10.8936 39.9999 9.99801 39.1045 9.99801 38.0001C9.99803 36.8957 10.8936 36.0003 11.998 36.0001H29C34.5228 36.0001 39 31.5229 39 26.0001C38.9999 20.4773 34.5228 16.0001 29 16.0001H12.8291L16.414 19.586C17.154 20.326 17.1932 21.5014 16.5312 22.2872L16.414 22.4142C15.633 23.1952 14.367 23.1952 13.5859 22.4142L6.5859 15.4142C5.76216 14.5904 5.81373 13.2397 6.69821 12.4815L13.6982 6.48153Z" fill="#333333"/>
</svg>
