<svg width="48" height="48" viewBox="0 0 48 48" fill="none" xmlns="http://www.w3.org/2000/svg">
<path fill-rule="evenodd" clip-rule="evenodd" d="M24.1927 4.11765C25.8137 4.11765 27.2898 4.9971 28.2531 6.43947C28.7185 7.13671 29.516 7.38062 30.2469 7.07424L30.6296 6.89215C31.2104 6.63424 31.829 6.50143 32.4599 6.50143C35.1386 6.50143 37.2354 8.82381 37.5504 11.7432C37.6984 13.1145 37.2923 14.6154 36.3828 16.2911L36.2064 16.6074L36.099 16.79L36.3561 17.0499C38.7982 19.551 40.439 22.1109 41.2514 24.7394L41.367 25.1342L41.4617 25.4956C42.282 28.8114 41.8982 32.3802 40.3495 36.1777L40.1656 36.6169L39.968 37.0651C39.1482 38.8789 37.6579 40.3048 35.8097 41.0437C33.0062 42.1645 29.0832 42.7028 24 42.7028C19.3429 42.7028 15.5928 42.2503 12.7085 41.3129L12.3372 41.1879L11.9865 41.061C9.89837 40.2785 8.252 38.6292 7.47315 36.5398C5.9752 32.5211 5.70857 28.7978 6.72312 25.4152C7.58867 22.5294 9.26964 19.7462 11.744 17.0615L12.17 16.609L12.0788 16.4486C11.2221 14.9146 10.7813 13.5254 10.7971 12.2465L10.8075 11.9742L10.8283 11.7366C11.1536 8.81909 13.2495 6.50143 15.9255 6.50143C16.6465 6.50143 17.3514 6.67489 18.0037 7.01107C18.7686 7.40611 19.6436 7.17682 20.1325 6.43908C21.0956 4.9971 22.5716 4.11765 24.1927 4.11765ZM33.4058 19.4206L33.2887 19.4767C32.3084 19.9441 31.3223 20.3367 30.3313 20.6546C31.8806 22.3062 32.7826 24.1773 32.9847 26.2472C33.0858 27.2819 32.3289 28.2026 31.2943 28.3037C30.2596 28.4047 29.3389 27.6479 29.2379 26.6132C29.0736 24.9316 28.0841 23.3955 26.1343 21.9544C25.9896 21.8475 25.8647 21.7238 25.7602 21.5879C22.0732 21.9171 18.3297 21.2414 14.56 19.5634C12.4279 21.8624 11.0254 24.1753 10.3291 26.4968C9.56659 29.0391 9.77385 31.9333 11.0008 35.2249C11.3723 36.2216 12.1301 37.0224 13.0805 37.4437L13.287 37.5281L13.5969 37.6403C16.0502 38.4957 19.5268 38.9381 24 38.9381C28.6466 38.9381 32.1309 38.46 34.4121 37.548C35.2841 37.1994 36.0002 36.5516 36.4291 35.7375L36.5303 35.5306L36.7135 35.1151C38.1012 31.8833 38.4486 28.9926 37.8072 26.3997C37.2452 24.128 35.7912 21.7972 33.4058 19.4206ZM24.1927 7.88235C23.9001 7.88235 23.5607 8.08457 23.267 8.52437C21.722 10.8555 18.751 11.6341 16.2776 10.3568C16.1563 10.2942 16.0422 10.2661 15.9255 10.2661C15.3589 10.2661 14.699 10.9959 14.5699 12.1538C14.4936 12.8376 14.9154 13.9998 15.9413 15.5539L16.1179 15.8165L16.4301 16.2724C21.8924 18.6065 27.1299 18.4339 32.2911 15.7694C33.4169 14.1095 33.8854 12.8692 33.8075 12.1471C33.683 10.9939 33.0259 10.2661 32.4599 10.2661C32.3432 10.2661 32.229 10.2942 32.115 10.353C29.6423 11.6409 26.6773 10.8598 25.1221 8.52994C24.8247 8.08457 24.4853 7.88235 24.1927 7.88235Z" fill="#333333"/>
</svg>
