<svg width="48" height="48" viewBox="0 0 48 48" fill="none" xmlns="http://www.w3.org/2000/svg">
<path d="M15 10C19.4183 10 23 13.5817 23 18C23 22.7108 21.8947 26.7634 19.6641 30.1094C17.5118 33.3378 14.976 35.8735 12.0596 37.6963C11.123 38.2813 9.88904 37.9961 9.30371 37.0596C8.71865 36.123 9.0039 34.889 9.94043 34.3037C12.3572 32.7932 14.4884 30.662 16.3359 27.8906C16.82 27.1645 17.2361 26.3903 17.5889 25.5693C16.7767 25.8471 15.9063 26 15 26C10.5817 26 7 22.4183 7 18C7 13.5817 10.5817 10 15 10ZM33 10C37.4183 10 41 13.5817 41 18C41 22.7108 39.8947 26.7634 37.6641 30.1094C35.5118 33.3378 32.976 35.8735 30.0596 37.6963C29.123 38.2813 27.889 37.9961 27.3037 37.0596C26.7187 36.123 27.0039 34.889 27.9404 34.3037C30.3572 32.7932 32.4884 30.662 34.3359 27.8906C34.82 27.1645 35.2361 26.3903 35.5889 25.5693C34.7767 25.8471 33.9063 26 33 26C28.5817 26 25 22.4183 25 18C25 13.5817 28.5817 10 33 10Z" fill="#333333"/>
</svg>
