<svg width="48" height="48" viewBox="0 0 48 48" fill="none" xmlns="http://www.w3.org/2000/svg">
<path d="M9.62151 12.4795C12.7634 9.38776 18.3138 10.7406 23.6108 14.2148C24.3286 14.686 24.4073 16.1513 24.1186 16.96C23.6678 18.2219 22.2957 18.0916 21.1889 17.3359C17.4703 14.7969 14.0652 13.8844 12.4985 15.3183C10.2153 17.4158 12.7492 23.7083 18.1147 29.3867C23.48 35.0649 29.6906 37.9807 31.9741 35.8838C33.4557 34.5257 32.9109 31.3687 30.8715 27.7764C30.2449 26.6726 30.6182 25.2323 31.7641 24.6865C32.6947 24.2433 33.8177 24.5541 34.3237 25.4521C37.2159 30.5856 38.0049 35.9177 35.0795 38.7998C32.2483 41.5877 26.2891 43.8126 20.1703 42.7129C18.047 42.3312 18.3661 42.4312 16.3569 41.5615C14.3478 40.6919 12.5441 39.4388 10.9916 37.9043C2.74926 29.7704 5.32912 16.7256 9.62151 12.4795ZM30.2963 16.0752C31.4762 16.0752 32.4299 17.0363 32.4301 18.166C32.4301 19.2958 31.4763 20.2334 30.2963 20.2334C29.82 20.2333 29.3663 20.0891 29.0033 19.8008C29.321 20.57 29.1849 21.4597 28.6176 22.1328L24.9194 26.3389C24.1252 27.2523 22.7409 27.3246 21.8559 26.4834L21.4242 26.0752L21.2201 25.8584C20.5395 25.0411 20.6985 23.8629 21.5834 23.2139L26.0991 19.8252C26.8025 19.2963 27.778 19.1523 28.6176 19.4648C28.3226 19.0802 28.1635 18.6227 28.1635 18.166C28.1637 17.0125 29.1167 16.0754 30.2963 16.0752ZM29.6616 9.97655C34.2713 10.6185 37.9326 14.1779 38.6215 18.6719C38.7506 19.5142 38.0469 20.21 37.1948 20.21C36.3428 20.2098 35.6682 19.5112 35.4867 18.6787C35.1896 17.3141 34.4961 16.0372 33.4506 15.0176C32.431 14.0094 31.1061 13.3114 29.6567 13.0244C28.8429 12.8633 28.1638 12.2055 28.1635 11.376C28.1635 10.5463 28.8399 9.86238 29.6616 9.97655ZM29.6635 4.60546C37.2723 5.30034 43.3606 11.222 44.1059 18.6689C44.1907 19.5169 43.4913 20.21 42.6391 20.21C41.7869 20.2099 41.1064 19.5156 41.0014 18.6699C40.2829 12.8831 35.5689 8.29807 29.6616 7.62694C28.8374 7.53311 28.1627 6.86949 28.1625 6.04003C28.1625 5.21028 28.8372 4.53001 29.6635 4.60546Z" fill="#333333"/>
</svg>
