<svg width="48" height="48" viewBox="0 0 48 48" fill="none" xmlns="http://www.w3.org/2000/svg">
<path d="M24 5.2002C34.3828 5.20031 42.7997 13.6172 42.7998 24C42.7997 34.3828 34.3828 42.7997 24 42.7998C13.6172 42.7997 5.20026 34.3828 5.2002 24C5.20021 22.8125 5.31092 21.6489 5.52246 20.5195C5.72591 19.4339 6.77081 18.7185 7.85645 18.9219C8.94177 19.1254 9.65725 20.1704 9.4541 21.2559C9.28783 22.1435 9.20021 23.0608 9.2002 24C9.20026 32.1737 15.8263 38.7997 24 38.7998C32.1737 38.7997 38.7997 32.1737 38.7998 24C38.7997 15.8263 32.1737 9.20031 24 9.2002C23.0822 9.20021 22.1852 9.28341 21.3164 9.44238C20.23 9.64111 19.1882 8.92135 18.9893 7.83496C18.7906 6.74853 19.5102 5.70663 20.5967 5.50781C21.7018 5.30559 22.8396 5.20021 24 5.2002ZM8.18555 8.18555C8.9666 7.40456 10.2336 7.40452 11.0146 8.18555L20.3477 17.5195C20.5042 17.6761 20.6279 17.8533 20.7217 18.041C21.6938 17.5051 22.8114 17.2002 24 17.2002C27.7554 17.2003 30.7997 20.2446 30.7998 24C30.7997 27.7554 27.7554 30.7997 24 30.7998C20.2446 30.7997 17.2003 27.7554 17.2002 24C17.2002 22.8114 17.505 21.6939 18.041 20.7217C17.8533 20.6279 17.676 20.5051 17.5195 20.3486L8.18555 11.0146C7.4045 10.2336 7.4045 8.9666 8.18555 8.18555ZM24 21.2002C22.4538 21.2003 21.2003 22.4538 21.2002 24C21.2003 25.5463 22.4537 26.7997 24 26.7998C25.5463 26.7997 26.7997 25.5463 26.7998 24C26.7997 22.4538 25.5462 21.2003 24 21.2002Z" fill="#333333"/>
</svg>
