<svg width="48" height="48" viewBox="0 0 48 48" fill="none" xmlns="http://www.w3.org/2000/svg">
<path d="M33.8184 26.6219C34.5994 25.8409 35.8654 25.8408 36.6465 26.6219L42.3789 32.3533C43.1598 33.1344 43.1599 34.4014 42.3789 35.1824L36.6465 40.9139C35.8655 41.6947 34.5994 41.6947 33.8184 40.9139C33.0375 40.1329 33.0375 38.8668 33.8184 38.0858L35.9043 35.9998H33.2256C31.6554 35.9998 30.1479 35.3839 29.0264 34.285L25.6006 30.9275C24.8119 30.1545 24.7984 28.8883 25.5713 28.0994C26.3443 27.3109 27.6106 27.2985 28.3994 28.0711L31.8252 31.4285C32.199 31.7948 32.7022 31.9998 33.2256 31.9998H36.3672L33.8184 29.45C33.0374 28.669 33.0375 27.4029 33.8184 26.6219ZM33.8184 6.58575C34.5994 5.80478 35.8655 5.80473 36.6465 6.58575L42.3789 12.3182C43.1595 13.0992 43.1597 14.3654 42.3789 15.1463L36.6465 20.8787C35.8656 21.6594 34.5994 21.6593 33.8184 20.8787C33.0373 20.0977 33.0373 18.8307 33.8184 18.0496L36.3682 15.4998H33.4121C32.834 15.4999 32.2841 15.7505 31.9043 16.1863L15.127 35.4412C13.9875 36.7489 12.337 37.4998 10.6025 37.4998H7.5C6.39552 37.4998 5.50014 36.6043 5.5 35.4998C5.5 34.3952 6.39543 33.4998 7.5 33.4998H10.6025C11.1807 33.4998 11.7315 33.2491 12.1113 32.8133L28.8887 13.5584C30.0281 12.2507 31.6777 11.4999 33.4121 11.4998H35.9043L33.8184 9.41387C33.0374 8.63287 33.0374 7.36681 33.8184 6.58575ZM10.4951 9.0877C12.0036 9.13265 13.44 9.74495 14.5176 10.8016L20.4004 16.5721C21.1886 17.3455 21.2008 18.6117 20.4277 19.4002C19.6543 20.1884 18.3881 20.2007 17.5996 19.4275L11.7168 13.658C11.3576 13.3058 10.8788 13.1017 10.376 13.0867L7.44043 12.9988C6.33648 12.9659 5.46827 12.0442 5.50098 10.9402C5.53412 9.83641 6.45566 8.96792 7.55957 9.00079L10.4951 9.0877Z" fill="#333333"/>
</svg>
