<svg width="48" height="48" viewBox="0 0 48 48" fill="none" xmlns="http://www.w3.org/2000/svg">
<path fill-rule="evenodd" clip-rule="evenodd" d="M20.8976 7L21.678 7.01209L22.439 7.03642C22.7728 7.04997 23.101 7.06718 23.4234 7.08812L23.9028 7.12232L24.6061 7.1842C24.984 7.22138 25.3496 7.2622 25.7031 7.30695L26.3945 7.40177C32.0252 8.23709 34.4227 10.2179 35.774 14.6928L40.0185 10.9591C41.2625 9.86474 43.1581 9.98606 44.2525 11.2301C44.6861 11.723 44.9447 12.3428 44.9921 12.9936L45 13.2116V34.7884C45 36.4453 43.6569 37.7884 42 37.7884C41.3435 37.7884 40.7073 37.5732 40.1874 37.1789L40.0185 37.0409L35.7736 33.3069C34.3138 38.1401 31.6329 40.0634 24.9748 40.7764L24.6061 40.8143L23.9028 40.8762C23.5861 40.9008 23.2636 40.9218 22.9355 40.939L22.439 40.9621L21.678 40.9864L20.8976 40.9985H20.1024L19.322 40.9864L18.561 40.9621C18.2272 40.9485 17.899 40.9313 17.5766 40.9104L17.0972 40.8762L16.3939 40.8143C8.69772 40.0572 6.15422 37.7914 4.775 31.5576L4.64295 30.9315L4.51757 30.2794L4.45802 29.9485L4.35519 29.3176L4.26573 28.6686C4.10872 27.421 4.02303 26.0751 4.00406 24.6264L4 23.9992L4.00153 23.6118C4.01207 22.2916 4.07695 21.0557 4.19958 19.9007L4.26573 19.3299L4.35519 18.6809L4.45802 18.05L4.5185 17.7141L4.64393 17.0621L4.77603 16.4363C4.86651 16.0276 4.96199 15.6361 5.06362 15.2608L5.2208 14.7102C6.65234 9.95307 9.2597 8.00837 15.6589 7.26298L16.3939 7.1842L17.0972 7.12232C17.4139 7.09765 17.7364 7.07673 18.0645 7.0595L18.561 7.03642L19.322 7.01209L20.1024 7H20.8976ZM20.5 11L19.7929 11.0046L19.4474 11.0103L18.7723 11.0289L18.4427 11.0419L18.1184 11.0572L17.4852 11.0954L16.8725 11.1438L16.5738 11.1719L16.2801 11.2027L15.7077 11.2722L15.1549 11.3526L14.6216 11.4443L14.0783 11.5514L13.5708 11.6647C10.6306 12.3645 9.54928 13.4426 8.9232 15.7618L8.82283 16.1599L8.72944 16.582C8.71438 16.6544 8.69955 16.7278 8.68492 16.8022L8.5993 17.2618C8.58536 17.3405 8.57155 17.4203 8.55785 17.5012L8.43676 18.2599L8.31678 19.0813L8.27618 19.3696L8.20554 19.9234L8.14579 20.4962L8.11993 20.7899L8.09668 21.0885L8.05793 21.7003L8.02928 22.3321L8.01044 22.9839L8.00462 23.3175L8 24L8.00462 24.6825L8.01044 25.0161L8.02928 25.6679L8.05793 26.2997L8.09668 26.9115L8.11993 27.2101L8.14579 27.5038L8.20554 28.0766L8.27618 28.6304L8.39689 29.4734L8.47677 29.9998L8.55785 30.4988L8.6416 30.9712C8.65586 31.0478 8.67029 31.1233 8.68492 31.1978L8.77535 31.6321C8.79091 31.7024 8.80672 31.7717 8.82283 31.8401L8.9232 32.2382C9.54928 34.5574 10.6306 35.6355 13.5708 36.3353L14.0783 36.4486L14.6216 36.5557L15.1549 36.6474L15.7077 36.7278L16.2801 36.7973L16.5738 36.8281L16.8725 36.8562L17.6415 36.9151L18.4427 36.9581L18.7723 36.9711L19.1072 36.9816L19.7929 36.9954L20.5 37L21.2071 36.9954L21.5526 36.9897L22.2277 36.9711L22.5573 36.9581L22.8816 36.9428L23.5148 36.9046L24.1275 36.8562L24.4262 36.8281L24.7199 36.7973L25.2923 36.7278L25.8451 36.6474L26.3784 36.5557L26.9217 36.4486L27.4292 36.3353C30.3694 35.6355 31.4507 34.5574 32.0768 32.2382L32.1772 31.8401L32.2706 31.418C32.2856 31.3456 32.3005 31.2722 32.3151 31.1978L32.4007 30.7382C32.4146 30.6595 32.4284 30.5797 32.4421 30.4988L32.5632 29.7401L32.6832 28.9187L32.7238 28.6304L32.7945 28.0766L32.8542 27.5038L32.8801 27.2101L32.9033 26.9115L32.9421 26.2997L32.9707 25.6679L32.9896 25.0161L32.9954 24.6825L33 24L32.9954 23.3175L32.9896 22.9839L32.9707 22.3321L32.9421 21.7003L32.9033 21.0885L32.8801 20.7899L32.8542 20.4962L32.7945 19.9234L32.7238 19.3696L32.6031 18.5266L32.5232 18.0002L32.4421 17.5012L32.3584 17.0288C32.3441 16.9522 32.3297 16.8767 32.3151 16.8022L32.2246 16.3679C32.2091 16.2976 32.1933 16.2283 32.1772 16.1599L32.0768 15.7618C31.4507 13.4426 30.3694 12.3645 27.4292 11.6647L26.9217 11.5514L26.3784 11.4443L25.8451 11.3526L25.2923 11.2722L24.7199 11.2027L24.4262 11.1719L24.1275 11.1438L23.3585 11.0849L22.5573 11.0419L22.2277 11.0289L21.8928 11.0184L21.2071 11.0046L20.5 11ZM41 15.422L37.321 18.6595C37.1309 18.8268 36.918 18.9514 36.6939 19.0342L36.7343 19.3299C36.9137 20.7557 37 22.31 37 23.9992C37 25.4774 36.9339 26.8521 36.7972 28.1279L36.7343 28.6686L36.6939 28.9658C36.8666 29.0296 37.0325 29.1182 37.1866 29.232L37.321 29.3405L41 32.577V15.422ZM16.2872 14.4255C17.6679 14.4255 18.7872 15.5448 18.7872 16.9255C18.7872 18.3062 17.6679 19.4255 16.2872 19.4255C14.9065 19.4255 13.7872 18.3062 13.7872 16.9255C13.7872 15.5448 14.9065 14.4255 16.2872 14.4255Z" fill="#333333"/>
</svg>
