<svg width="48" height="48" viewBox="0 0 48 48" fill="none" xmlns="http://www.w3.org/2000/svg">
<path fill-rule="evenodd" clip-rule="evenodd" d="M24 5C34.8935 5 40.0999 8.55844 41.5587 17.6645L41.6123 18.0129L41.7045 18.6915C41.7521 19.074 41.7938 19.4655 41.8297 19.8662L41.8792 20.4742L41.9273 21.2221L41.9631 21.9902L41.9764 22.3819L41.9941 23.1807L42 24L41.9941 24.8193L41.9701 25.8146L41.9631 26.0098L41.9273 26.7779L41.8792 27.5258C41.8491 27.9358 41.8133 28.3365 41.7715 28.728L41.7045 29.3085L41.6123 29.9871C40.2308 39.3509 35.0314 43 24 43C13.1065 43 7.90006 39.4416 6.44133 30.3355L6.38773 29.9871L6.29553 29.3085C6.24788 28.926 6.20617 28.5345 6.17026 28.1338L6.12076 27.5258L6.07272 26.7779L6.03693 26.0098L6.02358 25.6181L6.00587 24.8193L6 24L6.00587 23.1807L6.02988 22.1854L6.03693 21.9902L6.07272 21.2221L6.12076 20.4742C6.15088 20.0642 6.18675 19.6635 6.22849 19.272L6.29553 18.6915L6.38773 18.0129C7.76916 8.6491 12.9686 5 24 5ZM30.6314 21.8001L29.6881 21.9143C28.8892 24.2893 26.6444 26 24 26C21.3682 26 19.1322 24.3056 18.3234 21.9482L18.9458 22.012C15.948 21.7319 12.9991 21.195 10.1238 20.4106L10.1119 20.5522L10.0709 21.1982L10.0395 21.8657L10.0273 22.2076L10.0097 22.9078L10.0011 23.6303V24.3697L10.0097 25.0922L10.0174 25.4451L10.0395 26.1343L10.0709 26.8018L10.1119 27.4478L10.1627 28.0725L10.1919 28.377L10.2237 28.6763L10.295 29.2595L10.3769 29.8224C11.0715 34.218 12.8001 36.7116 16.1645 37.9589L16.4409 38.0574L16.8839 38.1994C17.3659 38.3441 17.878 38.4671 18.4218 38.5702L18.8356 38.6438L19.3697 38.7254L19.9228 38.7958L20.4952 38.8552L21.0872 38.9041L21.3906 38.9246L22.0123 38.958L22.6543 38.9815L23.3168 38.9954L24 39L24.6832 38.9954L25.3457 38.9815L25.9876 38.958L26.301 38.9426L26.9128 38.9041L27.5048 38.8552L28.0772 38.7958L28.6303 38.7254L29.1644 38.6438C29.7241 38.5506 30.2518 38.4379 30.7489 38.3039L31.1161 38.1994L31.5591 38.0574C35.0124 36.8769 36.8136 34.4679 37.5645 30.1746L37.6231 29.8224L37.705 29.2595L37.7763 28.6763L37.8081 28.377L37.8373 28.0725L37.8881 27.4478L37.9291 26.8018L37.9605 26.1343L37.9727 25.7924L37.9933 24.9136L38 24L37.9903 22.9078L37.9826 22.5549L37.9605 21.8657L37.9291 21.1982L37.8881 20.5522L37.8701 20.3248C35.5033 20.9864 33.0858 21.48 30.6314 21.8001ZM24 18C22.8954 18 22 18.8954 22 20C22 21.1046 22.8954 22 24 22C25.1046 22 26 21.1046 26 20C26 18.8954 25.1046 18 24 18ZM24 9L23.3168 9.00457L22.6543 9.01847L22.0124 9.04199L21.699 9.05744L21.0872 9.09594L20.4952 9.14477L19.9228 9.20424L19.3697 9.27464L18.8356 9.35625C18.2759 9.44938 17.7482 9.56215 17.2511 9.69613L16.8839 9.80062L16.4409 9.94265C13.3822 10.9882 11.6196 12.9977 10.7349 16.4266C13.2235 17.1336 15.7738 17.6367 18.3669 17.931C19.2104 15.6358 21.4142 14 24 14C26.5726 14 28.7671 15.6191 29.62 17.894C32.2109 17.5849 34.758 17.0654 37.2428 16.3445C36.3801 13.0737 34.7052 11.1092 31.8487 10.046L31.5591 9.94265L31.1161 9.80062C30.6341 9.65593 30.122 9.53285 29.5782 9.4298L29.1644 9.35625L28.6303 9.27464L28.0772 9.20424L27.5048 9.14477L26.9128 9.09594L26.6094 9.07541L25.9876 9.04199L25.3457 9.01847L24.6832 9.00457L24 9Z" fill="#333333"/>
</svg>
