<svg width="48" height="48" viewBox="0 0 48 48" fill="none" xmlns="http://www.w3.org/2000/svg">
<path fill-rule="evenodd" clip-rule="evenodd" d="M39.1182 31.3587C40.0289 31.9837 40.2605 33.2287 39.6354 34.1394C35.2342 40.5517 27.2482 43.5889 19.6408 41.5505C12.0555 39.5181 6.66574 32.927 6.0355 25.1986C5.92709 23.8692 7.12029 22.8232 8.40362 23.0712L8.54652 23.1041L16.4454 25.2207C17.5124 25.5065 18.1455 26.6032 17.8596 27.6701C17.5868 28.6886 16.5751 29.3118 15.5558 29.1177L15.4102 29.0844L10.562 27.7849L10.6494 28.0735C12.076 32.5894 15.6544 36.2206 20.3539 37.5965L20.676 37.6868C26.6308 39.2824 32.887 36.903 36.3375 31.8758C36.9626 30.9652 38.2075 30.7336 39.1182 31.3587ZM28.9281 6.46231C37.0182 8.63006 42.6175 15.8714 42.766 24.0921C42.7892 25.3727 41.6248 26.3311 40.3913 26.0929L40.2487 26.0601L31.9335 23.832C30.8665 23.5461 30.2334 22.4495 30.5193 21.3825C30.7921 20.3641 31.8038 19.7409 32.8231 19.935L32.9687 19.9683L38.4561 21.4382L38.4118 21.2304C37.2619 16.1546 33.4259 11.9407 28.2199 10.4177L27.8928 10.326C21.55 8.62648 14.9127 11.3352 11.5801 16.8345C11.0076 17.7791 9.77772 18.0808 8.83308 17.5084C7.88844 16.9359 7.58673 15.706 8.1592 14.7614C12.4093 7.74818 20.8585 4.30007 28.9281 6.46231Z" fill="#333333"/>
</svg>
