<svg width="48" height="48" viewBox="0 0 48 48" fill="none" xmlns="http://www.w3.org/2000/svg">
<path d="M35.9254 31.5926C36.7068 30.4547 38.2623 30.1655 39.4005 30.9466C40.5387 31.7278 40.8285 33.2836 40.0475 34.4219C35.5275 41.0073 27.3255 44.1267 19.5116 42.0332C11.7205 39.9455 6.18459 33.1765 5.53717 25.2396C5.40118 23.5719 6.90379 22.261 8.51448 22.5838L8.67541 22.6208L16.5745 24.7374C17.9081 25.0947 18.6994 26.4656 18.3423 27.7992C17.9992 29.0795 16.7217 29.8605 15.4401 29.6047L15.2804 29.567L11.3245 28.506L11.3501 28.5765C12.854 32.6296 16.1842 35.8523 20.4888 37.1146L20.8057 37.2035C26.5537 38.7435 32.5939 36.4465 35.9254 31.5926ZM29.0569 5.97927C37.3635 8.20501 43.113 15.6406 43.2656 24.0832C43.2946 25.69 41.8275 26.8913 40.2791 26.5809L40.1194 26.5431L31.8033 24.3149C30.4699 23.9573 29.6783 22.5865 30.0356 21.253C30.3786 19.9727 31.6562 19.1918 32.9377 19.4475L33.0974 19.4852L37.7717 20.7367L37.7552 20.6736C36.472 16.074 32.8806 12.3043 28.0844 10.8991L27.7628 10.8089C21.636 9.16736 15.2255 11.7837 12.0076 17.0937C11.292 18.2745 9.75473 18.6513 8.57396 17.9359C7.39315 17.2203 7.0162 15.6831 7.73179 14.5023C12.0966 7.30005 20.7716 3.75937 29.0569 5.97927Z" fill="#333333"/>
</svg>
