<svg width="48" height="48" viewBox="0 0 48 48" fill="none" xmlns="http://www.w3.org/2000/svg">
<path d="M24 6C28.8372 6 33.375 7.91988 36.7275 11.2725C37.0655 11.6104 37.4931 12.0605 38 12.6035V10C38 8.9457 38.8158 8.08229 39.8506 8.00586L40 8C41.1046 8 42 8.89543 42 10V18C42 19.1046 41.1046 20 40 20H32C30.8954 20 30 19.1046 30 18C30 16.8954 30.8954 16 32 16H35.6963C34.9402 15.1788 34.3234 14.5245 33.8994 14.1006C31.2896 11.4907 27.7654 10 24 10C16.268 10 10 16.268 10 24C10 31.732 16.268 38 24 38C27.7654 38 31.2896 36.5093 33.8994 33.8994C34.6804 33.1184 35.9465 33.1186 36.7275 33.8994C37.5086 34.6805 37.5086 35.9465 36.7275 36.7275C33.375 40.0801 28.8372 42 24 42C14.0589 42 6 33.9411 6 24C6 14.0589 14.0589 6 24 6Z" fill="#333333"/>
</svg>
