<svg width="48" height="48" viewBox="0 0 48 48" fill="none" xmlns="http://www.w3.org/2000/svg">
<path fill-rule="evenodd" clip-rule="evenodd" d="M22.4454 24.1176C23.2089 24.9158 23.1807 26.1818 22.3825 26.9453C21.6263 27.6686 20.4503 27.6814 19.6794 27.0021L19.5548 26.8824L8.55479 15.3824C7.37371 14.1477 8.1884 12.1234 9.847 12.0054L10.0001 12H26.0001C33.6491 12 39.8332 18.3586 39.9968 26.2257L40.0001 26.5455V37C40.0001 38.1046 39.1046 39 38.0001 39C36.9457 39 36.0819 38.1841 36.0056 37.1493L36.0001 37V26.5455C36.0001 20.7994 31.6512 16.157 26.2743 16.0039L26.0001 16H14.6801L22.4454 24.1176Z" fill="#333333"/>
</svg>
