<svg width="48" height="48" viewBox="0 0 48 48" fill="none" xmlns="http://www.w3.org/2000/svg">
<path fill-rule="evenodd" clip-rule="evenodd" d="M9.2521 39.4196C10.2048 39.8714 11.3348 39.5043 11.8472 38.6019L11.9161 38.4694L16.9518 27.8497L17.0724 27.5612C17.4126 26.8406 18.353 26.4524 19.3189 26.729L19.4801 26.7813L23.2357 28.1483L23.4462 28.2208C26.3983 29.1806 29.599 27.8452 30.7374 25.0674L30.817 24.8616L34.4906 15.0223L36.4646 19.2534L36.5327 19.3864C37.0392 20.292 38.1669 20.6664 39.1225 20.2208C40.0708 19.7786 40.5095 18.6873 40.1561 17.7225L40.0898 17.563L36.6986 10.2904L36.6195 10.1328C35.9024 8.80196 34.3007 8.21386 32.8941 8.76144L32.7118 8.83933L25.4437 12.2285L25.3107 12.2966C24.4554 12.775 24.074 13.8074 24.4096 14.7256L24.4763 14.8864L24.5444 15.0193C25.0228 15.8746 26.0552 16.2561 26.9734 15.9205L27.1342 15.8537L30.4966 14.2858L27.064 23.4779L27.0145 23.5968C26.6703 24.3299 25.7302 24.7187 24.7648 24.4418L24.6038 24.3895L20.8475 23.0223L20.6369 22.9499C17.757 22.0145 14.6416 23.2618 13.4327 25.9008L13.3435 26.1065L13.3086 26.1963L8.30188 36.7556L8.24289 36.8928C7.86848 37.8606 8.29942 38.9679 9.2521 39.4196Z" fill="#333333"/>
</svg>
