<svg width="48" height="48" viewBox="0 0 48 48" fill="none" xmlns="http://www.w3.org/2000/svg">
<path fill-rule="evenodd" clip-rule="evenodd" d="M20.4444 10.6397C20.4444 8.34477 22.5191 6.54575 24.8524 7.10174C26.1129 7.40203 27.1387 8.44032 27.4453 9.72702C27.8402 11.379 27.1281 12.8854 25.9245 13.6832L25.7778 13.7755V16.3635C32.2987 17.1069 37.3333 21.8588 37.3333 27.6253C37.3333 33.9087 31.3636 39 24 39C16.6356 39 10.6667 33.9087 10.6667 27.6253C10.6667 21.9489 15.5452 17.2557 21.9177 16.4012L22.2222 16.3635V13.7755C21.1636 13.144 20.4444 11.9838 20.4444 10.6397ZM5.85436 18.6886C6.26831 17.7872 7.2939 17.41 8.14534 17.8514C8.9951 18.2909 9.34931 19.3769 8.93453 20.2792C6.85641 24.8014 6.92287 29.1827 9.13813 33.6773C9.57647 34.5653 9.25171 35.662 8.41289 36.1265C8.15965 36.2674 7.88789 36.3333 7.62035 36.3333C7.00364 36.3333 6.40713 35.9785 6.10088 35.3579C3.38502 29.8496 3.30173 24.2415 5.85436 18.6886ZM39.9233 17.8302C40.7863 17.4128 41.8063 17.8222 42.1989 18.7413C43.3667 21.48 44 23.5635 44 26.7232C44 30.1602 43.2409 32.4744 41.9296 35.3109C41.6306 35.9581 41.0202 36.3333 40.386 36.3333C40.131 36.3333 39.8726 36.2723 39.6286 36.1457C38.7758 35.7005 38.4245 34.6054 38.8433 33.6988C39.9824 31.2347 40.5608 29.4789 40.5608 26.7232C40.5608 24.199 40.0787 22.6245 39.0662 20.2494C38.6744 19.3302 39.0578 18.2476 39.9233 17.8302ZM19.5556 23.0454C19.5732 22.871 19.3596 22.8019 19.2494 22.9146L19.2169 22.959L16.248 28.6618H17.7778V32.3745C17.9216 32.5468 18.1483 32.6162 18.2612 32.5088L18.2978 32.46L21.1813 26.8418H19.5556V23.0454ZM30.2222 22.9653C30.2558 22.7909 30.0439 22.7219 29.9338 22.8352L29.9013 22.8798L26.9324 28.6618H28.4444V32.2944C28.604 32.4667 28.8318 32.5354 28.9453 32.4284L28.9822 32.3799L31.8658 26.8418H30.2222V22.9653Z" fill="#333333"/>
</svg>
