<svg width="48" height="48" viewBox="0 0 48 48" fill="none" xmlns="http://www.w3.org/2000/svg">
<path fill-rule="evenodd" clip-rule="evenodd" d="M21.2377 11.0978C21.5406 11.0978 21.838 11.1011 22.1301 11.1077L22.5641 11.12L23.2001 11.148C23.6704 11.1733 24.1256 11.2083 24.566 11.2533L25.0016 11.3016L25.5671 11.3766C31.4891 12.238 34.5026 15.1627 35.6097 21.0651L35.6703 21.4024L35.7622 21.977L35.8431 22.5694L35.9132 23.1798L35.9443 23.4918L35.9728 23.8084L36.022 24.4553L36.0609 25.1207L36.0899 25.8048L36.1123 26.6864L36.1197 27.5978L36.1123 28.5092L36.0899 29.3909L36.0609 30.075L36.0106 30.9038L35.9987 31.0662L35.9443 31.7039L35.9132 32.0159L35.8431 32.6263L35.7622 33.2187L35.6703 33.7933C34.6349 39.8084 31.7118 42.8285 25.8992 43.7681L25.5671 43.8191L25.0016 43.8941C24.5709 43.9458 24.1257 43.9873 23.6654 44.0191L23.2001 44.0476L22.5641 44.0756C22.1341 44.0905 21.692 44.0978 21.2377 44.0978L20.8922 44.0964L20.5513 44.092L19.883 44.0744L19.2325 44.045L18.5998 44.0034C10.8198 43.4099 7.13205 39.971 6.15402 32.3761L6.10949 32.0113L6.04366 31.3826L5.97733 30.5713L5.92846 29.7315L5.91373 29.3875L5.90172 29.0389L5.88579 28.3277L5.88184 27.9651V27.2305L5.88579 26.8679L5.90172 26.1568L5.91373 25.8082L5.92846 25.4642L5.97733 24.6244L6.04366 23.8131L6.10949 23.1844C7.00185 15.4572 10.582 11.9069 18.2324 11.2227L18.5998 11.1922L19.2325 11.1507L19.883 11.1212L20.5513 11.1037L21.2377 11.0978ZM21.2377 15.0978L20.9436 15.0989L20.3696 15.1073L19.678 15.13L19.0148 15.1669L18.5044 15.207L18.0116 15.2568L17.5362 15.3166L17.0779 15.3867C13.3553 16.0105 11.3668 17.7239 10.4757 21.2811L10.4059 21.5736L10.3105 22.0246L10.2667 22.257L10.1867 22.7358L10.1166 23.2335L10.0851 23.4895L10.0293 24.0161L9.98283 24.5623L9.96297 24.8428L9.92989 25.419L9.90545 26.0155L9.8894 26.6327L9.8815 27.2708V27.9248L9.8894 28.563L9.90545 29.1802L9.92989 29.7767L9.94533 30.0673L9.98283 30.6334L10.0561 31.4453L10.1166 31.9622L10.1867 32.4598L10.2667 32.9386L10.3105 33.171L10.4059 33.6221C11.2381 37.2794 13.1505 39.0727 16.7799 39.756L17.0779 39.8089L17.5362 39.8791L18.0116 39.9389L18.5044 39.9887L19.1452 40.0373L19.814 40.0713L20.5113 40.0913L21.2377 40.0978L21.8029 40.094L22.3495 40.0823L22.8779 40.0624L23.513 40.0256L24.1205 39.9749C28.3742 39.5601 30.5417 38.0267 31.4933 34.3401L31.5592 34.0731L31.6542 33.6407L31.7394 33.1899L31.8153 32.7204L31.8821 32.2318L31.9399 31.7238L31.9892 31.196L32.0302 30.6483L32.0701 29.9349L32.098 29.1892L32.1163 28.2505L32.1196 27.5978L32.112 26.6269L32.098 26.0065L32.0883 25.7043L32.0631 25.1155L32.0302 24.5474L31.9892 23.9996L31.9399 23.4719L31.8821 22.9639L31.8153 22.4753L31.7394 22.0057L31.6542 21.5549L31.5592 21.1225C30.665 17.3329 28.5756 15.7209 24.4208 15.2523L24.1205 15.2208L23.513 15.17L22.8779 15.1332L22.3495 15.1133L21.8029 15.1017L21.2377 15.0978ZM29.2635 2.26496C29.6792 1.91875 30.2938 1.93627 30.6902 2.32479C30.8659 2.49702 30.9777 2.72389 31.0092 2.96727L31.0182 3.09016L31.0553 5.19101C38.1933 5.1149 44.0653 10.8149 44.1901 17.9634C44.2094 19.0678 43.3297 19.9787 42.2253 19.998C41.1209 20.0173 40.21 19.1376 40.1907 18.0332C40.107 13.2409 36.2925 9.38896 31.564 9.19772L31.3004 9.19088L31.1254 9.19184L31.1547 10.9083L31.1504 11.0272C31.1017 11.5744 30.6533 12.0076 30.0997 12.0172C29.8556 12.0215 29.6185 11.9412 29.4267 11.7917L29.3347 11.7112L25.4154 7.86932L25.3303 7.77569C25.0174 7.38879 25.0056 6.83231 25.3004 6.43251L25.3885 6.3276L29.1713 2.3513L29.2635 2.26496Z" fill="#333333"/>
</svg>
