<svg width="48" height="48" viewBox="0 0 48 48" fill="none" xmlns="http://www.w3.org/2000/svg">
<path d="M11.5858 9.58579C12.3668 8.80474 13.6329 8.80474 14.4139 9.58579L18.4139 13.5858C19.195 14.3668 19.195 15.6329 18.4139 16.4139C17.6329 17.195 16.3668 17.195 15.5858 16.4139L14.9998 15.828V32.1707L15.5858 31.5858C16.3668 30.8047 17.6329 30.8047 18.4139 31.5858C19.195 32.3668 19.195 33.6329 18.4139 34.4139L14.4139 38.4139C13.6329 39.195 12.3668 39.195 11.5858 38.4139L7.58579 34.4139C6.80474 33.6329 6.80474 32.3668 7.58579 31.5858L7.71274 31.4686C8.49853 30.8066 9.67398 30.8459 10.4139 31.5858L10.9998 32.1707V15.828L10.4139 16.4139C9.67398 17.1538 8.49853 17.1931 7.71274 16.5311L7.58579 16.4139C6.80474 15.6329 6.80474 14.3668 7.58579 13.5858L11.5858 9.58579ZM31.4207 33.9998C32.5253 33.9998 33.4207 34.8953 33.4207 35.9998C33.4207 37.1044 32.5253 37.9998 31.4207 37.9998H22.9998C21.8953 37.9998 20.9998 37.1044 20.9998 35.9998C20.9998 34.8953 21.8953 33.9998 22.9998 33.9998H31.4207ZM38.9998 25.9998C40.1044 25.9998 40.9998 26.8953 40.9998 27.9998C40.9998 29.1044 40.1044 29.9998 38.9998 29.9998H22.9998C21.8953 29.9998 20.9998 29.1044 20.9998 27.9998C20.9998 26.8953 21.8953 25.9998 22.9998 25.9998H38.9998ZM31.4207 17.9998C32.5253 17.9998 33.4207 18.8953 33.4207 19.9998C33.4207 21.1044 32.5253 21.9998 31.4207 21.9998H22.9998C21.8953 21.9998 20.9998 21.1044 20.9998 19.9998C20.9998 18.8953 21.8953 17.9998 22.9998 17.9998H31.4207ZM38.9998 9.99985C40.1044 9.99985 40.9998 10.8953 40.9998 11.9998C40.9998 13.1044 40.1044 13.9998 38.9998 13.9998H22.9998C21.8953 13.9998 20.9998 13.1044 20.9998 11.9998C20.9998 10.8953 21.8953 9.99985 22.9998 9.99985H38.9998Z" fill="#333333"/>
</svg>
