<svg width="48" height="48" viewBox="0 0 48 48" fill="none" xmlns="http://www.w3.org/2000/svg">
<path fill-rule="evenodd" clip-rule="evenodd" d="M39 27.8731C40.0544 27.8731 40.9182 28.689 40.9945 29.7239L41 29.8731V34C41 37.7855 37.9952 40.8691 34.2407 40.9959L34 41H30C28.8954 41 28 40.1046 28 39C28 37.9456 28.8159 37.0818 29.8507 37.0055L30 37H34C35.5977 37 36.9037 35.7511 36.9949 34.1763L37 34V29.8731C37 28.7685 37.8954 27.8731 39 27.8731ZM9 28C10.0544 28 10.9182 28.8159 10.9945 29.8507L11 30V34C11 35.5977 12.2489 36.9037 13.8237 36.9949L14 37H18.0244C19.1289 37 20.0244 37.8954 20.0244 39C20.0244 40.0544 19.2085 40.9182 18.1736 40.9945L18.0244 41H14C10.2145 41 7.1309 37.9952 7.00406 34.2407L7 34V30C7 28.8954 7.89543 28 9 28ZM33 21.9996C34.1046 21.9996 35 22.895 35 23.9996C35 25.0539 34.1841 25.9177 33.1493 25.9941L33 25.9996H15C13.8954 25.9996 13 25.1041 13 23.9996C13 22.9452 13.8159 22.0814 14.8507 22.005L15 21.9996H33ZM34 7C37.7855 7 40.8691 10.0048 40.9959 13.7594L41 14V18.0329C41 19.1375 40.1046 20.0329 39 20.0329C37.9456 20.0329 37.0818 19.217 37.0055 18.1822L37 18.0329V14C37 12.4023 35.7511 11.0963 34.1763 11.0051L34 11H30C28.8954 11 28 10.1046 28 9C28 7.94564 28.8159 7.08183 29.8507 7.00549L30 7H34ZM18.0244 7C19.1289 7 20.0244 7.89543 20.0244 9C20.0244 10.0544 19.2085 10.9182 18.1736 10.9945L18.0244 11H14C12.4023 11 11.0963 12.2489 11.0051 13.8237L11 14V18.0195C11 19.124 10.1046 20.0195 9 20.0195C7.94564 20.0195 7.08183 19.2036 7.00549 18.1687L7 18.0195V14C7 10.2145 10.0048 7.1309 13.7594 7.00406L14 7H18.0244Z" fill="#333333"/>
</svg>
