<svg width="48" height="48" viewBox="0 0 48 48" fill="none" xmlns="http://www.w3.org/2000/svg">
<path fill-rule="evenodd" clip-rule="evenodd" d="M36.842 6C38.4989 6 39.842 7.34315 39.842 9C39.842 9.71021 39.5901 10.3974 39.131 10.9393L39.0557 11.0232L38.9757 11.1028L30.7198 18.872L30.6598 18.95C30.4565 19.2382 30.333 19.5751 30.3018 19.9263L30.294 20.103V43C30.294 44.1046 29.3986 45 28.294 45C27.2397 45 26.3759 44.1841 26.2995 43.1493L26.294 43V20.103C26.294 18.6826 26.7979 17.3082 27.7161 16.2245L27.7914 16.1405L27.8714 16.0609L34.3108 10H13.6878L20.1284 16.0609C20.1558 16.0867 20.1825 16.1133 20.2084 16.1405L20.2837 16.2245C21.1406 17.236 21.6368 18.5006 21.6991 19.8196L21.7058 20.103L21.7058 35.546L23.9149 37.207C24.7537 37.8374 24.9562 39.0005 24.4054 39.8723L24.3121 40.0074C23.6817 40.8462 22.5186 41.0487 21.6468 40.4978L21.5117 40.4046L18.5042 38.1443C18.0472 37.8008 17.7613 37.2802 17.713 36.7159L17.7058 36.5455V20.103C17.7058 19.6887 17.5772 19.2862 17.34 18.95L17.2778 18.87L9.02407 11.1028C8.99668 11.077 8.97003 11.0505 8.94414 11.0232L8.86883 10.9393C7.79781 9.67511 7.95437 7.78208 9.21852 6.71105C9.70621 6.29787 10.3116 6.05246 10.9455 6.00751L11.1578 6H36.842Z" fill="#333333"/>
</svg>
