<svg width="48" height="48" viewBox="0 0 48 48" fill="none" xmlns="http://www.w3.org/2000/svg">
<path fill-rule="evenodd" clip-rule="evenodd" d="M11.6401 15.7559C15.3886 8.91333 23.4493 5.45802 31.1676 7.52615C40.3431 9.98469 45.8238 19.3264 43.3921 28.4014C40.9605 37.4764 31.5432 42.8262 22.3678 40.3676C21.3009 40.0817 20.6677 38.9851 20.9536 37.9181C21.2395 36.8512 22.3361 36.218 23.4031 36.5039C30.4566 38.3939 37.6718 34.2951 39.5284 27.3661C41.385 20.4371 37.1859 13.2798 30.1324 11.3898C24.864 9.97819 19.3991 11.9082 16.2348 16.0148C17.1769 16.1244 17.9182 16.8883 17.9937 17.8398L18 18L17.999 31.9995L25 32C26.0544 32 26.9182 32.8159 26.9945 33.8507L27 34C27 35.0544 26.1841 35.9182 25.1493 35.9945L25 36H13.5921C8.27044 36 4 31.5001 4 26C4 21.2616 7.16955 17.2655 11.4502 16.2496C11.4895 16.0814 11.5528 15.9153 11.6401 15.7559ZM13.999 31.9995V19.9995L13.5921 20C10.5277 20 8 22.6636 8 26C8 29.2588 10.4115 31.8757 13.3792 31.9957L13.5921 32L13.999 31.9995ZM26 18C27.1046 18 28 18.8954 28 20V22C28 23.1046 27.1046 24 26 24C24.8954 24 24 23.1046 24 22V20C24 18.8954 24.8954 18 26 18ZM34 18C35.1046 18 36 18.8954 36 20V22C36 23.1046 35.1046 24 34 24C32.8954 24 32 23.1046 32 22V20C32 18.8954 32.8954 18 34 18Z" fill="#333333"/>
</svg>
