<svg width="48" height="48" viewBox="0 0 48 48" fill="none" xmlns="http://www.w3.org/2000/svg">
<path fill-rule="evenodd" clip-rule="evenodd" d="M23.7289 6.71366C24.8335 6.71366 25.7289 7.60909 25.7289 8.71366C25.7289 9.81823 24.8335 10.7137 23.7289 10.7137L23.3801 10.7148L22.6989 10.7237L22.0394 10.7418L21.4013 10.7695C21.1922 10.7803 20.9865 10.7928 20.7844 10.807L20.1882 10.8545L19.6125 10.9125L19.3323 10.9454L18.7869 11.0195C13.5212 11.8022 11.1252 14.1983 10.3425 19.4641L10.2684 20.0095L10.2354 20.2898L10.1775 20.8654L10.1299 21.4616L10.11 21.7675L10.0708 22.5552L10.0467 23.3762L10.0377 24.0574V24.7551L10.0467 25.4362L10.0648 26.0957L10.0925 26.7338C10.1033 26.943 10.1158 27.1486 10.1299 27.3508L10.1775 27.947L10.2354 28.5227L10.2684 28.8029L10.3425 29.3483C10.3955 29.7053 10.456 30.0491 10.5243 30.3801L10.6326 30.8671C11.5469 34.6867 13.6136 36.6916 17.5092 37.5582L18.0057 37.6606C18.3431 37.725 18.6934 37.7817 19.0571 37.8311L19.6125 37.8997C19.7067 37.9103 19.8018 37.9204 19.8978 37.93L20.4837 37.9827C20.6824 37.9986 20.8845 38.0127 21.0902 38.0252L21.8779 38.0643L22.6989 38.0885L23.0368 38.0941L23.7289 38.0985L24.4211 38.0941L25.4184 38.0704L26.0565 38.0427C26.2657 38.0319 26.4713 38.0194 26.6735 38.0052L27.2697 37.9577L27.5601 37.93L28.1256 37.8668C28.5884 37.8096 29.0304 37.7411 29.4522 37.6606L29.9487 37.5582C33.8443 36.6916 35.911 34.6867 36.8252 30.8671L36.9336 30.3801C37.0019 30.0491 37.0623 29.7053 37.1154 29.3483L37.1895 28.8029L37.2224 28.5227L37.2804 27.947L37.3054 27.6515L37.357 26.89L37.3931 26.0957L37.4112 25.4362L37.4201 24.7551L37.4204 20.854C37.4109 19.7495 38.2985 18.8463 39.403 18.8367C40.4573 18.8275 41.3282 19.6359 41.4135 20.6701L41.4203 20.8193L41.4212 24.4062L41.4153 25.1766L41.3974 25.9275L41.3674 26.6589L41.3251 27.3711C41.2928 27.8395 41.2522 28.2951 41.2031 28.7383L41.123 29.3937C40.1569 36.6082 36.7742 40.343 29.9716 41.6012L29.3532 41.7073C29.144 41.7405 28.9318 41.7715 28.7164 41.8003L28.061 41.8804C27.5071 41.9418 26.9335 41.9899 26.3401 42.0251L25.6183 42.0612L24.8772 42.0852L24.1166 42.0971H23.3413L22.5807 42.0852L21.8396 42.0612L21.1178 42.0251C20.5243 41.9899 19.9508 41.9418 19.3968 41.8804L18.7414 41.8003C18.5261 41.7715 18.3138 41.7405 18.1046 41.7073L17.4863 41.6012C11.5975 40.512 8.27146 37.5669 6.85743 32.1151L6.71795 31.5422L6.59194 30.9512L6.53394 30.6489L6.42786 30.0305C6.39469 29.8213 6.36369 29.6091 6.33486 29.3937L6.25477 28.7383C6.20565 28.2951 6.16504 27.8395 6.13272 27.3711L6.09044 26.6589C6.0784 26.4183 6.06841 26.1745 6.06043 25.9275L6.04255 25.1766L6.03662 24.4062L6.04255 23.6358L6.06043 22.885C6.06841 22.638 6.0784 22.3942 6.09044 22.1536L6.13272 21.4414C6.16504 20.973 6.20566 20.5173 6.25477 20.0741L6.33486 19.4187C6.3637 19.2033 6.39469 18.9911 6.42786 18.7819L6.53395 18.1635C7.71708 11.767 11.0898 8.39416 17.4863 7.211L18.1047 7.10491C18.3138 7.07174 18.5261 7.04075 18.7415 7.01191L19.3969 6.93182C19.84 6.8827 20.2957 6.84209 20.7641 6.80977L21.4763 6.76748C21.7169 6.75544 21.9607 6.74545 22.2077 6.73747L22.9585 6.71959L23.7289 6.71366ZM39.6649 7.44554C41.5453 7.44554 42.3617 9.78295 40.9693 10.9624L40.4604 11.3585L40.2161 11.5557C39.6803 11.9927 39.0796 12.5129 38.4303 13.1135C36.5658 14.8379 34.6983 16.8504 32.9571 19.1261C30.8656 21.8595 29.1025 24.7875 27.772 27.8881C27.3365 28.9031 26.1605 29.3729 25.1454 28.9373C24.1304 28.5017 23.6606 27.3258 24.0962 26.3107C25.5645 22.889 27.4971 19.6795 29.7804 16.6954C31.1537 14.9005 32.5974 13.2588 34.0614 11.7766L34.393 11.445L32.0883 11.4455C31.0339 11.4455 30.1701 10.6297 30.0938 9.5948L30.0883 9.44554C30.0883 8.39118 30.9042 7.52738 31.939 7.45103L32.0883 7.44554H39.6649Z" fill="#333333"/>
</svg>
