<svg width="48" height="48" viewBox="0 0 48 48" fill="none" xmlns="http://www.w3.org/2000/svg">
<path fill-rule="evenodd" clip-rule="evenodd" d="M35.963 5.33334C39.7959 5.33334 42.8722 8.50769 42.9961 12.4211L43 12.6667V17.3333L42.8979 17.3338C42.5763 19.4124 41.5156 21.2408 39.9998 22.5072L40 34.3333C40 39.2151 36.1132 43.1891 31.2654 43.3295L31 43.3333H17C12.1182 43.3333 8.14421 39.4465 8.00384 34.5987L8 34.3333L7.99959 22.5158C6.48369 21.249 5.42302 19.417 5.10186 17.3343L5 17.3333V12.6667C5 8.72348 7.998 5.46865 11.7985 5.33745L12.037 5.33334H35.963ZM29.0027 21.5159L28.913 21.6225C27.5108 23.2273 25.5139 24.2591 23.2737 24.3295L23.0286 24.3333H12.9714C12.6423 24.3333 12.318 24.3126 11.9997 24.2723L12 34.3333C12 37.0221 14.1223 39.2152 16.7831 39.3287L17 39.3333H18V33.556C18 30.3705 20.9998 28 24.5 28C27.9207 28 30.8634 30.264 30.9954 33.3401L31 33.556V39.3333L31.2229 39.3285C33.809 39.215 35.885 37.1371 35.9954 34.5502L36 34.3333L35.9998 24.2691C35.6725 24.3115 35.3388 24.3333 35 24.3333C32.6033 24.3333 30.4645 23.2409 29.0027 21.5159ZM24.5 32C23.0936 32 22.0904 32.7445 22.0058 33.4589L22 33.556V39.3333H27V33.556C27 32.8137 25.9703 32 24.5 32ZM35.963 9.33334H12.037C10.443 9.33334 9.09591 10.7015 9.0049 12.4751L9 12.6667V16C9 18.3454 10.6975 20.2168 12.7755 20.3281L12.9714 20.3333H23.0286C25.1291 20.3333 26.8903 18.533 26.9951 16.2185L27 16C27 14.8954 27.8954 14 29 14C30.1046 14 31 14.8954 31 16C31 18.4167 32.8158 20.3333 35 20.3333C37.118 20.3333 38.8896 18.5311 38.995 16.2183L39 16V12.6667C39 10.8653 37.7078 9.43503 36.1328 9.33853L35.963 9.33334Z" fill="#333333"/>
</svg>
