<svg width="48" height="48" viewBox="0 0 48 48" fill="none" xmlns="http://www.w3.org/2000/svg">
<path d="M31.034 7C35.027 7 38.4085 9.94439 38.9579 13.8994L41.7362 33.8994C42.4042 38.709 38.668 42.9998 33.8123 43H14.1873C9.33171 42.9997 5.59553 38.709 6.26352 33.8994L9.04184 13.8994C9.59118 9.94438 12.9727 7 16.9657 7H31.034ZM30.9998 16C29.8953 16 28.9998 16.8954 28.9998 18L28.9969 18.1064C28.9243 19.3031 27.6024 20 23.9998 20C20.2914 20 18.9998 19.262 18.9998 18L18.994 17.8506C18.9176 16.8158 18.0541 16 16.9998 16C15.8953 16 14.9998 16.8954 14.9998 18C14.9998 22.0713 18.375 24 23.9998 24C29.6247 24 32.9998 22.0713 32.9998 18C32.9998 16.8954 32.1044 16 30.9998 16Z" fill="#333333"/>
</svg>
