<svg width="48" height="48" viewBox="0 0 48 48" fill="none" xmlns="http://www.w3.org/2000/svg">
<path fill-rule="evenodd" clip-rule="evenodd" d="M24 5C34.4934 5 43 13.5066 43 24C43 34.4934 34.4934 43 24 43C13.5066 43 5 34.4934 5 24C5 13.5066 13.5066 5 24 5ZM27.6206 13H19.1794C16.8585 13 14.8818 14.6579 14.4609 16.919L14.425 17.1397L12.7584 29.1397C12.728 29.3585 12.7127 29.5791 12.7127 29.8C12.7127 32.3793 14.7472 34.4835 17.2989 34.5953L17.5127 34.6H29.2873C29.5082 34.6 29.7288 34.5848 29.9476 34.5544C32.5024 34.1995 34.3067 31.895 34.0664 29.3521L34.0416 29.1397L32.375 17.1397C32.0557 14.8408 30.1416 13.111 27.8441 13.0051L27.6206 13ZM27.6206 15.4L27.7827 15.4054C28.8527 15.4772 29.7468 16.2536 29.9684 17.3021L29.9978 17.4698L31.6644 29.4698L31.6816 29.6334C31.7697 30.8819 30.8756 32.0024 29.6174 32.1772L29.4527 32.1943L29.2873 32.2H17.5127L17.3484 32.1945C16.0996 32.11 15.1127 31.0703 15.1127 29.8L15.1185 29.6345L15.1356 29.4698L16.8022 17.4698L16.8299 17.31C17.0481 16.2601 17.9402 15.4812 19.0092 15.406L19.1794 15.4H27.6206ZM27.6 18.4C27.0201 18.4 26.5363 18.8113 26.4244 19.3582L26.4062 19.4773L26.3968 19.6828C26.3406 20.3894 25.5427 20.8 23.4 20.8C21.343 20.8 20.5254 20.4216 20.4136 19.7662L20.4032 19.6828L20.3938 19.4773C20.3324 18.8722 19.8213 18.4 19.2 18.4C18.5373 18.4 18 18.9373 18 19.6C18 22.0428 20.0251 23.2 23.4 23.2C26.7749 23.2 28.8 22.0428 28.8 19.6C28.8 18.9373 28.2627 18.4 27.6 18.4Z" fill="#333333"/>
</svg>
