<svg width="48" height="48" viewBox="0 0 48 48" fill="none" xmlns="http://www.w3.org/2000/svg">
<path fill-rule="evenodd" clip-rule="evenodd" d="M31.0344 6C35.0274 6 38.409 8.94439 38.9583 12.8995L41.7361 32.8995C42.3439 37.2757 39.289 41.3161 34.9127 41.9239C34.5481 41.9746 34.1803 42 33.8122 42H14.188C9.76971 42 6.18799 38.4183 6.18799 34C6.18799 33.6318 6.2134 33.2641 6.26405 32.8995L9.04183 12.8995C9.59114 8.94439 12.9727 6 16.9658 6H31.0344ZM31.0344 10H16.9658C15.0381 10 13.3954 11.3724 13.0372 13.247L13.0038 13.4497L10.226 33.4497C10.2007 33.6321 10.188 33.8159 10.188 34C10.188 36.1422 11.872 37.8911 13.9883 37.9951L14.188 38H33.8122C33.9963 38 34.1801 37.9873 34.3625 37.962C36.4843 37.6673 37.9849 35.7587 37.7968 33.6481L37.7742 33.4497L34.9964 13.4497C34.7312 11.5404 33.1458 10.1021 31.2398 10.0052L31.0344 10ZM31.0001 15C32.1047 15 33.0001 15.8954 33.0001 17C33.0001 21.0713 29.6249 23 24.0001 23C18.3752 23 15.0001 21.0713 15.0001 17C15.0001 15.8954 15.8955 15 17.0001 15C18.0544 15 18.9183 15.8159 18.9946 16.8507L19.0001 17C19.0001 18.262 20.2916 19 24.0001 19C27.6026 19 28.9243 18.3036 28.9969 17.1069L29.0001 17C29.0001 15.8954 29.8955 15 31.0001 15Z" fill="#333333"/>
</svg>
