<svg width="48" height="48" viewBox="0 0 48 48" fill="none" xmlns="http://www.w3.org/2000/svg">
<path d="M38.8643 45.4561C38.9389 46.9173 38.2721 47.6533 36.8643 47.6641C36.1923 47.6961 35.4135 47.7119 34.5283 47.7119C34.4217 47.0081 34.3146 46.4323 34.208 45.9844C34.752 46.027 35.4296 46.0479 36.2402 46.0479C36.9227 46.0798 37.2478 45.7222 37.2158 44.9756V32.9443H38.8643V45.4561ZM29.6162 41.5684H32.752V43.04H29.6162V45.3115L33.1201 44.96C33.0881 45.536 33.0772 46.059 33.0879 46.5283C30.4426 46.7737 27.6372 47.0718 24.6719 47.4238L24.4482 45.7441C25.696 45.6588 26.8851 45.5627 28.0156 45.4561V43.04H24.832V41.5684H28.0156V40H29.6162V41.5684ZM21.7119 42.5117C21.0292 43.7491 20.3784 44.8694 19.7598 45.8721H23.04V47.2803H8.94434V45.8721H18.0322C18.8749 44.3681 19.5624 43.0555 20.0957 41.9355L21.7119 42.5117ZM11.8076 42.1436C12.4369 43.4129 12.9283 44.4372 13.2803 45.2158L11.7275 45.7598C11.3329 44.8213 10.8582 43.7976 10.3037 42.6885L11.8076 42.1436ZM16.1123 41.8076C16.4963 42.7569 16.8797 43.7813 17.2637 44.8799L15.7119 45.3281C15.4239 44.4002 15.0504 43.3708 14.5918 42.2402L16.1123 41.8076ZM35.4561 44H33.9043V34.5918H35.4561V44ZM19.5996 32.9277C19.4183 33.3331 19.232 33.7125 19.04 34.0645H23.4561V35.3604H18.2236C17.9784 35.7122 17.6958 36.0692 17.376 36.4316H17.4082L16.96 36.96C18.7306 38.5706 20.9278 39.6375 23.5518 40.1602C23.2318 40.7467 22.987 41.2481 22.8164 41.6641C21.7179 41.3334 20.7736 40.9866 19.9844 40.624V41.5684H11.9521V40.6885C11.1415 41.0618 10.2182 41.4402 9.18359 41.8242C9.02359 41.4936 8.76306 41.0022 8.40039 40.3516C11.6214 39.4556 14.0161 38.1121 15.584 36.3203L16.96 36.416C16.672 36.2027 16.347 35.9837 15.9844 35.7598C16.8589 34.8425 17.5198 33.8448 17.9678 32.7676L19.5996 32.9277ZM16.0322 37.9355C15.0936 38.8422 14.0158 39.6159 12.7998 40.2559H19.2324C18.1231 39.6799 17.0562 38.9062 16.0322 37.9355ZM33.0879 35.1201H29.0078C28.3786 36.1226 27.6908 37.1304 26.9443 38.1436C28.2135 38.0689 29.4293 38.0104 30.5918 37.9678C30.3678 37.5945 30.0536 37.1038 29.6484 36.4961L30.8643 35.8076C31.6749 37.0022 32.4744 38.2079 33.2637 39.4238L31.9355 40.2402C31.8716 40.1336 31.7863 39.9789 31.6797 39.7764C31.5624 39.563 31.4722 39.4075 31.4082 39.3115C29.4671 39.3862 27.867 39.4664 26.6084 39.5518C26.1284 39.5838 25.6747 39.6531 25.248 39.7598L24.6719 38.3359C24.9492 38.1653 25.1731 37.9839 25.3438 37.792C25.9944 37.0027 26.6076 36.112 27.1836 35.1201H24.624V33.6162H33.0879V35.1201ZM19.9521 35.5518C20.6133 36.1276 21.1732 36.6449 21.6318 37.1035L20.5762 38.0156C20.1176 37.5144 19.5785 36.9763 18.96 36.4004L19.9521 35.5518ZM12.5762 35.5518C13.0028 35.9358 13.4724 36.3944 13.9844 36.9277L12.9277 37.8076C12.4372 37.2638 11.9842 36.7731 11.5684 36.3359L12.5762 35.5518ZM12.832 32.9443C12.6294 33.3389 12.4213 33.7125 12.208 34.0645H16.1436V35.3604H11.376C10.832 36.1389 10.1811 36.891 9.42383 37.6162C9.07183 37.2215 8.71423 36.8639 8.35156 36.5439C9.5569 35.4346 10.496 34.1756 11.168 32.7676L12.832 32.9443ZM32 0C33.1046 0 34 0.89543 34 2V3H37C40.866 3 44 6.13401 44 10V28H40V10C40 8.34315 38.6569 7 37 7H34V8C34 9.10457 33.1046 10 32 10C30.8954 10 30 9.10457 30 8V7H18V8C18 9.10457 17.1046 10 16 10C14.8954 10 14 9.10457 14 8V7H11C9.34315 7 8 8.34315 8 10V28H4V10C4 6.13401 7.13401 3 11 3H14V2C14 0.89543 14.8954 0 16 0C17.1046 0 18 0.89543 18 2V3H30V2C30 0.89543 30.8954 0 32 0ZM28.6826 15.4951C29.5139 14.7677 30.7775 14.8523 31.5049 15.6836C32.2319 16.5148 32.1482 17.7776 31.3174 18.5049L23.3174 25.5049C22.6063 26.1271 21.5558 26.1673 20.7998 25.6006L16.7998 22.6006C15.9162 21.9379 15.7379 20.6844 16.4004 19.8008C17.063 18.9175 18.3156 18.7374 19.1992 19.3994L21.9033 21.4268L28.6826 15.4951Z" fill="#333333"/>
</svg>
