<svg width="48" height="48" viewBox="0 0 48 48" fill="none" xmlns="http://www.w3.org/2000/svg">
<path fill-rule="evenodd" clip-rule="evenodd" d="M21.5894 5C30.8501 5 38.5335 11.2532 39.1366 19.3086C42.19 21.6072 44.0437 24.9961 44.1458 28.7501C44.2329 31.9531 42.8976 34.8342 40.2593 37.3141L39.9717 37.5783L39.834 37.698L40.2077 39.4744C40.4349 40.7676 39.595 42.0086 38.3088 42.2785C37.9314 42.3577 37.5421 42.3459 37.1725 42.2461L36.9896 42.1888L36.819 42.119L36.7462 42.0851L36.5998 42.0097L34.203 40.646L34.0328 40.6889C32.796 40.9785 31.6633 41.1543 30.6302 41.2131L30.2475 41.2296L29.8741 41.2351C24.7865 41.2351 20.1534 38.9094 17.6046 35.1777C17.1482 35.0887 16.6792 34.9859 16.1974 34.8694L16.009 34.822L12.7999 36.6523C12.3746 36.9003 11.8894 37.0186 11.4033 36.9976L11.1951 36.9801L10.9878 36.9453C9.69333 36.673 8.83154 35.4627 8.98019 34.1384L9.00407 33.9723L9.53403 31.447L9.34959 31.2889C5.93781 28.3045 4.11749 24.8541 4.0055 21.0132L4 20.6402L4.00487 20.2763C4.23994 11.6146 11.962 5 21.5894 5ZM38.7146 24.5458L38.568 24.343L38.4101 24.8236L38.2903 25.1515L38.189 25.4104L38.0173 25.8179L37.8205 26.2452C37.7554 26.3808 37.688 26.5153 37.6185 26.6488L37.4762 26.9152L37.1889 27.4154L36.9403 27.8145C36.8482 27.9571 36.7538 28.0979 36.6569 28.2373L36.3878 28.6119L36.0482 29.0526L35.8812 29.2576L35.4552 29.7505L35.3951 29.8168C35.1655 30.0686 34.9269 30.3139 34.6797 30.5524L34.1985 30.9984L33.9704 31.1979C33.4038 31.6842 32.799 32.1372 32.1607 32.5532L31.9727 32.674C31.7945 32.7869 31.6141 32.8968 31.4313 33.0038L31.1657 33.1561L30.9503 33.2754L30.4035 33.5614L30.0543 33.732L29.5527 33.9615C29.2746 34.0838 28.9921 34.2 28.7056 34.3097L28.0852 34.535L27.5336 34.7154L27.2292 34.8071L26.8478 34.9145C26.5208 35.0029 26.19 35.0833 25.8556 35.1553L25.2211 35.2812L24.644 35.3773L24.2745 35.4297C24.0635 35.4577 23.8512 35.4824 23.6378 35.5038L23.965 35.7017C25.4526 36.5611 27.2222 37.0991 29.1191 37.2126L29.5274 37.2304L29.8741 37.2351C30.8655 37.2351 32.0862 37.0583 33.5248 36.6961C34.2624 36.5104 35.0392 36.5901 35.7207 36.9169L35.759 36.936L35.7792 36.8C35.8785 36.2382 36.1371 35.7126 36.5283 35.2889L36.6812 35.1349L36.8291 35.0052C39.1558 33.0959 40.2078 31.083 40.1473 28.8589C40.1078 27.4071 39.6717 26.0311 38.8989 24.8218L38.7146 24.5458ZM21.5894 9C14.0247 9 8.17642 14.0096 8.0034 20.3848C7.9207 23.4323 9.37291 26.1799 12.5269 28.7358C13.3489 29.402 13.755 30.4483 13.607 31.4862L13.587 31.599L14.2911 31.198C14.5474 31.0518 14.8202 30.9426 15.1015 30.8713L15.019 30.7273L15.4783 30.7993C15.7483 30.764 16.0228 30.7627 16.2953 30.7963L16.4992 30.828L16.7041 30.8735C17.4066 31.0535 18.0709 31.1999 18.6963 31.3132L19.1581 31.3919C19.3375 31.4206 19.5134 31.4463 19.686 31.4692C20.0554 31.518 20.409 31.5538 20.7465 31.5764C20.9419 31.5896 21.1319 31.5983 21.3165 31.6026L21.5894 31.6059L21.9278 31.6025C29.348 31.4532 35.1747 26.4073 35.1747 20.3306C35.1747 14.1483 29.1557 9 21.5894 9ZM15.8842 14.3086C17.1226 14.3086 18.1266 15.3125 18.1266 16.551C18.1266 17.7894 17.1226 18.7934 15.8842 18.7934C14.6457 18.7934 13.6418 17.7894 13.6418 16.551C13.6418 15.3125 14.6457 14.3086 15.8842 14.3086ZM26.764 14.3086C28.0024 14.3086 29.0064 15.3125 29.0064 16.551C29.0064 17.7894 28.0024 18.7934 26.764 18.7934C25.5255 18.7934 24.5216 17.7894 24.5216 16.551C24.5216 15.3125 25.5255 14.3086 26.764 14.3086Z" fill="#333333"/>
</svg>
