<svg width="48" height="48" viewBox="0 0 48 48" fill="none" xmlns="http://www.w3.org/2000/svg">
<path d="M39 37C40.1046 37 41 37.8954 41 39C41 40.1046 40.1046 41 39 41H9C7.89543 41 7 40.1046 7 39C7 37.8954 7.89543 37 9 37H39ZM31.5 13.0039C31.5 11.3223 33.449 10.3915 34.7568 11.4482L40.4717 16.0674C41.3303 16.7618 41.4638 18.021 40.7695 18.8799C40.0752 19.7388 38.816 19.8719 37.957 19.1777L35.5 17.1914V33.8525C35.5 34.9069 34.6842 35.7712 33.6494 35.8477L33.5 35.8525C32.3954 35.8525 31.5 34.9571 31.5 33.8525V13.0039ZM24 24C25.1046 24 26 24.8954 26 26C26 27.1046 25.1046 28 24 28H9C7.89543 28 7 27.1046 7 26C7 24.8954 7.89543 24 9 24H24ZM24.8828 11C25.4999 11.0004 26 11.8957 26 13C26 14.1043 25.4999 14.9996 24.8828 15H8.11719C7.50014 14.9996 7 14.1043 7 13C7 11.8957 7.50014 11.0004 8.11719 11H24.8828Z" fill="#333333"/>
</svg>
