<svg width="48" height="48" viewBox="0 0 48 48" fill="none" xmlns="http://www.w3.org/2000/svg">
<path d="M13 34C14.1046 34 15 34.8954 15 36C15 37.1046 14.1046 38 13 38H9C7.89543 38 7 37.1046 7 36C7 34.8954 7.89543 34 9 34H13ZM25 34C26.1046 34 27 34.8954 27 36C27 37.1046 26.1046 38 25 38H21C19.8954 38 19 37.1046 19 36C19 34.8954 19.8954 34 21 34H25ZM37 34C38.1046 34 39 34.8954 39 36C39 37.1046 38.1046 38 37 38H33C31.8954 38 31 37.1046 31 36C31 34.8954 31.8954 34 33 34H37ZM37 22C38.1046 22 39 22.8954 39 24C39 25.1046 38.1046 26 37 26H9C7.89543 26 7 25.1046 7 24C7 22.8954 7.89543 22 9 22H37ZM13 10C14.1046 10 15 10.8954 15 12C15 13.1046 14.1046 14 13 14H9C7.89543 14 7 13.1046 7 12C7 10.8954 7.89543 10 9 10H13ZM25 10C26.1046 10 27 10.8954 27 12C27 13.1046 26.1046 14 25 14H21C19.8954 14 19 13.1046 19 12C19 10.8954 19.8954 10 21 10H25ZM37 10C38.1046 10 39 10.8954 39 12C39 13.1046 38.1046 14 37 14H33C31.8954 14 31 13.1046 31 12C31 10.8954 31.8954 10 33 10H37Z" fill="#333333"/>
</svg>
