<svg width="48" height="48" viewBox="0 0 48 48" fill="none" xmlns="http://www.w3.org/2000/svg">
<path fill-rule="evenodd" clip-rule="evenodd" d="M20.8616 6.41012L15.232 13.5324L6.70442 16.66C6.40348 16.7704 6.11689 16.9165 5.85082 17.0952L5.67758 17.2183C3.9874 18.4868 3.56898 20.8716 4.76119 22.6462L9.80999 30.1604L10.1607 39.206C10.1728 39.5206 10.2221 39.8328 10.3075 40.1359L10.3683 40.3326C11.0445 42.3378 13.1824 43.4817 15.2423 42.9014L24 40.4334L32.7577 42.9014C33.0608 42.9868 33.3729 43.0361 33.6876 43.0482L33.8872 43.0511C36.0061 43.029 37.7564 41.3466 37.8393 39.206L38.189 30.1604L43.2388 22.6462C43.4175 22.3801 43.5637 22.0935 43.674 21.7925L43.74 21.5975C44.367 19.5763 43.3048 17.3968 41.2956 16.66L32.767 13.5324L27.1384 6.41012C26.9453 6.1658 26.7244 5.94486 26.48 5.75179C24.7468 4.3821 22.2313 4.67684 20.8616 6.41012ZM18.3119 16.0882L24 8.89042L29.6881 16.0882C30.1072 16.6186 30.6651 17.0225 31.2997 17.2552L39.9185 20.4155L34.8154 28.0113C34.4369 28.5748 34.2225 29.2325 34.1962 29.9108L33.8423 39.0512L24.9924 36.5581C24.3434 36.3753 23.6566 36.3753 23.0076 36.5581L14.1577 39.0512L13.8038 29.9108C13.7775 29.2325 13.5631 28.5748 13.1846 28.0113L8.08147 20.4155L16.7003 17.2552C17.3349 17.0225 17.8927 16.6186 18.3119 16.0882Z" fill="#333333"/>
</svg>
