<svg width="48" height="48" viewBox="0 0 48 48" fill="none" xmlns="http://www.w3.org/2000/svg">
<path fill-rule="evenodd" clip-rule="evenodd" d="M20.7144 6.6157L15.5582 13.2399L7.74614 16.149C7.43111 16.2663 7.13111 16.4216 6.85259 16.6116L6.68198 16.7343C4.90374 18.0805 4.46144 20.6216 5.71197 22.5116L10.3363 29.5005L10.6574 37.9119C10.6702 38.2463 10.7218 38.5781 10.8111 38.9002L10.8708 39.0972C11.5742 41.236 13.8164 42.4576 15.9769 41.8396L23.9996 39.5445L32.0224 41.8396C32.3397 41.9304 32.6664 41.9828 32.9958 41.9957L33.193 41.9988C35.4163 41.9817 37.255 40.1911 37.3419 37.9119L37.662 29.5005L42.2873 22.5116C42.4744 22.2288 42.6274 21.9242 42.7429 21.6043L42.8082 21.4092C43.4725 19.2575 42.3605 16.9336 40.2532 16.149L32.4401 13.2399L27.2849 6.6157C27.0828 6.35602 26.8515 6.12119 26.5958 5.91598C24.7814 4.46016 22.1482 4.77344 20.7144 6.6157Z" fill="#333333"/>
</svg>
