<svg width="48" height="48" viewBox="0 0 48 48" fill="none" xmlns="http://www.w3.org/2000/svg">
<path fill-rule="evenodd" clip-rule="evenodd" d="M24 5C34.4934 5 43 13.5066 43 24C43 34.4934 34.4934 43 24 43C13.5066 43 5 34.4934 5 24C5 13.5066 13.5066 5 24 5ZM24 9C15.7157 9 9 15.7157 9 24C9 32.2843 15.7157 39 24 39C32.2843 39 39 32.2843 39 24C39 15.7157 32.2843 9 24 9Z" fill="#333333"/>
<path fill-rule="evenodd" clip-rule="evenodd" d="M19.9847 19.6713C20.2724 19.5662 20.5253 19.3834 20.7156 19.1434L23.2163 15.9886C23.6167 15.4835 24.3833 15.4835 24.7837 15.9886L27.2844 19.1434C27.4747 19.3834 27.7276 19.5662 28.0153 19.6713L31.8001 21.0548C32.4102 21.2778 32.649 22.0142 32.286 22.5529L30.0489 25.8725C29.8765 26.1284 29.7787 26.4274 29.7668 26.7357L29.6115 30.7333C29.5864 31.3793 28.9642 31.832 28.3419 31.6573L24.4488 30.5639C24.1553 30.4815 23.8447 30.4815 23.5512 30.5639L19.6581 31.6573C19.0358 31.832 18.4136 31.3793 18.3885 30.7333L18.2332 26.7357C18.2213 26.4274 18.1235 26.1284 17.9511 25.8725L15.714 22.5529C15.351 22.0142 15.5898 21.2778 16.1999 21.0548L19.9847 19.6713Z" stroke="#333333" stroke-width="4"/>
</svg>
