<svg width="48" height="48" viewBox="0 0 48 48" fill="none" xmlns="http://www.w3.org/2000/svg">
<path fill-rule="evenodd" clip-rule="evenodd" d="M16.5 8.5C17.8255 8.5 18.91 9.53154 18.9947 10.8356L19 11V37C19 38.3807 17.8807 39.5 16.5 39.5C15.1745 39.5 14.09 38.4685 14.0053 37.1644L14 37V11C14 9.61929 15.1193 8.5 16.5 8.5ZM31.5 8.5C32.8255 8.5 33.91 9.53154 33.9947 10.8356L34 11V37C34 38.3807 32.8807 39.5 31.5 39.5C30.1745 39.5 29.09 38.4685 29.0053 37.1644L29 37V11C29 9.61929 30.1193 8.5 31.5 8.5Z" fill="#333333"/>
</svg>
