<svg width="48" height="48" viewBox="0 0 48 48" fill="none" xmlns="http://www.w3.org/2000/svg">
<path fill-rule="evenodd" clip-rule="evenodd" d="M15.3333 43C10.9983 43 7.46871 39.5522 7.33706 35.2492L7.33325 35V14C7.33325 9.1182 11.2201 5.14421 16.0679 5.00384L16.3333 5H26.4633C28.6841 5 30.8225 5.82092 32.4707 7.2984L32.7027 7.51391L37.5993 12.2243C39.4807 14.0342 40.5766 16.5047 40.6613 19.1053L40.6666 19.4311V35C40.6666 39.3349 37.2187 42.8645 32.9158 42.9962L32.6666 43H15.3333ZM26.4633 9H16.3333C13.6445 9 11.4514 11.1223 11.3379 13.7831L11.3333 14V35C11.3333 37.1422 13.0172 38.8911 15.1336 38.9951L15.3333 39V31.6667C15.3333 29.4575 17.1241 27.6667 19.3333 27.6667H28.6666C30.8757 27.6667 32.6666 29.4575 32.6666 31.6667V39C34.8088 39 36.5577 37.316 36.6617 35.1996L36.6666 35V19.4311C36.6666 17.8954 36.078 16.4221 35.0284 15.311L34.8262 15.107L29.9296 10.3966C29.0602 9.56028 27.9201 9.0685 26.721 9.00664L26.4633 9ZM26.9999 31H20.9999C19.9456 31 19.0818 31.8159 19.0054 32.8507L18.9999 33V39H28.9999V33C28.9999 31.8954 28.1045 31 26.9999 31ZM24.3333 15.3333C25.4378 15.3333 26.3333 16.2288 26.3333 17.3333C26.3333 18.4379 25.4378 19.3333 24.3333 19.3333H16.9999C15.8953 19.3333 14.9999 18.4379 14.9999 17.3333C14.9999 16.2288 15.8953 15.3333 16.9999 15.3333H24.3333Z" fill="#333333"/>
</svg>
