<svg width="48" height="48" viewBox="0 0 48 48" fill="none" xmlns="http://www.w3.org/2000/svg">
<path fill-rule="evenodd" clip-rule="evenodd" d="M9.78695 8.96895C9.00117 8.3069 7.82568 8.34585 7.08574 9.08579C6.3458 9.82573 6.30686 11.0012 6.96891 11.787L7.08574 11.9142L11.0648 15.8911C9.96503 17.0792 8.84242 18.3385 7.69697 19.6691C4.75481 23.0867 4.18755 27.9504 6.26428 31.9533C8.44939 36.1652 11.8829 39.5987 16.0948 41.7838C20.1188 43.8715 25.0087 43.2967 28.4389 40.3328C29.719 39.2267 30.9603 38.113 32.1628 36.9918L35.37 40.1985L35.4972 40.3153C36.283 40.9774 37.4585 40.9384 38.1984 40.1985C38.9384 39.4585 38.9773 38.2831 38.3153 37.4973L38.1984 37.3701L9.91417 9.08579L9.78695 8.96895ZM13.8946 18.7225L29.3333 34.161L29.3131 34.1797C28.1857 35.228 27.0226 36.2702 25.8237 37.3061C23.6321 39.1998 20.5078 39.5671 17.9368 38.2332C14.457 36.4279 11.6202 33.5911 9.81489 30.1113C8.49076 27.559 8.85244 24.4579 10.7284 22.2788C11.8065 21.0265 12.862 19.841 13.8946 18.7225ZM18.5542 8.64472C17.7808 9.2788 16.9532 10.0071 16.0714 10.8295L18.9033 13.66L19.4514 13.1556C20.0286 12.633 20.5751 12.1604 21.0902 11.738C22.2415 10.7942 23.6997 10.3142 25.1801 10.3848L25.4579 10.4046L31.6495 10.9888C34.4281 11.251 36.6462 13.3904 37.0281 16.1315L37.0593 16.3986L37.6258 22.402C37.7686 23.916 37.3313 25.4277 36.4021 26.6316C35.7323 27.4995 35.0506 28.3275 34.3572 29.1158L37.1911 31.9495C38.0003 31.0388 38.7929 30.0808 39.5687 29.0756C41.1173 27.0691 41.8462 24.5496 41.6081 22.0262L41.0416 16.0229C40.5906 11.2425 36.8056 7.45755 32.0253 7.00649L25.8337 6.42226C23.2091 6.17461 20.5929 6.97335 18.5542 8.64472ZM33.1976 15.6795C32.3691 14.2446 30.5344 13.753 29.0995 14.5814C27.6646 15.4099 27.173 17.2446 28.0014 18.6795C28.8298 20.1144 30.6646 20.606 32.0995 19.7776C33.5344 18.9492 34.026 17.1144 33.1976 15.6795Z" fill="#333333"/>
</svg>
