<svg width="48" height="48" viewBox="0 0 48 48" fill="none" xmlns="http://www.w3.org/2000/svg">
<path d="M24 5C34.4934 5 43 13.5066 43 24C43 34.4934 34.4934 43 24 43C13.5066 43 5 34.4934 5 24C5 13.5066 13.5066 5 24 5ZM25.5273 13.1533C23.9529 13.0049 22.3832 13.4848 21.1602 14.4873C20.3521 15.1498 19.4446 15.9841 18.4395 16.9893C17.2253 18.2034 15.9609 19.5747 14.6465 21.1016C12.8813 23.152 12.5403 26.07 13.7861 28.4717C15.0972 30.9986 17.1576 33.0591 19.6846 34.3701C22.0988 35.6223 25.0329 35.2772 27.0908 33.499C28.5313 32.2543 29.8911 30.9936 31.168 29.7168C32.0671 28.8176 32.9339 27.8265 33.7686 26.7451C34.6975 25.5413 35.135 24.0294 34.9922 22.5156L34.6523 18.9141C34.3817 16.046 32.1102 13.7747 29.2422 13.5039L25.5273 13.1533ZM25.3027 15.543L29.0176 15.8936C30.6664 16.0495 31.9863 17.3078 32.2363 18.9268L32.2627 19.1387L32.6035 22.7412C32.6891 23.6493 32.4254 24.5562 31.8682 25.2783C31.095 26.28 30.296 27.1942 29.4707 28.0195C28.2356 29.2547 26.9185 30.4765 25.5215 31.6836C24.2067 32.8193 22.3323 33.04 20.79 32.2402C18.7023 31.1571 16.9992 29.4549 15.916 27.3672C15.1217 25.8359 15.3395 23.9753 16.4648 22.668C17.7419 21.1846 18.9665 19.8568 20.1367 18.6865C21.0896 17.7336 21.9399 16.9509 22.6816 16.3428C23.3589 15.7877 24.2137 15.5003 25.084 15.5293L25.3027 15.543ZM29.3457 19.1074C28.8486 18.2471 27.7484 17.9527 26.8877 18.4492C26.0268 18.9463 25.7315 20.0473 26.2285 20.9082C26.7257 21.7687 27.8267 22.0634 28.6875 21.5664C29.5478 21.0692 29.8425 19.9681 29.3457 19.1074Z" fill="#333333"/>
</svg>
