<svg width="48" height="48" viewBox="0 0 48 48" fill="none" xmlns="http://www.w3.org/2000/svg">
<path d="M20.8935 7.37362C22.3933 6.26713 24.2606 5.91045 26.1162 6.08554L33.0039 6.73495C37.7842 7.18601 41.5694 10.9712 42.0205 15.7516L42.6035 21.9293C42.8201 24.2244 42.2473 26.5314 40.8486 28.3639C39.6191 29.9747 37.9643 32.004 36.2119 33.7564C33.7326 36.2357 31.0066 38.6668 28.7207 40.6197C25.6171 43.2712 21.2093 43.6587 17.5859 41.7789C13.0517 39.4265 9.33867 35.7204 6.98631 31.1861C5.09942 27.549 5.51389 23.1381 8.17576 20.023C10.1976 17.657 12.672 14.8705 14.999 12.5435C17.48 10.0625 19.4809 8.41598 20.8935 7.37362ZM33.831 14.6793C33.0026 13.2446 31.1682 12.7533 29.7334 13.5816C28.2986 14.41 27.8065 16.2444 28.6347 17.6793C29.4632 19.1142 31.2985 19.6063 32.7334 18.7779C34.1682 17.9495 34.6595 16.1142 33.831 14.6793Z" fill="#333333"/>
</svg>
