<svg width="48" height="48" viewBox="0 0 48 48" fill="none" xmlns="http://www.w3.org/2000/svg">
<path fill-rule="evenodd" clip-rule="evenodd" d="M18.266 8.47829C20.2197 6.87657 22.7038 6.07626 25.2174 6.23032L25.5454 6.25583L31.737 6.84006C36.4254 7.28245 40.1564 10.9318 40.7237 15.5818L40.7534 15.8564L41.3198 21.8598C41.5579 24.3831 40.829 26.9027 39.2804 28.9091C37.889 30.7119 36.4439 32.3627 34.945 33.8616C32.8167 35.99 30.5519 38.0916 28.1506 40.1664C24.7204 43.1303 19.8305 43.7051 15.8065 41.6174C11.5947 39.4323 8.16114 35.9988 5.97603 31.7869C3.8993 27.784 4.46655 22.9202 7.40872 19.5026C9.60005 16.9572 11.7078 14.6725 13.7318 12.6484C14.4301 11.9502 15.0998 11.3015 15.7409 10.7025L16.4966 10.0075C17.1149 9.44817 17.7047 8.93843 18.266 8.47829ZM24.8919 10.2184C23.4114 10.1477 21.9532 10.6278 20.802 11.5716C20.0955 12.1509 19.33 12.8246 18.5073 13.5921L18.0912 13.9836L17.3402 14.7064C17.085 14.9552 16.825 15.2121 16.5603 15.4768C14.6096 17.4275 12.5689 19.6396 10.4401 22.1124C8.56419 24.2914 8.20251 27.3926 9.52664 29.9448C11.332 33.4247 14.1688 36.2615 17.6486 38.0668C20.2196 39.4006 23.3438 39.0334 25.5354 37.1397C27.8641 35.1276 30.0578 33.092 32.1166 31.0332C33.4924 29.6573 34.8251 28.135 36.1139 26.4652C36.985 25.3366 37.4238 23.9373 37.3575 22.5193L37.3375 22.2356L36.7711 16.2322L36.7399 15.9651C36.3691 13.3046 34.2687 11.2109 31.6049 10.8503L31.3612 10.8224L25.1696 10.2381L24.8919 10.2184ZM32.9093 15.5131C33.7377 16.948 33.2461 18.7827 31.8112 19.6112C30.3764 20.4396 28.5416 19.948 27.7132 18.5131C26.8847 17.0782 27.3764 15.2434 28.8112 14.415C30.2461 13.5866 32.0809 14.0782 32.9093 15.5131Z" fill="#333333"/>
</svg>
