<svg width="48" height="48" viewBox="0 0 48 48" fill="none" xmlns="http://www.w3.org/2000/svg">
<rect x="7" y="16" width="26" height="26" rx="5" stroke="#333333" stroke-width="4" stroke-linecap="round" stroke-linejoin="round"/>
<path d="M17 16.0499L17 13.0597C17 10.2983 19.2386 8.05969 22 8.05969L35.9406 8.05969C38.702 8.05969 40.9406 10.2983 40.9406 13.0597V27C40.9406 29.7614 38.702 32 35.9406 32H32.4534" stroke="#333333" stroke-width="4" stroke-linejoin="round"/>
<path d="M15 25.5H25" stroke="#333333" stroke-width="4" stroke-linecap="round" stroke-linejoin="round"/>
<path d="M20 34.0597V26.0597" stroke="#333333" stroke-width="4" stroke-linecap="round" stroke-linejoin="round"/>
<path d="M35.9404 6.05969C39.8064 6.05969 42.9404 9.1937 42.9404 13.0597V27.0001C42.9404 30.8661 39.8064 34.0001 35.9404 34.0001H35V37.0001C34.9999 40.8661 31.8659 44.0001 28 44.0001H12C8.13405 44.0001 5.00007 40.8661 5 37.0001V21.0001C5 17.1341 8.13401 14.0001 12 14.0001H15V13.0597C15 9.1937 18.134 6.05969 22 6.05969H35.9404ZM12 18.0001C10.3431 18.0001 9 19.3433 9 21.0001V37.0001C9.00007 38.6569 10.3432 40.0001 12 40.0001H28C29.6568 40.0001 30.9999 38.6569 31 37.0001V21.0001C31 19.3433 29.6569 18.0001 28 18.0001H12ZM25 23.5001C26.1046 23.5001 27 24.3956 27 25.5001C26.9999 26.6046 26.1045 27.5001 25 27.5001H22V34.0597C22 35.1643 21.1046 36.0597 20 36.0597C18.8954 36.0597 18 35.1643 18 34.0597V27.5001H15C13.8955 27.5001 13.0001 26.6046 13 25.5001C13 24.3956 13.8954 23.5001 15 23.5001H25ZM22 10.0597C20.3431 10.0597 19 11.4028 19 13.0597V14.0001H28C31.866 14.0001 35 17.1341 35 21.0001V30.0001H35.9404C37.5972 30.0001 38.9404 28.6569 38.9404 27.0001V13.0597C38.9404 11.4028 37.5973 10.0597 35.9404 10.0597H22Z" fill="#333333"/>
</svg>
