<svg width="48" height="48" viewBox="0 0 48 48" fill="none" xmlns="http://www.w3.org/2000/svg">
<path d="M39 35C40.1046 35 41 35.8954 41 37C41 38.1046 40.1046 39 39 39H11C9.89546 39 9.00002 38.1046 9.00002 37C9.00002 35.8954 9.89546 35 11 35H39ZM39 27C40.1046 27 41 27.8954 41 29C41 30.1046 40.1046 31 39 31H11C9.89546 31 9.00002 30.1046 9.00002 29C9.00002 27.8954 9.89546 27 11 27H39ZM9.58596 11.5859C10.367 10.8049 11.633 10.8049 12.4141 11.5859L16.4141 15.5859C17.1951 16.367 17.1951 17.633 16.4141 18.4141L12.4141 22.4141C11.633 23.1951 10.367 23.1951 9.58596 22.4141C8.80491 21.633 8.80491 20.367 9.58596 19.5859L12.1709 17L9.58596 14.4141C8.84603 13.6741 8.80675 12.4987 9.46877 11.7129L9.58596 11.5859ZM39 19C40.1046 19 41 19.8954 41 21C41 22.1046 40.1046 23 39 23H24C22.8955 23 22 22.1046 22 21C22 19.8954 22.8955 19 24 19H39ZM39 11C40.1046 11 41 11.8954 41 13C41 14.1046 40.1046 15 39 15H24C22.8955 15 22 14.1046 22 13C22 11.8954 22.8955 11 24 11H39Z" fill="#333333"/>
</svg>
