<svg width="48" height="48" viewBox="0 0 48 48" fill="none" xmlns="http://www.w3.org/2000/svg">
<path fill-rule="evenodd" clip-rule="evenodd" d="M19.6064 11.0009C19.9433 6.5133 22.8151 3.60924 26.4179 4.03934C29.9619 4.46243 32.478 7.94426 32.478 12.6541L32.4755 13.1557L32.4684 13.6568L32.443 14.534L36.6136 14.5349C40.9348 14.5349 44.3181 18.1387 43.9768 22.3115L43.954 22.5439L43.9234 22.7773L41.8667 36.7092C41.3544 40.1935 38.3551 42.7809 34.7993 42.8967L34.5503 42.9008H12.0457C9.69112 42.9008 7.6959 41.187 7.38982 38.8954L7.36612 38.6789L6.01677 23.0142C5.79039 20.3772 7.85228 18.1334 10.4872 18.0201L10.6964 18.0156L15.462 18.015L15.6496 17.9556L15.8587 17.8769C16.351 17.6792 16.8501 17.3825 17.3186 16.9685C18.5491 15.8811 19.3741 14.1859 19.5667 11.6313L19.6064 11.0009ZM15.4568 22.0152L10.6964 22.0156C10.3103 22.0156 10.0242 22.2828 10.0016 22.5876L10.0021 22.6715L11.3514 38.3367C11.3749 38.6108 11.6132 38.8484 11.9353 38.8932L12.0457 38.9008L15.4568 38.9002V22.0152ZM25.9437 8.01114C24.8178 7.87673 23.7852 8.90595 23.6003 11.2281L23.5586 11.8864C23.2939 15.4929 21.997 18.1723 19.9673 19.9659C19.7997 20.114 19.6296 20.2538 19.4574 20.3856L19.4568 38.9002L34.5503 38.9008C36.1902 38.9008 37.5714 37.7922 37.8788 36.3L37.9094 36.1262L39.9663 22.1934C40.24 20.3373 38.7833 18.644 36.8064 18.54L36.6136 18.5349H30.3335C29.1721 18.5349 28.2549 17.5491 28.3387 16.3907C28.4301 15.1261 28.478 13.8925 28.478 12.6541C28.478 9.82083 27.286 8.17139 25.9437 8.01114Z" fill="#333333"/>
</svg>
