<svg width="48" height="48" viewBox="0 0 48 48" fill="none" xmlns="http://www.w3.org/2000/svg">
<path fill-rule="evenodd" clip-rule="evenodd" d="M14 19.26V42H10.4026C8.93518 42 7.70288 40.9522 7.49823 39.5623L7.47865 39.394L6.01029 22.3389C5.87299 20.7385 7.12607 19.3585 8.75803 19.2652L8.93429 19.2602L14 19.26ZM20.7618 10.2359L20.7852 9.85746C21.2165 1.41669 30.4613 2.2891 30.4613 11.245C30.4613 12.4853 30.4188 13.6704 30.3491 14.7996L30.3041 15.4704H37.1383C40.6308 15.4704 43.3297 18.4028 42.9674 21.7359L42.94 21.9491L40.7017 37.1194C40.3015 39.8425 37.9484 41.8839 35.1352 41.9952L34.893 42H18L18.001 17.176C19.3018 15.8471 20.5102 13.696 20.7618 10.2359Z" fill="#333333"/>
</svg>
