<svg width="48" height="48" viewBox="0 0 48 48" fill="none" xmlns="http://www.w3.org/2000/svg">
<path fill-rule="evenodd" clip-rule="evenodd" d="M19.6064 35.8971C19.9433 40.3847 22.8151 43.2888 26.4179 42.8587C29.9619 42.4356 32.478 38.9538 32.478 34.2439L32.4755 33.7423L32.4684 33.2412L32.443 32.364L36.6136 32.3631C40.9348 32.3631 44.3181 28.7593 43.9768 24.5865L43.954 24.3541L43.9234 24.1207L41.8667 10.1888C41.3544 6.70453 38.3551 4.11711 34.7993 4.0013L34.5503 3.99725H12.0457C9.69112 3.99725 7.6959 5.71096 7.38982 8.00259L7.36612 8.21909L6.01677 23.8838C5.79039 26.5208 7.85228 28.7646 10.4872 28.8779L10.6964 28.8824L15.462 28.883L15.6496 28.9424L15.8587 29.0211C16.351 29.2188 16.8501 29.5155 17.3186 29.9295C18.5491 31.0169 19.3741 32.7121 19.5667 35.2667L19.6064 35.8971ZM15.4568 24.8828L10.6964 24.8824C10.3103 24.8824 10.0242 24.6152 10.0016 24.3104L10.0021 24.2265L11.3514 8.56135C11.3749 8.28717 11.6132 8.04959 11.9353 8.00482L12.0457 7.99725L15.4568 7.99776V24.8828ZM25.9437 38.8869C24.8178 39.0213 23.7852 37.9921 23.6003 35.6699L23.5586 35.0116C23.2939 31.4051 21.997 28.7257 19.9673 26.9321C19.7997 26.784 19.6296 26.6442 19.4574 26.5124L19.4568 7.99776L34.5503 7.99725C36.1902 7.99725 37.5714 9.10578 37.8788 10.598L37.9094 10.7719L39.9663 24.7046C40.24 26.5607 38.7833 28.254 36.8064 28.358L36.6136 28.3631H30.3335C29.1721 28.3631 28.2549 29.3489 28.3387 30.5073C28.4301 31.7719 28.478 33.0055 28.478 34.2439C28.478 37.0772 27.286 38.7266 25.9437 38.8869Z" fill="#333333"/>
</svg>
