<svg width="48" height="48" viewBox="0 0 48 48" fill="none" xmlns="http://www.w3.org/2000/svg">
<path fill-rule="evenodd" clip-rule="evenodd" d="M14 28.74V6H10.4026C8.93518 6 7.70288 7.04784 7.49823 8.43766L7.47865 8.60603L6.01029 25.6611C5.87299 27.2615 7.12607 28.6415 8.75803 28.7348L8.93429 28.7398L14 28.74ZM20.7618 37.7641L20.7852 38.1425C21.2165 46.5833 30.4613 45.7109 30.4613 36.755C30.4613 35.5147 30.4188 34.3296 30.3491 33.2004L30.3041 32.5296H37.1383C40.6308 32.5296 43.3297 29.5972 42.9674 26.2641L42.94 26.0509L40.7017 10.8806C40.3015 8.15748 37.9484 6.11609 35.1352 6.00478L34.893 6H18L18.001 30.824C19.3018 32.1529 20.5102 34.304 20.7618 37.7641Z" fill="#333333"/>
</svg>
