<svg width="48" height="48" viewBox="0 0 48 48" fill="none" xmlns="http://www.w3.org/2000/svg">
<path d="M28.7884 6.22868C29.8239 6.03009 30.8261 6.6691 31.096 7.67106L31.1292 7.81657L31.4446 9.46403C31.4692 9.54108 31.4906 9.62048 31.5062 9.70231L33.4407 19.8722L36.2152 34.3332C36.423 35.4179 35.712 36.466 34.6273 36.674C33.5918 36.8725 32.5895 36.2335 32.3196 35.2316L32.2864 35.0861L32.2093 34.6847L25.9739 34.7404V38.173C25.9739 40.6337 24.0931 42.6783 21.6868 42.7931L21.4739 42.798H16.4739C14.038 42.798 12.0875 40.8245 11.9778 38.3898L11.9739 38.173V34.8654L11.68 34.8683C8.53798 34.8962 5.82273 32.6783 5.22297 29.5939L4.13703 24.0089C3.5441 20.9594 5.18617 17.9148 8.05988 16.7345L27.2542 8.85172L27.2005 8.5695C26.9926 7.4848 27.7037 6.43674 28.7884 6.22868ZM15.9739 34.8293V38.173C15.9739 38.5028 16.1729 38.746 16.3978 38.7912L16.4739 38.798H21.4739C21.7021 38.7977 21.924 38.5883 21.9661 38.2795L21.9739 38.173V34.7756L15.9739 34.8293ZM9.57941 20.4347C8.4692 20.8908 7.83469 22.0671 8.06379 23.2453L9.14972 28.8312C9.38162 30.0228 10.4309 30.8801 11.6448 30.8693L31.428 30.6916L29.4944 20.5285L28.0228 12.8595L9.57941 20.4347ZM39.2347 26.1076L39.3821 26.131L42.3265 26.7033C43.4108 26.914 44.1193 27.9637 43.9085 29.048C43.7073 30.0829 42.7416 30.775 41.7112 30.6525L41.5638 30.63L38.6185 30.0568C37.5343 29.8459 36.8267 28.7963 37.0374 27.7121C37.2387 26.6772 38.2044 25.9851 39.2347 26.1076ZM41.8421 17.8263C42.9193 17.5818 43.9911 18.257 44.2357 19.3341C44.469 20.3622 43.8644 21.385 42.8724 21.6886L42.7278 21.7267L38.8275 22.6125C37.7504 22.857 36.6786 22.1825 36.4339 21.1056C36.2005 20.0774 36.8049 19.0537 37.7972 18.7502L37.9417 18.7121L41.8421 17.8263ZM36.9876 10.4797C37.7653 9.69557 39.0315 9.69043 39.8157 10.4679C40.5587 11.2048 40.6025 12.3806 39.9437 13.1691L39.8275 13.297L37.7152 15.4269C36.9374 16.2109 35.6713 16.2161 34.887 15.4386C34.144 14.7018 34.1003 13.526 34.7591 12.7375L34.8753 12.6095L36.9876 10.4797Z" fill="#333333"/>
</svg>
