<svg width="48" height="48" viewBox="0 0 48 48" fill="none" xmlns="http://www.w3.org/2000/svg">
<path d="M24 5C34.4934 5 43 13.5066 43 24C43 34.4934 34.4934 43 24 43C13.5066 43 5 34.4934 5 24C5 13.5066 13.5066 5 24 5ZM27.6318 14.0312C27.4697 13.4306 26.869 13.0471 26.248 13.166C25.5977 13.291 25.1707 13.9199 25.2949 14.5703L25.3271 14.7402L13.8115 19.4697C12.0875 20.1778 11.1016 22.0044 11.457 23.834L12.1084 27.1855C12.4683 29.0359 14.0975 30.366 15.9824 30.3496L16.1592 30.3477V32.333L16.1611 32.4629C16.2269 33.9235 17.3972 35.108 18.8584 35.1084H21.8584L21.9873 35.1055C23.4309 35.0364 24.5586 33.8093 24.5586 32.333V30.2734L28.2998 30.2393L28.3467 30.4805L28.3662 30.5684C28.5281 31.1693 29.1299 31.5525 29.751 31.4336C30.4019 31.3088 30.828 30.6792 30.7031 30.0283L29.0166 21.2314L27.8789 15.25C27.8694 15.2004 27.8558 15.1521 27.8408 15.1055L27.6523 14.1191L27.6318 14.0312ZM22.1592 32.333L22.1543 32.3965C22.129 32.5819 21.9954 32.708 21.8584 32.708H18.8584L18.8135 32.7031C18.6788 32.6757 18.5586 32.5306 18.5586 32.333V30.3262L22.1592 30.2939V32.333ZM26.6484 21.6289L27.832 27.8438L15.9619 27.9502C15.2337 27.9565 14.6039 27.4424 14.4648 26.7275L13.8135 23.376C13.6763 22.6694 14.056 21.9632 14.7217 21.6895L25.7881 17.1455L26.6484 21.6289ZM32.5156 25.0938C31.8976 25.0205 31.318 25.4359 31.1973 26.0566C31.071 26.7068 31.4955 27.336 32.1455 27.4629L33.9131 27.8066L34.001 27.8203C34.6192 27.8938 35.1986 27.4784 35.3193 26.8574C35.4454 26.2072 35.0212 25.5778 34.3711 25.4512L32.6035 25.1074L32.5156 25.0938ZM35.5156 21.0293C35.3687 20.3834 34.7261 19.9784 34.0801 20.125L31.7393 20.6562L31.6533 20.6797C31.0584 20.8619 30.6954 21.4752 30.835 22.0918C30.9816 22.7378 31.6245 23.1433 32.2705 22.9971L34.6113 22.4648L34.6982 22.4424C35.2934 22.2601 35.6557 21.6461 35.5156 21.0293ZM32.8643 15.71C32.3937 15.2437 31.6335 15.2464 31.167 15.7168L29.8994 16.9951L29.8301 17.0713C29.435 17.5442 29.4609 18.2502 29.9062 18.6924C30.3768 19.159 31.1368 19.1551 31.6035 18.6846L32.8711 17.4072L32.9414 17.3301C33.3364 16.857 33.3099 16.152 32.8643 15.71Z" fill="#333333"/>
</svg>
