<svg width="48" height="48" viewBox="0 0 48 48" fill="none" xmlns="http://www.w3.org/2000/svg">
<path d="M6.58579 6.58594C7.36683 5.80489 8.63286 5.80489 9.41391 6.58594L41.4139 38.5859C42.195 39.367 42.195 40.633 41.4139 41.4141C40.6329 42.1951 39.3668 42.1951 38.5858 41.4141L25.9998 28.8281V40C25.9998 41.1044 25.1041 41.9997 23.9998 42C22.8954 41.9998 21.9998 41.1045 21.9998 40V24.8281L19.3329 22.1611L14.0809 27.4141C13.3312 28.1638 12.1341 28.1934 11.3485 27.5039L11.2528 27.4141C10.4717 26.633 10.4717 25.367 11.2528 24.5859L16.5047 19.333L6.58579 9.41406C5.80474 8.63301 5.80474 7.36699 6.58579 6.58594ZM24.0721 12.668L24.2127 12.6777L24.3133 12.6914L24.4735 12.7227L24.5575 12.7451L24.6698 12.7812L24.7987 12.832L24.8944 12.877L25.0174 12.9443L25.1375 13.0215L25.2586 13.1123L25.3309 13.1738L25.4139 13.2529L36.7479 24.5859C37.5283 25.3669 37.5283 26.6331 36.7479 27.4141L36.6522 27.5039C36.1454 27.9489 35.4672 28.0926 34.8485 27.9385L21.3739 14.4639L22.5858 13.2529L22.6952 13.1514L22.8084 13.0596L22.953 12.9619L23.0135 12.9268L23.1063 12.877L23.2186 12.8252C23.293 12.7937 23.3677 12.767 23.4432 12.7451L23.5545 12.7168L23.7137 12.6875L23.787 12.6777C23.8105 12.6753 23.8342 12.6735 23.8573 12.6719L23.9998 12.667L24.0721 12.668ZM33.3338 6C34.438 6.00052 35.3338 6.89575 35.3338 8C35.3338 9.10425 34.438 9.99948 33.3338 10H16.91L13.3797 6.46973C13.7276 6.177 14.1766 6 14.6668 6H33.3338Z" fill="#333333"/>
</svg>
