<svg width="48" height="48" viewBox="0 0 48 48" fill="none" xmlns="http://www.w3.org/2000/svg">
<path d="M23.8043 12.6758C23.9341 12.6631 24.0651 12.6631 24.1949 12.6758C24.2324 12.6794 24.2694 12.6857 24.3062 12.6914C24.3333 12.6956 24.3604 12.6988 24.3873 12.7041C24.422 12.7109 24.4558 12.7209 24.4898 12.7295C24.5162 12.7361 24.5429 12.7413 24.5689 12.749L24.5943 12.7568C24.6209 12.7651 24.6464 12.7758 24.6725 12.7852C24.7028 12.796 24.7334 12.806 24.7633 12.8184C24.7942 12.8311 24.824 12.8461 24.8541 12.8604C24.8837 12.8743 24.914 12.8868 24.943 12.9023C24.9731 12.9185 25.0016 12.9374 25.0309 12.9551C25.0566 12.9706 25.0829 12.9852 25.108 13.002C25.146 13.0273 25.1822 13.0552 25.2184 13.083C25.2336 13.0948 25.2502 13.1049 25.2652 13.1172C25.3172 13.1597 25.3663 13.2055 25.4137 13.2529L36.7477 24.5859C37.5285 25.3669 37.5285 26.6331 36.7477 27.4141L36.6519 27.5039C35.8664 28.1937 34.6693 28.1637 33.9195 27.4141L25.9996 19.4941V40C25.9996 41.1046 25.1042 42 23.9996 42C22.8952 41.9998 21.9996 41.1045 21.9996 40V19.4951L14.0807 27.4141C13.2996 28.1951 12.0336 28.1951 11.2525 27.4141C10.4715 26.633 10.4715 25.367 11.2525 24.5859L22.5855 13.2529C22.6329 13.2055 22.682 13.1597 22.734 13.1172C22.7475 13.1061 22.7622 13.0966 22.776 13.0859C22.8105 13.0591 22.8451 13.0323 22.8814 13.0078L22.899 12.9961C22.9229 12.9804 22.9479 12.9668 22.9723 12.9521C23.0001 12.9354 23.0275 12.9177 23.0562 12.9023C23.0852 12.8868 23.1156 12.8743 23.1451 12.8604C23.1752 12.8461 23.205 12.8311 23.2359 12.8184C23.2646 12.8065 23.2938 12.7966 23.3228 12.7861C23.354 12.7749 23.3848 12.7626 23.4166 12.7529C23.4501 12.7427 23.4842 12.735 23.5182 12.7266C23.5483 12.7191 23.5783 12.7111 23.609 12.7051C23.6397 12.699 23.6708 12.6951 23.7018 12.6904C23.7358 12.6853 23.7698 12.6791 23.8043 12.6758ZM33.3336 6C34.438 6.00018 35.3336 6.89554 35.3336 8C35.3336 9.10446 34.438 9.99982 33.3336 10H14.6666C13.562 10 12.6666 9.10457 12.6666 8C12.6666 6.89543 13.562 6 14.6666 6H33.3336Z" fill="#333333"/>
</svg>
