<svg width="48" height="48" viewBox="0 0 48 48" fill="none" xmlns="http://www.w3.org/2000/svg">
<path fill-rule="evenodd" clip-rule="evenodd" d="M36.2075 8.52946C37.2262 8.80138 37.8503 9.81244 37.6572 10.832L37.624 10.9776L36.684 14.4993L39 14.5C40.1046 14.5 41 15.3954 41 16.5C41 17.5544 40.1841 18.4182 39.1493 18.4945L39 18.5L35.616 18.4993L32.679 29.4993L34 29.5C35.1046 29.5 36 30.3954 36 31.5C36 32.5544 35.1841 33.4182 34.1493 33.4945L34 33.5L31.612 33.4993L30.4027 38.0304C30.1179 39.0976 29.0218 39.7318 27.9546 39.4469C26.9359 39.175 26.3117 38.1639 26.5048 37.1444L26.538 36.9988L27.472 33.4993H15.612L14.4027 38.0304C14.1179 39.0976 13.0218 39.7318 11.9546 39.4469C10.9359 39.175 10.3117 38.1639 10.5048 37.1444L10.538 36.9988L11.472 33.4993L8 33.5C6.89543 33.5 6 32.6046 6 31.5C6 30.4456 6.81588 29.5818 7.85074 29.5055L8 29.5L12.54 29.4993L15.476 18.4993L13 18.5C11.8954 18.5 11 17.6046 11 16.5C11 15.4456 11.8159 14.5818 12.8507 14.5055L13 14.5L16.543 14.4993L17.7593 9.94599C18.0442 8.87879 19.1403 8.24459 20.2075 8.52946C21.2262 8.80138 21.8503 9.81244 21.6572 10.832L21.624 10.9776L20.684 14.4993H32.543L33.7593 9.94599C34.0442 8.87879 35.1403 8.24459 36.2075 8.52946ZM28.54 29.4993L31.476 18.4993H19.616L16.679 29.4993H28.54Z" fill="#333333"/>
</svg>
