<svg width="48" height="48" viewBox="0 0 48 48" fill="none" xmlns="http://www.w3.org/2000/svg">
<path d="M35.2354 9.52801C35.5169 8.98182 36.3342 9.12293 36.4162 9.73187L36.8572 13.0062C36.9579 13.7537 37.4529 14.3893 38.153 14.67L41.1209 15.8598C41.6642 16.0776 41.6405 16.8547 41.085 17.039L36.8934 18.4292C36.3948 18.5946 35.9766 18.9414 35.7218 19.4008L34.0067 22.4923C33.7121 23.0235 32.91 22.8686 32.8343 22.2659L32.4036 18.8376C32.3174 18.1523 31.8988 17.5535 31.2848 17.2373L28.4443 15.7746C27.9208 15.505 28.0227 14.7281 28.5979 14.6025L32.1673 13.8235C32.7773 13.6903 33.296 13.2919 33.582 12.7369L35.2354 9.52801Z" fill="#E62828"/>
<path d="M18.2598 9.95777C18.5447 8.89061 19.6408 8.25591 20.708 8.54077C21.7749 8.82583 22.4087 9.92203 22.124 10.989L21.1836 14.5115H24.4873C25.5918 14.5116 26.4872 15.407 26.4873 16.5115C26.4872 17.6159 25.5917 18.5114 24.4873 18.5115H20.1162L17.1797 29.5115H29.0479L30.0898 25.6228C30.3757 24.5559 31.4722 23.9229 32.5391 24.2087C33.6057 24.4948 34.239 25.5912 33.9531 26.658L33.1885 29.5115H34.5C35.6045 29.5115 36.4999 30.407 36.5 31.5115C36.4999 32.6159 35.6045 33.5115 34.5 33.5115H32.1172L30.9023 38.0437C30.6163 39.1101 29.5197 39.7442 28.4531 39.4587C27.3864 39.1729 26.7535 38.0753 27.0391 37.0085L27.9766 33.5115H16.1123L14.9033 38.0417C14.6184 39.1086 13.522 39.7432 12.4551 39.4587C11.388 39.1739 10.7535 38.0776 11.0381 37.0105L11.9717 33.5115H8.5C7.39551 33.5115 6.50012 32.6159 6.5 31.5115C6.50006 30.407 7.39547 29.5115 8.5 29.5115H13.04L15.9766 18.5115H13.5C12.3955 18.5115 11.5001 17.6159 11.5 16.5115C11.5001 15.407 12.3955 14.5115 13.5 14.5115H17.0439L18.2598 9.95777Z" fill="#333333"/>
</svg>
