<svg width="48" height="48" viewBox="0 0 48 48" fill="none" xmlns="http://www.w3.org/2000/svg">
<path fill-rule="evenodd" clip-rule="evenodd" d="M24 5C34.4934 5 43 13.5066 43 24C43 34.4934 34.4934 43 24 43C13.5066 43 5 34.4934 5 24C5 13.5066 13.5066 5 24 5ZM30.9245 14.8406C30.3242 14.6804 29.7087 15.0048 29.4932 15.5736L29.4556 15.6905L28.725 18.4227H21.61L22.1744 16.3095L22.2001 16.1893C22.2968 15.5889 21.9248 15.0008 21.3245 14.8406C20.7242 14.6804 20.1087 15.0048 19.8932 15.5736L19.8556 15.6905L19.125 18.4227L17 18.4229L16.8773 18.4291C16.2722 18.4906 15.8 19.0016 15.8 19.6229C15.8 20.2442 16.2722 20.7553 16.8773 20.8167L17 20.8229L18.485 20.8227L16.723 27.4227L14 27.4229L13.8773 27.4291C13.2722 27.4906 12.8 28.0016 12.8 28.6229C12.8 29.2442 13.2722 29.7553 13.8773 29.8167L14 29.8229L16.082 29.8227L15.5228 31.9222L15.4972 32.0423C15.4005 32.6428 15.7724 33.2308 16.3727 33.3911C16.973 33.5513 17.5886 33.2269 17.804 32.6581L17.8416 32.5412L18.567 29.8227H25.682L25.1228 31.9222L25.0972 32.0423C25.0005 32.6428 25.3724 33.2308 25.9727 33.3911C26.573 33.5513 27.1886 33.2269 27.404 32.6581L27.4416 32.5412L28.167 29.8227L29.6 29.8229L29.7227 29.8167C30.3278 29.7553 30.8 29.2442 30.8 28.6229C30.8 28.0016 30.3278 27.4906 29.7227 27.4291L29.6 27.4229L28.807 27.4227L30.569 20.8227L32.6 20.8229L32.7227 20.8167C33.3278 20.7553 33.8 20.2442 33.8 19.6229C33.8 19.0016 33.3278 18.4906 32.7227 18.4291L32.6 18.4229L31.21 18.4227L31.7744 16.3095L31.8001 16.1893C31.8968 15.5889 31.5248 15.0008 30.9245 14.8406ZM28.085 20.8227L26.323 27.4227H19.207L20.969 20.8227H28.085Z" fill="#333333"/>
</svg>
