<svg width="48" height="48" viewBox="0 0 48 48" fill="none" xmlns="http://www.w3.org/2000/svg">
<path fill-rule="evenodd" clip-rule="evenodd" d="M29.5743 26.7774L29.7015 26.8943L36 33.193V28.8731C36 27.7685 36.8954 26.8731 38 26.8731C39.0544 26.8731 39.9182 27.689 39.9945 28.7239L40 28.8731V36C40 38.1422 38.316 39.8911 36.1996 39.9951L36 40H29C27.8954 40 27 39.1046 27 38C27 36.9456 27.8159 36.0818 28.8507 36.0055L29 36L33.15 35.999L26.873 29.7227C26.092 28.9416 26.092 27.6753 26.873 26.8943C27.613 26.1543 28.7885 26.1154 29.5743 26.7774ZM19.0244 8C20.1289 8 21.0244 8.89543 21.0244 10C21.0244 11.0544 20.2085 11.9182 19.1736 11.9945L19.0244 12L14.806 11.999L21.1868 18.3795C21.9678 19.1606 21.9678 20.4269 21.1868 21.208C20.4468 21.9479 19.2713 21.9869 18.4855 21.3248L18.3583 21.208L12 14.849V19.0195C12 20.124 11.1046 21.0195 10 21.0195C8.94564 21.0195 8.08183 20.2036 8.00549 19.1687L8 19.0195V12C8 9.8578 9.68397 8.10892 11.8004 8.0049L12 8H19.0244Z" fill="#333333"/>
</svg>
