<svg width="48" height="48" viewBox="0 0 48 48" fill="none" xmlns="http://www.w3.org/2000/svg">
<path d="M17 26C19.7614 26 22 28.2386 22 31V37C22 39.7614 19.7614 42 17 42H11C8.23858 42 6 39.7614 6 37V31C6 28.2386 8.23858 26 11 26H17ZM39 35C40.1046 35 41 35.8954 41 37C41 38.1046 40.1046 39 39 39H27C25.8954 39 25 38.1046 25 37C25 35.8954 25.8954 35 27 35H39ZM11 30C10.4477 30 10 30.4477 10 31V37C10 37.5523 10.4477 38 11 38H17C17.5523 38 18 37.5523 18 37V31C18 30.4477 17.5523 30 17 30H11ZM39 28C40.1046 28 41 28.8954 41 30C41 31.1046 40.1046 32 39 32H27C25.8954 32 25 31.1046 25 30C25 28.8954 25.8954 28 27 28H39ZM17 6C19.7614 6 22 8.23858 22 11V17C22 19.7614 19.7614 22 17 22H11C8.23858 22 6 19.7614 6 17V11C6 8.23858 8.23858 6 11 6H17ZM39 16C40.1046 16 41 16.8954 41 18C41 19.1046 40.1046 20 39 20H27C25.8954 20 25 19.1046 25 18C25 16.8954 25.8954 16 27 16H39ZM11 10C10.4477 10 10 10.4477 10 11V17C10 17.5523 10.4477 18 11 18H17C17.5523 18 18 17.5523 18 17V11C18 10.4477 17.5523 10 17 10H11ZM39 9C40.1046 9 41 9.89543 41 11C41 12.1046 40.1046 13 39 13H27C25.8954 13 25 12.1046 25 11C25 9.89543 25.8954 9 27 9H39Z" fill="#333333"/>
</svg>
