<svg width="48" height="48" viewBox="0 0 48 48" fill="none" xmlns="http://www.w3.org/2000/svg">
<path fill-rule="evenodd" clip-rule="evenodd" d="M12.8587 14.1913C17.7652 9.00846 24.6835 6.11686 28.1093 9.39183C28.46 9.7271 28.6755 10.1768 28.7191 10.656L28.7273 10.8369V36.9324C28.7273 37.4978 28.4878 38.0367 28.0683 38.4158C24.2189 41.8949 16.8959 38.4764 12.202 32.6319L11.9872 32.3604L11.806 32.125L9.27273 32.1248C6.5082 32.1248 4.24059 29.9972 4.01794 27.2901L4.0044 27.0694L4 26.852V19.783C4 16.9437 6.24412 14.6286 9.05535 14.5146L9.27269 14.5102L12.562 14.51L12.8587 14.1913ZM24.626 11.9811C22.6364 11.7291 18.1242 14.1042 14.9917 17.8027C14.6497 18.2065 14.1634 18.4565 13.6409 18.5024L13.4656 18.5101L9.27273 18.5102C8.61375 18.5102 8.07175 19.011 8.00657 19.6528L8 19.783V26.852C8 27.511 8.50082 28.053 9.14277 28.1182L9.27294 28.1248L12.8276 28.1252C13.4858 28.1252 14.1017 28.4491 14.4749 28.9912C17.4437 33.3043 22.2725 36.1643 24.5636 35.81L24.7125 35.7816L24.727 35.777V11.997L24.626 11.9811ZM40.6202 13.9862C42.7979 16.7991 44 20.2532 44 23.8848C44 27.5462 42.7781 31.0267 40.5675 33.851C39.8867 34.7209 38.6297 34.8741 37.7599 34.1933C36.89 33.5125 36.7368 32.2555 37.4176 31.3857C39.0821 29.259 40 26.6445 40 23.8848C40 21.1475 39.097 18.5529 37.4573 16.4349C36.7811 15.5615 36.941 14.3053 37.8144 13.6291C38.6878 12.953 39.944 13.1128 40.6202 13.9862ZM35.8154 18.5071C36.8776 20.0843 37.4545 21.9441 37.4545 23.8848C37.4545 25.9068 36.8281 27.84 35.6817 29.4558C35.0425 30.3567 33.7941 30.5689 32.8932 29.9297C32.0374 29.3225 31.8031 28.1654 32.3299 27.2789L32.4194 27.1413C33.0897 26.1964 33.4545 25.0706 33.4545 23.8848C33.4545 22.7465 33.1186 21.6635 32.4977 20.7416C31.8807 19.8254 32.1232 18.5825 33.0393 17.9655C33.9555 17.3485 35.1984 17.591 35.8154 18.5071Z" fill="#333333"/>
</svg>
