<svg width="48" height="48" viewBox="0 0 48 48" fill="none" xmlns="http://www.w3.org/2000/svg">
<path d="M36 8C40.4183 8 44 11.5817 44 16V32C44 36.4183 40.4183 40 36 40H23.457C22.8127 40 22.2077 39.6896 21.832 39.166L21.2217 38.3144C19.6453 36.1163 16.5849 35.6121 14.3867 37.1885C13.8219 37.5936 13.3501 38.1147 13.0254 38.6748L12.8682 38.9609C12.5171 39.6016 11.8448 40 11.1143 40C7.18517 40 4.00001 36.8148 4 32.8857V15.1143C4.00002 11.297 7.01229 8.16438 10.8564 8.00488L11.0732 8C11.8355 7.98435 12.5403 8.40388 12.8906 9.08105L13.001 9.2832C14.3013 11.5355 17.1572 12.3887 19.4912 11.1816C20.1779 10.8265 20.7711 10.3138 21.2217 9.68554L21.832 8.83398C22.2077 8.31044 22.8127 8.00003 23.457 8H36ZM16.5 18C15.3954 18 14.5 18.8954 14.5 20V27L14.5059 27.1494C14.5823 28.1842 15.4457 29 16.5 29C17.6046 29 18.5 28.1046 18.5 27V20L18.4941 19.8506C18.4177 18.8158 17.5543 18 16.5 18Z" fill="#333333"/>
</svg>
