<svg width="48" height="48" viewBox="0 0 48 48" fill="none" xmlns="http://www.w3.org/2000/svg">
<path fill-rule="evenodd" clip-rule="evenodd" d="M12.1143 8C12.8086 8 13.4491 8.35965 13.8121 8.94281L14.0014 9.28364C15.3017 11.5359 18.157 12.389 20.4911 11.1819C21.092 10.8712 21.6211 10.4398 22.0458 9.91589L22.2214 9.68578L22.8319 8.83445C23.1734 8.35827 23.7045 8.05824 24.2825 8.00763L24.4571 8H36C40.3349 8 43.8645 11.4478 43.9962 15.7508L44 16V32C44 36.3349 40.5522 39.8645 36.2492 39.9962L36 40H24.4571C23.8712 40 23.3179 39.7433 22.9399 39.303L22.8319 39.1655L22.2214 38.3142C20.645 36.1161 17.5851 35.612 15.387 37.1884C14.8926 37.5429 14.4694 37.9859 14.1538 38.4663L14.0252 38.6743L13.8686 38.9605C13.5446 39.5521 12.9466 39.9372 12.2818 39.993L12.1143 40L11.7508 39.9962C7.53059 39.8671 4.13293 36.4694 4.00381 32.2492L4 32V16C4 11.6651 7.44784 8.13546 11.7508 8.00381L12.1143 8ZM36 12H25.482L25.2619 12.2978C24.4726 13.3116 23.4722 14.1435 22.3285 14.735C18.5329 16.6978 13.9785 15.6619 11.3707 12.4883L11.1998 12.2735L11.076 12.108L11.0294 12.1186C9.41597 12.5207 8.19012 13.9025 8.02018 15.5957L8.0049 15.8004L8 16V32C8 33.805 9.19555 35.3308 10.838 35.8286L11.0294 35.8814L11.078 35.892L11.1681 35.7703C11.5492 35.2709 11.9825 34.8129 12.4608 34.4042L12.7531 34.1649L13.0559 33.9379C16.9739 31.1281 22.3989 31.9565 25.3069 35.7604L25.483 36H36C38.0731 36 39.7778 34.4229 39.9799 32.4031L39.9951 32.1996L40 32V16C40 13.8578 38.316 12.1089 36.1996 12.0049L36 12ZM18.5 19C19.5544 19 20.4182 19.8159 20.4945 20.8507L20.5 21V27C20.5 28.1046 19.6046 29 18.5 29C17.4456 29 16.5818 28.1841 16.5055 27.1493L16.5 27V21C16.5 19.8954 17.3954 19 18.5 19Z" fill="#333333"/>
</svg>
