<svg width="48" height="48" viewBox="0 0 48 48" fill="none" xmlns="http://www.w3.org/2000/svg">
<path d="M24 5C34.4934 5 43 13.5066 43 24C43 34.4934 34.4934 43 24 43C13.5066 43 5 34.4934 5 24C5 13.5066 13.5066 5 24 5ZM23.4736 13.7998C23.0872 13.8 22.7243 13.9867 22.499 14.3008L22.1328 14.8115C21.8625 15.1884 21.5067 15.4959 21.0947 15.709C19.6531 16.4544 17.8803 15.8898 17.1348 14.4482C16.923 14.039 16.4948 13.7876 16.0342 13.8008L15.8535 13.8057C13.5677 13.9377 11.7999 15.8043 11.7998 18.0684V28.7314C11.7999 31.0887 13.7111 32.9999 16.0684 33C16.5043 33 16.9056 32.763 17.1172 32.3818L17.2363 32.1689C17.4257 31.8515 17.7028 31.5488 18.0322 31.3125C19.351 30.367 21.187 30.6697 22.1328 31.9883L22.499 32.499C22.7243 32.8131 23.0871 32.9998 23.4736 33H31C33.6507 32.9999 35.7996 30.8509 35.7998 28.2002V18.5996C35.7996 15.9489 33.6507 13.7999 31 13.7998H23.4736ZM31 16.2002C32.3253 16.2003 33.3992 17.2744 33.3994 18.5996V28.2002L33.3945 28.3643C33.31 29.613 32.2701 30.5995 31 30.5996H24.0908L24.083 30.5898C22.3648 28.1941 19.0297 27.6444 16.6338 29.3623L16.4131 29.5293C16.1261 29.7585 15.8642 30.0167 15.6309 30.2988L15.4707 30.501L15.373 30.4658C14.6856 30.1899 14.2003 29.5175 14.2002 28.7314V18.0684L14.2061 17.9131C14.2651 17.198 14.7282 16.5938 15.3691 16.335L15.4697 16.2979L15.4893 16.3242C17.0282 18.3595 19.854 19.0526 22.1973 17.8408C22.8625 17.4968 23.4465 17.0168 23.9131 16.4336L24.0898 16.2002H31ZM19.2998 19.7998C18.6372 19.7999 18.0996 20.3373 18.0996 21V25.2002L18.1064 25.3223C18.1679 25.9273 18.6786 26.4003 19.2998 26.4004C19.9625 26.4004 20.4999 25.8628 20.5 25.2002V21L20.4941 20.877C20.4325 20.272 19.921 19.7998 19.2998 19.7998Z" fill="#333333"/>
</svg>
