<svg width="48" height="48" viewBox="0 0 48 48" fill="none" xmlns="http://www.w3.org/2000/svg">
<path d="M24 4C35.0457 4 44 12.9543 44 24C44 35.0457 35.0457 44 24 44C12.9543 44 4 35.0457 4 24C4 12.9543 12.9543 4 24 4ZM24 8C15.1635 8 8 15.1635 8 24C8 32.8365 15.1635 40 24 40C32.8365 40 40 32.8365 40 24C40 15.1635 32.8365 8 24 8ZM29.665 17.3564C31.4201 17.3566 32.9301 18.022 34.1738 19.2305C34.8903 19.9268 34.9059 21.0723 34.21 21.7891C33.5135 22.5057 32.3681 22.5226 31.6514 21.8262C31.0576 21.2493 30.437 20.9757 29.665 20.9756C29.1829 20.9756 28.8117 21.3864 28.8223 21.8174C28.8265 21.9797 28.9684 22.1135 29.7432 22.4648C29.8326 22.5054 29.9011 22.5357 30.0996 22.623L32.0791 23.5215C34.51 24.6619 35.7371 26.0267 35.7373 28.4648C35.7373 31.0127 33.2936 33.2525 30.041 33.2529C27.6407 33.2529 25.814 32.2638 24.5234 30.2383C23.9866 29.3955 24.2344 28.2763 25.0771 27.7393C25.9199 27.2027 27.0392 27.4505 27.5762 28.293C28.1984 29.2697 28.8703 29.6338 30.041 29.6338C31.3617 29.6335 32.1182 28.9403 32.1182 28.4648C32.118 27.717 31.8384 27.4063 30.5625 26.8076L28.624 25.9277C28.4318 25.8433 28.3553 25.8094 28.248 25.7607C26.3334 24.8925 25.2544 23.8669 25.2051 21.9082C25.145 19.5029 27.0842 17.3564 29.665 17.3564ZM21.3359 18.1172C21.7005 17.1871 22.7503 16.7277 23.6807 17.0918C24.6109 17.4562 25.07 18.5061 24.7061 19.4365C24.6682 19.5333 24.6371 19.6125 24.6055 19.6934L24.5732 19.7754C24.4404 20.1147 24.2503 20.6004 23.4912 22.5391C22.9061 24.0336 22.5626 24.9116 22.2041 25.8271L22.0898 26.1191C21.6101 27.3443 21.0578 28.7561 19.8477 31.8467C19.2474 33.3797 17.0779 33.3795 16.4775 31.8467L11.6182 19.4365C11.254 18.506 11.7131 17.4561 12.6436 17.0918C13.5739 16.7279 14.6239 17.187 14.9883 18.1172L18.1621 26.2227L18.2178 26.082C18.8742 24.4054 19.2051 23.5601 20.0312 21.4502L20.1211 21.2197C20.9115 19.201 21.0854 18.7582 21.2197 18.415L21.252 18.333C21.2782 18.266 21.3045 18.1975 21.3359 18.1172Z" fill="#333333"/>
</svg>
