<svg width="48" height="48" viewBox="0 0 48 48" fill="none" xmlns="http://www.w3.org/2000/svg">
<path d="M20.9825 5.81657C23.8395 4.14997 27.5072 5.11588 29.1739 7.97282L43.1847 31.9904C43.7188 32.9062 44 33.9478 44.0001 35.008C44.0001 38.3157 41.3185 40.9972 38.0108 40.9972H9.99031C8.93012 40.9972 7.88855 40.7159 6.97273 40.1818C4.11584 38.5151 3.15005 34.8474 4.81648 31.9904L18.8272 7.97282C19.3478 7.08049 20.0902 6.33712 20.9825 5.81657ZM25.7247 9.98454C25.1691 9.03235 23.9465 8.71029 22.9942 9.26579C22.6969 9.43928 22.4499 9.68723 22.2764 9.98454L8.2657 34.0021C7.71019 34.9544 8.03223 36.177 8.98445 36.7326C9.28969 36.9106 9.63696 37.0041 9.99031 37.0041H38.0108C39.1134 37.0041 40.0069 36.1105 40.0069 35.008C40.0069 34.6546 39.9135 34.3073 39.7354 34.0021L25.7247 9.98454ZM24.0001 29.5002C25.1046 29.5002 26.0001 30.3956 26.0001 31.5002V32.5002C26.0001 33.6047 25.1046 34.5002 24.0001 34.5002C22.8955 34.5002 22.0001 33.6047 22.0001 32.5002V31.5002C22.0001 30.3956 22.8955 29.5002 24.0001 29.5002ZM23.9981 15.5002C25.1026 15.4991 25.9989 16.3937 26.0001 17.4982L26.0079 25.4982C26.009 26.6026 25.1152 27.4988 24.0108 27.5002C22.9063 27.5013 22.01 26.6067 22.0089 25.5021L22.0001 17.5021C21.999 16.3976 22.8936 15.5013 23.9981 15.5002Z" fill="#333333"/>
</svg>
