<svg width="48" height="48" viewBox="0 0 48 48" fill="none" xmlns="http://www.w3.org/2000/svg">
<path d="M24 5C34.4913 5 43 13.5087 43 24C43 34.4913 34.4913 43 24 43C13.5087 43 5 34.4913 5 24C5 13.5087 13.5087 5 24 5ZM28.9014 20.4756C24.7712 20.4756 21.4943 23.3389 21.5215 26.8633C21.5215 30.4153 24.7983 33.2791 28.9561 33.2793C29.8372 33.2793 30.7187 33.0591 31.5723 32.8389L33.9404 34.1611L33.2793 31.958C35.014 30.6363 36.3085 28.8741 36.3086 26.8916C36.3086 23.367 32.839 20.4756 28.9014 20.4756ZM20.3926 13.8115C15.6289 13.8116 11.6914 17.1161 11.6914 21.3291C11.6914 23.7246 13.0132 25.7344 15.1885 27.2764L14.335 29.9482L17.3633 28.4062L17.4922 28.4365C18.483 28.6716 19.3366 28.874 20.3926 28.874C20.6679 28.874 20.9708 28.8459 21.2461 28.8184C21.081 28.2127 20.9707 27.6068 20.9707 26.9736C20.9709 23.1187 24.2203 20.0073 28.3506 19.9521C28.6259 19.9521 28.9014 19.9793 29.1768 20.0068C28.4331 16.4549 24.6605 13.8115 20.3926 13.8115ZM26.5059 24C27.1665 24 27.6072 24.4404 27.6074 24.8809C27.6074 25.3214 27.1667 25.7627 26.5059 25.7627C26.0928 25.7627 25.6523 25.349 25.6523 24.8809C25.6525 24.4679 26.0654 24 26.5059 24ZM31.2969 24C31.9576 24 32.3982 24.4404 32.3984 24.8809C32.3984 25.3214 31.9577 25.7627 31.2969 25.7627C30.8839 25.7625 30.4434 25.3489 30.4434 24.8809C30.4436 24.468 30.8565 24.0002 31.2969 24ZM17.5566 17.6113C18.2174 17.6114 18.6581 18.0246 18.6582 18.7129C18.6582 19.3737 18.2174 19.8144 17.5566 19.8145C16.8958 19.8145 16.2344 19.3738 16.2344 18.7129C16.2345 18.0521 16.8958 17.6113 17.5566 17.6113ZM23.6699 17.6113C24.3305 17.6115 24.7714 18.0522 24.7715 18.7129C24.7715 19.3461 24.3306 19.8143 23.6699 19.8145C23.0091 19.8145 22.3477 19.3738 22.3477 18.7129C22.3478 18.0521 23.0091 17.6113 23.6699 17.6113Z" fill="#333333"/>
</svg>
