<svg width="48" height="48" viewBox="0 0 48 48" fill="none" xmlns="http://www.w3.org/2000/svg">
<path d="M16.6663 8C20.7162 8 24.0001 11.2831 24.0002 15.333C24.0002 19.3831 20.7163 22.667 16.6663 22.667C12.6163 22.6668 9.33325 19.383 9.33325 15.333C9.33343 11.2832 12.6164 8.00018 16.6663 8ZM16.6663 12C14.8256 12.0002 13.3334 13.4923 13.3333 15.333C13.3333 17.1738 14.8255 18.6668 16.6663 18.667C18.5072 18.667 20.0002 17.174 20.0002 15.333C20.0001 13.4922 18.5071 12 16.6663 12Z" fill="#333333"/>
<path d="M4 35.0001C4 26.8539 7.60183 24.0001 16.667 24.0001C25.7319 24.0002 29.333 26.854 29.333 35.0001C29.3329 37.395 27.4252 38.6762 24.4287 39.3478C22.426 39.7966 19.8053 39.9946 16.6699 40.0001C13.5347 40.0056 10.8941 39.8088 8.88379 39.3546C5.90213 38.681 4.00011 37.3904 4 35.0001ZM8.03613 34.8273C8.35731 35.0452 8.94904 35.2678 9.76562 35.4523C11.4263 35.8274 13.8012 36.0051 16.6631 36.0001C19.5313 35.9951 21.8943 35.8163 23.5537 35.4445C24.3764 35.2601 24.9729 35.0376 25.2979 34.8195L25.332 34.796V34.7355C25.2817 29.3408 23.6433 28.041 16.9922 28.0011L16.667 28.0001C9.71468 28.0001 8.03879 29.2642 8.00098 34.8038L8.03613 34.8273Z" fill="#333333"/>
<path d="M32.667 9.33337C36.3487 9.33355 39.333 12.3186 39.333 16.0004C39.3328 19.682 36.3486 22.6662 32.667 22.6664C28.9852 22.6664 26.0002 19.6821 26 16.0004C26 12.3185 28.9851 9.33337 32.667 9.33337ZM32.667 13.3334C31.1942 13.3334 30 14.5276 30 16.0004C30.0002 17.473 31.1943 18.6664 32.667 18.6664C34.1395 18.6662 35.3328 17.4729 35.333 16.0004C35.333 14.5277 34.1396 13.3335 32.667 13.3334Z" fill="#333333"/>
<path d="M30.6667 26C30.6667 24.8955 31.5622 24 32.6667 24C40.6691 24 44.0001 26.7326 44.0001 34.0417C44.0001 36.0261 42.5609 37.211 40.3731 37.8669C38.929 38.2999 37.0429 38.537 34.7515 38.6265C33.6478 38.6696 32.7181 37.8098 32.675 36.7061C32.6318 35.6024 33.4916 34.6727 34.5953 34.6295C36.5791 34.552 38.167 34.3524 39.2243 34.0354C39.5131 33.9489 39.7425 33.859 39.9071 33.7764L39.9977 33.728L39.995 33.5476C39.9009 29.1391 38.463 28.0389 32.9704 28.001L32.6667 28C31.5622 28 30.6667 27.1046 30.6667 26Z" fill="#333333"/>
</svg>
