<svg width="48" height="48" viewBox="0 0 48 48" fill="none" xmlns="http://www.w3.org/2000/svg">
<path d="M32.3711 18.0801C39.0516 18.0801 44.9998 22.8926 45 28.7979C45 32.1287 42.7737 35.0791 39.7891 37.3066L40.9072 41L36.8311 38.7773C35.3453 39.1477 33.8516 39.5156 32.3711 39.5156C25.2994 39.5156 19.7295 34.7188 19.7295 28.7979C19.7296 22.8952 25.2968 18.0801 32.3711 18.0801ZM17.8652 7C25.1757 7 31.5778 11.421 32.8643 17.373C32.3866 17.3209 31.9116 17.2852 31.4287 17.2852C24.3701 17.2852 18.7946 22.5225 18.792 28.9756C18.792 30.0528 18.9623 31.0857 19.251 32.0742C18.7944 32.1081 18.3323 32.1289 17.8652 32.1289C16.0095 32.1289 14.5186 31.7532 12.6602 31.3906L7.46289 33.9785L8.94824 29.5361C5.22603 26.9486 3 23.6175 3 19.5615C3.00022 12.5322 9.69381 7.00006 17.8652 7ZM28.2705 23.9961C27.533 23.9963 26.7852 24.7372 26.7852 25.4727C26.7853 26.2184 27.5331 26.949 28.2705 26.9492C29.3991 26.9492 30.1317 26.2186 30.1318 25.4727C30.1318 24.7371 29.3993 23.9961 28.2705 23.9961ZM36.4473 23.9961C35.7124 23.9964 34.9697 24.7373 34.9697 25.4727C34.9699 26.2184 35.7151 26.9489 36.4473 26.9492C37.5654 26.9492 38.3084 26.2186 38.3086 25.4727C38.3086 24.7371 37.5655 23.9961 36.4473 23.9961ZM13.0352 13.2812C11.9196 13.2813 10.7959 14.0139 10.7959 15.125C10.7959 16.2309 11.9196 16.9716 13.0352 16.9717C14.1508 16.9717 14.8916 16.2309 14.8916 15.125C14.8916 14.0113 14.1508 13.2812 13.0352 13.2812ZM23.4385 13.2812C22.3255 13.2812 21.21 14.0113 21.21 15.125C21.21 16.2309 22.3281 16.9717 23.4385 16.9717C24.5618 16.9716 25.2998 16.2309 25.2998 15.125C25.2998 14.0139 24.5618 13.2813 23.4385 13.2812Z" fill="#333333"/>
</svg>
