<svg width="48" height="48" viewBox="0 0 48 48" fill="none" xmlns="http://www.w3.org/2000/svg">
<path d="M9.87891 17.3684C15.3531 12.1705 21.8045 10.0737 25.3818 13.4817L25.585 13.6848C26.0522 14.1746 26.4158 14.7291 26.6758 15.3342L26.7412 15.4993L26.8555 15.4817C29.8361 15.0788 32.338 15.7491 33.8936 17.6858L34.0518 17.8909C34.8124 18.9246 35.1646 20.1178 35.1416 21.3938L35.1396 21.4143L35.2998 21.5071C37.6017 22.8948 39.0338 25.043 39.1299 27.6711L39.1348 27.9543C39.1348 34.7031 30.6444 40.1594 21.0332 40.1594C11.6836 40.1575 4 35.4394 4 28.4895C4.00028 24.8111 6.12372 20.9405 9.87891 17.3684ZM22.623 16.3782C21.1139 14.9405 16.7518 16.3576 12.6338 20.2678C9.60198 23.1519 8.00032 26.0724 8 28.4895C8 32.7131 13.6103 36.158 21.0342 36.1594C28.7082 36.1593 35.1348 32.029 35.1348 27.9543C35.1345 26.4221 34.1333 25.1924 32.2344 24.4417L30.5977 23.7952L31.0312 22.0891C31.2372 21.2793 31.1565 20.7058 30.8301 20.262C30.1324 19.314 28.353 19.0523 25.7178 19.8049L23.1543 20.5374L23.1689 17.8704C23.1726 17.1964 22.9918 16.7279 22.623 16.3782ZM30.0693 8.08521C34.0844 7.69103 37.5022 8.66209 40.1846 11.0149C42.9351 13.4276 44.1379 16.88 43.8252 21.1721C43.7449 22.2738 42.7872 23.102 41.6855 23.0217C40.584 22.9415 39.7559 21.9836 39.8359 20.8821C40.0627 17.7705 39.2894 15.5501 37.5469 14.0217C35.7362 12.4335 33.4198 11.776 30.46 12.0667C29.3608 12.1746 28.3825 11.3709 28.2744 10.2717C28.1665 9.17245 28.9701 8.19315 30.0693 8.08521Z" fill="#333333"/>
</svg>
