<svg width="48" height="48" viewBox="0 0 48 48" fill="none" xmlns="http://www.w3.org/2000/svg">
<path fill-rule="evenodd" clip-rule="evenodd" d="M23.7289 6.71366C24.8335 6.71366 25.7289 7.60909 25.7289 8.71366C25.7289 9.81823 24.8335 10.7137 23.7289 10.7137L23.3801 10.7148L22.6989 10.7237L22.0394 10.7418L21.4013 10.7695C21.1922 10.7803 20.9865 10.7928 20.7844 10.807L20.1882 10.8545L19.6125 10.9125L19.3323 10.9454L18.7869 11.0195C13.789 11.7624 11.3762 13.9588 10.4745 18.6829L10.3837 19.1988L10.3425 19.4641L10.2684 20.0095L10.2354 20.2897L10.1775 20.8654L10.1524 21.1609L10.11 21.7675C10.0975 21.9731 10.0866 22.1823 10.0774 22.395L10.0546 23.0438L10.0411 23.7141L10.0366 24.4062L10.0411 25.0984L10.0546 25.7687L10.0774 26.4174L10.0925 26.7338L10.1299 27.3508C10.1441 27.553 10.1599 27.7517 10.1775 27.947L10.2354 28.5227L10.2684 28.8029L10.3425 29.3483L10.4277 29.874C11.2757 34.6886 13.6156 36.9564 18.5216 37.7515L19.0571 37.8311L19.6125 37.8997C19.7067 37.9103 19.8018 37.9204 19.8978 37.93L20.4837 37.9827C20.6824 37.9986 20.8845 38.0127 21.0902 38.0252L21.8779 38.0643L22.6989 38.0885L23.0368 38.0941L23.7289 38.0985L24.4211 38.0941L25.4184 38.0703L26.0565 38.0427C26.2657 38.0319 26.4713 38.0194 26.6735 38.0052L27.2697 37.9577C27.3673 37.9489 27.4641 37.9397 27.5601 37.93L28.1256 37.8668C28.2182 37.8553 28.3099 37.8434 28.4008 37.8311L28.9363 37.7515C33.9298 36.9422 36.2649 34.6071 37.0742 29.6136L37.1538 29.0781L37.2224 28.5227C37.233 28.4284 37.2431 28.3333 37.2527 28.2374L37.3054 27.6515C37.3213 27.4528 37.3354 27.2506 37.3479 27.0449L37.387 26.2573L37.4112 25.4362L37.4168 25.0984L37.4212 24.4062L37.4204 20.854C37.4109 19.7495 38.2985 18.8463 39.403 18.8367C40.4573 18.8275 41.3282 19.6359 41.4135 20.6701L41.4203 20.8193L41.4198 24.7939L41.4079 25.5545L41.3839 26.2956L41.3478 27.0174C41.2844 28.0856 41.1793 29.0892 41.03 30.0305L40.9239 30.6489L40.8659 30.9512L40.7399 31.5422C39.3242 37.7496 35.6079 40.8774 28.7164 41.8003L28.061 41.8804C27.5071 41.9418 26.9335 41.9899 26.3401 42.0251L25.6183 42.0612L24.8772 42.0852L24.1166 42.0971H23.3413L22.5807 42.0852L21.8396 42.0612L21.1178 42.0251C20.5243 41.9899 19.9508 41.9418 19.3968 41.8804L18.7414 41.8003C18.5261 41.7715 18.3138 41.7405 18.1046 41.7073L17.4863 41.6012C10.5821 40.3242 7.20075 36.4962 6.29321 29.0684L6.21952 28.4036C6.19709 28.1789 6.17676 27.951 6.15852 27.72L6.11004 27.0174L6.09044 26.6589L6.06043 25.9275L6.04255 25.1766L6.0381 24.7939L6.03662 24.4062C6.03662 24.1461 6.03859 23.8894 6.04255 23.6358L6.06043 22.885L6.09044 22.1536L6.11004 21.7951L6.15852 21.0925C6.17676 20.8614 6.19709 20.6336 6.21953 20.4088L6.29321 19.7441C7.20077 12.3161 10.5822 8.48806 17.4863 7.211L18.1047 7.10491C18.3138 7.07174 18.5261 7.04074 18.7415 7.0119L19.3969 6.93182C19.84 6.8827 20.2957 6.84208 20.7641 6.80976L21.4763 6.76748C21.7169 6.75544 21.9607 6.74544 22.2077 6.73747L22.9585 6.71958L23.7289 6.71366ZM41.4142 6.58579C42.1541 7.32573 42.1931 8.50121 41.531 9.287L41.4142 9.41421L27.4142 23.4142C26.6331 24.1953 25.3668 24.1953 24.5857 23.4142C23.8458 22.6743 23.8069 21.4988 24.4689 20.713L24.5857 20.5858L38.5857 6.58579C39.3668 5.80474 40.6331 5.80474 41.4142 6.58579Z" fill="#333333"/>
</svg>
