<svg width="48" height="48" viewBox="0 0 48 48" fill="none" xmlns="http://www.w3.org/2000/svg">
<path d="M20.8223 7.70641C21.9266 7.70655 22.8221 8.60211 22.8223 9.70641C22.8223 10.7606 22.0063 11.625 20.9717 11.7015L20.8223 11.7064H12.5C10.9023 11.7064 9.59613 12.9558 9.50488 14.5306L9.5 14.7064V35.2806C9.50022 36.8725 10.7407 38.1754 12.3096 38.2738L12.4854 38.2806L33.9785 38.3851C35.5761 38.3851 36.8822 37.1365 36.9736 35.5619L36.9785 35.3851V29.4388C36.9785 28.3344 37.8742 27.4391 38.9785 27.4388C40.0328 27.4388 40.8972 28.2546 40.9736 29.2894L40.9785 29.4388V35.3851C40.9785 39.1705 37.9743 42.2543 34.2197 42.3812L33.9443 42.3851L12.4658 42.2796C8.6935 42.2612 5.62991 39.2617 5.50391 35.5199L5.5 35.2806V14.7064C5.50021 10.9211 8.50533 7.83813 12.2598 7.71129L12.5 7.70641H20.8223ZM35.1709 6.35191C36.2997 5.21722 38.1347 5.21711 39.2646 6.34996L42.2969 9.39C43.4224 10.5185 43.4228 12.3461 42.2949 13.4798L24.9141 30.848C24.5466 31.215 24.0505 31.425 23.5312 31.433L19.1719 31.5004C18.044 31.5172 17.1247 30.598 17.1416 29.4701L17.209 25.1C17.2169 24.5801 17.4272 24.0838 17.7949 23.7162L35.1709 6.35191ZM21.1963 25.972L21.1729 27.4681L22.6602 27.4447L38.6836 11.432L37.2168 9.96129L21.1963 25.972Z" fill="#333333"/>
</svg>
