<svg width="48" height="48" viewBox="0 0 48 48" fill="none" xmlns="http://www.w3.org/2000/svg">
<path fill-rule="evenodd" clip-rule="evenodd" d="M28.9503 6C30.0047 6 30.8685 6.81588 30.9448 7.85074L30.9503 8L30.9493 8.894L38.0833 8.8943C39.1879 8.8943 40.0833 9.78973 40.0833 10.8943C40.0833 11.9487 39.2674 12.8125 38.2326 12.8888L38.0833 12.8943L30.9493 12.894V14.55L34.1944 14.5509C37.3728 14.5509 39.9631 17.0689 40.0792 20.219L40.0833 20.4398L40.0823 37.826L40.9422 37.8262C41.9966 37.8262 42.8604 38.642 42.9367 39.6769L42.9422 39.8262C42.9422 40.8805 42.1263 41.7443 41.0915 41.8207L40.9422 41.8262L38.5572 41.8277C38.4559 41.8523 38.3516 41.8692 38.245 41.8778L38.0833 41.8842H19.6111C19.4478 41.8842 19.2891 41.8646 19.1372 41.8277L12.4675 41.8262C11.4132 41.8262 10.5494 41.0103 10.473 39.9754L10.4675 39.8262L10.467 15.841L8.51811 18.4568C7.89109 19.2982 6.72886 19.5053 5.85484 18.9581L5.71935 18.8654C4.87795 18.2383 4.67078 17.0761 5.21805 16.2021L5.31075 16.0666L10.8639 8.61487C11.9831 7.11294 14.3359 7.84255 14.4622 9.65632L14.4675 9.80995L14.467 37.826L17.6103 37.825L17.6111 20.4398C17.6111 17.2613 20.1291 14.671 23.2792 14.5549L23.5 14.5509L26.9493 14.55V12.894L19.6111 12.8943C18.5065 12.8943 17.6111 11.9989 17.6111 10.8943C17.6111 9.83994 18.4269 8.97613 19.4618 8.89978L19.6111 8.8943L26.9493 8.894L26.9503 8C26.9503 6.89543 27.8457 6 28.9503 6ZM34.1944 18.5509H23.5C22.5064 18.5509 21.692 19.3179 21.6166 20.2921L21.611 20.4398L21.6103 37.825L36.0823 37.826L36.0833 20.4398C36.0833 19.4985 35.3948 18.7181 34.494 18.5745L34.342 18.5565L34.1944 18.5509ZM32.1104 22.3286C33.6873 22.3287 34.6243 24.0563 33.8198 25.3674L33.7364 25.493L29.648 31.201L32.1103 31.2016C33.1647 31.2016 34.0285 32.0175 34.1048 33.0524L34.1103 33.2016C34.1103 34.256 33.2944 35.1198 32.2596 35.1961L32.1103 35.2016H25.7572C24.1803 35.2016 23.2433 33.4741 24.0478 32.1628L24.1311 32.0373L28.219 26.328L25.4446 26.3282C24.3902 26.3281 23.5265 25.5122 23.4502 24.4773L23.4447 24.3281C23.4447 23.2737 24.2607 22.41 25.2956 22.3337L25.4448 22.3282L32.1104 22.3286Z" fill="#333333"/>
</svg>
