<svg width="150" height="40" viewBox="0 0 150 40" fill="none" xmlns="http://www.w3.org/2000/svg">
<path d="M21 40C32.0457 40 41 31.0457 41 20C41 8.9543 32.0457 0 21 0C9.9543 0 1 8.9543 1 20C1 31.0457 9.9543 40 21 40Z" fill="#FA0F00"/>
<path d="M11.8877 16.6869L14.2296 10.4907C14.743 9.45626 14.5407 8.59131 13.6454 7.98433C12.7881 7.40264 11.6449 7.23319 11.1568 7.42035C10.6662 7.6075 10.651 8.01215 10.6662 8.28276C10.8761 10.6323 10.3424 13.0172 9.52048 15.5336C8.10926 19.8483 4.68235 24.0997 5.67628 24.2413C6.09358 24.2995 6.94082 23.8897 7.7476 22.9616C8.83763 21.7071 10.5675 19.2413 10.5675 19.2413C11.0481 21.1887 11.344 23.0551 11.4426 24.7952C11.5513 26.6844 11.6601 28.7304 11.7688 30.8574C11.7587 31.4745 11.8801 32.0688 12.133 32.6176C12.3809 33.1614 13.3141 34.259 13.6657 34.4664C14.002 34.6662 15.0541 34.7471 14.9808 33.3384C14.953 32.7997 13.4127 19.4133 12.9246 17.9565C12.7931 17.567 12.4365 17.1573 11.8877 16.6869Z" fill="white"/>
<path d="M35.7926 26.4087C35.302 26.2089 34.9201 26.0976 34.6191 26.0799C34.3181 26.0597 34.0172 26.0217 33.3445 26.2342C32.6717 26.4466 19.0273 29.8027 19.0273 29.8027L17.9347 22.2155C17.7906 21.3935 17.391 20.8573 16.7486 20.6247C16.1391 20.4046 15.5346 20.3971 14.872 20.6626C14.4775 20.8194 14.3915 21.2898 14.4471 21.4593C14.5104 21.6489 14.8948 22.2155 15.2033 22.5872C15.4815 22.9236 15.6737 23.3283 15.7749 23.786C15.7749 23.786 16.7081 29.9671 16.2276 31.0369C16.1239 31.4137 16.1416 31.96 16.8219 32.4203C17.1406 32.6378 17.4744 32.7314 17.8007 32.7997C18.2079 32.8831 20.001 32.0106 24.2752 30.7612C28.5493 29.5119 34.91 28.9024 35.7572 28.8214C36.6044 28.7405 36.9433 28.1538 36.9105 27.7415C36.8675 27.1927 36.4957 26.7476 35.7951 26.4112L35.7926 26.4087Z" fill="white"/>
<path d="M19.1892 12.9084C19.6596 12.8174 20.2893 12.6808 21.0025 12.5164C20.9342 13.8391 20.8255 15.048 20.7825 15.4932C20.3171 15.693 20.0212 15.8194 20.0212 15.8194C19.5888 15.6348 19.1209 15.5741 18.6302 15.6373C18.3369 15.6753 18.1194 15.7891 17.9853 15.9737C17.8412 16.171 17.7729 16.6034 17.9196 16.8665C18.0359 17.0764 18.3647 17.4659 18.5696 18.1285C18.7769 18.7911 20.0364 26.5807 20.1553 27.1093C20.2742 27.6378 20.9342 28.4573 21.3515 28.4674C21.7688 28.4775 22.1583 28.1386 22.3581 27.3394L27.8918 25.8751C27.9145 25.8675 28.997 26.8235 29.5281 26.7046C30.1275 26.5731 30.4765 25.9762 30.4992 25.4426C30.5195 24.9444 30.1958 22.3318 29.8872 20.8953C29.5837 19.4942 29.2853 17.3849 29.3156 16.7805C29.346 16.176 29.7785 14.5549 29.3586 14.0137C28.8933 13.4168 27.5933 13.0197 26.6171 13.1791C26.2226 13.2448 24.7532 13.8265 23.3015 14.4259C23.3166 13.5534 23.3596 12.7061 23.4203 11.917C26.2959 11.1785 29.3789 10.2757 29.7456 9.8963C30.3273 9.29438 29.9251 8.14112 29.308 7.95144C28.6935 7.76176 27.7754 7.76428 26.6702 8.18917C25.823 8.51542 25.2084 8.95043 23.6606 9.5397C23.7693 8.70005 23.8832 8.04501 23.9717 7.66312C24.2044 6.65907 24.4826 6.09003 23.2863 5.38189C21.5362 4.41578 20.1679 4.81031 20.0491 5.50834C19.9074 6.34294 20.8078 6.86646 21.0126 9.19322C21.043 9.54223 21.0556 9.94941 21.0582 10.3844C17.9297 11.2595 15.345 11.568 15.3247 12.4026C15.3146 12.8199 16.5842 13.4041 19.1866 12.9084H19.1892ZM25.345 15.7107C25.8634 15.736 26.0228 16.0647 26.1214 16.5402C26.2226 17.0157 27.2393 22.5417 27.3581 24.1603C27.3581 24.1603 27.0723 24.0491 26.4603 24.2033C25.9165 24.3399 22.8007 25.483 22.1431 25.7208C22.0572 25.1619 21.9509 24.5195 21.8371 23.8391C22.5756 23.6065 25.0819 22.8376 25.5397 22.6808C25.8786 22.5544 26.1214 22.3495 26.1239 22.1624C26.1239 21.9853 25.8457 21.3531 24.9783 21.2291C24.2448 21.1229 22.4568 21.7779 21.5362 22.0991C21.4224 21.4542 21.3085 20.8194 21.2023 20.2251C21.8194 20.0556 24.3991 19.2868 24.9707 19.1199C25.2969 19.0212 25.7066 18.7076 25.5321 18.3384C25.3576 17.9691 24.9631 17.7567 24.5205 17.7213C24.0779 17.6859 23.3091 17.787 22.7324 18.002C22.2342 18.1866 21.3515 18.5281 20.9191 18.6874C20.7522 17.7744 20.6383 17.1725 20.6383 17.1725C20.6383 17.1725 24.7076 15.6778 25.3374 15.7107H25.345Z" fill="white"/>
<path d="M67.116 11.3787H62.4479V5.3295C62.4479 4.9595 62.1514 4.66046 61.7839 4.66046H61.1757C60.8108 4.66046 60.5117 4.96204 60.5117 5.3295V11.3787H55.6181C55.2532 11.3787 54.9566 11.6803 54.9566 12.0478V12.5116C54.9566 12.8816 55.2532 13.1806 55.6181 13.1806H60.5117V22.3191C60.5117 22.6891 60.8082 22.9881 61.1757 22.9881H61.7839C62.1488 22.9881 62.4479 22.6866 62.4479 22.3191V13.1806H67.116C67.4809 13.1806 67.7799 12.879 67.7799 12.5116V12.0478C67.7799 11.6778 67.4834 11.3787 67.116 11.3787Z" fill="#333333"/>
<path d="M55.3038 5.31682C55.2202 5.15463 55.0707 5.03298 54.8984 4.9823L54.2724 4.79983C53.9277 4.701 53.5628 4.90374 53.4564 5.25346C52.5364 8.35538 51.1527 11.2216 49.3458 13.7685C49.1786 14.0042 49.1735 14.3159 49.3306 14.544C49.4396 14.7011 49.5384 14.8633 49.6297 15.028C49.7386 15.2257 49.9388 15.3524 50.1619 15.3651C50.3874 15.3778 50.6003 15.2815 50.7346 15.099C51.1958 14.4781 51.6444 13.7863 52.0676 13.0412V22.3926C52.0676 22.7626 52.3641 23.0616 52.7316 23.0616H53.2638C53.6287 23.0616 53.9252 22.76 53.9252 22.3926V9.41723C54.4549 8.25401 54.9313 7.05024 55.3469 5.84394C55.4052 5.67161 55.3925 5.47901 55.3064 5.31428L55.3038 5.31682Z" fill="#333333"/>
<path d="M83.1932 14.8456C82.9727 14.5567 82.5571 14.5009 82.2708 14.7189L81.8374 15.0483C81.546 15.2688 81.4877 15.6895 81.7082 15.986C82.6509 17.2557 83.543 18.4924 84.3615 19.6683C82.2834 19.8609 79.5921 20.0053 76.3558 20.1041C75.6969 20.1422 75.1521 20.165 74.7263 20.1751C77.7902 17.1644 80.6945 13.5886 83.3605 9.54648C83.4644 9.38935 83.4973 9.19675 83.4517 9.01175C83.4086 8.82929 83.2895 8.6747 83.1273 8.58346L82.4912 8.22867C82.1821 8.05634 81.7943 8.16025 81.6093 8.46435C79.4324 12.0528 76.6802 15.5957 73.4288 18.9916C72.9143 19.5137 72.3619 19.9268 71.7866 20.2233C71.4647 20.388 71.3355 20.7884 71.4951 21.1153L71.8525 21.8376C71.9893 22.1138 72.2909 22.2583 72.5849 22.1924C73.0867 22.0783 73.7253 21.982 74.4754 21.9009C79.2601 21.5461 82.9626 21.3155 85.4842 21.2116C85.5526 21.3231 85.6641 21.4726 85.8162 21.6678C85.9277 21.8502 86.0316 22.0124 86.1228 22.1544C86.2242 22.3115 86.3864 22.4179 86.5688 22.4458C86.6043 22.4509 86.6398 22.4534 86.6753 22.4534C86.8223 22.4534 86.9667 22.4027 87.0858 22.3115L87.6611 21.8578C87.9475 21.6323 88.0032 21.2243 87.7878 20.9303C86.3205 18.9409 84.7771 16.8907 83.1983 14.838L83.1932 14.8456Z" fill="#333333"/>
<path d="M79.4882 5.93773C79.5895 5.77553 79.6149 5.57786 79.5616 5.39286C79.5084 5.2104 79.3792 5.05834 79.2094 4.97471L78.6696 4.71622C78.363 4.56923 77.9955 4.68074 77.8181 4.97725C75.6513 8.60882 73.0208 11.6727 69.9999 14.0828C69.8529 14.1994 69.7617 14.3742 69.749 14.5618C69.7364 14.7493 69.8023 14.9343 69.929 15.0686C70.0608 15.2105 70.1875 15.3474 70.3066 15.4792C70.4358 15.6236 70.6158 15.6996 70.7982 15.6996C70.9401 15.6996 71.0846 15.654 71.2037 15.5603C74.2347 13.1603 77.0223 9.92156 79.4882 5.93519V5.93773Z" fill="#333333"/>
<path d="M95.1447 5.17238C95.0535 5.00765 94.8989 4.88854 94.719 4.84799L94.4149 4.7745C94.0727 4.69341 93.7256 4.89868 93.6267 5.24334C92.7549 8.31484 91.4802 11.1228 89.8406 13.5861C89.6986 13.799 89.691 14.0701 89.8203 14.2931C89.871 14.3818 89.9216 14.4731 89.9723 14.5668C90.0864 14.7797 90.2967 14.914 90.5349 14.9216C90.7681 14.9318 90.986 14.8152 91.1153 14.615C91.4016 14.1664 91.6728 13.7052 91.9212 13.2389V22.3166C91.9212 22.6866 92.2177 22.9856 92.5826 22.9856H92.9627C93.3277 22.9856 93.6267 22.684 93.6267 22.3166V9.87847C94.164 8.60628 94.6911 7.20484 95.1929 5.71471C95.2537 5.53478 95.236 5.3371 95.1447 5.16984V5.17238Z" fill="#333333"/>
<path d="M107.732 20.8771H106.643V10.1167C106.643 9.74667 106.346 9.44763 105.981 9.44763H102.228V8.08421H107.352C107.717 8.08421 108.014 7.78263 108.014 7.41516V7.10599C108.014 6.73599 107.717 6.43695 107.352 6.43695H102.228V5.25345C102.228 4.88345 101.931 4.58441 101.567 4.58441H101.186C100.821 4.58441 100.525 4.88599 100.525 5.25345V6.43695H95.7834C95.4184 6.43695 95.1219 6.73852 95.1219 7.10599V7.41516C95.1219 7.78516 95.4184 8.08421 95.7834 8.08421H100.525V9.44763H96.7717C96.4068 9.44763 96.1103 9.74921 96.1103 10.1167V20.8771H94.9445C94.5796 20.8771 94.2831 21.1787 94.2831 21.5461V21.7767C94.2831 22.1467 94.5796 22.4458 94.9445 22.4458H107.735C108.1 22.4458 108.396 22.1442 108.396 21.7767V21.5461C108.396 21.1761 108.1 20.8771 107.735 20.8771H107.732ZM104.94 10.9403V12.3823H97.8133V10.9403H104.94ZM104.94 13.875V15.2384H97.8133V13.875H104.94ZM104.94 16.7336V18.097H97.8133V16.7336H104.94ZM104.94 19.6682V20.8771H97.8133V19.6682H104.94Z" fill="#333333"/>
<path d="M110.824 10.6691C110.923 10.8516 111.1 10.9758 111.306 11.0087C111.341 11.0138 111.374 11.0163 111.41 11.0163C111.574 11.0163 111.734 10.953 111.856 10.8364C113.518 9.2601 114.93 7.60777 116.052 5.91996C116.156 5.76537 116.189 5.57023 116.144 5.38777C116.098 5.20277 115.976 5.04564 115.809 4.95695L115.406 4.74153C115.102 4.57681 114.717 4.68325 114.532 4.98229C113.391 6.81708 112.124 8.31229 110.763 9.42482C110.497 9.64277 110.434 10.0102 110.611 10.3017C110.677 10.4106 110.748 10.5323 110.822 10.6666L110.824 10.6691Z" fill="#333333"/>
<path d="M118.156 12.5622H126.605C126.97 12.5622 127.266 12.2607 127.266 11.8932V6.02387C127.266 5.65387 126.97 5.35483 126.605 5.35483H118.156C117.791 5.35483 117.494 5.6564 117.494 6.02387V11.8932C117.494 12.2632 117.791 12.5622 118.156 12.5622ZM119.197 8.21092V6.8475H125.561V8.21092H119.197ZM119.197 11.0696V9.70613H125.561V11.0696H119.197Z" fill="#333333"/>
<path d="M128.28 16.4751H126.278V15.2663H127.9C128.265 15.2663 128.561 14.9647 128.561 14.5972V14.3666C128.561 13.9966 128.265 13.6976 127.9 13.6976H117.167C116.802 13.6976 116.506 13.9991 116.506 14.3666V14.5972C116.506 14.9672 116.802 15.2663 117.167 15.2663H124.575V16.4751H116.407C116.042 16.4751 115.746 16.7767 115.746 17.1441V17.3748C115.746 17.7448 116.042 18.0438 116.407 18.0438H118.249L117.966 18.2694C117.824 18.3834 117.735 18.5456 117.717 18.7281C117.7 18.9105 117.758 19.0955 117.874 19.2349C118.313 19.7468 118.739 20.2486 119.152 20.7377C119.281 20.8898 119.466 20.9709 119.653 20.9709C119.78 20.9709 119.909 20.9328 120.023 20.8568L120.348 20.6389C120.502 20.5324 120.609 20.3652 120.637 20.1776C120.665 19.9926 120.611 19.8026 120.495 19.6581C120.061 19.1234 119.59 18.5836 119.103 18.0438H124.575V19.9698C124.598 20.3854 124.517 20.687 124.334 20.8695C124.154 21.0494 123.86 21.128 123.45 21.1052C123.042 21.1052 122.185 21.09 121.511 21.0646C121.316 21.0545 121.111 21.1457 120.979 21.3054C120.845 21.4676 120.794 21.6804 120.842 21.8883C120.875 22.0302 120.905 22.167 120.931 22.2963C120.994 22.6054 121.268 22.831 121.579 22.831H123.749C123.802 22.831 123.853 22.831 123.903 22.831C124.702 22.831 125.31 22.6283 125.708 22.2304C126.113 21.8249 126.306 21.2141 126.28 20.4235V18.0413H128.283C128.647 18.0413 128.944 17.7397 128.944 17.3722V17.1416C128.944 16.7716 128.647 16.4726 128.283 16.4726L128.28 16.4751Z" fill="#333333"/>
<path d="M116.159 10.2459C116.113 10.0685 116.002 9.91902 115.842 9.82779L115.51 9.63772C115.358 9.55155 115.18 9.52874 115.013 9.57436C114.841 9.62251 114.699 9.73402 114.61 9.89368C113.503 11.8628 112.139 13.6976 110.555 15.3474C110.36 15.5501 110.312 15.8542 110.436 16.1076C110.512 16.2648 110.586 16.4194 110.657 16.5714C110.751 16.7767 110.941 16.9161 111.161 16.949C111.382 16.982 111.6 16.9009 111.747 16.7361C112.175 16.2546 112.598 15.7605 113.006 15.2612V22.3951C113.006 22.7651 113.303 23.0642 113.67 23.0642H114.05C114.415 23.0642 114.712 22.7626 114.712 22.3951V12.9829C115.132 12.2987 115.591 11.5612 116.083 10.7705C116.179 10.6159 116.209 10.4233 116.164 10.2459H116.159Z" fill="#333333"/>
<path d="M132.221 7.31129H146.23C145.736 8.34273 145.282 9.23478 144.879 9.96465C144.788 10.1268 144.77 10.322 144.829 10.4994C144.887 10.6742 145.016 10.8187 145.186 10.8947C145.315 10.953 145.462 11.024 145.629 11.1051C145.723 11.1507 145.822 11.1735 145.921 11.1735C146.154 11.1735 146.377 11.0518 146.496 10.839C146.942 10.0457 147.467 8.98136 148.052 7.67369C148.24 7.25554 148.339 6.7943 148.339 6.33561C148.339 5.96561 148.042 5.66656 147.677 5.66656H132.223C131.858 5.66656 131.562 5.96814 131.562 6.33561V6.64478C131.562 7.01478 131.858 7.31383 132.223 7.31383L132.221 7.31129Z" fill="#333333"/>
<path d="M138.567 11.9109C138.762 11.9109 138.952 11.8248 139.083 11.6575L139.372 11.2926C139.486 11.1481 139.537 10.9606 139.512 10.7781C139.486 10.5957 139.39 10.436 139.241 10.3296C138.153 9.54903 137.003 8.80903 135.824 8.13238C135.546 7.97273 135.193 8.03608 134.988 8.28444L134.78 8.53279C134.659 8.67978 134.605 8.87238 134.633 9.06245C134.661 9.25252 134.77 9.42232 134.932 9.52875C136.103 10.2941 137.195 11.0518 138.176 11.7842C138.295 11.8729 138.432 11.916 138.569 11.916L138.567 11.9109Z" fill="#333333"/>
<path d="M137.335 13.3377C136.455 12.7143 135.237 11.9312 133.713 11.0113C133.425 10.8364 133.052 10.9099 132.847 11.1785L132.672 11.4092C132.56 11.5561 132.515 11.7386 132.545 11.9211C132.573 12.101 132.674 12.2657 132.824 12.3696C134.101 13.2642 135.262 14.0828 136.273 14.8076C136.39 14.8912 136.521 14.9292 136.653 14.9292C136.848 14.9292 137.041 14.8431 137.173 14.6758L137.469 14.3007C137.583 14.1563 137.634 13.9687 137.609 13.7837C137.583 13.6013 137.484 13.4416 137.335 13.3352V13.3377Z" fill="#333333"/>
<path d="M148.339 15.4715H142.137C142.403 14.1841 142.566 11.8172 142.621 8.43141C142.624 8.24894 142.555 8.07661 142.429 7.94737C142.302 7.82065 142.137 7.74969 141.96 7.74969H141.433C141.07 7.74969 140.771 8.05127 140.771 8.41874C140.756 11.6322 140.589 14.0042 140.272 15.4715H131.46C131.096 15.4715 130.799 15.7731 130.799 16.1406V16.4498C130.799 16.8198 131.096 17.1188 131.46 17.1188H139.788C139.124 18.7306 136.504 20.1447 131.998 21.3257C131.787 21.3814 131.618 21.536 131.542 21.7438C131.466 21.9516 131.499 22.1848 131.625 22.3622C131.734 22.5142 131.856 22.684 131.993 22.869C132.119 23.0439 132.322 23.1427 132.53 23.1427C132.593 23.1427 132.657 23.1326 132.72 23.1148C136.805 21.8781 139.484 20.4767 140.683 18.9435C143.579 20.4615 145.764 21.6804 147.173 22.5674C147.462 22.7499 147.839 22.6789 148.047 22.4027L148.41 21.9237C148.526 21.7666 148.572 21.5664 148.529 21.3763C148.488 21.1837 148.366 21.0215 148.194 20.9278C145.989 19.7215 143.777 18.5405 141.615 17.4204C141.663 17.3139 141.706 17.2151 141.742 17.1213H148.339C148.704 17.1213 149 16.8198 149 16.4523V16.1431C149 15.7731 148.704 15.4741 148.339 15.4741V15.4715Z" fill="#333333"/>
<path d="M58.1447 34.7014C58.0053 34.6406 57.8837 34.5823 57.7874 34.5215L57.7697 34.5114V34.5316C57.7063 34.9473 57.6353 35.2919 57.5568 35.5504C57.4833 35.8266 57.3692 35.961 57.2121 35.961C57.202 35.961 57.1918 35.961 57.1792 35.961C56.9257 35.961 56.6875 35.7506 56.4721 35.3375C56.4594 35.3223 56.4392 35.2868 56.4164 35.1905C56.3201 35.0131 56.2516 34.8763 56.2111 34.7775C56.8066 34.2605 57.3692 33.6573 57.8862 32.9807L57.8964 32.968L57.3616 32.5904L57.354 32.6005C56.8827 33.229 56.4341 33.7384 56.021 34.116C55.9653 33.9158 55.9146 33.5788 55.8766 33.1175C55.8563 32.9984 55.8462 32.9097 55.8462 32.8464C55.8081 32.6538 55.7879 32.4384 55.7853 32.2027H58.3373V31.6046H55.7245C55.684 30.6365 55.6738 29.894 55.6941 29.3973V29.382H55.0352V29.3973C55.0352 29.9041 55.0555 30.6466 55.096 31.6046H53.2334V30.4591C53.6515 30.3983 54.0418 30.34 54.394 30.2817H54.4092L54.2547 29.7242V29.7115H54.2394C53.0458 29.8914 52.0347 30.0105 51.2364 30.0714H51.2237V30.0866C51.2237 30.1297 51.2338 30.1905 51.2541 30.2716C51.2921 30.4287 51.3225 30.5605 51.3453 30.6618V30.6745H51.3605C51.5303 30.6568 51.8268 30.6188 52.321 30.5554C52.4528 30.5377 52.5466 30.5275 52.6049 30.525V31.6071H51.0134V32.2052H52.6049V33.561C52.4452 33.5813 52.2197 33.6117 51.9257 33.6497C51.4771 33.7308 51.1831 33.779 51.026 33.7992H51.0108L51.135 34.4176V34.4328L51.1527 34.4303C51.6444 34.3314 52.1335 34.2427 52.6074 34.1616V35.5276C52.6175 35.6822 52.5846 35.7988 52.5136 35.8697C52.4427 35.9407 52.3261 35.9736 52.1715 35.9635C52.0955 35.9635 51.9384 35.9533 51.69 35.9331H51.3403L51.3453 35.9508C51.3656 36.0294 51.396 36.1307 51.434 36.2499C51.4543 36.3892 51.4746 36.4906 51.4949 36.554V36.5641H51.5075C51.9637 36.5641 52.2855 36.554 52.468 36.5337C52.7164 36.5337 52.9064 36.4678 53.0357 36.336C53.1776 36.189 53.2435 35.9584 53.2334 35.6492V34.04L54.6323 33.8018H54.6449V33.1986H54.6272C54.1584 33.3 53.6895 33.3811 53.2334 33.4394V32.2077H55.129L55.2177 32.9148C55.2379 33.4318 55.3266 33.9842 55.4863 34.5595C54.9516 34.9549 54.318 35.335 53.6034 35.6923L53.5856 35.6999L53.5983 35.7126C53.5983 35.7126 53.6262 35.7405 53.6439 35.7607L53.687 35.8038C53.8441 36.0015 53.9455 36.1409 53.986 36.222L53.9936 36.2347L54.0063 36.227C54.6399 35.9103 55.2101 35.5605 55.7068 35.1855C55.7651 35.3198 55.8234 35.4668 55.8816 35.6214C56.244 36.2828 56.6825 36.6199 57.1842 36.6199C57.686 36.6199 57.9673 36.4044 58.0687 35.9787C58.1878 35.558 58.279 35.1652 58.3399 34.8053V34.7952L58.3323 34.7901C58.2917 34.7699 58.2309 34.7394 58.1523 34.6989L58.1447 34.7014Z" fill="#333333"/>
<path d="M57.3464 31.3005L57.3566 31.3106L57.8178 30.8798L57.8279 30.8697L57.8178 30.8595C57.795 30.8367 57.757 30.7987 57.7038 30.748L57.5745 30.6188C57.0474 30.1525 56.7129 29.8661 56.5532 29.747L56.5431 29.7394L56.1148 30.1373L56.1021 30.1474L56.1148 30.1575C56.6723 30.6365 57.0854 31.0192 57.3439 31.2979L57.3464 31.3005Z" fill="#333333"/>
<path d="M63.7327 29.486C63.4742 30.5402 62.9699 31.6806 62.2325 32.8743V32.8793V32.8844C62.273 33.0643 62.3313 33.3177 62.4124 33.6649L62.42 33.6979L62.4377 33.6675C62.4986 33.5686 62.5873 33.4166 62.7089 33.2189C62.9091 32.93 63.0612 32.6918 63.1625 32.5144V36.6782H63.7606V31.2625C63.9811 30.7835 64.1914 30.2488 64.3916 29.6735L64.3967 29.6583L63.7378 29.4708V29.486H63.7327Z" fill="#333333"/>
<path d="M65.4383 29.4783L65.4307 29.4682L64.939 29.8053L64.9264 29.8129L64.9365 29.8255C65.1342 30.0637 65.4079 30.416 65.7449 30.8747C65.7652 30.9153 65.7855 30.9482 65.8083 30.9685L65.8159 30.9761L66.3658 30.6086L66.3785 30.601L66.3684 30.5883C65.9908 30.1094 65.6765 29.7368 65.4358 29.4758L65.4383 29.4783Z" fill="#333333"/>
<path d="M65.5016 31.2168H64.8731V36.592H65.5016V31.2168Z" fill="#333333"/>
<path d="M66.7662 30.6441H68.5377V35.3147C68.5478 35.5403 68.4971 35.7075 68.3907 35.814C68.2842 35.9204 68.117 35.9685 67.8914 35.9609C67.7749 35.9609 67.5975 35.9508 67.3516 35.9305H66.8524L66.8575 35.9483C66.9158 36.1662 66.9563 36.3766 66.9766 36.5768V36.5894H68.1626C68.4997 36.5894 68.7607 36.5007 68.9305 36.3233C69.118 36.1307 69.2067 35.8317 69.1966 35.4338V30.0131H66.7662V30.6416V30.6441Z" fill="#333333"/>
<path d="M78.3477 30.2437C78.4466 29.9649 78.5175 29.7419 78.5581 29.5822V29.5696L77.9347 29.4124L77.9296 29.4251C77.6103 30.4996 77.2377 31.3892 76.8196 32.0633L76.812 32.0759L76.8247 32.0835C77.0021 32.1824 77.1744 32.2939 77.334 32.413L77.3467 32.4231L77.3543 32.4079C77.552 32.0506 77.7547 31.6477 77.9524 31.2143H79.8505C79.8505 32.0151 79.8201 33.3126 79.7593 35.074C79.7593 35.373 79.6858 35.5935 79.5388 35.7303C79.3969 35.8621 79.184 35.9204 78.9027 35.9001H77.6863V35.9153C77.6863 35.9787 77.7066 36.0572 77.7471 36.1586C77.7674 36.3157 77.7877 36.4348 77.8079 36.5185V36.5286H79.0827C79.9291 36.5083 80.3675 36.0496 80.3878 35.1627C80.4284 34.3289 80.4689 32.9655 80.5069 31.1079V30.6137H78.1982C78.221 30.5351 78.2692 30.4084 78.3427 30.2411L78.3477 30.2437Z" fill="#333333"/>
<path d="M78.5707 34.3745L79.0928 34.0045L79.1055 33.9969L79.0979 33.9842C78.8825 33.6903 78.5885 33.2974 78.1957 32.783C78.0588 32.6259 77.9575 32.5068 77.8966 32.4231L77.889 32.413L77.4278 32.7526L77.4151 32.7602L77.4227 32.7729C77.8231 33.2949 78.2083 33.8296 78.5631 34.3644L78.5707 34.377V34.3745Z" fill="#333333"/>
<path d="M75.555 29.5518L75.5601 29.5366L74.9138 29.4454H74.9012L74.8986 29.4555C74.8784 29.5138 74.8479 29.6228 74.8074 29.7875C74.706 30.1753 74.6275 30.4566 74.5717 30.6492H73.7582V36.5945H74.3867V35.9635H76.0112V36.5337H76.6397V30.6492H75.2332C75.332 30.3527 75.441 29.9852 75.5575 29.5569L75.555 29.5518ZM74.3842 32.9883V31.2143H76.0086V32.9883H74.3842ZM76.0086 33.5585V35.3629H74.3842V33.5585H76.0086Z" fill="#333333"/>
<path d="M87.1238 33.9741L87.1162 33.9842C86.399 34.8408 85.6514 35.558 84.8962 36.113L84.8836 36.1206L84.8937 36.1307C84.9723 36.2296 85.1243 36.3918 85.3448 36.6122L85.3549 36.6224L85.3651 36.6148C86.2242 35.895 86.9921 35.1474 87.6484 34.3922L87.6586 34.3821L87.1365 33.9817L87.1264 33.9741H87.1238Z" fill="#333333"/>
<path d="M90.2232 32.4206L90.2308 32.4105C90.7301 31.6907 91.1837 30.9431 91.5816 30.1879L91.5892 30.1753L91.0063 29.899L90.9936 29.894L90.986 29.9066C90.5881 30.6644 90.1421 31.4018 89.6657 32.0962L89.6581 32.1089L90.2131 32.4155L90.2232 32.4231V32.4206Z" fill="#333333"/>
<path d="M86.361 32.4079L86.3686 32.4206L86.9642 32.1064L86.9566 32.0937C86.4573 31.1966 86.0645 30.4996 85.7857 30.0207L85.7781 30.008L85.213 30.2918L85.2206 30.3045C85.6236 31.009 86.0062 31.7161 86.361 32.4054V32.4079Z" fill="#333333"/>
<path d="M87.7422 30.0029C88.021 30.9381 88.2136 31.6553 88.3124 32.1342V32.1494L88.9612 31.9949H88.9764L88.9713 31.9771C88.9105 31.7947 88.8395 31.5412 88.761 31.227C88.5531 30.5047 88.396 29.9649 88.2795 29.5747L88.2744 29.562L87.6611 29.714L87.6459 29.7191L87.651 29.7343C87.6712 29.7951 87.7016 29.8838 87.7397 30.0055L87.7422 30.0029Z" fill="#333333"/>
<path d="M90.7402 35.0943C90.2257 34.6203 89.8203 34.2453 89.539 33.9843L89.5288 33.9767L89.0676 34.3745L89.0549 34.3847L89.0676 34.3948C89.985 35.2311 90.7427 35.9686 91.3205 36.5869L91.3307 36.5971L91.8325 36.0953L91.8223 36.0851C91.6247 35.8875 91.2724 35.5631 90.7402 35.0943Z" fill="#333333"/>
<path d="M91.9744 32.9275H84.7391V33.5255H91.9744V32.9275Z" fill="#333333"/>
<path d="M98.8751 34.2808L98.3936 34.3416L98.4849 34.8966V34.9118L100.226 34.6127V35.6315H100.735V34.5469L101.217 34.4556V34.443C101.197 34.2858 101.186 34.1236 101.186 33.964V33.9488L100.735 34.0096V30.1956H101.095V29.7166H98.4849V30.1956H98.8751V34.2833V34.2808ZM99.3845 31.1864V30.193H100.226V31.1864H99.3845ZM99.3845 32.6588V31.6654H100.226V32.6588H99.3845ZM99.3845 34.2174V33.1074H100.226V34.073C99.9345 34.1312 99.6506 34.1794 99.3845 34.2174Z" fill="#333333"/>
<path d="M102.101 32.7222L101.485 31.2852L101.48 31.2726L101.032 31.4322L101.039 31.4474C101.359 32.1266 101.64 32.7906 101.878 33.4242C101.686 33.8955 101.465 34.3314 101.219 34.7268C101.214 34.7369 101.207 34.747 101.202 34.7572C101.12 34.8864 101.037 35.0106 100.953 35.1297L100.946 35.1398L100.953 35.1474C101.07 35.264 101.181 35.4059 101.283 35.5656L101.293 35.5833L101.305 35.5656C101.655 35.0816 101.944 34.5874 102.162 34.0957C102.225 34.2959 102.332 34.5671 102.481 34.9016C102.565 35.1297 102.623 35.297 102.661 35.411L102.666 35.4287L103.102 35.15L103.112 35.1449L103.107 35.1348C102.91 34.6026 102.679 34.0273 102.418 33.4267C102.677 32.6892 102.869 31.7794 102.988 30.7252V30.2006H101.158V30.7404H102.479C102.4 31.4956 102.274 32.1621 102.101 32.7272V32.7222Z" fill="#333333"/>
<path d="M100.783 35.9001H99.643C98.8523 35.9001 98.2618 35.7911 97.8842 35.5757V34.1261H98.5153V33.6168H97.8842V32.5346H98.604V32.0253H97.6435V30.9735H98.424V30.4642H97.6435V29.4124H97.1037V30.4642H96.2015V30.9735H97.1037V32.0253H96.0216V32.5346H97.3723V35.1221C97.1823 34.889 97.0125 34.6102 96.8604 34.2883V33.7815C96.8807 33.4926 96.8908 33.2772 96.8908 33.12V33.1074L96.3814 33.0744V33.0896C96.3814 33.9259 96.351 34.5519 96.2927 34.9498C96.2142 35.3477 96.0621 35.7709 95.8442 36.2068L95.8391 36.2169L96.0545 36.4323C96.1331 36.5311 96.1939 36.6021 96.237 36.6426L96.2522 36.6579L96.2598 36.6401C96.5107 36.1358 96.6805 35.6239 96.7641 35.1196C97.2127 36.0142 98.1402 36.4678 99.5188 36.4678H103.044V36.4551C103.085 36.2574 103.145 36.075 103.226 35.9179L103.237 35.895H103.211C102.793 35.9153 101.975 35.9153 100.778 35.895L100.783 35.9001Z" fill="#333333"/>
<path d="M112.051 29.415H111.422V31.488H109.471V36.6807H110.099V34.9701H113.374V35.4668C113.384 35.6366 113.346 35.7658 113.265 35.8469C113.178 35.9331 113.037 35.9736 112.846 35.9635H111.957L111.962 35.9812C112.018 36.1865 112.068 36.3791 112.112 36.5514V36.5616H113.057C113.394 36.5514 113.645 36.4577 113.802 36.2879C113.954 36.1206 114.022 35.8748 114.002 35.558V31.4906H112.051V29.4175V29.415ZM110.099 32.9579V32.0557H113.374V32.9579H110.099ZM113.374 33.4977V34.3999H110.099V33.4977H113.374Z" fill="#333333"/>
<path d="M110.312 31.1484L110.32 31.1611L110.791 30.7835L110.784 30.7734C110.583 30.4946 110.249 30.1297 109.79 29.6912L109.783 29.6836L109.352 30.0207L109.339 30.0308L109.349 30.041C109.646 30.3603 109.879 30.6314 110.041 30.8519C110.158 30.971 110.249 31.0699 110.31 31.151L110.312 31.1484Z" fill="#333333"/>
<path d="M113.716 29.6811L113.708 29.6912C113.627 29.7723 113.526 29.894 113.406 30.0511C113.11 30.3679 112.869 30.6188 112.687 30.8012L112.677 30.8114L113.12 31.1915L113.13 31.1814C113.513 30.7784 113.855 30.3957 114.152 30.0384L114.162 30.0283L113.731 29.6887L113.721 29.6811H113.716Z" fill="#333333"/>
<path d="M107.54 31.4905L107.53 31.4829L107.132 31.9442L107.122 31.9568L107.134 31.967C107.375 32.1469 107.737 32.4409 108.247 32.8692C108.305 32.9072 108.346 32.9376 108.363 32.9579L108.373 32.968L108.804 32.4764L108.814 32.4662L108.804 32.4561C108.384 32.114 107.958 31.7921 107.542 31.4956L107.54 31.4905Z" fill="#333333"/>
<path d="M108.118 33.599C107.879 34.5164 107.606 35.4668 107.307 36.4222L107.302 36.4349L107.93 36.6224V36.6072C108.211 35.5149 108.475 34.5646 108.713 33.784L108.718 33.7714L108.12 33.5813V33.5965L108.118 33.599Z" fill="#333333"/>
<path d="M107.78 29.5392L107.77 29.5316L107.37 29.932L107.36 29.9421L107.372 29.9522C107.575 30.1144 107.91 30.4084 108.363 30.8215C108.462 30.9229 108.533 30.9913 108.574 31.0318L108.584 31.042L109.015 30.5503L109.025 30.5402L109.015 30.53C108.665 30.2437 108.252 29.9092 107.783 29.5392H107.78Z" fill="#333333"/>
<path d="M123.364 31.5463H125.135V29.9877H123.364V29.4175H122.765V29.9877H121.503V29.4175H120.905V29.9877H118.832V30.4667H120.875V31.0699H119.134L118.918 32.631H120.624C120.396 33.0947 119.653 33.4698 118.422 33.7435L118.402 33.7486L118.412 33.7663C118.51 33.926 118.592 34.0958 118.65 34.2732L118.655 34.2858H118.668C118.749 34.263 118.85 34.2326 118.969 34.1921C119.271 34.0983 119.486 34.0197 119.61 33.9614V35.4541H120.239V34.0121H123.934V35.3629H124.532V33.5332H120.573C120.928 33.2975 121.169 32.9934 121.285 32.631H122.763V33.3228H123.361V32.631H124.864C124.864 32.6842 124.854 32.7374 124.833 32.7932V32.7982C124.844 32.8895 124.826 32.9554 124.785 32.9984C124.74 33.044 124.659 33.0643 124.55 33.0542H124.251C124.106 33.0339 123.997 33.0238 123.919 33.0238H123.898L123.903 33.0415C123.924 33.1023 123.954 33.191 123.995 33.3127C124.012 33.3507 124.022 33.3786 124.022 33.3963V33.4115H124.757C125.163 33.3912 125.381 33.2062 125.401 32.8565V32.5879C125.421 32.4029 125.432 32.2736 125.432 32.1951V32.1799H123.358V31.5488L123.364 31.5463ZM122.765 31.5463V32.1773H121.387C121.443 31.9873 121.46 31.7744 121.443 31.5463H122.765ZM121.473 31.0673V30.4642H122.765V31.0673H121.473ZM124.567 30.4642V31.0673H123.364V30.4642H124.567ZM120.845 31.5463C120.845 31.7744 120.824 31.9873 120.786 32.1773H119.552L119.638 31.5463H120.842H120.845ZM118.564 34.0121C118.564 34.0121 118.559 33.9995 118.556 33.9919C118.559 33.9995 118.561 34.0045 118.564 34.0121Z" fill="#333333"/>
<path d="M122.287 35.0664C122.345 34.851 122.393 34.6128 122.433 34.3568V34.3416H121.772V34.3568C121.818 34.6685 121.747 34.9422 121.562 35.1703C121.161 35.6721 120.206 35.9888 118.723 36.1105H118.701L118.713 36.1333C118.832 36.331 118.924 36.521 118.982 36.701V36.7111H118.997C120.665 36.4729 121.686 36.0801 122.033 35.5428C122.34 35.6569 122.798 35.8241 123.435 36.0497C124.205 36.3259 124.74 36.5185 125.117 36.6503L125.13 36.6554L125.406 36.1029L125.414 36.0877L125.399 36.0826C124.547 35.7861 123.5 35.444 122.289 35.0664H122.287Z" fill="#333333"/>
<path d="M136.291 30.6467L136.273 30.6416V30.6593C136.25 30.9001 136.212 31.1206 136.151 31.3182C136.096 31.6147 135.898 31.7592 135.546 31.7592C135.523 31.7592 135.5 31.7592 135.475 31.7592H133.673C133.65 31.7592 133.627 31.7592 133.607 31.7592C133.387 31.7592 133.224 31.7085 133.131 31.6071C133.044 31.5159 133.009 31.3791 133.027 31.2017V31.0648C134.296 30.8671 135.515 30.6137 136.651 30.3147L136.666 30.3096L136.476 29.7723H136.463C135.409 30.0739 134.253 30.3349 133.029 30.5529V29.415H132.431V31.3512C132.421 31.6705 132.497 31.9112 132.654 32.0684C132.806 32.2204 133.039 32.299 133.348 32.299C133.369 32.299 133.386 32.299 133.407 32.299H135.629C135.655 32.299 135.677 32.299 135.7 32.299C136.243 32.299 136.587 32.0734 136.724 31.6249C136.744 31.5286 136.772 31.3816 136.81 31.1915V31.1738C136.833 31.0344 136.853 30.9254 136.874 30.8443V30.8317L136.863 30.8266C136.686 30.7683 136.493 30.7075 136.293 30.6467H136.291Z" fill="#333333"/>
<path d="M131.194 31.3942H132.036V30.8266H131.194V29.4454H130.596V30.8266H129.697V31.3942H130.596V33.1099C130.249 33.1885 129.91 33.2569 129.588 33.3177H129.575L129.636 33.9944V34.0121L129.654 34.007C129.948 33.9082 130.264 33.8195 130.596 33.741V35.5859C130.606 35.7303 130.576 35.8393 130.51 35.9052C130.444 35.9711 130.335 36.0015 130.191 35.9914H129.697V36.0066C129.697 36.0471 129.707 36.151 129.727 36.3107C129.768 36.4298 129.785 36.5286 129.785 36.6072V36.6224H129.801C130.039 36.6224 130.231 36.6123 130.371 36.592C130.65 36.592 130.86 36.521 130.997 36.3766C131.139 36.2296 131.207 36.004 131.197 35.705V33.5838C131.496 33.5053 131.729 33.447 131.909 33.4064C131.97 33.3862 132.015 33.376 132.053 33.376H132.069V32.7425L131.197 32.9528V31.3942H131.194ZM131.159 35.9027C131.159 35.9027 131.159 35.9128 131.159 35.9153C131.159 35.9103 131.159 35.9052 131.159 35.9027ZM131.078 36.2017C131.068 36.222 131.058 36.2397 131.047 36.26C131.06 36.2423 131.068 36.222 131.078 36.2017Z" fill="#333333"/>
<path d="M132.487 36.6807H133.085V36.26H135.789V36.6807H136.417V32.9275H132.484V36.6807H132.487ZM133.087 34.339V33.4673H135.792V34.339H133.087ZM135.792 34.8484V35.7202H133.087V34.8484H135.792Z" fill="#333333"/>
<path d="M148.034 30.7632V30.2234H144.791V29.4124H144.132V30.2234H140.888V30.7632H144.132V31.5463H141.309V36.6503H141.937V32.0861H147.044V35.5555C147.054 35.71 147.018 35.8292 146.942 35.9052C146.866 35.9812 146.742 36.0218 146.577 36.0218C146.557 36.0218 146.539 36.0218 146.516 36.0218C146.06 36.0218 145.728 36.0116 145.526 35.9914H145.505L145.51 36.0091C145.531 36.0902 145.551 36.2093 145.571 36.369C145.609 36.4703 145.629 36.5489 145.629 36.6072V36.6224H146.785C147.087 36.6122 147.315 36.5286 147.462 36.3766C147.609 36.2245 147.677 35.999 147.67 35.705V31.5463H144.786V30.7632H148.029H148.034Z" fill="#333333"/>
<path d="M146.684 34.5798H144.791V33.7967H146.473V33.2873H145.379C145.48 33.1631 145.624 32.968 145.809 32.7095C145.888 32.6107 145.949 32.5296 145.989 32.4688L145.999 32.4536L145.412 32.2686H145.399L145.394 32.2762C145.373 32.3142 145.325 32.3851 145.244 32.484C145.009 32.8565 144.829 33.1277 144.71 33.2873H143.678L144.142 33.0973L144.127 33.082C144.106 33.0643 144.078 33.0238 144.038 32.9629C143.8 32.6259 143.627 32.3927 143.526 32.2711L143.518 32.2635L142.981 32.484L142.991 32.4992C143.032 32.56 143.123 32.6816 143.262 32.859C143.407 33.0567 143.511 33.2012 143.577 33.2873H142.51V33.7967H144.193V34.5798H142.302V35.0892H144.193V36.5007H144.791V35.0892H146.684V34.5798Z" fill="#333333"/>
</svg>
